<svg width="199" height="150" viewBox="0 0 199 150" fill="none" xmlns="http://www.w3.org/2000/svg">
<circle cx="99" cy="75" r="75" fill="#F4F4F4"/>
<path fill-rule="evenodd" clip-rule="evenodd" d="M186.129 118.001C186.043 118.006 185.956 118.005 185.87 117.998C185.958 117.995 186.045 117.996 186.129 118.001" fill="#F0CA30"/>
<path fill-rule="evenodd" clip-rule="evenodd" d="M5.35637 32.411C4.55707 33.957 2.75521 35.7871 1 35.8985C5.28367 36.0687 6.35893 41.9056 6.94087 46C7.12206 44.5093 7.57741 42.4138 7.75897 40.923C7.91558 39.6352 8.05302 39.2089 8.64652 38.0529C9.23967 36.9019 11.6933 35.6596 13 35.5943C12.6868 35.5928 11.1258 34.9723 10.865 34.8609C10.5091 34.708 10.1601 34.542 9.82305 34.3506C9.22484 34.0138 8.66099 33.6054 8.19479 33.0994C6.73218 31.5049 6.83092 29.0133 6.53109 27C6.3781 28.8513 6.20992 30.759 5.35637 32.411" fill="white"/>
<mask id="mask0_5509_12682" style="mask-type:alpha" maskUnits="userSpaceOnUse" x="0" y="26" width="14" height="21">
<path fill-rule="evenodd" clip-rule="evenodd" d="M14 26H0V47H14V26Z" fill="white"/>
</mask>
<g mask="url(#mask0_5509_12682)">
<path fill-rule="evenodd" clip-rule="evenodd" d="M10.8194 35.5319C9.64524 36.0799 8.49787 36.8911 8.04411 37.7598C7.38212 39.0322 7.2138 39.5699 7.04284 40.9568C7.00519 41.2605 6.9551 41.5937 6.89862 41.9432C6.26073 39.4791 5.16381 36.942 3.10742 35.7851C4.30714 35.0097 5.34644 33.8048 5.9591 32.6354C6.17035 32.2313 6.34432 31.8146 6.48855 31.3913C6.73821 32.1564 7.10912 32.8811 7.68751 33.5026C8.19022 34.0414 8.80476 34.5093 9.56767 34.9333C9.91034 35.1252 10.2895 35.3087 10.7256 35.4935C10.7282 35.4947 10.7617 35.5087 10.8194 35.5319M6.93853 47.0005H6.94644C7.32451 46.9968 7.64119 46.7185 7.68638 46.3506C7.77826 45.6037 7.94508 44.6763 8.10662 43.7788C8.2708 42.8647 8.44138 41.9188 8.53778 41.1339C8.68916 39.9109 8.79987 39.557 9.38542 38.4311C9.86553 37.5122 12.1543 36.3623 13.2851 36.3065C13.6925 36.2866 14.0096 35.9523 13.9998 35.5526C13.9911 35.164 13.6767 34.8511 13.2843 34.8322C12.9925 34.7843 11.7498 34.3178 11.3217 34.1377C10.9387 33.9757 10.6081 33.8159 10.3125 33.6506C9.6878 33.3029 9.19375 32.9295 8.79987 32.5077C7.76998 31.3995 7.59413 29.6912 7.42392 28.0394C7.37572 27.5714 7.32639 27.0876 7.2571 26.6297C7.201 26.2592 6.85795 25.996 6.48742 26.0001C6.10483 26.0126 5.79266 26.3038 5.76141 26.6776C5.60966 28.4926 5.45263 30.3695 4.61893 31.9615C3.83644 33.4554 2.15849 35.0544 0.705721 35.1455C0.305438 35.1706 -0.00447008 35.4983 4.86374e-05 35.8906C0.00494391 36.2837 0.322761 36.604 0.723043 36.6195C4.32709 36.7608 5.51024 41.6255 6.19295 46.3654C6.24529 46.7296 6.56348 47.0005 6.93853 47.0005" fill="#004CA9"/>
</g>
<path fill-rule="evenodd" clip-rule="evenodd" d="M1 35.3216C5.28019 35.5015 6.35457 41.6721 6.93604 46C7.11709 44.4245 7.57207 42.2089 7.75312 40.6331C7.90996 39.2717 8.04728 38.8211 8.64031 37.599C9.23297 36.3823 11.6846 35.0691 12.9902 35H13" fill="white"/>
<mask id="mask1_5509_12682" style="mask-type:alpha" maskUnits="userSpaceOnUse" x="0" y="35" width="14" height="12">
<path fill-rule="evenodd" clip-rule="evenodd" d="M14 35H0V47H14V35Z" fill="white"/>
</mask>
<g mask="url(#mask1_5509_12682)">
<path fill-rule="evenodd" clip-rule="evenodd" d="M6.93569 47H6.94359C7.32114 46.9964 7.63771 46.722 7.68288 46.3592C7.77473 45.623 7.94186 44.7082 8.10335 43.8235C8.26747 42.9218 8.43761 41.9891 8.53435 41.2154C8.6853 40.0091 8.79596 39.6601 9.38168 38.5499C9.86086 37.6449 12.1439 36.5131 13.2758 36.4553C13.6759 36.4385 14 36.1194 14 35.7282C14 35.3145 13.6398 34.9746 13.2039 35.0015C11.7306 35.0732 8.83135 36.3945 8.04086 37.888C7.37911 39.1427 7.21047 39.6729 7.03958 41.0404C7.00231 41.3399 6.95225 41.6689 6.89579 42.0131C6.05072 38.7941 4.40124 35.4491 0.78269 35.3094C0.356204 35.2908 0.017048 35.6056 0.00048542 36.0073C-0.0164536 36.4091 0.307269 36.7475 0.722463 36.7635C4.32482 36.9029 5.50792 41.7002 6.19037 46.3737C6.24269 46.7333 6.56077 47 6.93569 47" fill="#733BE6"/>
</g>
<path fill-rule="evenodd" clip-rule="evenodd" d="M1.18555 36.0009C1.06229 36.0075 0.937555 36.0068 0.814666 35.9975C0.941245 35.9931 1.06413 35.9935 1.18555 36.0009" fill="white"/>
<path fill-rule="evenodd" clip-rule="evenodd" d="M1.02584 37C1.09776 37 1.17008 36.9975 1.2428 36.9926C1.66635 36.9652 1.9984 36.5312 2 36.0043C2.0012 35.4774 1.67115 35.0409 1.248 35.0096C1.09097 34.9987 0.932735 34.9977 0.76931 35.0036C0.345761 35.024 0.00772208 35.4516 0.000130177 35.9785C-0.00746172 36.5059 0.317791 36.9484 0.74054 36.9876C0.83444 36.9955 0.929539 37 1.02584 37" fill="#004CA9"/>
<path fill-rule="evenodd" clip-rule="evenodd" d="M13 35.6924C12.6868 35.6909 11.1258 35.0633 10.8654 34.9507C10.5091 34.796 10.1601 34.6278 9.82305 34.4346C9.22484 34.0939 8.66099 33.6809 8.19479 33.1691C6.73218 31.5561 6.83092 29.0365 6.53109 27C6.3781 28.8727 6.21028 30.8021 5.35637 32.4729C4.55707 34.0361 2.75521 35.8874 1 36" fill="white"/>
<mask id="mask2_5509_12682" style="mask-type:alpha" maskUnits="userSpaceOnUse" x="0" y="26" width="14" height="11">
<path fill-rule="evenodd" clip-rule="evenodd" d="M14 26H0V37H14V26Z" fill="white"/>
</mask>
<g mask="url(#mask2_5509_12682)">
<path fill-rule="evenodd" clip-rule="evenodd" d="M0.752769 37.0003C0.76896 37.0003 0.784775 36.9999 0.800967 36.9987C2.88596 36.8634 4.97396 34.8211 5.95903 32.8728C6.17027 32.4542 6.34424 32.0227 6.48846 31.5839C6.73812 32.3766 7.10903 33.127 7.68741 33.7711C8.19012 34.3292 8.80465 34.8138 9.56756 35.253C9.91022 35.4518 10.2894 35.6418 10.7255 35.8333C10.7466 35.8421 12.6696 36.6738 13.2435 36.6765H13.2469C13.6615 36.6765 13.9981 36.3363 14 35.9155C14.0019 35.5049 13.6841 35.1682 13.2842 35.1483C12.9923 35.0986 11.7497 34.6155 11.3216 34.4289C10.9386 34.2611 10.608 34.0956 10.3124 33.9244C9.68768 33.5643 9.19364 33.1775 8.79976 32.7405C7.76988 31.5927 7.59403 29.8233 7.42383 28.1123C7.37563 27.6276 7.3263 27.1265 7.25701 26.6522C7.20091 26.2684 6.85786 25.9958 6.48733 26C6.10475 26.013 5.79259 26.3146 5.76133 26.7018C5.60958 28.5817 5.45256 30.5258 4.61886 32.1748C3.83638 33.7221 2.15845 35.3784 0.705699 35.4728C0.290358 35.4996 -0.0248187 35.8631 0.00154018 36.2843C0.027146 36.6891 0.358891 37.0003 0.752769 37.0003" fill="#733BE6"/>
</g>
<path fill-rule="evenodd" clip-rule="evenodd" d="M14.3016 118.716C16.0127 120.425 18.2145 121.175 20.9069 120.966C23.5993 120.756 24.9634 119.14 24.9993 116.118C25.0352 113.095 23.6651 111.415 20.8889 111.078C18.1128 110.74 15.8931 111.502 14.2298 113.362C12.5665 115.222 12.5904 117.007 14.3016 118.716" fill="#733BE6"/>
<path fill-rule="evenodd" clip-rule="evenodd" d="M191.511 42.4012C192.709 43.5976 194.25 44.1225 196.135 43.976C198.019 43.8295 198.974 42.6983 199 40.5823C199.025 38.4663 198.066 37.2903 196.122 37.0543C194.179 36.8183 192.625 37.3514 191.461 38.6535C190.297 39.9557 190.313 41.2049 191.511 42.4012" fill="#733BE6"/>
<path fill-rule="evenodd" clip-rule="evenodd" d="M189.956 126H189.963C190.307 125.997 190.595 125.735 190.637 125.39C190.7 124.863 190.815 124.205 190.925 123.569C191.039 122.916 191.157 122.239 191.224 121.676C191.327 120.821 191.396 120.595 191.793 119.808C192.074 119.252 193.55 118.429 194.342 118.387C194.706 118.37 195 118.067 195 117.694C195 117.3 194.666 116.971 194.276 117.002C193.098 117.062 191.117 118.098 190.571 119.177C190.118 120.076 189.991 120.473 189.874 121.416C189.222 119.302 188.036 117.318 185.713 117.224C185.326 117.212 185.016 117.507 185.001 117.889C184.985 118.272 185.28 118.594 185.658 118.61C188.024 118.705 188.815 122.097 189.277 125.403C189.324 125.746 189.614 126 189.956 126" fill="#733BE6"/>
<path fill-rule="evenodd" clip-rule="evenodd" d="M185.686 119C185.7 119 185.715 119 185.73 118.999C187.231 118.9 188.728 117.433 189.429 116.033C189.509 115.874 189.581 115.713 189.646 115.55C189.816 115.96 190.042 116.348 190.352 116.696C190.707 117.094 191.158 117.452 191.691 117.761C191.931 117.902 192.198 118.036 192.506 118.173C192.65 118.236 193.89 118.772 194.311 118.775H194.314C194.692 118.775 194.998 118.462 195 118.075C195.002 117.702 194.719 117.396 194.361 117.371C194.147 117.327 193.338 117.009 193.049 116.883C192.791 116.768 192.567 116.656 192.37 116.54C191.96 116.302 191.622 116.036 191.365 115.749C190.692 114.991 190.573 113.789 190.459 112.625C190.425 112.285 190.39 111.934 190.342 111.599C190.291 111.246 189.978 110.994 189.641 111C189.292 111.012 189.008 111.289 188.979 111.645C188.876 112.937 188.768 114.274 188.208 115.392C187.7 116.405 186.575 117.536 185.643 117.597C185.264 117.621 184.977 117.955 185.001 118.342C185.024 118.714 185.326 119 185.686 119" fill="#733BE6"/>
<path d="M115.666 75.0003V65.0003C115.666 63.167 114.166 61.667 112.333 61.667H85.6663C83.833 61.667 82.333 63.167 82.333 65.0003V85.0003C82.333 86.8337 83.833 88.3337 85.6663 88.3337H93.9997V85.0003H85.6663V75.0003H115.666ZM85.6663 65.0003H112.333V68.3337H85.6663V65.0003Z" fill="#733BE6"/>
<path d="M106.333 77C102.333 77 99 80.3333 99 84.3333C99 88.3333 102.333 91.6667 106.333 91.6667C110.333 91.6667 113.667 88.3333 113.667 84.3333C113.667 80.3333 110.333 77 106.333 77ZM106.333 90C103.167 90 100.667 87.5 100.667 84.3333C100.667 81.1667 103.167 78.6667 106.333 78.6667C109.5 78.6667 112 81.1667 112 84.3333C112 87.5 109.333 90 106.333 90Z" fill="#733BE6" stroke="#733BE6" stroke-width="0.5" stroke-miterlimit="10"/>
<path d="M106.833 84.3337V81.3337C106.833 81.0003 106.5 80.667 106.167 80.667C105.833 80.667 105.5 81.0003 105.5 81.3337V84.5003C105.5 84.667 105.5 84.8337 105.667 85.0003L108 87.3337C108.167 87.5003 108.667 87.5003 108.833 87.3337C109 87.167 109 86.667 108.833 86.5003L106.833 84.3337Z" fill="#733BE6" stroke="#733BE6" stroke-width="0.5" stroke-miterlimit="10"/>
</svg>
