<svg width="538" height="85" viewBox="0 0 538 85" fill="none" xmlns="http://www.w3.org/2000/svg">
<g opacity="0.386312">
<mask id="mask0_2487_46619" style="mask-type:alpha" maskUnits="userSpaceOnUse" x="515" y="20" width="23" height="23">
<path fill-rule="evenodd" clip-rule="evenodd" d="M538 20H515V43H538V20Z" fill="white"/>
</mask>
<g mask="url(#mask0_2487_46619)">
<path fill-rule="evenodd" clip-rule="evenodd" d="M537.052 43C537.108 43 537.164 42.9994 537.221 42.9983C537.66 42.9886 538.009 42.6339 538 42.2048C537.991 41.7813 537.636 41.4442 537.204 41.4442H537.187C534.001 41.5219 530.942 39.3309 530.017 36.3765C529.81 35.7135 529.671 34.9864 529.523 34.2162C529.11 32.0604 528.642 29.6162 526.379 28.6467C525.49 28.2658 524.575 28.2505 523.69 28.2352C523.414 28.2301 523.138 28.2261 522.866 28.2085C520.926 28.0848 518.962 26.9825 517.74 25.333C516.717 23.9508 516.362 22.4029 516.741 20.972C516.851 20.5565 516.596 20.1325 516.17 20.0246C515.743 19.9179 515.31 20.1677 515.2 20.5832C514.7 22.4699 515.144 24.4804 516.451 26.2434C517.943 28.259 520.362 29.6066 522.762 29.7598C523.06 29.7785 523.361 29.7842 523.662 29.7899C524.424 29.8024 525.143 29.8149 525.739 30.0703C527.232 30.71 527.585 32.5519 527.958 34.5017C528.108 35.2799 528.262 36.0847 528.495 36.8312C529.604 40.3736 533.263 43 537.052 43" fill="#959696"/>
</g>
<path fill-rule="evenodd" clip-rule="evenodd" d="M485.318 30C487.911 30 490.522 28.8618 492.212 26.7998C492.295 26.6986 492.376 26.5956 492.457 26.4921C492.73 26.1434 492.989 25.8134 493.286 25.6309C493.749 25.3454 494.397 25.3527 495.084 25.3508L495.198 25.3514H495.284C498.408 25.3514 501.496 24.8251 504.461 23.7863C504.875 23.6411 505.097 23.1738 504.959 22.742C504.82 22.3102 504.374 22.076 503.959 22.2229C501.155 23.2051 498.237 23.7026 495.284 23.7026H495.202L495.09 23.702C494.263 23.6983 493.321 23.6941 492.484 24.2102C491.945 24.5415 491.568 25.022 491.235 25.4466C491.161 25.5411 491.087 25.6351 491.012 25.7266C488.957 28.2355 485.242 29.0816 482.372 27.6965C481.812 27.4261 481.272 27.078 480.701 26.7107C479.547 25.9675 478.353 25.1985 476.907 25.0449C475.476 24.8944 474.167 25.3767 472.898 25.8447L472.66 25.932C470.328 26.7859 467.304 27.661 464.604 26.8365C462.268 26.1241 460.083 23.5616 460.682 21.0233C460.787 20.5806 460.528 20.1338 460.104 20.0254C459.68 19.9128 459.253 20.1856 459.148 20.6276C458.323 24.1229 461.074 27.4785 464.161 28.4198C467.293 29.3755 470.628 28.4246 473.183 27.4881L473.423 27.4002C474.579 26.9738 475.671 26.574 476.746 26.686C477.833 26.801 478.823 27.4394 479.872 28.1144C480.457 28.4914 481.063 28.8817 481.709 29.1936C482.838 29.7386 484.076 30 485.318 30" fill="#959696"/>
<mask id="mask1_2487_46619" style="mask-type:alpha" maskUnits="userSpaceOnUse" x="449" y="0" width="5" height="19">
<path fill-rule="evenodd" clip-rule="evenodd" d="M454 0H449V19H454V0Z" fill="white"/>
</mask>
<g mask="url(#mask1_2487_46619)">
<path fill-rule="evenodd" clip-rule="evenodd" d="M453.014 19C453.28 19 453.54 18.8727 453.697 18.6387C453.944 18.2691 453.838 17.7736 453.461 17.5319C450.948 15.919 449.905 12.4207 451.136 9.73433C451.177 9.64327 451.221 9.55162 451.266 9.45997C451.532 8.90892 451.833 8.28433 451.77 7.5424C451.718 6.9283 451.43 6.43738 451.176 6.00425C451.092 5.86182 451.008 5.71938 450.936 5.57345C450.573 4.83269 450.648 3.88937 451.138 3.04879C451.627 2.20762 452.418 1.66533 453.254 1.59587C453.702 1.55851 454.035 1.17207 453.997 0.731935C453.96 0.292381 453.56 -0.0345116 453.117 0.00284761C451.747 0.116093 450.478 0.958425 449.723 2.25549C448.967 3.55314 448.872 5.05217 449.467 6.26693C449.556 6.44789 449.659 6.62476 449.763 6.80163C449.957 7.13144 450.124 7.41631 450.145 7.67549C450.172 7.98895 449.988 8.3713 449.792 8.77583C449.744 8.8774 449.695 8.97839 449.649 9.07879C448.104 12.4522 449.413 16.8448 452.568 18.8692C452.707 18.958 452.861 19 453.014 19" fill="#959696"/>
</g>
<path fill-rule="evenodd" clip-rule="evenodd" d="M60.4337 44C60.714 44 60.9943 43.9871 61.2746 43.9597C61.7184 43.9165 62.0412 43.5395 61.9957 43.1176C61.9497 42.6964 61.5579 42.391 61.1094 42.4331C57.9156 42.7434 54.6109 40.8443 53.4247 38.0107C53.1586 37.3748 52.9562 36.67 52.742 35.9244C52.1418 33.8353 51.4614 31.4684 49.0885 30.6919C48.1579 30.3877 47.2302 30.4426 46.3332 30.4981C46.0535 30.5154 45.7743 30.5323 45.497 30.5367C43.5189 30.5872 41.4422 29.6376 40.066 28.1098C38.9141 26.8314 38.4237 25.3356 38.6857 23.8992C38.7624 23.4819 38.4674 23.0847 38.0277 23.0118C37.5893 22.9379 37.1697 23.2185 37.0936 23.6365C36.7478 25.5317 37.3674 27.4746 38.838 29.107C40.5193 30.9726 43.0763 32.1048 45.5229 32.0706C45.8257 32.0661 46.1308 32.0477 46.4365 32.0292C47.2078 31.9832 47.9377 31.9373 48.5615 32.1429C50.1271 32.6544 50.6399 34.4392 51.1828 36.3283C51.3994 37.0818 51.6231 37.8616 51.9229 38.577C53.2624 41.777 56.8209 44 60.4337 44" fill="#959696"/>
<path fill-rule="evenodd" clip-rule="evenodd" d="M-12.4087 36C-9.85753 36 -7.37848 35.1095 -5.39708 34.2658L-5.17019 34.1692C-4.04786 33.6892 -3.00116 33.2467 -1.90424 33.2555C-0.81193 33.2765 0.225532 33.7814 1.32477 34.3166C1.93847 34.6151 2.57353 34.9246 3.24323 35.1591C6.85674 36.4271 11.2797 35.1348 13.5353 32.1547C13.6092 32.0571 13.6819 31.9567 13.7547 31.8557C14.0006 31.5158 14.2327 31.1947 14.515 31.0043C14.9544 30.7086 15.6004 30.66 16.2845 30.6093L16.4012 30.601C19.5488 30.3637 22.6173 29.6404 25.5212 28.4496C25.9225 28.2852 26.1078 27.841 25.9358 27.4576C25.7637 27.0741 25.2984 26.8975 24.8977 27.0608C22.1531 28.1864 19.2526 28.8701 16.277 29.0941L16.1616 29.1029C15.3354 29.1642 14.3984 29.2343 13.604 29.7695C13.0925 30.1143 12.753 30.5833 12.454 30.9966C12.3881 31.0882 12.3217 31.1798 12.2542 31.2692C10.3992 33.7207 6.75975 34.7812 3.78765 33.7405C3.20686 33.5369 2.64108 33.2616 2.04181 32.9703C0.832883 32.381 -0.417614 31.7729 -1.87248 31.7448C-3.29733 31.7222 -4.58362 32.2629 -5.81622 32.7898L-6.04023 32.8853C-8.29932 33.8465 -11.2466 34.8805 -14.0068 34.3392C-16.3935 33.8702 -18.7738 31.7001 -18.3737 29.3358C-18.3033 28.9242 -18.5966 28.5363 -19.0273 28.4695C-19.4608 28.4016 -19.8644 28.6819 -19.9342 29.0941C-20.4856 32.3495 -17.4789 35.1999 -14.3255 35.819C-13.6864 35.9443 -13.0455 36 -12.4087 36" fill="#959696"/>
<path fill-rule="evenodd" clip-rule="evenodd" d="M491.791 69C492.108 69 492.408 68.8065 492.529 68.4915C493.669 65.5315 497.422 63.7885 500.402 64.8317C500.926 65.016 501.444 65.2723 501.992 65.5443C503.212 66.1487 504.468 66.7764 505.937 66.6392C506.748 66.5654 507.46 66.2649 508.148 65.9749C508.293 65.9139 508.437 65.8535 508.582 65.7948C512.866 64.0715 518.029 64.7393 521.738 67.4965C521.941 67.6476 522.203 67.6929 522.445 67.6156C522.686 67.5395 522.877 67.3523 522.958 67.1117C524.82 61.5899 530.372 57.5913 536.168 57.5913C536.182 57.5919 536.196 57.5895 536.209 57.5913C536.645 57.5913 536.999 57.2368 537 56.798C537.002 56.3586 536.649 56.0012 536.212 56H536.168C530.059 56 524.194 59.9887 521.826 65.6297C517.771 63.0504 512.455 62.5227 507.994 64.3168C507.842 64.3784 507.689 64.4423 507.537 64.5074C506.932 64.7614 506.361 65.002 505.793 65.0543C504.775 65.1427 503.762 64.6475 502.692 64.1169C502.125 63.8356 501.539 63.545 500.923 63.3288C497.121 61.9932 492.508 64.1401 491.054 67.9161C490.896 68.3264 491.098 68.7873 491.506 68.9459C491.599 68.9826 491.696 69 491.791 69" fill="#959696"/>
<path fill-rule="evenodd" clip-rule="evenodd" d="M427.785 85C428.139 85 428.46 84.7614 428.547 84.4057C429.995 78.5013 436.762 74.3265 442.742 75.6389L443.001 75.6975C443.838 75.8895 444.786 76.1054 445.724 75.7242C446.53 75.3958 447.027 74.7384 447.465 74.1589C447.567 74.0248 447.668 73.8901 447.773 73.7623C450.8 70.0527 457.084 71.3675 460.561 72.4811C461.366 72.7407 462.369 73.0617 463.383 72.7436C464.249 72.4714 464.827 71.8266 465.338 71.2584L465.528 71.0482C467.443 68.9585 470.34 67.6886 473.476 67.5653C476.613 67.4403 479.602 68.4806 481.679 70.4124C481.995 70.7067 482.491 70.6908 482.787 70.3783C483.084 70.0647 483.068 69.5726 482.752 69.2783C480.372 67.0614 476.963 65.8762 473.414 66.0103C469.861 66.1506 466.563 67.6057 464.367 70.0022L464.166 70.2238C463.754 70.6834 463.364 71.1169 462.91 71.2595C462.375 71.4271 461.667 71.2004 461.044 71.0004C457.184 69.7647 450.169 68.3517 446.554 72.7828C446.437 72.9254 446.324 73.0754 446.21 73.2248C445.863 73.685 445.534 74.1191 445.127 74.285C444.652 74.4776 444.022 74.3333 443.354 74.1816L443.083 74.1202C436.194 72.6066 428.691 77.2389 427.022 84.0381C426.92 84.4551 427.178 84.8756 427.599 84.9773C427.662 84.9926 427.724 85 427.785 85" fill="#959696"/>
<path fill-rule="evenodd" clip-rule="evenodd" d="M450.21 62C450.643 62 450.995 61.6491 451 61.2128C451.044 56.6977 447.994 52.3789 443.746 50.9446C443.12 50.7331 442.462 50.571 441.825 50.4147C440.139 50.0005 438.546 49.609 437.719 48.3878C437.427 47.9556 437.242 47.424 437.047 46.8611L436.925 46.5119C434.79 40.5363 429.445 35.7464 423.306 34.3091C422.963 34.2284 422.613 34.1564 422.262 34.0843C420.913 33.806 419.639 33.5435 418.665 32.7946C417.957 32.2497 417.436 31.4637 416.885 30.6312C416.676 30.3151 416.466 29.9997 416.246 29.6947C412.981 25.1749 406.952 23.0103 401.589 24.4336C401.167 24.5452 400.915 24.9803 401.026 25.4055C401.137 25.8296 401.568 26.0858 401.99 25.972C406.666 24.7345 412.124 26.6923 414.97 30.6312C415.178 30.9187 415.375 31.2168 415.572 31.5142C416.171 32.4187 416.79 33.3529 417.707 34.0593C418.968 35.0289 420.482 35.3409 421.946 35.643C422.283 35.7121 422.619 35.7813 422.949 35.8591C428.579 37.1767 433.482 41.5698 435.44 47.0511L435.557 47.3863C435.778 48.0218 436.005 48.6789 436.416 49.2848C437.584 51.0096 439.55 51.493 441.451 51.9606C442.084 52.1158 442.681 52.2627 443.244 52.4533C446.803 53.6553 449.458 57.414 449.421 61.1965C449.417 61.6357 449.766 61.9954 450.202 62H450.21Z" fill="#959696"/>
<path fill-rule="evenodd" clip-rule="evenodd" d="M321.789 59C322.153 59.0006 322.48 58.745 322.559 58.3712C323.174 55.4536 324.804 50.3823 328.807 49.2029C329.151 49.1014 329.51 49.0296 329.89 48.9536C330.458 48.84 331.045 48.723 331.625 48.4946C332.827 48.0228 333.765 47.1732 334.673 46.3513C335.6 45.5115 336.476 44.7181 337.536 44.4185C338.349 44.1878 339.259 44.2527 340.224 44.3217C341.543 44.415 342.907 44.5123 344.184 43.8563C345.699 43.0767 346.47 41.5269 347.15 40.1591C347.327 39.8039 347.502 39.4497 347.69 39.1113C350.078 34.7981 355.633 32.5157 360.337 33.9119L360.429 33.9397C360.979 34.1043 361.664 34.3083 362.374 34.0533C363.274 33.7282 363.679 32.8524 363.975 32.2132L364.024 32.1077C366.169 27.5035 372.298 25.2519 376.882 27.3789C377.277 27.5626 377.746 27.3882 377.928 26.9906C378.109 26.593 377.937 26.1212 377.542 25.9381C372.213 23.4645 365.09 26.0841 362.597 31.4331L362.547 31.542C362.348 31.9709 362.123 32.4572 361.841 32.5592C361.617 32.6392 361.243 32.5273 360.879 32.4183L360.783 32.3894C355.401 30.7897 349.046 33.4042 346.313 38.3381C346.115 38.6969 345.928 39.0713 345.741 39.4486C345.114 40.7092 344.522 41.9002 343.467 42.4427C342.581 42.8976 341.489 42.8194 340.335 42.7377C339.278 42.6635 338.187 42.5864 337.109 42.8901C335.695 43.2906 334.64 44.2463 333.619 45.1713C332.78 45.9306 331.987 46.6487 331.052 47.0161C330.602 47.1929 330.107 47.292 329.584 47.3963C329.186 47.4757 328.776 47.558 328.364 47.6791C323.815 49.0197 321.858 54.0545 321.017 58.042C320.927 58.4703 321.199 58.8916 321.624 58.9832C321.68 58.9942 321.735 59 321.789 59" fill="#959696"/>
<path fill-rule="evenodd" clip-rule="evenodd" d="M276.794 85C276.808 85 276.823 85 276.837 84.9988C277.27 84.9751 277.602 84.6018 277.578 84.1649C277.432 81.4577 279.22 78.7047 281.738 77.762C282.306 77.549 282.91 77.4136 283.551 77.27C284.523 77.0519 285.529 76.8262 286.461 76.3042C287.623 75.6525 288.463 74.6589 289.275 73.6988C289.449 73.4922 289.622 73.2867 289.799 73.0859C291.579 71.0552 293.427 69.8538 295.293 69.5135C297.161 69.172 299.622 69.8775 300.502 71.8538C300.617 72.1148 300.865 72.2925 301.148 72.3185C301.428 72.3365 301.704 72.2132 301.865 71.9771C304.936 67.455 311.113 65.4202 316.235 67.2449C316.874 67.4729 317.491 67.7507 318.143 68.0453C318.967 68.4162 319.818 68.8005 320.72 69.0742C322.104 69.495 323.531 69.6356 324.91 69.7716C325.795 69.8584 326.709 69.9487 327.578 70.1119C328.743 70.3312 331.552 71.0818 332.493 73.3052C332.664 73.7075 333.125 73.8938 333.523 73.7225C333.922 73.5506 334.107 73.0848 333.937 72.6825C333.064 70.6211 330.852 69.1165 327.866 68.5545C326.93 68.3774 325.98 68.2843 325.062 68.194C323.698 68.0597 322.409 67.933 321.173 67.5562C320.367 67.312 319.598 66.9648 318.783 66.5979C318.131 66.3039 317.456 66.0001 316.757 65.7506C311.36 63.8276 304.92 65.7101 301.279 70.1333C299.917 68.4232 297.433 67.5123 295.015 67.9538C292.794 68.3589 290.643 69.7317 288.624 72.0355C288.441 72.2433 288.261 72.4563 288.08 72.6692C287.326 73.5622 286.613 74.4054 285.699 74.9181C284.966 75.3284 284.113 75.52 283.21 75.7226C282.546 75.8719 281.86 76.0252 281.191 76.2758C278.004 77.4697 275.826 80.8234 276.011 84.2506C276.033 84.6736 276.38 85 276.794 85" fill="#959696"/>
<path fill-rule="evenodd" clip-rule="evenodd" d="M254.22 61C254.299 61 254.378 60.988 254.458 60.9628C254.867 60.8307 255.094 60.3902 254.963 59.9784C252.334 51.7012 243.839 45.8837 235.219 46.4248C235.036 46.4363 234.853 46.45 234.668 46.4643C233.727 46.5381 232.838 46.6062 232.061 46.3368C230.952 45.9512 230.161 44.9227 229.324 43.833C229.124 43.5722 228.924 43.3125 228.72 43.0625C224.526 37.9028 216.944 35.9185 210.757 38.2495C209.526 35.1257 206.096 33.3844 203.213 33.075C199.838 32.7089 196.496 33.7545 193.548 34.6755C193.137 34.8042 192.907 35.2435 193.035 35.6559C193.163 36.0689 193.601 36.3 194.01 36.1719C196.814 35.2956 199.99 34.3031 203.048 34.632C205.662 34.9134 208.8 36.5506 209.516 39.4816C209.571 39.707 209.722 39.8958 209.93 39.9982C210.137 40.1006 210.379 40.1057 210.59 40.0107C216.29 37.4584 223.565 39.1973 227.513 44.0532C227.708 44.2929 227.898 44.5417 228.09 44.7906C228.987 45.9575 230.003 47.28 231.553 47.8172C232.635 48.1935 233.73 48.1077 234.788 48.0265C234.965 48.0128 235.142 47.9991 235.318 47.9876C243.125 47.502 251.1 52.9665 253.478 60.4543C253.584 60.7872 253.89 61 254.22 61" fill="#959696"/>
<path fill-rule="evenodd" clip-rule="evenodd" d="M121.778 54C121.864 54 121.952 53.985 122.038 53.954C124.048 53.2288 124.606 51.0882 125.098 49.1996C125.225 48.709 125.346 48.2455 125.488 47.813C126.596 44.4354 130.331 42.0568 133.815 42.5186L134.122 42.5623C134.769 42.6589 135.502 42.7676 136.234 42.4829C137.324 42.0591 137.82 41.0383 138.257 40.1376C138.334 39.9789 138.41 39.8219 138.489 39.6695C139.598 37.5416 141.936 36.1142 144.31 36.1142H144.328C146.249 36.12 148.057 36.9475 149.971 37.824C151.978 38.7419 154.057 39.6983 156.337 39.6695C159.723 39.6379 162.412 37.5566 165.012 35.5443C166.926 34.0634 168.904 32.5324 171.103 31.8906C174.523 30.8922 178.513 32.2915 180.591 35.2176C180.843 35.5707 181.329 35.6501 181.677 35.3965C182.025 35.1423 182.104 34.65 181.853 34.2974C179.403 30.8503 174.7 29.2003 170.672 30.3775C168.193 31.101 166.096 32.7234 164.068 34.2923C161.56 36.2338 159.191 38.0678 156.323 38.0949C154.38 38.1058 152.549 37.2753 150.611 36.3885C148.632 35.4827 146.586 34.5459 144.332 34.5396H144.31C141.374 34.5396 138.485 36.3034 137.115 38.9351C137.029 39.0996 136.946 39.2704 136.862 39.4423C136.521 40.1457 136.198 40.8099 135.678 41.0124C135.325 41.1487 134.85 41.0785 134.348 41.0038L134.014 40.956C129.76 40.3993 125.366 43.1903 124.013 47.3167C123.856 47.7958 123.723 48.3053 123.595 48.7976C123.162 50.4568 122.754 52.0234 121.517 52.4702C121.112 52.6163 120.901 53.0666 121.045 53.4767C121.159 53.7987 121.458 54 121.778 54" fill="#959696"/>
<path fill-rule="evenodd" clip-rule="evenodd" d="M157.212 84C157.32 84 157.429 83.9766 157.533 83.928C157.931 83.7424 158.109 83.2567 157.931 82.8418C156.44 79.3643 152.491 78.1792 149.451 78.5436C146.539 78.896 143.917 80.3808 141.573 81.8236C140.186 78.9459 137.589 76.7184 134.319 75.6377C130.929 74.5191 127.45 74.8404 124.678 76.5107C120.932 73.5063 115.436 73.1472 111.38 75.7097C111.008 75.9451 110.889 76.4506 111.114 76.8385C111.34 77.2281 111.823 77.3536 112.196 77.1159C115.852 74.8067 120.859 75.2366 124.102 78.1401C124.368 78.3791 124.753 78.4055 125.047 78.2044C127.46 76.5563 130.748 76.1822 133.843 77.2059C136.938 78.2278 139.42 80.5075 140.484 83.3035C140.569 83.5275 140.744 83.701 140.963 83.7791C141.181 83.8559 141.422 83.8295 141.62 83.707C144.018 82.2162 146.736 80.5279 149.632 80.1773C152.199 79.8663 155.378 80.9128 156.492 83.5125C156.623 83.8181 156.911 84 157.212 84" fill="#959696"/>
<path fill-rule="evenodd" clip-rule="evenodd" d="M112.194 68C112.601 68 112.946 67.6693 112.977 67.2338C113.164 64.651 112.197 61.9973 110.325 59.9542C108.453 57.9105 105.969 56.8154 103.517 56.9117C103.222 56.925 102.925 56.9541 102.628 56.9832C101.94 57.0492 101.289 57.1134 100.709 56.9571C99.7993 56.7112 99.0643 55.9353 98.2856 55.1145C97.948 54.7577 97.5989 54.3889 97.2245 54.0533C95.3973 52.4136 92.8541 51.7073 90.2505 52.1114C87.9003 52.4772 85.8474 53.6947 84.5135 55.4901C82.3613 54.5003 79.7331 54.5245 77.3409 55.5827C74.7092 56.7469 72.7236 59.0032 72.0293 61.6193C71.9122 62.0603 72.1563 62.5182 72.5743 62.6412C72.9935 62.7654 73.427 62.5073 73.5436 62.0664C74.1092 59.9348 75.756 58.0825 77.949 57.1122C80.1414 56.1436 82.5479 56.2024 84.386 57.2703C84.7478 57.4805 85.2031 57.3599 85.4265 56.9935C86.4814 55.269 88.3229 54.0878 90.4802 53.7529C92.637 53.4143 94.7237 53.9867 96.2058 55.3168C96.532 55.6094 96.8438 55.9383 97.1734 56.2866C98.0669 57.2303 98.9914 58.2061 100.32 58.5641C101.162 58.7924 101.981 58.7125 102.773 58.6344C103.044 58.6083 103.315 58.581 103.584 58.5695C105.587 58.472 107.634 59.4048 109.194 61.1069C110.755 62.8096 111.562 64.9968 111.409 67.1072C111.376 67.5639 111.7 67.9624 112.133 67.9976C112.154 67.9994 112.174 68 112.194 68" fill="#959696"/>
</g>
</svg>
