<svg width="539" height="85" viewBox="0 0 539 85" fill="none" xmlns="http://www.w3.org/2000/svg">
<g opacity="0.386312">
<path fill-rule="evenodd" clip-rule="evenodd" d="M516.318 30C518.911 30 521.522 28.8618 523.212 26.7998C523.295 26.6986 523.376 26.5956 523.457 26.4921C523.73 26.1434 523.989 25.8134 524.286 25.6309C524.749 25.3454 525.397 25.3527 526.084 25.3508L526.198 25.3514H526.284C529.408 25.3514 532.496 24.8251 535.461 23.7863C535.875 23.6411 536.097 23.1738 535.959 22.742C535.82 22.3102 535.374 22.076 534.959 22.2229C532.155 23.2051 529.237 23.7026 526.284 23.7026H526.202L526.09 23.702C525.263 23.6983 524.321 23.6941 523.484 24.2102C522.945 24.5415 522.568 25.022 522.235 25.4466C522.161 25.5411 522.087 25.6351 522.012 25.7266C519.957 28.2355 516.242 29.0816 513.372 27.6965C512.812 27.4261 512.272 27.078 511.701 26.7107C510.547 25.9675 509.353 25.1985 507.907 25.0449C506.476 24.8944 505.167 25.3767 503.898 25.8447L503.66 25.932C501.328 26.7859 498.304 27.661 495.604 26.8365C493.268 26.1241 491.083 23.5616 491.682 21.0233C491.787 20.5806 491.528 20.1338 491.104 20.0254C490.68 19.9128 490.253 20.1856 490.148 20.6276C489.323 24.1229 492.074 27.4785 495.161 28.4198C498.293 29.3755 501.628 28.4246 504.183 27.4881L504.423 27.4002C505.579 26.9738 506.671 26.574 507.746 26.686C508.833 26.801 509.823 27.4394 510.872 28.1144C511.457 28.4914 512.063 28.8817 512.709 29.1936C513.838 29.7386 515.076 30 516.318 30" fill="#959696"/>
<mask id="mask0_2487_46641" style="mask-type:alpha" maskUnits="userSpaceOnUse" x="480" y="0" width="5" height="19">
<path fill-rule="evenodd" clip-rule="evenodd" d="M485 0H480V19H485V0Z" fill="white"/>
</mask>
<g mask="url(#mask0_2487_46641)">
<path fill-rule="evenodd" clip-rule="evenodd" d="M484.014 19C484.28 19 484.54 18.8727 484.697 18.6387C484.944 18.2691 484.838 17.7736 484.461 17.5319C481.948 15.919 480.905 12.4207 482.136 9.73433C482.177 9.64327 482.221 9.55162 482.266 9.45997C482.532 8.90892 482.833 8.28433 482.77 7.5424C482.718 6.9283 482.43 6.43738 482.176 6.00425C482.092 5.86182 482.008 5.71938 481.936 5.57345C481.573 4.83269 481.648 3.88937 482.138 3.04879C482.627 2.20762 483.418 1.66533 484.254 1.59587C484.702 1.55851 485.035 1.17207 484.997 0.731935C484.96 0.292381 484.56 -0.0345116 484.117 0.00284761C482.747 0.116093 481.478 0.958425 480.723 2.25549C479.967 3.55314 479.872 5.05217 480.467 6.26693C480.556 6.44789 480.659 6.62476 480.763 6.80163C480.957 7.13144 481.124 7.41631 481.145 7.67549C481.172 7.98895 480.988 8.3713 480.792 8.77583C480.744 8.8774 480.695 8.97839 480.649 9.07879C479.104 12.4522 480.413 16.8448 483.568 18.8692C483.707 18.958 483.861 19 484.014 19" fill="#959696"/>
</g>
<path fill-rule="evenodd" clip-rule="evenodd" d="M91.4337 44C91.714 44 91.9943 43.9871 92.2746 43.9597C92.7184 43.9165 93.0412 43.5395 92.9957 43.1176C92.9497 42.6964 92.5579 42.391 92.1094 42.4331C88.9156 42.7434 85.6109 40.8443 84.4247 38.0107C84.1586 37.3748 83.9562 36.67 83.742 35.9244C83.1418 33.8353 82.4614 31.4684 80.0885 30.6919C79.1579 30.3877 78.2302 30.4426 77.3332 30.4981C77.0535 30.5154 76.7743 30.5323 76.497 30.5367C74.5189 30.5872 72.4422 29.6376 71.066 28.1098C69.9141 26.8314 69.4237 25.3356 69.6857 23.8992C69.7624 23.4819 69.4674 23.0847 69.0277 23.0118C68.5893 22.9379 68.1697 23.2185 68.0936 23.6365C67.7478 25.5317 68.3674 27.4746 69.838 29.107C71.5193 30.9726 74.0763 32.1048 76.5229 32.0706C76.8257 32.0661 77.1308 32.0477 77.4365 32.0292C78.2078 31.9832 78.9377 31.9373 79.5615 32.1429C81.1271 32.6544 81.6399 34.4392 82.1828 36.3283C82.3994 37.0818 82.6231 37.8616 82.9229 38.577C84.2624 41.777 87.8209 44 91.4337 44" fill="#959696"/>
<path fill-rule="evenodd" clip-rule="evenodd" d="M18.5913 36C21.1425 36 23.6215 35.1095 25.6029 34.2658L25.8298 34.1692C26.9521 33.6892 27.9988 33.2467 29.0958 33.2555C30.1881 33.2765 31.2255 33.7814 32.3248 34.3166C32.9385 34.6151 33.5735 34.9246 34.2432 35.1591C37.8567 36.4271 42.2797 35.1348 44.5353 32.1547C44.6092 32.0571 44.6819 31.9567 44.7547 31.8557C45.0006 31.5158 45.2327 31.1947 45.515 31.0043C45.9544 30.7086 46.6004 30.66 47.2845 30.6093L47.4012 30.601C50.5488 30.3637 53.6173 29.6404 56.5212 28.4496C56.9225 28.2852 57.1078 27.841 56.9358 27.4576C56.7637 27.0741 56.2984 26.8975 55.8977 27.0608C53.1531 28.1864 50.2526 28.8701 47.277 29.0941L47.1616 29.1029C46.3354 29.1642 45.3984 29.2343 44.604 29.7695C44.0925 30.1143 43.753 30.5833 43.454 30.9966C43.3881 31.0882 43.3217 31.1798 43.2542 31.2692C41.3992 33.7207 37.7597 34.7812 34.7877 33.7405C34.2069 33.5369 33.6411 33.2616 33.0418 32.9703C31.8329 32.381 30.5824 31.7729 29.1275 31.7448C27.7027 31.7222 26.4164 32.2629 25.1838 32.7898L24.9598 32.8853C22.7007 33.8465 19.7534 34.8805 16.9932 34.3392C14.6065 33.8702 12.2262 31.7001 12.6263 29.3358C12.6967 28.9242 12.4034 28.5363 11.9727 28.4695C11.5392 28.4016 11.1356 28.6819 11.0658 29.0941C10.5144 32.3495 13.5211 35.1999 16.6745 35.819C17.3136 35.9443 17.9545 36 18.5913 36" fill="#959696"/>
<mask id="mask1_2487_46641" style="mask-type:alpha" maskUnits="userSpaceOnUse" x="0" y="9" width="6" height="19">
<path fill-rule="evenodd" clip-rule="evenodd" d="M6 9H0V28H6V9Z" fill="white"/>
</mask>
<g mask="url(#mask1_2487_46641)">
<path fill-rule="evenodd" clip-rule="evenodd" d="M5.16825 28C5.46262 28 5.7485 27.8485 5.89902 27.5816C6.11813 27.1925 5.96882 26.7063 5.5658 26.495C2.87519 25.0849 1.51865 21.673 2.54197 18.8907C2.57657 18.7959 2.6142 18.7011 2.65122 18.6057C2.87519 18.0346 3.12829 17.3863 3.00143 16.6508C2.89643 16.0411 2.56261 15.5736 2.26763 15.161C2.17052 15.0253 2.0728 14.8901 1.98722 14.7497C1.55568 14.0393 1.55203 13.0903 1.97872 12.2114C2.40541 11.3325 3.16349 10.7263 4.00594 10.5906C4.45872 10.5174 4.76402 10.1049 4.68876 9.66841C4.61289 9.2319 4.18499 8.94109 3.7322 9.01013C2.34957 9.23307 1.13142 10.1757 0.473483 11.5321C-0.185059 12.889 -0.155319 14.3945 0.552993 15.5601C0.65921 15.7339 0.778779 15.9024 0.898955 16.0703C1.12292 16.3845 1.31714 16.6555 1.36145 16.9129C1.41486 17.2242 1.26009 17.6209 1.09621 18.0405C1.05494 18.1458 1.01367 18.2505 0.975431 18.3547C-0.309484 21.8491 1.39362 26.1323 4.77191 27.9029C4.89816 27.969 5.03411 28 5.16825 28" fill="#959696"/>
</g>
<path fill-rule="evenodd" clip-rule="evenodd" d="M522.791 69C523.108 69 523.408 68.8065 523.529 68.4915C524.669 65.5315 528.422 63.7885 531.402 64.8317C531.926 65.016 532.444 65.2723 532.992 65.5443C534.212 66.1487 535.468 66.7764 536.937 66.6392C537.748 66.5654 538.46 66.2649 539.148 65.9749C539.293 65.9139 539.437 65.8535 539.582 65.7948C543.866 64.0715 549.029 64.7393 552.738 67.4965C552.941 67.6476 553.203 67.6929 553.445 67.6156C553.686 67.5395 553.877 67.3523 553.958 67.1117C555.82 61.5899 561.372 57.5913 567.168 57.5913C567.182 57.5919 567.196 57.5895 567.209 57.5913C567.645 57.5913 567.999 57.2368 568 56.798C568.002 56.3586 567.649 56.0012 567.212 56H567.168C561.059 56 555.194 59.9887 552.826 65.6297C548.771 63.0504 543.455 62.5227 538.994 64.3168C538.842 64.3784 538.689 64.4423 538.537 64.5074C537.932 64.7614 537.361 65.002 536.793 65.0543C535.775 65.1427 534.762 64.6475 533.692 64.1169C533.125 63.8356 532.539 63.545 531.923 63.3288C528.121 61.9932 523.508 64.1401 522.054 67.9161C521.896 68.3264 522.098 68.7873 522.506 68.9459C522.599 68.9826 522.696 69 522.791 69" fill="#959696"/>
<path fill-rule="evenodd" clip-rule="evenodd" d="M458.785 85C459.139 85 459.46 84.7614 459.547 84.4057C460.995 78.5013 467.762 74.3265 473.742 75.6389L474.001 75.6975C474.838 75.8895 475.786 76.1054 476.724 75.7242C477.53 75.3958 478.027 74.7384 478.465 74.1589C478.567 74.0248 478.668 73.8901 478.773 73.7623C481.8 70.0527 488.084 71.3675 491.561 72.4811C492.366 72.7407 493.369 73.0617 494.383 72.7436C495.249 72.4714 495.827 71.8266 496.338 71.2584L496.528 71.0482C498.443 68.9585 501.34 67.6886 504.476 67.5653C507.613 67.4403 510.602 68.4806 512.679 70.4124C512.995 70.7067 513.491 70.6908 513.787 70.3783C514.084 70.0647 514.068 69.5726 513.752 69.2783C511.372 67.0614 507.963 65.8762 504.414 66.0103C500.861 66.1506 497.563 67.6057 495.367 70.0022L495.166 70.2238C494.754 70.6834 494.364 71.1169 493.91 71.2595C493.375 71.4271 492.667 71.2004 492.044 71.0004C488.184 69.7647 481.169 68.3517 477.554 72.7828C477.437 72.9254 477.324 73.0754 477.21 73.2248C476.863 73.685 476.534 74.1191 476.127 74.285C475.652 74.4776 475.022 74.3333 474.354 74.1816L474.083 74.1202C467.194 72.6066 459.691 77.2389 458.022 84.0381C457.92 84.4551 458.178 84.8756 458.599 84.9773C458.662 84.9926 458.724 85 458.785 85" fill="#959696"/>
<path fill-rule="evenodd" clip-rule="evenodd" d="M481.21 62C481.643 62 481.995 61.6491 482 61.2128C482.044 56.6977 478.994 52.3789 474.746 50.9446C474.12 50.7331 473.462 50.571 472.825 50.4147C471.139 50.0005 469.546 49.609 468.719 48.3878C468.427 47.9556 468.242 47.424 468.047 46.8611L467.925 46.5119C465.79 40.5363 460.445 35.7464 454.306 34.3091C453.963 34.2284 453.613 34.1564 453.262 34.0843C451.913 33.806 450.639 33.5435 449.665 32.7946C448.957 32.2497 448.436 31.4637 447.885 30.6312C447.676 30.3151 447.466 29.9997 447.246 29.6947C443.981 25.1749 437.952 23.0103 432.589 24.4336C432.167 24.5452 431.915 24.9803 432.026 25.4055C432.137 25.8296 432.568 26.0858 432.99 25.972C437.666 24.7345 443.124 26.6923 445.97 30.6312C446.178 30.9187 446.375 31.2168 446.572 31.5142C447.171 32.4187 447.79 33.3529 448.707 34.0593C449.968 35.0289 451.482 35.3409 452.946 35.643C453.283 35.7121 453.619 35.7813 453.949 35.8591C459.579 37.1767 464.482 41.5698 466.44 47.0511L466.557 47.3863C466.778 48.0218 467.005 48.6789 467.416 49.2848C468.584 51.0096 470.55 51.493 472.451 51.9606C473.084 52.1158 473.681 52.2627 474.244 52.4533C477.803 53.6553 480.458 57.414 480.421 61.1965C480.417 61.6357 480.766 61.9954 481.202 62H481.21Z" fill="#959696"/>
<path fill-rule="evenodd" clip-rule="evenodd" d="M352.789 59C353.153 59.0006 353.48 58.745 353.559 58.3712C354.174 55.4536 355.804 50.3823 359.807 49.2029C360.151 49.1014 360.51 49.0296 360.89 48.9536C361.458 48.84 362.045 48.723 362.625 48.4946C363.827 48.0228 364.765 47.1732 365.673 46.3513C366.6 45.5115 367.476 44.7181 368.536 44.4185C369.349 44.1878 370.259 44.2527 371.224 44.3217C372.543 44.415 373.907 44.5123 375.184 43.8563C376.699 43.0767 377.47 41.5269 378.15 40.1591C378.327 39.8039 378.502 39.4497 378.69 39.1113C381.078 34.7981 386.633 32.5157 391.337 33.9119L391.429 33.9397C391.979 34.1043 392.664 34.3083 393.374 34.0533C394.274 33.7282 394.679 32.8524 394.975 32.2132L395.024 32.1077C397.169 27.5035 403.298 25.2519 407.882 27.3789C408.277 27.5626 408.746 27.3882 408.928 26.9906C409.109 26.593 408.937 26.1212 408.542 25.9381C403.213 23.4645 396.09 26.0841 393.597 31.4331L393.547 31.542C393.348 31.9709 393.123 32.4572 392.841 32.5592C392.617 32.6392 392.243 32.5273 391.879 32.4183L391.783 32.3894C386.401 30.7897 380.046 33.4042 377.313 38.3381C377.115 38.6969 376.928 39.0713 376.741 39.4486C376.114 40.7092 375.522 41.9002 374.467 42.4427C373.581 42.8976 372.489 42.8194 371.335 42.7377C370.278 42.6635 369.187 42.5864 368.109 42.8901C366.695 43.2906 365.64 44.2463 364.619 45.1713C363.78 45.9306 362.987 46.6487 362.052 47.0161C361.602 47.1929 361.107 47.292 360.584 47.3963C360.186 47.4757 359.776 47.558 359.364 47.6791C354.815 49.0197 352.858 54.0545 352.017 58.042C351.927 58.4703 352.199 58.8916 352.624 58.9832C352.68 58.9942 352.735 59 352.789 59" fill="#959696"/>
<path fill-rule="evenodd" clip-rule="evenodd" d="M307.794 85C307.808 85 307.823 85 307.837 84.9988C308.27 84.9751 308.602 84.6018 308.578 84.1649C308.432 81.4577 310.22 78.7047 312.738 77.762C313.306 77.549 313.91 77.4136 314.551 77.27C315.523 77.0519 316.529 76.8262 317.461 76.3042C318.623 75.6525 319.463 74.6589 320.275 73.6988C320.449 73.4922 320.622 73.2867 320.799 73.0859C322.579 71.0552 324.427 69.8538 326.293 69.5135C328.161 69.172 330.622 69.8775 331.502 71.8538C331.617 72.1148 331.865 72.2925 332.148 72.3185C332.428 72.3365 332.704 72.2132 332.865 71.9771C335.936 67.455 342.113 65.4202 347.235 67.2449C347.874 67.4729 348.491 67.7507 349.143 68.0453C349.967 68.4162 350.818 68.8005 351.72 69.0742C353.104 69.495 354.531 69.6356 355.91 69.7716C356.795 69.8584 357.709 69.9487 358.578 70.1119C359.743 70.3312 362.552 71.0818 363.493 73.3052C363.664 73.7075 364.125 73.8938 364.523 73.7225C364.922 73.5506 365.107 73.0848 364.937 72.6825C364.064 70.6211 361.852 69.1165 358.866 68.5545C357.93 68.3774 356.98 68.2843 356.062 68.194C354.698 68.0597 353.409 67.933 352.173 67.5562C351.367 67.312 350.598 66.9648 349.783 66.5979C349.131 66.3039 348.456 66.0001 347.757 65.7506C342.36 63.8276 335.92 65.7101 332.279 70.1333C330.917 68.4232 328.433 67.5123 326.015 67.9538C323.794 68.3589 321.643 69.7317 319.624 72.0355C319.441 72.2433 319.261 72.4563 319.08 72.6692C318.326 73.5622 317.613 74.4054 316.699 74.9181C315.966 75.3284 315.113 75.52 314.21 75.7226C313.546 75.8719 312.86 76.0252 312.191 76.2758C309.004 77.4697 306.826 80.8234 307.011 84.2506C307.033 84.6736 307.38 85 307.794 85" fill="#959696"/>
<path fill-rule="evenodd" clip-rule="evenodd" d="M285.22 61C285.299 61 285.378 60.988 285.458 60.9628C285.867 60.8307 286.094 60.3902 285.963 59.9784C283.334 51.7012 274.839 45.8837 266.219 46.4248C266.036 46.4363 265.853 46.45 265.668 46.4643C264.727 46.5381 263.838 46.6062 263.061 46.3368C261.952 45.9512 261.161 44.9227 260.324 43.833C260.124 43.5722 259.924 43.3125 259.72 43.0625C255.526 37.9028 247.944 35.9185 241.757 38.2495C240.526 35.1257 237.096 33.3844 234.213 33.075C230.838 32.7089 227.496 33.7545 224.548 34.6755C224.137 34.8042 223.907 35.2435 224.035 35.6559C224.163 36.0689 224.601 36.3 225.01 36.1719C227.814 35.2956 230.99 34.3031 234.048 34.632C236.662 34.9134 239.8 36.5506 240.516 39.4816C240.571 39.707 240.722 39.8958 240.93 39.9982C241.137 40.1006 241.379 40.1057 241.59 40.0107C247.29 37.4584 254.565 39.1973 258.513 44.0532C258.708 44.2929 258.898 44.5417 259.09 44.7906C259.987 45.9575 261.003 47.28 262.553 47.8172C263.635 48.1935 264.73 48.1077 265.788 48.0265C265.965 48.0128 266.142 47.9991 266.318 47.9876C274.125 47.502 282.1 52.9665 284.478 60.4543C284.584 60.7872 284.89 61 285.22 61" fill="#959696"/>
<path fill-rule="evenodd" clip-rule="evenodd" d="M152.778 54C152.864 54 152.952 53.985 153.038 53.954C155.048 53.2288 155.606 51.0882 156.098 49.1996C156.225 48.709 156.346 48.2455 156.488 47.813C157.596 44.4354 161.331 42.0568 164.815 42.5186L165.122 42.5623C165.769 42.6589 166.502 42.7676 167.234 42.4829C168.324 42.0591 168.82 41.0383 169.257 40.1376C169.334 39.9789 169.41 39.8219 169.489 39.6695C170.598 37.5416 172.936 36.1142 175.31 36.1142H175.328C177.249 36.12 179.057 36.9475 180.971 37.824C182.978 38.7419 185.057 39.6983 187.337 39.6695C190.723 39.6379 193.412 37.5566 196.012 35.5443C197.926 34.0634 199.904 32.5324 202.103 31.8906C205.523 30.8922 209.513 32.2915 211.591 35.2176C211.843 35.5707 212.329 35.6501 212.677 35.3965C213.025 35.1423 213.104 34.65 212.853 34.2974C210.403 30.8503 205.7 29.2003 201.672 30.3775C199.193 31.101 197.096 32.7234 195.068 34.2923C192.56 36.2338 190.191 38.0678 187.323 38.0949C185.38 38.1058 183.549 37.2753 181.611 36.3885C179.632 35.4827 177.586 34.5459 175.332 34.5396H175.31C172.374 34.5396 169.485 36.3034 168.115 38.9351C168.029 39.0996 167.946 39.2704 167.862 39.4423C167.521 40.1457 167.198 40.8099 166.678 41.0124C166.325 41.1487 165.85 41.0785 165.348 41.0038L165.014 40.956C160.76 40.3993 156.366 43.1903 155.013 47.3167C154.856 47.7958 154.723 48.3053 154.595 48.7976C154.162 50.4568 153.754 52.0234 152.517 52.4702C152.112 52.6163 151.901 53.0666 152.045 53.4767C152.159 53.7987 152.458 54 152.778 54" fill="#959696"/>
<path fill-rule="evenodd" clip-rule="evenodd" d="M188.212 84C188.32 84 188.429 83.9766 188.533 83.928C188.931 83.7424 189.109 83.2567 188.931 82.8418C187.44 79.3643 183.491 78.1792 180.451 78.5436C177.539 78.896 174.917 80.3808 172.573 81.8236C171.186 78.9459 168.589 76.7184 165.319 75.6377C161.929 74.5191 158.45 74.8404 155.678 76.5107C151.932 73.5063 146.436 73.1472 142.38 75.7097C142.008 75.9451 141.889 76.4506 142.114 76.8385C142.34 77.2281 142.823 77.3536 143.196 77.1159C146.852 74.8067 151.859 75.2366 155.102 78.1401C155.368 78.3791 155.753 78.4055 156.047 78.2044C158.46 76.5563 161.748 76.1822 164.843 77.2059C167.938 78.2278 170.42 80.5075 171.484 83.3035C171.569 83.5275 171.744 83.701 171.963 83.7791C172.181 83.8559 172.422 83.8295 172.62 83.707C175.018 82.2162 177.736 80.5279 180.632 80.1773C183.199 79.8663 186.378 80.9128 187.492 83.5125C187.623 83.8181 187.911 84 188.212 84" fill="#959696"/>
<path fill-rule="evenodd" clip-rule="evenodd" d="M143.194 68C143.601 68 143.946 67.6693 143.977 67.2338C144.164 64.651 143.197 61.9973 141.325 59.9542C139.453 57.9105 136.969 56.8154 134.517 56.9117C134.222 56.925 133.925 56.9541 133.628 56.9832C132.94 57.0492 132.289 57.1134 131.709 56.9571C130.799 56.7112 130.064 55.9353 129.286 55.1145C128.948 54.7577 128.599 54.3889 128.224 54.0533C126.397 52.4136 123.854 51.7073 121.251 52.1114C118.9 52.4772 116.847 53.6947 115.514 55.4901C113.361 54.5003 110.733 54.5245 108.341 55.5827C105.709 56.7469 103.724 59.0032 103.029 61.6193C102.912 62.0603 103.156 62.5182 103.574 62.6412C103.993 62.7654 104.427 62.5073 104.544 62.0664C105.109 59.9348 106.756 58.0825 108.949 57.1122C111.141 56.1436 113.548 56.2024 115.386 57.2703C115.748 57.4805 116.203 57.3599 116.427 56.9935C117.481 55.269 119.323 54.0878 121.48 53.7529C123.637 53.4143 125.724 53.9867 127.206 55.3168C127.532 55.6094 127.844 55.9383 128.173 56.2866C129.067 57.2303 129.991 58.2061 131.32 58.5641C132.162 58.7924 132.981 58.7125 133.773 58.6344C134.044 58.6083 134.315 58.581 134.584 58.5695C136.587 58.472 138.634 59.4048 140.194 61.1069C141.755 62.8096 142.562 64.9968 142.409 67.1072C142.376 67.5639 142.7 67.9624 143.133 67.9976C143.154 67.9994 143.174 68 143.194 68" fill="#959696"/>
</g>
</svg>
