<svg width="324" height="306" viewBox="0 0 324 306" fill="none" xmlns="http://www.w3.org/2000/svg">
    <path fill-rule="evenodd" clip-rule="evenodd" d="M311.881 257.209C310.774 259.313 308.278 261.803 305.847 261.954C311.781 262.186 313.27 270.128 314.075 275.7C314.326 273.671 314.957 270.819 315.208 268.792C315.425 267.039 315.616 266.459 316.438 264.885C317.26 263.32 320.658 261.629 322.467 261.541C322.033 261.539 319.872 260.694 319.51 260.543C319.018 260.335 318.534 260.109 318.067 259.849C317.238 259.39 316.458 258.835 315.811 258.146C313.786 255.976 313.924 252.586 313.508 249.847C313.296 252.365 313.063 254.962 311.881 257.209" fill="#F0CA30"/>
    <path fill-rule="evenodd" clip-rule="evenodd" d="M305.847 261.305C311.776 261.515 313.263 268.768 314.068 273.853C314.319 272.002 314.949 269.398 315.2 267.547C315.417 265.947 315.608 265.417 316.428 263.981C317.25 262.551 320.645 261.008 322.453 260.927H322.467" fill="#F0CA30"/>
    <path fill-rule="evenodd" clip-rule="evenodd" d="M306.087 260.928C305.928 260.936 305.767 260.935 305.609 260.923C305.772 260.918 305.931 260.918 306.087 260.928" fill="#F0CA30"/>
    <path fill-rule="evenodd" clip-rule="evenodd" d="M322.467 260.548C322.034 260.546 319.872 259.773 319.51 259.635C319.018 259.444 318.535 259.237 318.067 258.999C317.239 258.58 316.458 258.071 315.812 257.441C313.786 255.456 313.924 252.353 313.508 249.847C313.296 252.152 313.063 254.527 311.881 256.584C310.775 258.509 308.278 260.788 305.847 260.926" fill="#F0CA30"/>
    <mask id="mask0_0_1" style="mask-type:alpha" maskUnits="userSpaceOnUse" x="304" y="248" width="19" height="28">
        <path fill-rule="evenodd" clip-rule="evenodd" d="M322.467 248H304V275.699H322.467V248Z" fill="white"/>
    </mask>
    <g mask="url(#mask0_0_1)">
        <path fill-rule="evenodd" clip-rule="evenodd" d="M317.381 260.615C316.026 261.349 314.81 262.332 314.293 263.335C313.455 264.965 313.222 265.684 313.005 267.392C312.186 264.788 310.91 262.291 308.829 260.907C310.24 259.878 311.446 258.421 312.18 257.002C312.327 256.718 312.46 256.43 312.581 256.138C312.894 256.871 313.312 257.565 313.883 258.188C314.54 258.899 315.372 259.539 316.357 260.093C316.671 260.27 317.009 260.443 317.381 260.615M313.156 275.7H313.168C313.804 275.693 314.337 275.22 314.413 274.594C314.53 273.64 314.742 272.448 314.947 271.295C315.157 270.111 315.375 268.885 315.499 267.864C315.689 266.316 315.816 265.905 316.549 264.479C317.07 263.47 319.803 261.977 321.264 261.904C321.949 261.87 322.483 261.301 322.466 260.62C322.452 259.967 321.935 259.439 321.287 259.396C320.893 259.317 319.397 258.748 318.863 258.521C318.387 258.317 317.974 258.116 317.61 257.91C316.854 257.484 316.229 257.007 315.754 256.494C314.512 255.139 314.292 252.988 314.081 250.906C314.019 250.298 313.955 249.67 313.865 249.072C313.771 248.441 313.192 247.99 312.57 248C311.926 248.021 311.401 248.517 311.348 249.154C311.158 251.465 310.959 253.856 309.925 255.855C308.987 257.667 306.909 259.69 305.187 259.799C304.514 259.841 303.992 260.399 304.001 261.067C304.008 261.735 304.543 262.281 305.217 262.308C309.587 262.48 311.049 268.628 311.9 274.619C311.989 275.239 312.524 275.7 313.156 275.7" fill="#004CA9"/>
    </g>
    <path fill-rule="evenodd" clip-rule="evenodd" d="M313.152 275.7H313.164C313.8 275.693 314.333 275.211 314.409 274.573C314.526 273.601 314.738 272.386 314.942 271.211C315.153 270.004 315.371 268.755 315.495 267.715C315.684 266.137 315.812 265.718 316.544 264.265C317.064 263.238 319.789 261.719 321.251 261.641C321.925 261.611 322.467 261.05 322.467 260.362C322.467 259.634 321.85 259.026 321.13 259.084C318.955 259.195 315.297 261.108 314.288 263.1C313.451 264.76 313.218 265.493 313.001 267.234C311.796 263.332 309.607 259.667 305.318 259.494C304.603 259.472 304.029 260.016 304.001 260.722C303.974 261.428 304.517 262.024 305.216 262.052C309.585 262.229 311.046 268.493 311.898 274.598C311.986 275.231 312.521 275.7 313.152 275.7" fill="#733BE6"/>
    <mask id="mask1_0_1" style="mask-type:alpha" maskUnits="userSpaceOnUse" x="304" y="260" width="4" height="3">
        <path fill-rule="evenodd" clip-rule="evenodd" d="M307.694 260.927H304.001V262.773H307.694V260.927Z" fill="white"/>
    </mask>
    <g mask="url(#mask1_0_1)">
        <path fill-rule="evenodd" clip-rule="evenodd" d="M305.888 262.773C306.002 262.773 306.114 262.772 306.227 262.768C307.048 262.742 307.692 262.34 307.694 261.853C307.697 261.366 307.056 260.962 306.234 260.934C305.992 260.925 305.749 260.925 305.5 260.929C304.676 260.946 304.018 261.341 304.001 261.829C303.985 262.318 304.616 262.728 305.439 262.764C305.587 262.77 305.738 262.773 305.888 262.773" fill="#004CA9"/>
    </g>
    <mask id="mask2_0_1" style="mask-type:alpha" maskUnits="userSpaceOnUse" x="304" y="248" width="19" height="15">
        <path fill-rule="evenodd" clip-rule="evenodd" d="M322.467 248H304V262.773H322.467V248Z" fill="white"/>
    </mask>
    <g mask="url(#mask2_0_1)">
        <path fill-rule="evenodd" clip-rule="evenodd" d="M305.267 262.773C305.294 262.773 305.321 262.773 305.348 262.771C308.121 262.589 310.884 259.879 312.18 257.295C312.327 257.001 312.46 256.704 312.581 256.402C312.893 257.159 313.311 257.876 313.883 258.518C314.539 259.253 315.371 259.914 316.357 260.486C316.8 260.745 317.292 260.993 317.861 261.246C318.127 261.363 320.417 262.353 321.194 262.357H321.2C321.897 262.357 322.464 261.78 322.467 261.065C322.47 260.377 321.948 259.811 321.286 259.766C320.892 259.684 319.397 259.097 318.863 258.863C318.387 258.652 317.974 258.444 317.61 258.231C316.853 257.791 316.229 257.3 315.754 256.769C314.511 255.371 314.292 253.149 314.081 251.001C314.018 250.373 313.954 249.724 313.865 249.107C313.771 248.455 313.192 247.99 312.57 248C311.926 248.022 311.401 248.534 311.348 249.191C311.158 251.578 310.959 254.046 309.925 256.11C308.987 257.981 306.909 260.069 305.187 260.181C304.488 260.227 303.958 260.843 304.003 261.558C304.046 262.245 304.603 262.773 305.267 262.773" fill="#733BE6"/>
    </g>
    <path fill-rule="evenodd" clip-rule="evenodd" d="M9.89186 53.8388C8.41584 56.6937 5.08846 60.0733 1.84724 60.2789C9.75761 60.5932 11.7432 71.3718 12.8178 78.9327C13.1524 76.1799 13.9933 72.3102 14.3286 69.5574C14.6178 67.1792 14.8716 66.392 15.9676 64.2573C17.0629 62.1318 21.5938 59.8379 24.0068 59.7172C23.4285 59.7145 20.5459 58.5685 20.0643 58.363C19.4071 58.0804 18.7626 57.7741 18.1402 57.4206C17.0355 56.7985 15.9943 56.0445 15.1334 55.1101C12.4325 52.1656 12.6148 47.5644 12.0611 43.8467C11.7786 47.2654 11.4681 50.7882 9.89186 53.8388" fill="white"/>
    <mask id="mask3_0_1" style="mask-type:alpha" maskUnits="userSpaceOnUse" x="0" y="42" width="26" height="39">
        <path fill-rule="evenodd" clip-rule="evenodd" d="M25.8525 42H-0.000324011V80.7793H25.8525V42Z" fill="white"/>
    </mask>
    <g mask="url(#mask3_0_1)">
        <path fill-rule="evenodd" clip-rule="evenodd" d="M19.9796 59.6017C17.8115 60.6137 15.6927 62.1116 14.8548 63.7158C13.6323 66.0655 13.3215 67.0584 13.0058 69.6194C12.9362 70.1803 12.8438 70.7956 12.7394 71.441C11.5615 66.8908 9.53589 62.2057 5.73849 60.0692C7.95393 58.6375 9.87314 56.4124 11.0045 54.2529C11.3946 53.5066 11.7159 52.7373 11.9822 51.9556C12.4432 53.3683 13.1282 54.7067 14.1962 55.8543C15.1246 56.8493 16.2594 57.7134 17.6682 58.4964C18.301 58.8508 19.0012 59.1895 19.8065 59.5309C19.8113 59.5329 19.8732 59.5588 19.9796 59.6017M12.8126 80.7801H12.8272C13.5254 80.7733 14.1102 80.2595 14.1936 79.58C14.3633 78.2007 14.6713 76.4882 14.9696 74.8308C15.2728 73.1428 15.5878 71.3962 15.7658 69.9467C16.0454 67.6883 16.2498 67.0348 17.3311 64.9556C18.2177 63.2587 22.4441 61.1352 24.5323 61.0323C25.2847 60.9955 25.8702 60.3781 25.8521 59.6401C25.8361 58.9225 25.2555 58.3446 24.5309 58.3099C23.992 58.2213 21.6973 57.3599 20.9067 57.0273C20.1995 56.7282 19.589 56.4331 19.0431 56.1278C17.8895 55.4858 16.9772 54.7962 16.2498 54.0172C14.348 51.9708 14.0232 48.8162 13.7089 45.766C13.6199 44.9018 13.5288 44.0084 13.4009 43.1627C13.2973 42.4785 12.6638 41.9926 11.9796 42.0001C11.2731 42.0233 10.6966 42.561 10.6389 43.2513C10.3587 46.6028 10.0687 50.0688 8.52914 53.0087C7.08417 55.7673 3.98561 58.7201 1.30288 58.8884C0.563708 58.9348 -0.0085786 59.5399 -0.000234195 60.2643C0.00880558 60.9901 0.595696 61.5816 1.33487 61.6102C7.99023 61.8712 10.1751 70.8544 11.4358 79.6073C11.5324 80.2799 12.12 80.7801 12.8126 80.7801" fill="#733BE6"/>
    </g>
    <path fill-rule="evenodd" clip-rule="evenodd" d="M1.84724 59.2139C9.75118 59.5462 11.7352 70.9411 12.8089 78.9331C13.1433 76.0237 13.9834 71.9324 14.3178 69.0223C14.6074 66.5083 14.861 65.6762 15.9561 63.4195C17.0505 61.1726 21.5777 58.7477 23.9888 58.6201H24.0068" fill="white"/>
    <mask id="mask4_0_1" style="mask-type:alpha" maskUnits="userSpaceOnUse" x="0" y="58" width="26" height="23">
        <path fill-rule="evenodd" clip-rule="evenodd" d="M25.8535 58.6201H0.000652552V80.7797H25.8535V58.6201Z" fill="white"/>
    </mask>
    <g mask="url(#mask4_0_1)">
        <path fill-rule="evenodd" clip-rule="evenodd" d="M12.8083 80.7797H12.8229C13.5201 80.773 14.1047 80.2663 14.1881 79.5963C14.3577 78.2369 14.6664 76.5475 14.9646 74.9139C15.2676 73.2487 15.5818 71.5264 15.7605 70.0978C16.0392 67.8701 16.2436 67.2257 17.3252 65.1755C18.21 63.5042 22.4259 61.4143 24.5161 61.3075C25.255 61.2766 25.8535 60.6872 25.8535 59.9648C25.8535 59.2008 25.1883 58.5732 24.3834 58.6229C21.6627 58.7553 16.3089 61.1953 14.8492 63.9531C13.6272 66.2701 13.3158 67.2492 13.0002 69.7745C12.9314 70.3276 12.8389 70.9351 12.7346 71.5708C11.1741 65.6264 8.12812 59.4494 1.446 59.1914C0.658432 59.1571 0.0321356 59.7384 0.00155061 60.4803C-0.0297295 61.2221 0.568067 61.8471 1.33478 61.8767C7.98701 62.134 10.1718 70.9929 11.432 79.6232C11.5286 80.2871 12.116 80.7797 12.8083 80.7797" fill="#733BE6"/>
    </g>
    <path fill-rule="evenodd" clip-rule="evenodd" d="M2.19043 60.4684C1.96282 60.4807 1.73248 60.4793 1.50555 60.4623C1.73929 60.4541 1.96622 60.4548 2.19043 60.4684" fill="white"/>
    <path fill-rule="evenodd" clip-rule="evenodd" d="M1.89444 62.3134C2.02725 62.3134 2.16081 62.3088 2.2951 62.2996C3.07724 62.2492 3.6904 61.4477 3.69335 60.4747C3.69557 59.5017 3.08609 58.6956 2.30469 58.6378C2.01471 58.6176 1.72251 58.6158 1.42073 58.6268C0.638588 58.6644 0.0143531 59.454 0.00033361 60.427C-0.0136858 61.4009 0.586937 62.218 1.3676 62.2905C1.541 62.3051 1.71661 62.3134 1.89444 62.3134" fill="#733BE6"/>
    <path fill-rule="evenodd" clip-rule="evenodd" d="M24.0068 59.8983C23.4285 59.8956 20.5459 58.7366 20.065 58.5287C19.4071 58.243 18.7626 57.9324 18.1402 57.5756C17.0355 56.9465 15.9943 56.1838 15.1334 55.2388C12.4325 52.2602 12.6148 47.6074 12.0611 43.8467C11.7786 47.3049 11.4687 50.8677 9.89186 53.953C8.41584 56.8398 5.08846 60.2585 1.84724 60.4664" fill="white"/>
    <mask id="mask5_0_1" style="mask-type:alpha" maskUnits="userSpaceOnUse" x="0" y="42" width="26" height="21">
        <path fill-rule="evenodd" clip-rule="evenodd" d="M25.8525 42H-0.000324011V62.313H25.8525V42Z" fill="white"/>
    </mask>
    <g mask="url(#mask5_0_1)">
        <path fill-rule="evenodd" clip-rule="evenodd" d="M1.38976 62.3135C1.41966 62.3135 1.44887 62.3128 1.47877 62.3107C5.32897 62.0608 9.18475 58.2893 11.0038 54.6915C11.3939 53.9186 11.7152 53.1217 11.9815 52.3114C12.4425 53.7753 13.1274 55.1609 14.1955 56.3503C15.1238 57.3809 16.2586 58.2759 17.6674 59.087C18.3002 59.454 19.0004 59.8048 19.8057 60.1585C19.8446 60.1747 23.3958 61.7107 24.4555 61.7156H24.4618C25.2274 61.7156 25.849 61.0874 25.8525 60.3102C25.856 59.5521 25.2691 58.9303 24.5306 58.8936C23.9917 58.8018 21.6971 57.9096 20.9064 57.5651C20.1992 57.2552 19.5887 56.9496 19.0429 56.6334C17.8893 55.9685 16.9769 55.2541 16.2496 54.4473C14.3478 52.3276 14.0231 49.0602 13.7088 45.9007C13.6198 45.0057 13.5287 44.0803 13.4007 43.2043C13.2971 42.4956 12.6636 41.9923 11.9794 42.0001C11.2729 42.0241 10.6965 42.581 10.6387 43.2961C10.3585 46.7675 10.0685 50.3575 8.52902 53.4026C7.08406 56.26 3.98554 59.3185 1.30284 59.4928C0.535859 59.5422 -0.0461567 60.2135 0.00251848 60.9914C0.049803 61.7389 0.662415 62.3135 1.38976 62.3135" fill="#733BE6"/>
    </g>
    <path fill-rule="evenodd" clip-rule="evenodd" d="M59.9762 304.173C61.2596 305.54 62.9109 306.14 64.9302 305.973C66.9495 305.805 67.9726 304.512 67.9995 302.094C68.0264 299.676 66.9988 298.332 64.9167 298.062C62.8346 297.792 61.1698 298.402 59.9223 299.89C58.6749 301.378 58.6928 302.806 59.9762 304.173" fill="#FFCC00"/>
    <path fill-rule="evenodd" clip-rule="evenodd" d="M309.682 24.9741C311.894 27.1833 314.74 28.1527 318.221 27.8822C321.701 27.6117 323.464 25.5226 323.511 21.6152C323.557 17.7078 321.786 15.5362 318.198 15.1003C314.609 14.6645 311.74 15.6489 309.59 18.0534C307.44 20.458 307.471 22.7649 309.682 24.9741" fill="#733BE6"/>
    <circle cx="169" cy="153" r="153" fill="#EAE0FF"/>
    <path d="M234.997 121.819V184.226C234.616 185.46 234.376 186.75 233.831 187.916C231.236 193.418 226.764 195.992 220.749 195.992H120.287C119.994 195.992 119.699 195.992 119.406 195.992C111.889 195.697 106.078 190.107 106.053 182.841C105.982 162.968 105.982 143.097 106.053 123.227C106.053 119.005 107.934 115.573 111.233 112.918C113.396 111.176 115.95 110.454 118.618 110H222.399C222.675 110.088 222.956 110.158 223.24 110.212C227.183 110.734 230.414 112.567 232.529 115.898C233.66 117.67 234.192 119.83 234.997 121.819ZM229.578 147.762H111.361V149.077C111.361 159.98 111.361 170.883 111.361 181.786C111.361 187.252 114.671 190.579 120.123 190.579C153.706 190.579 187.288 190.579 220.87 190.579C221.708 190.603 222.546 190.533 223.369 190.369C227.233 189.468 229.626 186.286 229.631 182.041C229.646 171.015 229.646 159.987 229.631 148.958C229.639 148.585 229.603 148.216 229.578 147.762ZM111.503 142.189H229.444V131.667H111.503V142.189ZM229.505 126.09C230.434 119.83 226.925 115.489 220.991 115.489C187.327 115.479 153.661 115.479 119.994 115.489C119.198 115.467 118.402 115.536 117.621 115.696C113.131 116.759 110.652 120.966 111.513 126.095L229.505 126.09Z" fill="#733BE6"/>
    <path d="M229.577 147.76C229.603 148.215 229.638 148.583 229.638 148.954C229.638 159.98 229.638 171.007 229.638 182.037C229.638 186.279 227.24 189.462 223.375 190.365C222.553 190.529 221.715 190.599 220.877 190.575C187.295 190.575 153.713 190.575 120.13 190.575C114.677 190.575 111.371 187.248 111.368 181.782C111.368 170.879 111.368 159.976 111.368 149.073V147.758L229.577 147.76ZM197.402 169.049H197.414C197.414 170.096 197.379 171.146 197.414 172.194C197.571 176.048 200.403 179.301 204.247 179.702C206.707 179.962 209.187 179.98 211.651 179.755C215.942 179.354 218.822 175.969 218.862 171.654C218.877 169.809 218.905 167.961 218.845 166.119C218.723 162.29 215.856 158.964 212.05 158.56C209.548 158.292 207.025 158.273 204.52 158.504C200.332 158.898 197.503 162.187 197.397 166.409C197.384 167.287 197.402 168.168 197.402 169.049ZM140.956 179.884H148.885C151.528 179.884 154.17 179.919 156.813 179.884C158.774 179.846 159.951 178.503 159.683 176.734C159.474 175.328 158.338 174.493 156.525 174.49C146.123 174.49 135.72 174.49 125.317 174.49C124.857 174.48 124.398 174.545 123.959 174.682C122.805 175.076 122.192 175.944 122.149 177.14C122.124 177.711 122.293 178.274 122.627 178.738C122.961 179.202 123.442 179.54 123.992 179.697C124.56 179.837 125.145 179.899 125.731 179.884C130.797 179.891 135.88 179.884 140.956 179.884ZM141.035 163.779H135.875C132.185 163.779 128.495 163.759 124.804 163.802C124.457 163.794 124.111 163.857 123.788 163.985C123.465 164.113 123.171 164.304 122.923 164.547C122.675 164.791 122.478 165.081 122.343 165.402C122.209 165.722 122.141 166.067 122.141 166.414C122.126 167.848 123.232 168.998 124.744 169.117C124.996 169.135 125.249 169.117 125.501 169.117H156.452C156.789 169.134 157.127 169.121 157.462 169.077C158.54 168.88 159.317 168.264 159.62 167.209C159.9 166.225 159.799 165.17 158.931 164.579C158.214 164.102 157.379 163.835 156.518 163.807C151.353 163.746 146.194 163.779 141.035 163.779Z" fill="white"/>
    <path d="M111.502 142.186V131.664H229.444V142.186H111.502Z" fill="#733BE6"/>
    <path d="M229.504 126.089H111.512C110.651 120.961 113.13 116.751 117.621 115.691C118.401 115.531 119.197 115.462 119.993 115.484C153.657 115.474 187.323 115.474 220.99 115.484C226.925 115.469 230.433 119.818 229.504 126.089Z" fill="white"/>
    <path d="M197.402 169.049C197.402 168.168 197.385 167.282 197.402 166.409C197.508 162.187 200.338 158.898 204.526 158.504C207.031 158.273 209.553 158.292 212.055 158.56C215.862 158.964 218.729 162.29 218.85 166.119C218.911 167.961 218.883 169.809 218.868 171.654C218.828 175.977 215.947 179.354 211.656 179.755C209.193 179.98 206.713 179.962 204.253 179.702C200.409 179.301 197.577 176.048 197.42 172.194C197.377 171.146 197.42 170.096 197.42 169.049H197.402ZM208.105 163.782C207.224 163.782 206.338 163.751 205.462 163.782C203.831 163.85 202.802 164.862 202.764 166.49C202.721 168.257 202.718 170.023 202.764 171.772C202.807 173.385 203.854 174.405 205.495 174.445C207.214 174.488 208.935 174.485 210.657 174.445C212.378 174.405 213.418 173.435 213.491 171.732C213.565 170.028 213.557 168.292 213.491 166.576C213.431 164.791 212.398 163.822 210.614 163.769C209.786 163.762 208.945 163.782 208.105 163.782Z" fill="#733BE6"/>
    <path d="M140.956 179.885C135.88 179.885 130.807 179.885 125.731 179.885C125.145 179.901 124.56 179.838 123.991 179.699C123.442 179.541 122.961 179.203 122.627 178.74C122.293 178.276 122.124 177.713 122.149 177.142C122.202 175.936 122.805 175.077 123.959 174.684C124.398 174.546 124.857 174.482 125.317 174.492C135.721 174.482 146.124 174.482 156.525 174.492C158.338 174.492 159.474 175.33 159.683 176.736C159.951 178.502 158.774 179.848 156.813 179.885C154.17 179.933 151.528 179.885 148.885 179.885H140.956Z" fill="#733BE6"/>
    <path d="M141.035 163.777C146.195 163.777 151.354 163.745 156.511 163.813C157.372 163.841 158.207 164.108 158.924 164.585C159.792 165.176 159.893 166.231 159.613 167.215C159.31 168.27 158.533 168.886 157.455 169.083C157.12 169.127 156.782 169.14 156.445 169.123H125.497C125.244 169.123 124.992 169.123 124.739 169.123C123.225 169.004 122.122 167.861 122.137 166.42C122.136 166.072 122.205 165.728 122.339 165.408C122.473 165.087 122.67 164.797 122.918 164.553C123.166 164.31 123.461 164.118 123.784 163.99C124.107 163.862 124.452 163.8 124.8 163.808C128.49 163.765 132.181 163.788 135.871 163.785L141.035 163.777Z" fill="#733BE6"/>
    <path d="M208.104 163.782C208.945 163.782 209.785 163.762 210.628 163.782C212.413 163.835 213.445 164.805 213.506 166.589C213.564 168.305 213.572 170.029 213.506 171.745C213.44 173.461 212.39 174.423 210.671 174.458C208.952 174.494 207.228 174.496 205.509 174.458C203.869 174.418 202.821 173.398 202.778 171.786C202.73 170.019 202.733 168.252 202.778 166.503C202.816 164.875 203.846 163.863 205.477 163.795C206.355 163.757 207.243 163.795 208.119 163.795L208.104 163.782Z" fill="white"/>
    <path fill-rule="evenodd" clip-rule="evenodd" d="M211.5 198.473L230.074 217.048C232.678 219.651 236.899 219.651 239.502 217.048L244.048 212.502C246.651 209.899 246.651 205.678 244.048 203.075L225.473 184.5L244.048 165.926C246.651 163.322 246.651 159.102 244.048 156.498L239.502 151.952C236.899 149.349 232.678 149.349 230.074 151.952L211.5 170.527L192.925 151.952C190.322 149.349 186.101 149.349 183.498 151.952L178.953 156.498C176.349 159.102 176.349 163.322 178.953 165.926L197.528 184.5L178.953 203.075C176.349 205.678 176.349 209.899 178.953 212.502L183.498 217.048C186.101 219.651 190.322 219.651 192.925 217.048L211.5 198.473Z" fill="#FF6400"/>
</svg>
