<svg width="457" height="143" viewBox="0 0 457 143" fill="none" xmlns="http://www.w3.org/2000/svg">
<g opacity="0.386312">
<mask id="mask0_2825_29376" style="mask-type:alpha" maskUnits="userSpaceOnUse" x="434" y="27" width="23" height="23">
<path fill-rule="evenodd" clip-rule="evenodd" d="M457 27H434V50H457V27Z" fill="white"/>
</mask>
<g mask="url(#mask0_2825_29376)">
<path fill-rule="evenodd" clip-rule="evenodd" d="M456.052 50C456.108 50 456.164 49.9994 456.221 49.9983C456.66 49.9886 457.009 49.6339 457 49.2048C456.991 48.7813 456.636 48.4442 456.204 48.4442H456.187C453.001 48.5219 449.942 46.3309 449.017 43.3765C448.81 42.7135 448.671 41.9864 448.523 41.2162C448.11 39.0604 447.642 36.6162 445.379 35.6467C444.49 35.2658 443.575 35.2505 442.69 35.2352C442.414 35.2301 442.138 35.2261 441.866 35.2085C439.926 35.0848 437.962 33.9825 436.74 32.333C435.717 30.9508 435.362 29.4029 435.741 27.972C435.851 27.5565 435.596 27.1325 435.17 27.0246C434.743 26.9179 434.31 27.1677 434.2 27.5832C433.7 29.4699 434.144 31.4804 435.451 33.2434C436.943 35.259 439.362 36.6066 441.762 36.7598C442.06 36.7785 442.361 36.7842 442.662 36.7899C443.424 36.8024 444.143 36.8149 444.739 37.0703C446.232 37.71 446.585 39.5519 446.958 41.5017C447.108 42.2799 447.262 43.0847 447.495 43.8312C448.604 47.3736 452.263 50 456.052 50" fill="#959696"/>
</g>
<path fill-rule="evenodd" clip-rule="evenodd" d="M404.318 37C406.911 37 409.522 35.8618 411.212 33.7998C411.295 33.6986 411.376 33.5956 411.457 33.4921C411.73 33.1434 411.989 32.8134 412.286 32.6309C412.749 32.3454 413.397 32.3527 414.084 32.3508L414.198 32.3514H414.284C417.408 32.3514 420.496 31.8251 423.461 30.7863C423.875 30.6411 424.097 30.1738 423.959 29.742C423.82 29.3102 423.374 29.076 422.959 29.2229C420.155 30.2051 417.237 30.7026 414.284 30.7026H414.202L414.09 30.702C413.263 30.6983 412.321 30.6941 411.484 31.2102C410.945 31.5415 410.568 32.022 410.235 32.4466C410.161 32.5411 410.087 32.6351 410.012 32.7266C407.957 35.2355 404.242 36.0816 401.372 34.6965C400.812 34.4261 400.272 34.078 399.701 33.7107C398.547 32.9675 397.353 32.1985 395.907 32.0449C394.476 31.8944 393.167 32.3767 391.898 32.8447L391.66 32.932C389.328 33.7859 386.304 34.661 383.604 33.8365C381.268 33.1241 379.083 30.5616 379.682 28.0233C379.787 27.5806 379.528 27.1338 379.104 27.0254C378.68 26.9128 378.253 27.1856 378.148 27.6276C377.323 31.1229 380.074 34.4785 383.161 35.4198C386.293 36.3755 389.628 35.4246 392.183 34.4881L392.423 34.4002C393.579 33.9738 394.671 33.574 395.746 33.686C396.833 33.801 397.823 34.4394 398.872 35.1144C399.457 35.4914 400.063 35.8817 400.709 36.1936C401.838 36.7386 403.076 37 404.318 37" fill="#959696"/>
<mask id="mask1_2825_29376" style="mask-type:alpha" maskUnits="userSpaceOnUse" x="368" y="7" width="5" height="19">
<path fill-rule="evenodd" clip-rule="evenodd" d="M373 7H368V26H373V7Z" fill="white"/>
</mask>
<g mask="url(#mask1_2825_29376)">
<path fill-rule="evenodd" clip-rule="evenodd" d="M372.014 26C372.28 26 372.54 25.8728 372.697 25.6387C372.944 25.2692 372.838 24.7736 372.461 24.5319C369.948 22.9191 368.905 19.4207 370.136 16.7344C370.177 16.6433 370.221 16.5517 370.266 16.46C370.532 15.909 370.833 15.2844 370.77 14.5425C370.718 13.9284 370.43 13.4374 370.176 13.0043C370.092 12.8619 370.008 12.7194 369.936 12.5735C369.573 11.8327 369.648 10.8894 370.138 10.0488C370.627 9.20768 371.418 8.66539 372.254 8.59593C372.702 8.55857 373.035 8.17213 372.997 7.732C372.96 7.29244 372.56 6.96555 372.117 7.00291C370.747 7.11615 369.478 7.95849 368.723 9.25555C367.967 10.5532 367.872 12.0522 368.467 13.267C368.556 13.4479 368.659 13.6248 368.763 13.8017C368.957 14.1315 369.124 14.4164 369.145 14.6755C369.172 14.989 368.988 15.3714 368.792 15.7759C368.744 15.8775 368.695 15.9784 368.649 16.0789C367.104 19.4523 368.413 23.8449 371.568 25.8693C371.707 25.958 371.861 26 372.014 26" fill="#959696"/>
</g>
<path fill-rule="evenodd" clip-rule="evenodd" d="M410.791 76C411.108 76 411.408 75.8065 411.529 75.4915C412.669 72.5315 416.422 70.7885 419.402 71.8317C419.926 72.016 420.444 72.2723 420.992 72.5443C422.212 73.1487 423.468 73.7764 424.937 73.6392C425.748 73.5654 426.46 73.2649 427.148 72.9749C427.293 72.9139 427.437 72.8535 427.582 72.7948C431.866 71.0715 437.029 71.7393 440.738 74.4965C440.941 74.6476 441.203 74.6929 441.445 74.6156C441.686 74.5395 441.877 74.3523 441.958 74.1117C443.82 68.5899 449.372 64.5913 455.168 64.5913C455.182 64.5919 455.196 64.5895 455.209 64.5913C455.645 64.5913 455.999 64.2368 456 63.798C456.002 63.3586 455.649 63.0012 455.212 63H455.168C449.059 63 443.194 66.9887 440.826 72.6297C436.771 70.0504 431.455 69.5227 426.994 71.3168C426.842 71.3784 426.689 71.4423 426.537 71.5074C425.932 71.7614 425.361 72.002 424.793 72.0543C423.775 72.1427 422.762 71.6475 421.692 71.1169C421.125 70.8356 420.539 70.545 419.923 70.3288C416.121 68.9932 411.508 71.1401 410.054 74.9161C409.896 75.3264 410.098 75.7873 410.506 75.9459C410.599 75.9826 410.696 76 410.791 76" fill="#959696"/>
<path fill-rule="evenodd" clip-rule="evenodd" d="M346.785 92C347.139 92 347.46 91.7614 347.547 91.4057C348.995 85.5013 355.762 81.3265 361.742 82.6389L362.001 82.6975C362.838 82.8895 363.786 83.1054 364.724 82.7242C365.53 82.3958 366.027 81.7384 366.465 81.1589C366.567 81.0248 366.668 80.8901 366.773 80.7623C369.8 77.0527 376.084 78.3675 379.561 79.4811C380.366 79.7407 381.369 80.0617 382.383 79.7436C383.249 79.4714 383.827 78.8266 384.338 78.2584L384.528 78.0482C386.443 75.9585 389.34 74.6886 392.476 74.5653C395.613 74.4403 398.602 75.4806 400.679 77.4124C400.995 77.7067 401.491 77.6908 401.787 77.3783C402.084 77.0647 402.068 76.5726 401.752 76.2783C399.372 74.0614 395.963 72.8762 392.414 73.0103C388.861 73.1506 385.563 74.6057 383.367 77.0022L383.166 77.2238C382.754 77.6834 382.364 78.1169 381.91 78.2595C381.375 78.4271 380.667 78.2004 380.044 78.0004C376.184 76.7647 369.169 75.3517 365.554 79.7828C365.437 79.9254 365.324 80.0754 365.21 80.2248C364.863 80.685 364.534 81.1191 364.127 81.285C363.652 81.4776 363.022 81.3333 362.354 81.1816L362.083 81.1202C355.194 79.6066 347.691 84.2389 346.022 91.0381C345.92 91.4551 346.178 91.8756 346.599 91.9773C346.662 91.9926 346.724 92 346.785 92" fill="#959696"/>
<path fill-rule="evenodd" clip-rule="evenodd" d="M369.21 69C369.643 69 369.995 68.6491 370 68.2128C370.044 63.6977 366.994 59.3789 362.746 57.9446C362.12 57.7331 361.462 57.571 360.825 57.4147C359.139 57.0005 357.546 56.609 356.719 55.3878C356.427 54.9556 356.242 54.424 356.047 53.8611L355.925 53.5119C353.79 47.5363 348.445 42.7464 342.306 41.3091C341.963 41.2284 341.613 41.1564 341.262 41.0843C339.913 40.806 338.639 40.5435 337.665 39.7946C336.957 39.2497 336.436 38.4637 335.885 37.6312C335.676 37.3151 335.466 36.9997 335.246 36.6947C331.981 32.1749 325.952 30.0103 320.589 31.4336C320.167 31.5452 319.915 31.9803 320.026 32.4055C320.137 32.8296 320.568 33.0858 320.99 32.972C325.666 31.7345 331.124 33.6923 333.97 37.6312C334.178 37.9187 334.375 38.2168 334.572 38.5142C335.171 39.4187 335.79 40.3529 336.707 41.0593C337.968 42.0289 339.482 42.3409 340.946 42.643C341.283 42.7121 341.619 42.7813 341.949 42.8591C347.579 44.1767 352.482 48.5698 354.44 54.0511L354.557 54.3863C354.778 55.0218 355.005 55.6789 355.416 56.2848C356.584 58.0096 358.55 58.493 360.451 58.9606C361.084 59.1158 361.681 59.2627 362.244 59.4533C365.803 60.6553 368.458 64.414 368.421 68.1965C368.417 68.6357 368.766 68.9954 369.202 69H369.21Z" fill="#959696"/>
<path fill-rule="evenodd" clip-rule="evenodd" d="M240.789 66C241.153 66.0006 241.48 65.745 241.559 65.3712C242.174 62.4536 243.804 57.3823 247.807 56.2029C248.151 56.1014 248.51 56.0296 248.89 55.9536C249.458 55.84 250.045 55.723 250.625 55.4946C251.827 55.0228 252.765 54.1732 253.673 53.3513C254.6 52.5115 255.476 51.7181 256.536 51.4185C257.349 51.1878 258.259 51.2527 259.224 51.3217C260.543 51.415 261.907 51.5123 263.184 50.8563C264.699 50.0767 265.47 48.5269 266.15 47.1591C266.327 46.8039 266.502 46.4497 266.69 46.1113C269.078 41.7981 274.633 39.5157 279.337 40.9119L279.429 40.9397C279.979 41.1043 280.664 41.3083 281.374 41.0533C282.274 40.7282 282.679 39.8524 282.975 39.2132L283.024 39.1077C285.169 34.5035 291.298 32.2519 295.882 34.3789C296.277 34.5626 296.746 34.3882 296.928 33.9906C297.109 33.593 296.937 33.1212 296.542 32.9381C291.213 30.4645 284.09 33.0841 281.597 38.4331L281.547 38.542C281.348 38.9709 281.123 39.4572 280.841 39.5592C280.617 39.6392 280.243 39.5273 279.879 39.4183L279.783 39.3894C274.401 37.7897 268.046 40.4042 265.313 45.3381C265.115 45.6969 264.928 46.0713 264.741 46.4486C264.114 47.7092 263.522 48.9002 262.467 49.4427C261.581 49.8976 260.489 49.8194 259.335 49.7377C258.278 49.6635 257.187 49.5864 256.109 49.8901C254.695 50.2906 253.64 51.2463 252.619 52.1713C251.78 52.9306 250.987 53.6487 250.052 54.0161C249.602 54.1929 249.107 54.292 248.584 54.3963C248.186 54.4757 247.776 54.558 247.364 54.6791C242.815 56.0197 240.858 61.0545 240.017 65.042C239.927 65.4703 240.199 65.8916 240.624 65.9832C240.68 65.9942 240.735 66 240.789 66" fill="#959696"/>
<path fill-rule="evenodd" clip-rule="evenodd" d="M195.794 92C195.808 92 195.823 92 195.837 91.9988C196.27 91.9751 196.602 91.6018 196.578 91.1649C196.432 88.4577 198.22 85.7047 200.738 84.762C201.306 84.549 201.91 84.4136 202.551 84.27C203.523 84.0519 204.529 83.8262 205.461 83.3042C206.623 82.6525 207.463 81.6589 208.275 80.6988C208.449 80.4922 208.622 80.2867 208.799 80.0859C210.579 78.0552 212.427 76.8538 214.293 76.5135C216.161 76.172 218.622 76.8775 219.502 78.8538C219.617 79.1148 219.865 79.2925 220.148 79.3185C220.428 79.3365 220.704 79.2132 220.865 78.9771C223.936 74.455 230.113 72.4202 235.235 74.2449C235.874 74.4729 236.491 74.7507 237.143 75.0453C237.967 75.4162 238.818 75.8005 239.72 76.0742C241.104 76.495 242.531 76.6356 243.91 76.7716C244.795 76.8584 245.709 76.9487 246.578 77.1119C247.743 77.3312 250.552 78.0818 251.493 80.3052C251.664 80.7075 252.125 80.8938 252.523 80.7225C252.922 80.5506 253.107 80.0848 252.937 79.6825C252.064 77.6211 249.852 76.1165 246.866 75.5545C245.93 75.3774 244.98 75.2843 244.062 75.194C242.698 75.0597 241.409 74.933 240.173 74.5562C239.367 74.312 238.598 73.9648 237.783 73.5979C237.131 73.3039 236.456 73.0001 235.757 72.7506C230.36 70.8276 223.92 72.7101 220.279 77.1333C218.917 75.4232 216.433 74.5123 214.015 74.9538C211.794 75.3589 209.643 76.7317 207.624 79.0355C207.441 79.2433 207.261 79.4563 207.08 79.6692C206.326 80.5622 205.613 81.4054 204.699 81.9181C203.966 82.3284 203.113 82.52 202.21 82.7226C201.546 82.8719 200.86 83.0252 200.191 83.2758C197.004 84.4697 194.826 87.8234 195.011 91.2506C195.033 91.6736 195.38 92 195.794 92" fill="#959696"/>
<path fill-rule="evenodd" clip-rule="evenodd" d="M173.22 68C173.299 68 173.378 67.988 173.458 67.9628C173.867 67.8307 174.094 67.3902 173.963 66.9784C171.334 58.7012 162.839 52.8837 154.219 53.4248C154.036 53.4363 153.853 53.45 153.668 53.4643C152.727 53.5381 151.838 53.6062 151.061 53.3368C149.952 52.9512 149.161 51.9227 148.324 50.833C148.124 50.5722 147.924 50.3125 147.72 50.0625C143.526 44.9028 135.944 42.9185 129.757 45.2495C128.526 42.1257 125.096 40.3844 122.213 40.075C118.838 39.7089 115.496 40.7545 112.548 41.6755C112.137 41.8042 111.907 42.2435 112.035 42.6559C112.163 43.0689 112.601 43.3 113.01 43.1719C115.814 42.2956 118.99 41.3031 122.048 41.632C124.662 41.9134 127.8 43.5506 128.516 46.4816C128.571 46.707 128.722 46.8958 128.93 46.9982C129.137 47.1006 129.379 47.1057 129.59 47.0107C135.29 44.4584 142.565 46.1973 146.513 51.0532C146.708 51.2929 146.898 51.5417 147.09 51.7906C147.987 52.9575 149.003 54.28 150.553 54.8172C151.635 55.1935 152.73 55.1077 153.788 55.0265C153.965 55.0128 154.142 54.9991 154.318 54.9876C162.125 54.502 170.1 59.9665 172.478 67.4543C172.584 67.7872 172.89 68 173.22 68" fill="#959696"/>
<path fill-rule="evenodd" clip-rule="evenodd" d="M40.7776 61C40.8639 61 40.9524 60.985 41.0381 60.954C43.0476 60.2288 43.6056 58.0882 44.0978 56.1996C44.2255 55.709 44.3464 55.2455 44.4883 54.813C45.5958 51.4354 49.3315 49.0568 52.8145 49.5186L53.1222 49.5623C53.7688 49.6589 54.5022 49.7676 55.2344 49.4829C56.3243 49.0591 56.8199 48.0383 57.2569 47.1376C57.3341 46.9789 57.4102 46.8219 57.4891 46.6695C58.5983 44.5416 60.9359 43.1142 63.3103 43.1142H63.3279C65.2488 43.12 67.0568 43.9475 68.9715 44.824C70.9775 45.7419 73.0574 46.6983 75.3371 46.6695C78.7231 46.6379 81.412 44.5566 84.0124 42.5443C85.9259 41.0634 87.9042 39.5324 90.1027 38.8906C93.5228 37.8922 97.5127 39.2915 99.5915 42.2176C99.8429 42.5707 100.329 42.6501 100.677 42.3965C101.025 42.1423 101.104 41.65 100.853 41.2974C98.4034 37.8503 93.7004 36.2003 89.6724 37.3775C87.1929 38.101 85.096 39.7234 83.0684 41.2923C80.56 43.2338 78.1912 45.0678 75.3229 45.0949C73.3798 45.1058 71.5492 44.2753 69.6112 43.3885C67.6324 42.4827 65.586 41.5459 63.3319 41.5396H63.3103C60.3745 41.5396 57.4851 43.3034 56.1148 45.9351C56.0286 46.0996 55.9457 46.2704 55.8622 46.4423C55.5205 47.1457 55.1981 47.8099 54.6776 48.0124C54.3251 48.1487 53.8499 48.0785 53.3481 48.0038L53.0144 47.956C48.7598 47.3993 44.3657 50.1903 43.013 54.3167C42.8558 54.7958 42.7229 55.3053 42.5946 55.7976C42.1621 57.4568 41.7539 59.0234 40.517 59.4702C40.1123 59.6163 39.9011 60.0666 40.0453 60.4767C40.1589 60.7987 40.458 61 40.7776 61" fill="#959696"/>
<path fill-rule="evenodd" clip-rule="evenodd" d="M76.2121 91C76.3197 91 76.4285 90.9766 76.5333 90.928C76.931 90.7424 77.1089 90.2567 76.931 89.8418C75.4402 86.3643 71.491 85.1792 68.4506 85.5436C65.5386 85.896 62.9173 87.3808 60.5735 88.8236C59.1863 85.9459 56.5891 83.7184 53.3191 82.6377C49.9294 81.5191 46.4504 81.8404 43.6778 83.5107C39.9317 80.5063 34.4358 80.1472 30.3796 82.7097C30.0077 82.9451 29.8886 83.4506 30.1142 83.8385C30.3398 84.2281 30.8234 84.3536 31.1963 84.1159C34.852 81.8067 39.8586 82.2366 43.1016 85.1401C43.3681 85.3791 43.7532 85.4055 44.0467 85.2044C46.4602 83.5563 49.7481 83.1822 52.8431 84.2059C55.9376 85.2278 58.4201 87.5075 59.4839 90.3035C59.569 90.5275 59.744 90.701 59.9628 90.7791C60.1815 90.8559 60.4215 90.8295 60.6201 90.707C63.0181 89.2162 65.7361 87.5279 68.6319 87.1773C71.1991 86.8663 74.3776 87.9128 75.492 90.5125C75.6232 90.8181 75.911 91 76.2121 91" fill="#959696"/>
<path fill-rule="evenodd" clip-rule="evenodd" d="M31.1939 75C31.601 75 31.9455 74.6693 31.9771 74.2338C32.1643 71.651 31.1973 68.9973 29.3253 66.9542C27.4528 64.9105 24.9687 63.8154 22.5174 63.9117C22.2222 63.925 21.9253 63.9541 21.6285 63.9832C20.94 64.0492 20.2894 64.1134 19.7088 63.9571C18.7993 63.7112 18.0643 62.9353 17.2856 62.1145C16.948 61.7577 16.5989 61.3889 16.2245 61.0533C14.3973 59.4136 11.8541 58.7073 9.25055 59.1114C6.90026 59.4772 4.84742 60.6947 3.5135 62.4901C1.36132 61.5003 -1.2669 61.5245 -3.6591 62.5827C-6.29076 63.7469 -8.27642 66.0032 -8.97065 68.6193C-9.08779 69.0603 -8.84375 69.5182 -8.42572 69.6412C-8.00653 69.7654 -7.573 69.5073 -7.45643 69.0664C-6.89082 66.9348 -5.24396 65.0825 -3.051 64.1122C-0.858624 63.1436 1.54794 63.2024 3.38602 64.2703C3.74778 64.4805 4.20314 64.3599 4.42651 63.9935C5.48136 62.269 7.32289 61.0878 9.48024 60.7529C11.637 60.4143 13.7237 60.9867 15.2058 62.3168C15.532 62.6094 15.8438 62.9383 16.1734 63.2866C17.0669 64.2303 17.9914 65.2061 19.3195 65.5641C20.1625 65.7924 20.9813 65.7125 21.7732 65.6344C22.0436 65.6083 22.3147 65.581 22.584 65.5695C24.5874 65.472 26.634 66.4048 28.1941 68.1069C29.7549 69.8096 30.5616 71.9968 30.4089 74.1072C30.3762 74.5639 30.7 74.9624 31.133 74.9976C31.1537 74.9994 31.1738 75 31.1939 75" fill="#959696"/>
</g>
<path fill-rule="evenodd" clip-rule="evenodd" d="M282.268 138.013C281.668 136.874 280.316 135.525 279 135.443C282.213 135.318 283.02 131.017 283.456 128C283.592 129.099 283.933 130.643 284.069 131.741C284.187 132.69 284.29 133.004 284.735 133.856C285.18 134.704 287.02 135.619 288 135.667C287.765 135.668 286.595 136.126 286.399 136.207C286.132 136.32 285.87 136.443 285.617 136.584C285.169 136.832 284.746 137.133 284.396 137.506C283.299 138.681 283.374 140.517 283.149 142C283.034 140.636 282.908 139.23 282.268 138.013" fill="#FFEAD7"/>
<path fill-rule="evenodd" clip-rule="evenodd" d="M279 135.795C282.211 135.681 283.016 131.754 283.452 129C283.588 130.003 283.929 131.413 284.065 132.415C284.183 133.281 284.286 133.569 284.73 134.346C285.175 135.12 287.014 135.956 287.992 136H288" fill="#FFEAD7"/>
<path fill-rule="evenodd" clip-rule="evenodd" d="M279.129 135.999C279.043 135.995 278.956 135.995 278.871 136.002C278.959 136.005 279.045 136.005 279.129 135.999" fill="#FFEAD7"/>
<path fill-rule="evenodd" clip-rule="evenodd" d="M288 136.205C287.766 136.206 286.595 136.625 286.399 136.699C286.132 136.803 285.871 136.915 285.618 137.044C285.169 137.271 284.746 137.546 284.396 137.887C283.299 138.963 283.374 140.643 283.149 142C283.034 140.752 282.908 139.465 282.268 138.352C281.668 137.309 280.316 136.075 279 136" fill="#FFEAD7"/>
<mask id="mask2_2825_29376" style="mask-type:alpha" maskUnits="userSpaceOnUse" x="278" y="128" width="10" height="15">
<path fill-rule="evenodd" clip-rule="evenodd" d="M288 143H278V128H288V143Z" fill="white"/>
</mask>
<g mask="url(#mask2_2825_29376)">
<path fill-rule="evenodd" clip-rule="evenodd" d="M285.246 136.169C284.512 135.771 283.854 135.239 283.573 134.696C283.12 133.813 282.993 133.424 282.876 132.499C282.432 133.909 281.742 135.261 280.615 136.011C281.379 136.568 282.032 137.357 282.429 138.125C282.509 138.279 282.581 138.435 282.646 138.593C282.816 138.196 283.042 137.82 283.352 137.483C283.707 137.098 284.158 136.751 284.691 136.451C284.861 136.355 285.044 136.262 285.246 136.169M282.958 128H282.964C283.309 128.003 283.598 128.26 283.639 128.599C283.702 129.116 283.817 129.761 283.928 130.385C284.042 131.027 284.16 131.69 284.227 132.243C284.33 133.081 284.399 133.304 284.796 134.077C285.078 134.623 286.557 135.431 287.349 135.471C287.72 135.489 288.009 135.798 288 136.166C287.992 136.52 287.712 136.806 287.361 136.829C287.148 136.872 286.338 137.18 286.049 137.303C285.791 137.413 285.567 137.522 285.37 137.634C284.96 137.865 284.622 138.122 284.365 138.401C283.692 139.134 283.573 140.299 283.459 141.426C283.425 141.756 283.39 142.096 283.342 142.42C283.291 142.762 282.978 143.005 282.641 143C282.292 142.989 282.008 142.72 281.979 142.375C281.876 141.124 281.768 139.829 281.208 138.746C280.7 137.765 279.575 136.67 278.643 136.611C278.278 136.588 277.996 136.286 278 135.924C278.004 135.562 278.294 135.266 278.659 135.252C281.026 135.159 281.817 131.83 282.278 128.585C282.326 128.249 282.616 128 282.958 128" fill="#AFAFAF"/>
</g>
<path fill-rule="evenodd" clip-rule="evenodd" d="M282.956 128H282.963C283.307 128.003 283.595 128.265 283.637 128.61C283.7 129.137 283.815 129.795 283.925 130.431C284.039 131.084 284.157 131.761 284.224 132.324C284.327 133.179 284.396 133.405 284.793 134.192C285.074 134.748 286.55 135.571 287.342 135.613C287.706 135.63 288 135.933 288 136.306C288 136.7 287.666 137.029 287.276 136.998C286.098 136.938 284.117 135.902 283.571 134.823C283.118 133.924 282.991 133.527 282.874 132.584C282.222 134.698 281.036 136.682 278.713 136.776C278.326 136.788 278.016 136.493 278.001 136.111C277.985 135.728 278.28 135.406 278.658 135.39C281.024 135.295 281.815 131.903 282.277 128.597C282.324 128.254 282.614 128 282.956 128" fill="#AFAFAF"/>
<mask id="mask3_2825_29376" style="mask-type:alpha" maskUnits="userSpaceOnUse" x="278" y="135" width="2" height="1">
<path fill-rule="evenodd" clip-rule="evenodd" d="M280 136H278V135H280V136Z" fill="white"/>
</mask>
<g mask="url(#mask3_2825_29376)">
<path fill-rule="evenodd" clip-rule="evenodd" d="M279.022 135C279.083 135 279.144 135.001 279.206 135.003C279.65 135.017 279.999 135.235 280 135.498C280.001 135.762 279.654 135.981 279.209 135.996C279.078 136.001 278.947 136.001 278.811 135.999C278.366 135.99 278.009 135.776 278 135.511C277.991 135.247 278.333 135.025 278.779 135.005C278.859 135.002 278.94 135 279.022 135" fill="#AFAFAF"/>
</g>
<mask id="mask4_2825_29376" style="mask-type:alpha" maskUnits="userSpaceOnUse" x="278" y="135" width="10" height="8">
<path fill-rule="evenodd" clip-rule="evenodd" d="M288 143H278V135H288V143Z" fill="white"/>
</mask>
<g mask="url(#mask4_2825_29376)">
<path fill-rule="evenodd" clip-rule="evenodd" d="M278.686 135C278.7 135 278.715 135 278.73 135.001C280.231 135.1 281.728 136.567 282.429 137.967C282.509 138.126 282.581 138.287 282.646 138.45C282.816 138.04 283.042 137.652 283.352 137.304C283.707 136.907 284.158 136.549 284.691 136.239C284.931 136.098 285.198 135.964 285.506 135.827C285.65 135.764 286.89 135.228 287.311 135.226H287.314C287.692 135.226 287.998 135.538 288 135.925C288.002 136.298 287.719 136.604 287.361 136.629C287.147 136.673 286.338 136.991 286.049 137.118C285.791 137.232 285.567 137.344 285.37 137.46C284.96 137.698 284.622 137.964 284.365 138.251C283.692 139.009 283.573 140.212 283.459 141.375C283.425 141.715 283.39 142.066 283.342 142.401C283.291 142.754 282.978 143.006 282.641 143C282.292 142.988 282.008 142.711 281.979 142.355C281.876 141.063 281.768 139.726 281.208 138.608C280.7 137.595 279.575 136.464 278.643 136.404C278.264 136.379 277.977 136.045 278.001 135.658C278.024 135.286 278.326 135 278.686 135" fill="#AFAFAF"/>
</g>
<path fill-rule="evenodd" clip-rule="evenodd" d="M338.911 1.59875C340.109 0.402407 341.65 -0.12252 343.535 0.0239711C345.419 0.170462 346.374 1.30172 346.399 3.41768C346.425 5.53367 345.465 6.70966 343.522 6.94568C341.579 7.1817 340.025 6.64862 338.861 5.34648C337.696 4.04435 337.713 2.7951 338.911 1.59875" fill="#AFAFAF"/>
<path fill-rule="evenodd" clip-rule="evenodd" d="M127.911 100.599C129.109 99.4024 130.65 98.8775 132.535 99.024C134.419 99.1705 135.374 100.302 135.399 102.418C135.425 104.534 134.465 105.71 132.522 105.946C130.579 106.182 129.025 105.649 127.861 104.346C126.696 103.044 126.713 101.795 127.911 100.599" fill="#AFAFAF"/>
</svg>
