<svg width="306" height="306" viewBox="0 0 306 306" fill="none" xmlns="http://www.w3.org/2000/svg">
    <circle cx="153" cy="153" r="153" fill="#EAE0FF"/>
    <mask id="mask0_0_1" style="mask-type:alpha" maskUnits="userSpaceOnUse" x="0" y="0" width="306" height="306">
        <circle cx="153" cy="153" r="153" fill="#EAE0FF"/>
    </mask>
    <g mask="url(#mask0_0_1)">
        <path fill-rule="evenodd" clip-rule="evenodd" d="M117.664 108.562C115.868 112.617 114.965 117.061 113.63 121.305C113.203 122.645 112.71 124.009 111.757 125.048C111.018 125.854 109.934 126.421 108.86 126.421H108.853C108.162 126.139 107.47 126.133 106.823 126.322C106.598 126.033 106.447 125.662 106.329 125.31C105.748 123.581 105.339 121.806 105.117 120.004L105.074 120.011C104.027 116.155 103.211 105.831 103.036 101.85C102.13 81.316 118.265 56.1635 138.615 56.18C139.72 55.6624 140.995 55.4732 142.234 55.3737C143.915 55.2443 145.604 55.2343 147.292 55.2509C174.06 47.3302 201.684 69.9177 201.993 98.5412C202.074 105.964 201.426 111.114 200.345 117.588L200.694 117.641C200.506 120.538 199.731 123.395 198.439 126.01C198.392 126.106 198.341 126.206 198.291 126.305C197.465 126.09 196.579 126.166 195.703 126.65C195.404 126.428 195.119 126.149 194.898 125.877C193.008 123.657 191.467 121.139 190.36 118.448C189.279 115.833 188.456 112.856 186.537 110.882C184.103 109.352 181.797 107.633 179.652 105.749C177.189 105.36 174.809 104.076 172.681 102.696C165.988 98.3886 160.09 92.8902 155.324 86.5655C155.314 92.0673 156.247 97.5789 158.093 102.789C155.663 101.232 153.492 99.248 151.619 97.0613C149.125 94.1412 145.188 92.0872 143.375 88.7092C141.67 94.4564 139.233 99.9581 134.96 104.186C130.385 106.85 124.81 107.862 119.594 106.893C119.255 106.834 118.913 106.761 118.577 106.681C118.248 107.295 117.946 107.922 117.664 108.562Z" fill="#EAEAEA"/>
        <path fill-rule="evenodd" clip-rule="evenodd" d="M266.111 307.841C266.094 308.112 266.068 308.383 266.032 308.65H41.0459C40.37 305.133 40.307 299.458 40.1513 297.509C39.4024 288.175 41.6192 262.701 42.7392 255.969C45.1514 241.343 55.1318 234.361 68.0048 228.564C74.8771 225.475 82.3127 223.487 89.5925 221.555C93.5157 220.517 100.902 219.14 104.828 218.1C106.767 217.584 114.709 214.668 117.009 215.992L116.985 216.114C117.191 216.157 117.393 216.2 117.602 216.256C117.221 216.828 116.826 217.413 116.416 218.017L116.31 217.961C115.988 218.565 115.554 219.133 115.253 219.754C114.888 220.474 114.759 221.422 115.137 222.086L115.08 222.129C120.779 231.054 132.533 234.674 143.262 236.27C153.076 237.723 162.755 237.859 172.477 235.883C181.99 233.951 187.832 229.284 192.179 220.907C192.126 220.309 191.938 219.711 191.626 219.196L191.494 219.279C191.026 218.754 190.582 218.212 190.171 217.64L190.46 217.446C190.897 217.313 191.341 217.175 191.772 217.043L191.822 217.191C194.426 216.329 199.708 217.627 201.507 218.1C205.427 219.14 212.819 220.517 216.736 221.555C224.023 223.487 231.455 225.475 238.324 228.564C251.203 234.361 261.492 241.297 263.596 255.969C265.866 271.804 267.943 290.959 266.548 307.874L266.111 307.841Z" fill="#FF6400"/>
        <path fill-rule="evenodd" clip-rule="evenodd" d="M169.638 188.93C175.197 186.164 180.065 181.956 183.978 176.65V180.028C183.619 191.934 183.663 208.49 190.95 218.131C191.37 218.693 191.824 219.232 192.302 219.749L192.434 219.667C192.756 220.181 192.949 220.769 193 221.361C188.559 229.652 182.586 234.271 172.859 236.184C162.919 238.139 153.024 238.008 142.989 236.566C132.019 234.987 120.002 231.404 114.175 222.57L114.233 222.528C113.847 221.871 113.979 220.933 114.351 220.22C114.66 219.605 115.104 219.043 115.432 218.445L115.541 218.5C115.961 217.902 116.364 217.327 116.753 216.761C123.472 206.992 125.806 201.784 124.806 182.293C124.664 180.799 124.42 179.318 124.085 177.857C124.346 178.141 124.62 178.426 124.898 178.7C130.166 183.957 138.883 188.962 146.56 191.205C155.436 193.798 161.876 192.794 169.638 188.93Z" fill="white"/>
        <path fill-rule="evenodd" clip-rule="evenodd" d="M155.1 88.0916C159.82 94.3437 165.91 92.3657 172.536 96.6267C174.647 97.9946 179.853 105.516 182.293 105.897C184.417 107.757 183.603 110.617 186.013 112.129C187.914 114.081 188.729 117.023 189.799 119.608C190.9 122.268 192.425 124.758 194.294 126.952C194.513 127.221 194.796 127.497 195.092 127.717C195.703 128.182 196.428 128.442 197.046 128.058C197.309 127.897 198.034 124.358 198.193 124.082C199.872 124.512 202.229 122.577 202.89 124.436C203.555 126.346 205.301 127.792 205.779 129.786C206.813 134.077 204.223 144.151 197.831 146.899C197.369 147.004 194.334 148.684 193.855 148.684C193.838 148.805 192.568 152.371 192.548 152.486C190.989 161.398 187.718 169.284 183.144 175.605C179.301 180.928 174.524 185.15 169.069 187.925C161.453 191.799 155.133 192.809 146.423 190.208C138.89 187.955 130.337 182.936 125.167 177.661C124.895 177.386 124.626 177.1 124.37 176.815L124.36 176.808C117.983 169.812 115.966 161.487 114.151 152.827C113.665 152.669 113.196 152.436 112.784 152.135C106.082 150.6 104.078 142.166 103.223 136.655C102.911 134.631 102.861 133.204 103.503 131.295C104.121 129.449 105.471 127.828 107.063 127.389C107.705 127.205 108.389 127.212 109.074 127.49H109.081C110.148 127.49 111.218 126.929 111.953 126.132C112.897 125.106 113.383 123.757 113.805 122.432C115.131 118.234 116.022 113.845 117.801 109.836C118.466 109.324 118.083 105.769 118.695 105.182C123.864 106.143 126.451 102.826 130.982 100.189C135.21 96.01 142.298 94.4651 143.99 88.7804C144.349 89.4463 147.095 97.1844 149.049 96.6267C151.529 95.9149 153.348 86.8254 154.106 87.7111" fill="white"/>
        <mask id="mask1_0_1" style="mask-type:alpha" maskUnits="userSpaceOnUse" x="38" y="53" width="229" height="258">
            <path fill-rule="evenodd" clip-rule="evenodd" d="M38 53.7227H267V310.649H38V53.7227Z" fill="white"/>
        </mask>
        <g mask="url(#mask1_0_1)">
            <path fill-rule="evenodd" clip-rule="evenodd" d="M118.405 102.758C117.799 102.715 117.292 103.156 117.246 103.753C116.878 108.603 116.415 113.244 114.792 116.751C114.537 117.308 114.259 117.822 113.968 118.276C113.454 119.085 112.852 119.785 112.186 120.348C111.729 120.733 111.673 121.416 112.057 121.873C112.272 122.122 112.577 122.254 112.885 122.254C113.13 122.254 113.378 122.165 113.58 121.996C114.411 121.296 115.156 120.434 115.789 119.44C116.133 118.903 116.458 118.299 116.756 117.656C118.531 113.827 119.017 108.971 119.398 103.919C119.445 103.319 119.001 102.805 118.405 102.758ZM188.898 119.431C188.958 119.491 189.014 119.541 189.097 119.614C189.302 119.799 189.557 119.885 189.809 119.885C190.107 119.885 190.405 119.763 190.623 119.521C191.018 119.073 190.978 118.39 190.527 117.996C190.527 117.996 190.498 117.973 190.498 117.969C190.478 117.949 190.458 117.933 190.438 117.91C190.415 117.89 190.398 117.87 190.375 117.853C189.402 116.968 188.488 115.957 187.66 114.85C185.567 112.068 183.938 108.574 182.951 104.755C182.802 104.179 182.216 103.824 181.637 103.976C181.057 104.126 180.71 104.719 180.859 105.296C181.918 109.39 183.673 113.143 185.935 116.149C186.839 117.356 187.835 118.457 188.898 119.431ZM177.62 95.7282L177.554 95.7183C177.498 95.7116 177.441 95.705 177.385 95.6917C177.355 95.6851 177.325 95.6785 177.296 95.6752C175.282 95.3702 173.233 94.8464 171.203 94.127C166.15 92.3336 161.084 89.2473 156.547 85.1996C156.385 85.0604 156.216 84.9974 156.004 84.9709C155.624 84.8714 155.216 84.8979 154.935 85.2162C154.925 85.2294 154.928 85.2526 154.915 85.2659C154.13 85.5875 153.349 85.9322 152.676 86.4195C150.491 88.0108 148.961 90.3777 148.127 93.4309C148.021 93.779 147.945 94.2298 147.859 94.6342C146.912 93.9911 146.061 93.2618 145.398 92.3568C145.044 91.8761 144.736 91.3557 144.481 90.8087C144.229 90.265 143.584 90.0363 143.041 90.2849C142.504 90.5402 142.273 91.1866 142.528 91.7269C142.842 92.3999 143.223 93.0397 143.653 93.6331C144.763 95.1547 146.206 96.378 147.935 97.2664C148.282 97.452 148.67 97.6277 149.11 97.8134C149.243 97.8631 149.378 97.8929 149.518 97.8929C149.941 97.8929 150.345 97.6344 150.518 97.22C150.743 96.6664 150.478 96.0332 149.928 95.8078C149.888 95.7912 149.855 95.7779 149.819 95.7614C149.931 95.0984 150.057 94.5282 150.203 94.0176C150.905 91.4286 152.163 89.4628 153.948 88.1732C154.468 87.792 155.067 87.5301 155.673 87.2781C160.279 91.2695 165.375 94.3591 170.488 96.1658C172.627 96.925 174.792 97.4786 176.935 97.8034C177.047 97.8333 177.15 97.8465 177.259 97.8598L177.312 97.8664C177.369 97.8731 177.415 97.8764 177.468 97.8764C177.998 97.8764 178.461 97.4885 178.534 96.9482C178.62 96.3581 178.213 95.8078 177.62 95.7282ZM138.594 91.0131C138.037 91.812 137.521 92.4849 137.011 93.0816C134.521 96.0785 131.531 98.3526 128.127 99.8311C126.799 100.415 125.408 100.865 123.988 101.184C123.405 101.31 123.034 101.886 123.166 102.47C123.279 102.974 123.723 103.319 124.216 103.319C124.292 103.319 124.375 103.309 124.451 103.292C126.014 102.951 127.541 102.447 128.991 101.814C132.703 100.199 135.964 97.7227 138.66 94.4773C139.209 93.8408 139.766 93.1082 140.362 92.2496C140.706 91.7623 140.584 91.086 140.097 90.7445C139.603 90.3998 138.931 90.5224 138.594 91.0131ZM181.458 175.491C185.972 169.166 189.147 161.24 190.637 152.571C190.64 152.558 190.644 152.544 190.647 152.531C190.667 152.442 190.68 152.352 190.69 152.259C190.693 152.246 190.697 152.233 190.697 152.219C190.885 151.152 191.048 149.995 191.193 148.689C191.266 148.096 191.796 147.668 192.395 147.734C192.432 147.741 192.452 147.784 192.488 147.791C192.581 147.754 192.657 147.684 192.756 147.671C193.197 147.612 193.644 147.515 194.127 147.386C199.63 145.838 201.336 140.037 202.839 134.915C202.995 134.394 203.144 133.884 203.296 133.39C203.849 131.573 203.885 130.788 203.531 128.954C203.187 127.264 202.167 125.795 200.985 125.305C200.415 125.066 199.819 125.066 199.217 125.305C199.203 125.308 199.19 125.318 199.18 125.321C198.995 125.381 198.779 125.493 198.518 125.659C198.018 125.981 197.349 125.832 197.028 125.331C196.71 124.824 196.856 124.154 197.362 123.836C197.488 123.756 197.591 123.727 197.71 123.66C197.283 123.455 196.981 123.047 197.068 122.563C197.313 121.134 197.541 119.788 197.756 118.495C198.862 111.792 199.445 106.806 199.366 99.6559C199.217 85.6664 192.336 72.3067 180.965 63.9196C170.71 56.3646 158.253 53.9976 146.793 57.432C146.382 57.5447 145.945 57.684 145.452 57.853C145.167 57.9492 144.869 57.9193 144.621 57.7934C143.819 57.863 142.323 58.0022 141.137 58.1116C138.147 58.3934 138.021 58.4033 137.905 58.4033C128.73 58.4033 121.674 63.7638 117.372 68.2656C108.667 77.3588 103.382 90.9506 103.902 102.901C104.078 106.939 105.978 122.304 106.952 125.931C106.985 126.05 106.912 126.163 106.902 126.279C107.584 126.19 108.273 126.223 108.929 126.485C108.938 126.488 108.948 126.481 108.955 126.485C108.955 126.485 108.962 126.491 108.965 126.495H108.968C108.972 126.495 108.972 126.495 108.972 126.498C109.518 126.71 110.048 127.042 110.541 127.496C110.978 127.9 111.008 128.583 110.604 129.024C110.392 129.256 110.101 129.372 109.806 129.372C109.548 129.372 109.283 129.279 109.078 129.087C108.783 128.812 108.482 128.62 108.187 128.507C108.18 128.504 108.18 128.497 108.174 128.497C108.167 128.494 108.157 128.497 108.15 128.497C107.73 128.321 107.306 128.301 106.866 128.431C105.7 128.762 104.571 130.062 104.038 131.683C103.465 133.4 103.511 134.686 103.799 136.596C105.16 145.48 108.005 150.307 112.498 151.348C112.71 151.404 112.938 151.45 113.213 151.49C113.594 151.55 113.836 151.828 113.978 152.153C114.313 152.282 114.601 152.508 114.677 152.882C116.538 161.903 118.564 169.912 124.587 176.612C124.591 176.615 124.591 176.618 124.594 176.622C124.594 176.625 124.601 176.622 124.604 176.625C124.819 176.87 125.071 177.139 125.369 177.447C130.359 182.622 138.68 187.604 146.074 189.849C153.978 192.239 160.078 191.616 167.823 187.611C173.087 184.893 177.674 180.818 181.458 175.491ZM266.551 308.784V308.787C266.551 309.387 266.071 309.871 265.475 309.871C264.875 309.871 264.395 309.387 264.395 308.787V308.744C264.395 308.711 264.395 308.681 264.398 308.648C265.855 290.896 263.418 270.554 261.458 256.804C259.491 243.02 250.187 236.167 236.826 230.131C229.948 227.021 222.226 224.966 215.422 223.152C213.488 222.639 210.627 222.025 207.862 221.432C205.071 220.832 202.183 220.215 200.2 219.685C196.071 218.588 192.687 218.239 191.144 218.753C191.1 218.767 191.074 218.786 191.034 218.803C191.12 218.902 191.183 218.995 191.283 219.105C191.485 219.337 191.561 219.625 191.538 219.914C191.663 219.924 191.779 219.877 191.898 219.93C192.438 220.192 192.667 220.835 192.408 221.372C192.349 221.498 192.286 221.621 192.223 221.743L192.124 221.942C187.551 230.787 181.249 235.597 171.687 237.546C166.759 238.554 161.68 239.055 156.369 239.055C151.809 239.055 147.074 238.683 142.114 237.944C127.557 235.766 118.097 230.969 113.2 223.265C112.776 222.602 112.382 221.909 112.034 221.203C111.769 220.669 111.988 220.023 112.521 219.758C113.054 219.496 113.706 219.715 113.968 220.248C114.279 220.878 114.634 221.501 115.018 222.098C119.501 229.146 128.72 233.757 142.432 235.809C152.915 237.367 162.342 237.241 171.256 235.431C180.24 233.598 185.905 229.269 190.196 220.961L190.269 220.812C190.054 220.769 189.826 220.722 189.667 220.54C189.134 219.947 188.68 219.377 188.273 218.81C181.359 209.325 180.845 193.622 181.259 179.516C181.263 179.407 181.266 179.307 181.269 179.201C177.677 183.594 173.524 187.101 168.812 189.534C163.733 192.157 159.309 193.43 154.69 193.43C151.759 193.43 148.753 192.916 145.448 191.918C138.458 189.793 130.793 185.291 125.508 180.448C125.528 180.895 125.561 181.356 125.581 181.79C126.567 201.737 124.153 207.396 117.528 217.387C117.167 217.938 116.786 218.505 116.392 219.095L116.342 219.161C116.134 219.469 115.793 219.642 115.445 219.642C115.24 219.642 115.028 219.579 114.846 219.453C114.349 219.121 114.22 218.445 114.554 217.954L114.604 217.885C114.73 217.689 114.846 217.513 114.971 217.328C112.922 216.957 107.567 218.624 105.68 219.217C105.021 219.423 104.504 219.589 104.144 219.685C102.157 220.215 99.2694 220.832 96.478 221.432C93.7131 222.025 90.8522 222.639 88.9151 223.152C81.7727 225.055 74.3886 227.024 67.5111 230.131C54.3886 236.065 45.1767 242.877 42.8787 256.823C41.7727 263.543 39.5774 289.105 40.3092 298.252C40.3522 298.795 40.3886 299.608 40.4284 300.549C40.541 303.042 40.7098 306.808 41.1867 309.321C41.19 309.327 41.19 309.331 41.1933 309.341C41.2065 309.397 41.2131 309.473 41.2131 309.569C41.2131 310.166 40.7297 310.653 40.1337 310.653C39.6006 310.653 39.1535 310.259 39.0708 309.745L39.0608 309.689C38.5575 307.023 38.3853 303.188 38.2727 300.645C38.233 299.724 38.1933 298.928 38.1569 298.421C37.3853 288.764 39.6535 263.115 40.7529 256.469C43.3489 240.699 54.7198 233.542 66.6237 228.158C73.6601 224.982 81.4714 222.9 88.3621 221.064C90.3489 220.533 93.233 219.917 96.0244 219.314C98.7926 218.723 101.65 218.11 103.587 217.596C103.902 217.51 104.428 217.344 105.038 217.155C109.478 215.76 113.912 214.56 116.173 215.498C122.279 206.193 124.359 200.799 123.425 181.893C123.382 181.025 123.332 180.126 123.276 179.205C123.263 178.973 123.372 178.78 123.485 178.595C123.312 178.416 123.13 178.223 122.988 178.061H122.985C116.657 171.02 114.528 162.802 112.617 153.573C112.395 153.533 112.167 153.496 111.988 153.45C103.912 151.57 102.22 140.541 101.667 136.921C101.329 134.723 101.283 133.129 101.988 131.004C102.597 129.157 103.75 127.685 105.124 126.877C105.021 126.757 104.908 126.654 104.862 126.492C103.776 122.444 101.912 106.787 101.746 102.995C101.197 90.4871 106.723 76.2656 115.809 66.7679C122.402 59.8859 130.034 56.2459 137.895 56.2426C138.13 56.226 139.62 56.0868 140.938 55.9608C145.008 55.5796 145.057 55.5796 145.183 55.5862C145.23 55.5895 145.249 55.6293 145.293 55.636C145.597 55.5398 145.918 55.4304 146.187 55.3542C158.286 51.7275 171.435 54.2138 182.24 62.1832C194.16 70.9648 201.369 84.9676 201.528 99.6334C201.61 106.943 201.011 112.022 199.885 118.847C199.673 120.147 199.442 121.496 199.193 122.928C199.18 123.028 199.097 123.084 199.054 123.17C199.985 122.945 200.928 122.942 201.809 123.31C203.653 124.072 205.16 126.124 205.647 128.534C206.081 130.732 206.018 131.856 205.362 134.024C205.213 134.511 205.064 135.012 204.912 135.529C203.329 140.906 201.362 147.596 194.703 149.469C194.187 149.614 193.7 149.704 193.226 149.78C193.1 150.758 192.978 151.723 192.832 152.568C192.812 152.704 192.789 152.833 192.766 152.959C191.236 161.811 187.994 169.919 183.402 176.453C183.428 176.556 183.511 176.629 183.508 176.742C183.475 177.653 183.445 178.591 183.418 179.576C183.024 193.082 183.504 208.013 189.72 217.036C189.935 216.917 190.163 216.807 190.438 216.708C193.004 215.856 197.461 216.724 200.753 217.596C202.69 218.11 205.547 218.723 208.312 219.314C211.107 219.917 213.991 220.533 215.975 221.064C222.862 222.897 230.67 224.976 237.713 228.158C251.726 234.493 261.491 241.733 263.594 256.495C265.567 270.342 268.024 290.823 266.551 308.784ZM231.832 279.705C231.842 279.108 231.359 278.618 230.77 278.611H230.753C230.164 278.611 229.677 279.085 229.674 279.678C229.538 290.668 229.71 295.345 229.849 299.105C229.955 301.982 230.038 304.26 229.938 308.423C229.919 309.023 230.392 309.521 230.988 309.534H231.018C231.601 309.534 232.081 309.066 232.094 308.483C232.197 304.246 232.114 301.942 232.011 299.022C231.872 295.286 231.7 290.638 231.832 279.705ZM79.7034 299.852C79.7432 302.52 79.7796 304.828 80.0445 308.401C80.0942 308.998 79.6472 309.518 79.0478 309.562C79.0213 309.565 78.9948 309.565 78.9683 309.565C78.4087 309.565 77.9352 309.134 77.8955 308.564C77.6174 304.924 77.5842 302.587 77.5412 299.882C77.4849 295.887 77.4154 291.355 76.5578 280.986C76.5081 280.392 76.9485 279.872 77.5412 279.819C78.1339 279.766 78.6571 280.21 78.7101 280.807C79.571 291.246 79.6438 295.817 79.7034 299.852Z" fill="#733BE6"/>
        </g>
        <path fill-rule="evenodd" clip-rule="evenodd" d="M133.021 137.65C132.596 137.65 132.183 137.461 131.847 137.095C130.957 136.12 130.717 133.887 131.373 132.665C131.547 132.336 131.778 132.083 132.055 131.913C132.972 131.354 133.963 131.707 134.532 132.785C135.154 133.97 135.293 136.296 134.09 137.248C133.752 137.517 133.382 137.65 133.021 137.65Z" fill="#733BE6"/>
        <path fill-rule="evenodd" clip-rule="evenodd" d="M171.982 135.65C171.777 135.65 171.574 135.606 171.375 135.52C170.754 135.247 170.263 134.546 170.07 133.639C169.942 133.054 169.993 132.141 170.192 131.42C170.397 130.667 170.742 130.147 171.218 129.863C171.616 129.624 172.083 129.586 172.529 129.751C173.123 129.973 173.555 130.534 173.807 131.426C174.167 132.695 174.081 134.433 173.052 135.243C172.71 135.514 172.345 135.65 171.982 135.65Z" fill="#733BE6"/>
        <path fill-rule="evenodd" clip-rule="evenodd" d="M154.019 169.65C148.974 169.65 143.854 168.46 140.466 165.806C139.92 165.377 139.843 164.612 140.292 164.092C140.744 163.574 141.554 163.501 142.1 163.93C148.09 168.619 160.799 168.019 165.915 164.149C166.471 163.73 167.278 163.812 167.72 164.339C168.162 164.863 168.071 165.628 167.516 166.047C164.482 168.346 159.293 169.65 154.019 169.65Z" fill="#733BE6"/>
        <path fill-rule="evenodd" clip-rule="evenodd" d="M125.202 116.65C124.863 116.65 124.522 116.55 124.284 116.352C123.854 115.997 123.92 115.469 124.428 115.169C127.869 113.135 133.152 113.354 136.377 114.595C136.959 114.818 137.169 115.327 136.853 115.734C136.533 116.142 135.803 116.291 135.22 116.065C132.663 115.081 128.505 114.959 125.976 116.451C125.753 116.585 125.478 116.65 125.202 116.65Z" fill="#733BE6"/>
        <path fill-rule="evenodd" clip-rule="evenodd" d="M177.742 115.65C177.383 115.65 177.028 115.514 176.779 115.247C176.085 114.511 174.534 114.021 172.628 113.941C170.348 113.843 168.09 114.356 167.14 115.196C166.641 115.633 165.845 115.624 165.356 115.176C164.873 114.724 164.883 114.003 165.379 113.564C166.841 112.282 169.73 111.537 172.747 111.665C174.294 111.733 177.124 112.095 178.701 113.778C179.151 114.255 179.086 114.974 178.553 115.38C178.317 115.561 178.027 115.65 177.742 115.65Z" fill="#733BE6"/>
        <path fill-rule="evenodd" clip-rule="evenodd" d="M150.828 127.96C152.395 133.351 150.273 138.984 147.989 143.879C147.338 145.267 146.239 146.834 146.018 148.371C145.757 150.215 148.361 151.153 149.808 151.546C152.385 152.245 155.058 152.404 157.708 152.644C159.265 152.787 159.502 150.448 157.938 150.305C155.813 150.112 153.677 149.985 151.582 149.559C150.638 149.37 149.543 149.133 148.74 148.598C148.644 148.534 148.478 148.351 148.382 148.322C148.141 148.258 148.451 148.042 148.337 148.358C148.358 148.302 148.423 148.734 148.42 148.731C148.382 148.671 148.333 148.854 148.413 148.737C148.475 148.641 148.502 148.488 148.544 148.381C149.167 146.764 150.042 145.233 150.752 143.653C151.772 141.363 152.633 139.014 153.201 136.582C153.897 133.62 154.08 130.502 153.222 127.557C152.805 126.113 150.401 126.502 150.828 127.96Z" fill="#004DA6"/>
        <path fill-rule="evenodd" clip-rule="evenodd" d="M130.194 139.371C130.436 137.053 128.826 136.554 128.184 137.436C127.932 137.798 127.827 138.382 128.069 139.169C128.5 140.551 130.015 141.072 130.194 139.371ZM171.099 138.268C171.636 136.004 170.099 135.302 169.353 136.11C169.048 136.44 168.879 137.003 169.026 137.811C169.268 139.236 170.71 139.937 171.099 138.268ZM107.468 153.596L107.048 154.701C105.364 154 103.996 152.639 103.018 151.119C100.051 146.505 96.1476 138.458 98.1047 132.898C98.4729 131.835 101.25 128.498 103.923 130.379L104.049 130.4C104.817 125.712 106.101 121.109 107.858 116.687L106.195 116.474C109.709 108.672 114.791 101.528 121.072 95.5963L122.576 95.1287C125.459 98.8599 128.7 102.294 132.245 105.387L132.666 105.174C131.025 101.879 129.783 98.4134 128.952 94.8415L129.678 94.6821C134.465 103.07 142.735 109.363 152.035 111.68L152.34 111.319C154.171 112.924 156.118 114.433 158.127 115.826C166.239 121.428 175.539 125.266 185.145 127.753C187.849 129.21 190.648 130.485 193.499 131.591C193.888 131.74 194.288 131.889 194.698 132.016C195.666 131.07 197.444 130.942 198.675 131.655C200.18 132.516 200.979 134.206 201.368 135.864C202.284 139.744 201.884 146.165 199.948 149.663C198.002 153.149 195.382 157.083 190.721 158.029L190.753 158.316C190.511 158.358 190.258 158.379 190.006 158.39C188.112 167.649 183.746 178.067 177.475 185.827C177.244 186.125 177.002 186.422 176.749 186.71C174.319 189.58 171.605 192.046 168.659 193.896C162.335 197.872 154.424 199.902 146.964 198.499C137.716 196.766 129.605 191.461 123.513 184.69C122.934 184.073 122.398 183.435 121.872 182.798C114.696 174.049 110.961 164.598 108.615 154.095C108.226 153.968 107.837 153.798 107.468 153.596Z" fill="white"/>
        <path fill-rule="evenodd" clip-rule="evenodd" d="M107.431 117.489L109.099 117.701C107.336 122.102 106.048 126.683 105.278 131.349L105.151 131.328C102.47 129.455 99.6832 132.777 99.3138 133.835C97.3505 139.369 101.267 147.378 104.243 151.97C105.225 153.482 106.597 154.837 108.286 155.535L108.708 154.435C109.078 154.636 109.468 154.805 109.859 154.932C112.213 165.385 115.96 174.79 123.159 183.498C123.686 184.132 124.225 184.767 124.805 185.381L124.52 185.645C124.742 186.576 124.9 187.518 124.974 188.47H124.964C124.974 188.851 124.985 189.221 124.974 189.602L122.451 189.634C120.425 188.904 118.884 187.941 117.628 186.746C114.081 186.947 110.439 185.434 108.138 182.715L106.734 183.328C103.198 175.372 100.084 167.469 97.6354 161.237C89.0644 139.379 91.2177 114.982 97.6882 92.8804C102.206 77.4337 114.419 58.4744 132.627 57.3318L132.785 57.7127C135.793 56.4536 138.939 55.5333 142.148 54.9407C149.231 50.3595 158.572 51.7455 167.08 53.6394C176.063 55.6285 184.053 60.8972 190.26 67.5097C196.466 74.1222 201.1 79.0419 204.879 87.2095C207.032 91.8647 208.954 96.6469 210.231 101.598C212.12 108.983 212.542 116.632 212.806 124.229C213.197 135.116 213.271 146.14 210.621 156.73C208.383 165.67 205.386 174.441 202.831 183.297C200.446 183.455 197.997 182.683 196.171 181.138L195.443 180.779C193.099 183.265 190.017 185.402 187.463 186.185L187.273 185.72C186.323 186.1 185.362 186.428 184.37 186.661C182.586 187.074 180.665 187.116 178.944 186.513C185.235 178.79 189.616 168.421 191.516 159.206C191.769 159.195 192.022 159.174 192.265 159.132L192.234 158.846C196.91 157.905 199.538 153.99 201.491 150.52C203.433 147.039 203.834 140.649 202.916 136.787C202.525 135.137 201.723 133.455 200.214 132.598C198.979 131.889 197.195 132.016 196.224 132.957C195.812 132.83 195.411 132.682 195.02 132.534C192.16 131.434 189.352 130.164 186.639 128.715C177.002 126.239 167.671 122.42 159.533 116.844C157.517 115.458 155.564 113.956 153.727 112.358L153.421 112.718C144.09 110.411 135.793 104.148 130.991 95.8005L130.262 95.9592C131.096 99.5141 132.342 102.963 133.989 106.243L133.566 106.455C130.009 103.376 126.758 99.9583 123.866 96.2448L122.356 96.7104C116.055 102.614 110.956 109.724 107.431 117.489Z" fill="#EAEAEA"/>
        <path fill-rule="evenodd" clip-rule="evenodd" d="M129.166 137.835C129.134 137.966 129.128 138.203 129.231 138.556C129.258 138.647 129.291 138.725 129.327 138.793C129.355 138.262 129.25 137.959 129.166 137.835ZM129.486 141.227C128.649 141.227 127.841 140.402 127.523 139.195C127.161 137.797 127.506 136.912 127.743 136.508C127.747 136.502 127.75 136.497 127.753 136.491C128.22 135.729 129.023 135.445 129.751 135.783C130.5 136.131 131.238 137.209 131.064 139.19C130.942 140.574 130.246 141.145 129.636 141.218C129.586 141.224 129.536 141.227 129.486 141.227Z" fill="#733BE6"/>
        <path fill-rule="evenodd" clip-rule="evenodd" d="M170.186 137.824C170.133 137.94 170.094 138.17 170.166 138.542C170.183 138.631 170.206 138.709 170.233 138.778C170.34 138.243 170.257 137.949 170.186 137.824ZM170.316 141.227C170.301 141.227 170.287 141.227 170.272 141.227C169.369 141.194 168.576 140.221 168.386 138.914C168.162 137.485 168.609 136.664 168.896 136.303C169.444 135.612 170.281 135.445 170.978 135.887C171.694 136.341 172.32 137.512 171.928 139.44C171.664 140.759 170.931 141.227 170.316 141.227Z" fill="#733BE6"/>
        <path fill-rule="evenodd" clip-rule="evenodd" d="M152.71 156.122C152.55 156.122 152.387 156.083 152.236 156C151.751 155.735 151.569 155.122 151.832 154.631C152.433 153.504 153.115 152.227 153.267 150.955C153.386 149.957 153.096 148.691 152.181 148.111C152.061 148.034 151.922 147.963 151.774 147.887C151.463 147.726 151.11 147.544 150.79 147.249C149.885 146.421 149.737 145.232 149.712 144.179C149.67 142.216 149.886 140.231 150.353 138.277C150.482 137.735 151.022 137.401 151.559 137.532C152.095 137.664 152.425 138.21 152.295 138.752C151.869 140.536 151.672 142.346 151.71 144.133C151.725 144.754 151.787 145.435 152.135 145.754C152.259 145.868 152.465 145.974 152.682 146.087C152.856 146.176 153.052 146.277 153.246 146.402C154.699 147.322 155.488 149.205 155.251 151.197C155.054 152.849 154.276 154.306 153.59 155.591C153.409 155.929 153.065 156.122 152.71 156.122Z" fill="#733BE6"/>
        <path fill-rule="evenodd" clip-rule="evenodd" d="M120.877 118.886C120.614 118.886 120.352 118.779 120.163 118.568C119.81 118.175 119.844 117.571 120.238 117.22C122.84 114.895 127.495 114.478 130.614 116.289C131.071 116.554 131.226 117.139 130.96 117.595C130.693 118.051 130.107 118.206 129.65 117.94C127.278 116.562 123.477 116.891 121.515 118.643C121.332 118.806 121.104 118.886 120.877 118.886Z" fill="#733BE6"/>
        <path fill-rule="evenodd" clip-rule="evenodd" d="M146.767 122.61C146.535 122.61 146.302 122.536 146.105 122.385C140.274 117.895 135.433 112.039 132.106 105.451C130.389 102.08 129.073 98.498 128.196 94.8085C127.844 93.2826 127.568 91.7682 127.374 90.3005C127.297 89.7173 127.713 89.1829 128.303 89.1068C128.893 89.0303 129.434 89.4417 129.511 90.0249C129.696 91.4266 129.96 92.8744 130.295 94.3283C131.132 97.8479 132.39 101.272 134.032 104.497C137.218 110.806 141.851 116.409 147.43 120.705C147.899 121.066 147.983 121.735 147.617 122.199C147.405 122.469 147.088 122.61 146.767 122.61Z" fill="#733BE6"/>
        <path fill-rule="evenodd" clip-rule="evenodd" d="M185.906 128.195C185.839 128.195 185.771 128.189 185.702 128.175C185.567 128.148 185.455 128.114 185.357 128.085L185.323 128.074C174.951 125.429 165.832 121.465 158.22 116.293C156.158 114.886 154.195 113.382 152.386 111.821C146.383 106.662 141.757 100.766 138.638 94.2986C138.391 93.785 138.609 93.1689 139.125 92.9228C139.642 92.6768 140.262 92.8932 140.509 93.4068C143.504 99.6168 147.957 105.288 153.745 110.262C155.496 111.773 157.396 113.229 159.392 114.591C166.808 119.63 175.714 123.496 185.86 126.082C185.874 126.085 185.887 126.089 185.901 126.093L185.964 126.112C186.023 126.13 186.074 126.146 186.108 126.152C186.67 126.264 187.034 126.807 186.922 127.365C186.824 127.856 186.391 128.195 185.906 128.195Z" fill="#733BE6"/>
        <path fill-rule="evenodd" clip-rule="evenodd" d="M108.066 156.122C107.878 156.057 107.686 155.989 107.491 155.905C105.342 155.026 103.905 153.342 103.077 152.084C101.327 149.421 95.8007 140.225 98.1495 133.694C98.513 132.666 100.058 130.849 101.896 130.261C103.13 129.867 104.346 130.047 105.412 130.782C105.877 131.102 105.992 131.735 105.668 132.194C105.343 132.654 104.704 132.767 104.239 132.447C103.697 132.073 103.153 131.993 102.528 132.192C101.23 132.607 100.215 134.002 100.085 134.369C98.4679 138.866 101.46 145.897 104.798 150.978C105.468 151.996 106.616 153.353 108.283 154.033C108.29 154.036 108.296 154.039 108.303 154.041C108.433 154.098 108.586 154.151 108.748 154.208L108.066 156.122Z" fill="#733BE6"/>
        <mask id="mask2_0_1" style="mask-type:alpha" maskUnits="userSpaceOnUse" x="106" y="148" width="87" height="51">
            <path fill-rule="evenodd" clip-rule="evenodd" d="M106.886 148.676H192.528V198.944H106.886V148.676Z" fill="white"/>
        </mask>
        <g mask="url(#mask2_0_1)">
            <path fill-rule="evenodd" clip-rule="evenodd" d="M152.195 198.944C150.485 198.944 148.797 198.796 147.154 198.495C138.346 196.886 129.779 191.976 123.032 184.669C122.429 184.042 121.866 183.389 121.347 182.776C114.702 174.879 110.531 166.084 107.82 154.255C107.479 152.781 107.17 151.315 106.904 149.899C106.798 149.337 107.174 148.798 107.744 148.693C108.315 148.589 108.863 148.96 108.969 149.521C109.23 150.91 109.533 152.348 109.868 153.797C112.504 165.294 116.542 173.823 122.962 181.454C123.537 182.133 124.03 182.699 124.563 183.253C124.569 183.259 124.574 183.264 124.579 183.27C131.02 190.249 139.174 194.934 147.538 196.461C154.343 197.709 162.009 196.118 168.572 192.096C171.334 190.405 173.985 188.109 176.452 185.269C176.456 185.264 176.46 185.259 176.465 185.255C176.683 185.012 176.908 184.746 177.153 184.44C177.157 184.434 177.161 184.429 177.165 184.424C182.887 177.523 187.509 167.652 189.53 158.02C189.962 156.024 190.265 154.075 190.432 152.22C190.483 151.651 190.991 151.23 191.57 151.281C192.148 151.331 192.575 151.833 192.524 152.402C192.35 154.34 192.034 156.373 191.586 158.445C189.501 168.378 184.721 178.578 178.798 185.725C178.532 186.058 178.285 186.351 178.041 186.621C175.436 189.619 172.624 192.051 169.681 193.852C164.252 197.179 158.096 198.944 152.195 198.944Z" fill="#733BE6"/>
        </g>
        <path fill-rule="evenodd" clip-rule="evenodd" d="M104.179 122.61C104.068 122.61 103.955 122.591 103.844 122.552C103.314 122.364 103.034 121.773 103.219 121.233C103.831 119.443 104.558 117.598 105.38 115.751C108.837 108.009 113.917 100.821 120.069 94.9621C120.479 94.5716 121.123 94.5937 121.506 95.0116C121.89 95.4293 121.868 96.0847 121.458 96.4753C115.498 102.151 110.578 109.112 107.231 116.607C106.435 118.396 105.731 120.183 105.139 121.915C104.993 122.342 104.599 122.61 104.179 122.61Z" fill="#733BE6"/>
        <path fill-rule="evenodd" clip-rule="evenodd" d="M130.2 83.5124C130.182 83.5124 130.163 83.5119 130.145 83.5106C129.609 83.4769 129.199 82.9672 129.229 82.3719C129.611 74.8531 130.597 69.8645 134.926 63.4639C135.248 62.9874 135.858 62.891 136.287 63.2492C136.716 63.6075 136.802 64.2843 136.48 64.7609C132.45 70.7198 131.53 75.4077 131.17 82.4935C131.141 83.0681 130.712 83.5124 130.2 83.5124Z" fill="#733BE6"/>
        <path fill-rule="evenodd" clip-rule="evenodd" d="M107.573 185.911C107.178 185.911 106.799 185.689 106.62 185.311C106.096 184.203 105.564 183.049 104.994 181.785C101.371 173.732 98.1849 165.721 95.8584 159.873C91.7791 149.594 89.8617 138.104 90.16 125.721C90.4189 114.967 92.3436 103.462 95.8806 91.5259C98.4196 82.9488 103.003 74.4578 108.456 68.2306C115.235 60.4872 123.32 56.1155 131.834 55.5875C132.414 55.5514 132.912 55.9877 132.949 56.5617C132.985 57.1358 132.545 57.6302 131.965 57.6662C124.027 58.1584 116.447 62.2832 110.045 69.5949C104.783 75.6041 100.356 83.8113 97.8987 92.1121C94.4132 103.874 92.5171 115.198 92.2626 125.77C91.9711 137.875 93.8394 149.092 97.8155 159.11C100.135 164.94 103.311 172.926 106.915 180.937C107.479 182.189 108.006 183.331 108.525 184.427C108.771 184.948 108.544 185.568 108.019 185.812C107.874 185.879 107.723 185.911 107.573 185.911Z" fill="#733BE6"/>
        <mask id="mask3_0_1" style="mask-type:alpha" maskUnits="userSpaceOnUse" x="138" y="50" width="76" height="135">
            <path fill-rule="evenodd" clip-rule="evenodd" d="M138.536 50H213.008V184.049H138.536V50Z" fill="white"/>
        </mask>
        <g mask="url(#mask3_0_1)">
            <path fill-rule="evenodd" clip-rule="evenodd" d="M201.487 184.049C201.396 184.049 201.304 184.037 201.212 184.013C200.65 183.862 200.317 183.286 200.468 182.727C200.533 182.487 200.604 182.258 200.673 182.036L200.72 181.886C201.661 178.643 202.678 175.361 203.662 172.188C205.359 166.711 207.113 161.048 208.531 155.423C211.213 144.769 211.07 133.705 210.694 123.286C210.439 116.003 210.032 108.278 208.14 100.929C207.031 96.6555 205.343 92.1502 202.83 86.7524C199.122 78.7903 194.631 74.0356 188.414 67.4548L188.337 67.3737C183.695 62.4604 175.983 56.124 165.599 53.8396C156.927 51.9217 147.99 50.7343 141.359 54.9951C141.029 55.2118 140.63 55.4795 140.24 55.784C139.782 56.1412 139.12 56.0616 138.761 55.6051C138.401 55.1489 138.482 54.4892 138.94 54.1317C139.393 53.778 139.856 53.4675 140.209 53.2364C147.497 48.5527 156.938 49.7737 166.055 51.7902C176.962 54.1899 185.027 60.8069 189.872 65.9354L189.949 66.0166C196.062 72.4879 200.891 77.5991 204.742 85.8694C207.31 91.3853 209.039 96.0041 210.181 100.405C212.127 107.96 212.542 115.815 212.8 123.212C213.182 133.78 213.325 145.014 210.575 155.934C209.144 161.614 207.381 167.304 205.676 172.807C204.694 175.974 203.679 179.25 202.742 182.478C202.741 182.483 202.739 182.489 202.737 182.495L202.687 182.657C202.621 182.87 202.558 183.07 202.504 183.271C202.377 183.74 201.951 184.049 201.487 184.049Z" fill="#733BE6"/>
        </g>
        <path fill-rule="evenodd" clip-rule="evenodd" d="M191.697 157.984C191.216 157.984 190.785 157.649 190.686 157.165C190.574 156.613 190.936 156.075 191.495 155.964C195.543 155.16 197.927 151.848 199.902 148.389C201.69 145.229 202.02 139.223 201.198 135.811C200.919 134.651 200.318 133.118 199.036 132.4C198.2 131.927 196.941 132.018 196.339 132.595C196.207 132.718 196.123 132.831 196.073 132.946C195.851 133.465 195.246 133.708 194.721 133.488C194.196 133.268 193.951 132.67 194.173 132.151C194.333 131.777 194.581 131.431 194.911 131.122C196.163 129.925 198.427 129.704 200.057 130.628C201.58 131.48 202.671 133.111 203.205 135.34C204.132 139.18 203.82 145.644 201.701 149.388C200.758 151.041 199.582 152.944 197.993 154.558C196.184 156.395 194.191 157.509 191.901 157.964C191.833 157.977 191.765 157.984 191.697 157.984Z" fill="#733BE6"/>
        <path fill-rule="evenodd" clip-rule="evenodd" d="M193.725 144.951C193.436 144.951 193.145 144.855 192.915 144.66C192.429 144.246 192.397 143.547 192.844 143.097C193.845 142.092 195.273 141.414 196.764 141.237C197.419 141.159 198.019 141.586 198.104 142.192C198.188 142.798 197.725 143.352 197.069 143.43C196.129 143.542 195.232 143.966 194.607 144.594C194.371 144.831 194.048 144.951 193.725 144.951Z" fill="#733BE6"/>
        <path fill-rule="evenodd" clip-rule="evenodd" d="M106.036 143.089C105.826 143.089 105.615 142.981 105.45 142.763C105.027 142.2 104.475 141.83 103.898 141.722C103.433 141.635 103.107 141.039 103.17 140.391C103.232 139.743 103.66 139.289 104.125 139.376C105.054 139.551 105.941 140.145 106.622 141.049C106.962 141.5 106.975 142.249 106.651 142.722C106.484 142.966 106.26 143.089 106.036 143.089Z" fill="#733BE6"/>
        <path fill-rule="evenodd" clip-rule="evenodd" d="M120.756 189.634C120.641 189.634 120.524 189.616 120.41 189.577C118.384 188.891 116.727 187.956 115.346 186.719C113.397 184.982 112.123 182.794 110.7 179.826C110.468 179.34 110.697 178.769 111.212 178.549C111.727 178.33 112.333 178.546 112.566 179.031C113.886 181.785 115.047 183.797 116.754 185.318C117.927 186.368 119.349 187.167 121.102 187.761C121.634 187.941 121.911 188.494 121.719 188.995C121.569 189.389 121.176 189.634 120.756 189.634Z" fill="#733BE6"/>
        <path fill-rule="evenodd" clip-rule="evenodd" d="M186.097 185.91C185.662 185.91 185.26 185.614 185.126 185.152C184.962 184.587 185.264 183.988 185.8 183.815C188.03 183.096 190.891 181.049 193.087 178.6C194.63 176.877 195.709 175.117 196.123 173.645C196.282 173.078 196.849 172.754 197.386 172.922C197.924 173.09 198.231 173.686 198.071 174.253C197.427 176.545 195.809 178.682 194.565 180.07C192.107 182.812 188.976 185.031 186.395 185.863C186.296 185.895 186.196 185.91 186.097 185.91Z" fill="#733BE6"/>
        <path fill-rule="evenodd" clip-rule="evenodd" d="M151.198 176.602C149.306 176.602 147.634 176.461 146.238 176.271C141.828 175.672 139.169 174.479 139.058 174.428C138.566 174.205 138.391 173.7 138.667 173.301C138.942 172.903 139.562 172.761 140.054 172.983C140.098 173.003 142.595 174.108 146.667 174.651C150.425 175.152 156.342 175.261 163.187 172.942C163.708 172.766 164.305 172.965 164.522 173.387C164.739 173.809 164.494 174.294 163.974 174.47C159.172 176.097 154.788 176.602 151.198 176.602Z" fill="#733BE6"/>
        <path fill-rule="evenodd" clip-rule="evenodd" d="M155.802 185.911C155.352 185.911 154.901 185.903 154.449 185.888C153.868 185.869 153.412 185.389 153.431 184.815C153.451 184.241 153.938 183.79 154.519 183.811C160.951 184.022 167.232 182.641 173.183 179.705C177.967 177.345 182.555 173.98 186.82 169.703C194.106 162.398 197.942 154.91 197.98 154.835C198.24 154.322 198.873 154.113 199.393 154.37C199.913 154.627 200.124 155.251 199.864 155.765C199.703 156.082 195.839 163.624 188.322 171.161C183.893 175.601 179.117 179.101 174.125 181.564C168.274 184.451 162.116 185.911 155.802 185.911Z" fill="#733BE6"/>
        <path fill-rule="evenodd" clip-rule="evenodd" d="M160.878 184.049C160.878 186.105 157.543 187.772 153.431 187.772C149.318 187.772 145.983 186.105 145.983 184.049C145.983 181.992 149.318 180.325 153.431 180.325C157.543 180.325 160.878 181.992 160.878 184.049Z" fill="#733BE6"/>
    </g>
</svg>