<svg width="324" height="306" viewBox="0 0 324 306" fill="none" xmlns="http://www.w3.org/2000/svg">
    <path fill-rule="evenodd" clip-rule="evenodd" d="M311.881 257.209C310.774 259.313 308.278 261.803 305.847 261.954C311.781 262.186 313.27 270.128 314.075 275.7C314.326 273.671 314.957 270.819 315.208 268.792C315.425 267.039 315.616 266.459 316.438 264.885C317.26 263.32 320.658 261.629 322.467 261.541C322.033 261.539 319.872 260.694 319.51 260.543C319.018 260.335 318.534 260.109 318.067 259.849C317.238 259.39 316.458 258.835 315.811 258.146C313.786 255.976 313.924 252.586 313.508 249.847C313.296 252.365 313.063 254.962 311.881 257.209Z" fill="#F0CA30"/>
    <path fill-rule="evenodd" clip-rule="evenodd" d="M305.847 261.305C311.776 261.515 313.263 268.768 314.068 273.853C314.319 272.002 314.949 269.398 315.2 267.547C315.417 265.947 315.608 265.417 316.428 263.981C317.25 262.551 320.645 261.008 322.453 260.927H322.467" fill="#F0CA30"/>
    <path fill-rule="evenodd" clip-rule="evenodd" d="M306.087 260.928C305.928 260.936 305.767 260.935 305.609 260.923C305.772 260.918 305.931 260.918 306.087 260.928Z" fill="#F0CA30"/>
    <path fill-rule="evenodd" clip-rule="evenodd" d="M322.467 260.548C322.034 260.546 319.872 259.773 319.51 259.635C319.018 259.444 318.535 259.237 318.067 258.999C317.239 258.58 316.458 258.071 315.812 257.441C313.786 255.456 313.924 252.353 313.508 249.847C313.296 252.152 313.063 254.527 311.881 256.584C310.775 258.509 308.278 260.788 305.847 260.926" fill="#F0CA30"/>
    <mask id="mask0_0_1" style="mask-type:alpha" maskUnits="userSpaceOnUse" x="304" y="248" width="19" height="28">
        <path fill-rule="evenodd" clip-rule="evenodd" d="M322.467 248H304V275.699H322.467V248Z" fill="white"/>
    </mask>
    <g mask="url(#mask0_0_1)">
        <path fill-rule="evenodd" clip-rule="evenodd" d="M317.381 260.615C316.026 261.349 314.81 262.332 314.293 263.335C313.455 264.965 313.222 265.683 313.005 267.392C312.186 264.788 310.91 262.291 308.829 260.907C310.24 259.878 311.446 258.421 312.18 257.002C312.327 256.718 312.46 256.43 312.581 256.138C312.894 256.871 313.312 257.565 313.883 258.188C314.54 258.899 315.372 259.539 316.357 260.093C316.671 260.27 317.009 260.443 317.381 260.615ZM313.156 275.7H313.168C313.804 275.693 314.337 275.22 314.413 274.594C314.53 273.64 314.742 272.447 314.947 271.295C315.157 270.111 315.375 268.885 315.499 267.864C315.689 266.316 315.816 265.905 316.549 264.479C317.07 263.47 319.803 261.976 321.264 261.904C321.949 261.87 322.483 261.301 322.466 260.62C322.452 259.967 321.935 259.439 321.287 259.396C320.893 259.317 319.397 258.748 318.863 258.521C318.387 258.317 317.974 258.116 317.61 257.909C316.854 257.484 316.229 257.007 315.754 256.494C314.512 255.139 314.292 252.987 314.081 250.906C314.019 250.298 313.955 249.67 313.865 249.072C313.771 248.441 313.192 247.99 312.57 248C311.926 248.021 311.401 248.517 311.348 249.154C311.158 251.465 310.959 253.856 309.925 255.855C308.987 257.667 306.909 259.69 305.187 259.799C304.514 259.841 303.992 260.398 304.001 261.067C304.008 261.735 304.543 262.281 305.217 262.308C309.587 262.48 311.049 268.628 311.9 274.619C311.989 275.239 312.524 275.7 313.156 275.7Z" fill="#004CA9"/>
    </g>
    <path fill-rule="evenodd" clip-rule="evenodd" d="M313.152 275.7H313.164C313.8 275.693 314.333 275.211 314.409 274.573C314.526 273.601 314.738 272.386 314.942 271.211C315.153 270.004 315.371 268.755 315.495 267.715C315.684 266.137 315.812 265.718 316.544 264.265C317.064 263.238 319.789 261.719 321.251 261.641C321.925 261.611 322.467 261.05 322.467 260.362C322.467 259.634 321.85 259.026 321.13 259.084C318.955 259.195 315.297 261.108 314.288 263.1C313.451 264.76 313.218 265.493 313.001 267.234C311.796 263.332 309.607 259.667 305.318 259.494C304.603 259.472 304.029 260.016 304.001 260.722C303.974 261.428 304.517 262.024 305.216 262.052C309.585 262.229 311.046 268.493 311.898 274.598C311.986 275.231 312.521 275.7 313.152 275.7Z" fill="#733BE6"/>
    <mask id="mask1_0_1" style="mask-type:alpha" maskUnits="userSpaceOnUse" x="304" y="260" width="4" height="3">
        <path fill-rule="evenodd" clip-rule="evenodd" d="M307.694 260.927H304.001V262.773H307.694V260.927Z" fill="white"/>
    </mask>
    <g mask="url(#mask1_0_1)">
        <path fill-rule="evenodd" clip-rule="evenodd" d="M305.888 262.773C306.002 262.773 306.114 262.772 306.227 262.768C307.048 262.742 307.692 262.34 307.694 261.853C307.697 261.366 307.056 260.962 306.234 260.934C305.992 260.925 305.749 260.925 305.5 260.929C304.676 260.946 304.018 261.341 304.001 261.829C303.985 262.318 304.616 262.728 305.439 262.764C305.587 262.77 305.738 262.773 305.888 262.773Z" fill="#004CA9"/>
    </g>
    <mask id="mask2_0_1" style="mask-type:alpha" maskUnits="userSpaceOnUse" x="304" y="248" width="19" height="15">
        <path fill-rule="evenodd" clip-rule="evenodd" d="M322.467 248H304V262.773H322.467V248Z" fill="white"/>
    </mask>
    <g mask="url(#mask2_0_1)">
        <path fill-rule="evenodd" clip-rule="evenodd" d="M305.267 262.773C305.294 262.773 305.321 262.773 305.348 262.771C308.121 262.589 310.884 259.879 312.18 257.295C312.327 257.001 312.46 256.704 312.581 256.402C312.893 257.159 313.311 257.876 313.883 258.518C314.539 259.253 315.371 259.914 316.357 260.486C316.8 260.745 317.292 260.993 317.861 261.246C318.127 261.363 320.417 262.353 321.194 262.357H321.2C321.897 262.357 322.464 261.78 322.467 261.065C322.47 260.377 321.948 259.811 321.286 259.766C320.892 259.684 319.397 259.097 318.863 258.863C318.387 258.652 317.974 258.444 317.61 258.231C316.853 257.791 316.229 257.3 315.754 256.769C314.511 255.371 314.292 253.149 314.081 251.001C314.018 250.373 313.954 249.724 313.865 249.107C313.771 248.455 313.192 247.99 312.57 248C311.926 248.022 311.401 248.534 311.348 249.191C311.158 251.578 310.959 254.046 309.925 256.11C308.987 257.981 306.909 260.069 305.187 260.181C304.489 260.227 303.958 260.843 304.003 261.558C304.046 262.245 304.603 262.773 305.267 262.773Z" fill="#733BE6"/>
    </g>
    <path fill-rule="evenodd" clip-rule="evenodd" d="M9.89186 53.8388C8.41584 56.6937 5.08846 60.0733 1.84724 60.2789C9.75761 60.5932 11.7432 71.3718 12.8178 78.9327C13.1524 76.1799 13.9933 72.3102 14.3286 69.5574C14.6178 67.1792 14.8716 66.392 15.9676 64.2573C17.0629 62.1318 21.5938 59.8379 24.0068 59.7172C23.4285 59.7145 20.5459 58.5685 20.0643 58.363C19.4071 58.0804 18.7626 57.7741 18.1402 57.4206C17.0355 56.7985 15.9943 56.0445 15.1334 55.1101C12.4325 52.1656 12.6148 47.5644 12.0611 43.8467C11.7786 47.2654 11.4681 50.7882 9.89186 53.8388Z" fill="white"/>
    <mask id="mask3_0_1" style="mask-type:alpha" maskUnits="userSpaceOnUse" x="0" y="42" width="26" height="39">
        <path fill-rule="evenodd" clip-rule="evenodd" d="M25.8525 42H-0.000324249V80.7793H25.8525V42Z" fill="white"/>
    </mask>
    <g mask="url(#mask3_0_1)">
        <path fill-rule="evenodd" clip-rule="evenodd" d="M19.9796 59.6017C17.8115 60.6137 15.6927 62.1116 14.8548 63.7158C13.6323 66.0655 13.3215 67.0584 13.0058 69.6194C12.9362 70.1802 12.8438 70.7956 12.7394 71.441C11.5615 66.8907 9.53589 62.2056 5.73849 60.0692C7.95393 58.6374 9.87314 56.4124 11.0045 54.2528C11.3946 53.5066 11.7159 52.7372 11.9822 51.9556C12.4432 53.3683 13.1282 54.7067 14.1962 55.8543C15.1246 56.8492 16.2594 57.7133 17.6682 58.4963C18.301 58.8507 19.0012 59.1894 19.8065 59.5308C19.8113 59.5329 19.8732 59.5588 19.9796 59.6017ZM12.8126 80.7801H12.8272C13.5254 80.7732 14.1102 80.2594 14.1936 79.58C14.3633 78.2007 14.6713 76.4881 14.9696 74.8308C15.2728 73.1428 15.5878 71.3962 15.7658 69.9467C16.0454 67.6883 16.2498 67.0347 17.3311 64.9555C18.2177 63.2587 22.4441 61.1352 24.5323 61.0323C25.2847 60.9955 25.8702 60.3781 25.8521 59.64C25.8361 58.9225 25.2555 58.3446 24.5309 58.3098C23.992 58.2212 21.6973 57.3598 20.9067 57.0273C20.1995 56.7281 19.589 56.433 19.0431 56.1277C17.8895 55.4858 16.9772 54.7961 16.2498 54.0172C14.348 51.9707 14.0232 48.8162 13.7089 45.7659C13.6199 44.9018 13.5288 44.0084 13.4009 43.1627C13.2973 42.4785 12.6638 41.9926 11.9796 42.0001C11.2731 42.0233 10.6966 42.5609 10.6389 43.2513C10.3587 46.6028 10.0687 50.0687 8.52914 53.0086C7.08417 55.7672 3.98561 58.7201 1.30288 58.8884C0.563707 58.9347 -0.00857925 59.5399 -0.000234604 60.2643C0.00880623 60.99 0.595697 61.5816 1.33487 61.6102C7.99023 61.8712 10.1751 70.8544 11.4358 79.6072C11.5324 80.2799 12.12 80.7801 12.8126 80.7801Z" fill="#733BE6"/>
    </g>
    <path fill-rule="evenodd" clip-rule="evenodd" d="M1.84724 59.2139C9.75118 59.5462 11.7352 70.9411 12.8089 78.9331C13.1433 76.0237 13.9834 71.9324 14.3178 69.0223C14.6074 66.5083 14.861 65.6762 15.9561 63.4195C17.0505 61.1726 21.5777 58.7477 23.9888 58.6201H24.0068" fill="white"/>
    <mask id="mask4_0_1" style="mask-type:alpha" maskUnits="userSpaceOnUse" x="0" y="58" width="26" height="23">
        <path fill-rule="evenodd" clip-rule="evenodd" d="M25.8535 58.6201H0.000652313V80.7797H25.8535V58.6201Z" fill="white"/>
    </mask>
    <g mask="url(#mask4_0_1)">
        <path fill-rule="evenodd" clip-rule="evenodd" d="M12.8083 80.7797H12.8229C13.5201 80.773 14.1047 80.2663 14.1881 79.5963C14.3577 78.2369 14.6664 76.5475 14.9646 74.9139C15.2676 73.2487 15.5818 71.5264 15.7605 70.0978C16.0392 67.8701 16.2436 67.2257 17.3252 65.1755C18.21 63.5042 22.4259 61.4143 24.5161 61.3075C25.255 61.2766 25.8535 60.6872 25.8535 59.9648C25.8535 59.2008 25.1883 58.5732 24.3834 58.6229C21.6627 58.7553 16.3089 61.1953 14.8492 63.9531C13.6272 66.2701 13.3158 67.2492 13.0002 69.7745C12.9314 70.3276 12.8389 70.9351 12.7346 71.5708C11.1741 65.6264 8.12812 59.4494 1.446 59.1914C0.658432 59.1571 0.032135 59.7384 0.00155067 60.4803C-0.0297298 61.2221 0.568068 61.8471 1.33478 61.8767C7.98701 62.134 10.1718 70.9929 11.432 79.6232C11.5286 80.2871 12.116 80.7797 12.8083 80.7797Z" fill="#733BE6"/>
    </g>
    <path fill-rule="evenodd" clip-rule="evenodd" d="M2.19043 60.4684C1.96282 60.4807 1.73248 60.4793 1.50555 60.4623C1.73929 60.4541 1.96622 60.4548 2.19043 60.4684Z" fill="white"/>
    <path fill-rule="evenodd" clip-rule="evenodd" d="M1.89444 62.3134C2.02725 62.3134 2.16081 62.3088 2.2951 62.2996C3.07724 62.2492 3.6904 61.4477 3.69335 60.4747C3.69557 59.5017 3.08609 58.6956 2.30469 58.6378C2.01471 58.6176 1.72251 58.6158 1.42073 58.6268C0.638588 58.6644 0.014353 59.454 0.000333548 60.427C-0.0136859 61.4009 0.586937 62.218 1.3676 62.2905C1.541 62.3051 1.71661 62.3134 1.89444 62.3134Z" fill="#733BE6"/>
    <path fill-rule="evenodd" clip-rule="evenodd" d="M24.0068 59.8983C23.4285 59.8956 20.5459 58.7366 20.065 58.5287C19.4071 58.243 18.7626 57.9324 18.1402 57.5756C17.0355 56.9465 15.9943 56.1838 15.1334 55.2388C12.4325 52.2602 12.6148 47.6074 12.0611 43.8467C11.7786 47.3049 11.4687 50.8677 9.89186 53.953C8.41584 56.8398 5.08846 60.2585 1.84724 60.4664" fill="white"/>
    <mask id="mask5_0_1" style="mask-type:alpha" maskUnits="userSpaceOnUse" x="0" y="42" width="26" height="21">
        <path fill-rule="evenodd" clip-rule="evenodd" d="M25.8525 42H-0.000324249V62.313H25.8525V42Z" fill="white"/>
    </mask>
    <g mask="url(#mask5_0_1)">
        <path fill-rule="evenodd" clip-rule="evenodd" d="M1.38976 62.3135C1.41966 62.3135 1.44887 62.3128 1.47877 62.3107C5.32898 62.0608 9.18475 58.2893 11.0038 54.6915C11.3939 53.9186 11.7152 53.1217 11.9815 52.3114C12.4425 53.7753 13.1274 55.1609 14.1955 56.3503C15.1238 57.3809 16.2586 58.2759 17.6674 59.087C18.3002 59.454 19.0004 59.8048 19.8057 60.1585C19.8446 60.1747 23.3958 61.7107 24.4555 61.7156H24.4618C25.2274 61.7156 25.849 61.0874 25.8525 60.3102C25.856 59.5521 25.2691 58.9303 24.5306 58.8936C23.9917 58.8018 21.6971 57.9096 20.9064 57.5651C20.1992 57.2552 19.5887 56.9496 19.0429 56.6334C17.8893 55.9685 16.9769 55.2541 16.2496 54.4473C14.3478 52.3276 14.0231 49.0602 13.7088 45.9007C13.6198 45.0057 13.5287 44.0803 13.4007 43.2043C13.2971 42.4956 12.6636 41.9923 11.9794 42.0001C11.2729 42.0241 10.6965 42.581 10.6387 43.2961C10.3585 46.7675 10.0685 50.3575 8.52902 53.4026C7.08406 56.26 3.98554 59.3185 1.30284 59.4928C0.53586 59.5422 -0.0461559 60.2135 0.0025177 60.9914C0.0498028 61.7389 0.662415 62.3135 1.38976 62.3135Z" fill="#733BE6"/>
    </g>
    <path fill-rule="evenodd" clip-rule="evenodd" d="M59.9762 304.173C61.2596 305.54 62.9109 306.14 64.9302 305.973C66.9495 305.805 67.9726 304.512 67.9995 302.094C68.0264 299.676 66.9988 298.332 64.9167 298.062C62.8346 297.792 61.1698 298.402 59.9223 299.89C58.6749 301.378 58.6928 302.806 59.9762 304.173Z" fill="#FFC6A0"/>
    <path fill-rule="evenodd" clip-rule="evenodd" d="M309.682 24.9741C311.894 27.1833 314.74 28.1527 318.221 27.8822C321.701 27.6117 323.464 25.5226 323.511 21.6152C323.557 17.7078 321.786 15.5362 318.198 15.1003C314.609 14.6645 311.74 15.6489 309.59 18.0534C307.44 20.458 307.471 22.7649 309.682 24.9741Z" fill="#733BE6"/>
    <circle cx="169" cy="153" r="153" fill="#EAE0FF"/>
    <path fill-rule="evenodd" clip-rule="evenodd" d="M252.242 277.647C252.122 278.767 251.937 279.869 251.706 280.96C251.363 281.192 251.021 281.414 250.669 281.636L250.65 281.599C251.197 280.285 251.724 278.971 252.242 277.647Z" fill="white"/>
    <path fill-rule="evenodd" clip-rule="evenodd" d="M245.707 174.53H245.688C244.8 172.614 243.532 170.902 242.227 169.236L242.033 169.384C241.422 168.718 240.802 168.052 240.191 167.386L239.368 167.265C239.534 166.044 239.774 164.767 240.117 163.397L240.034 163.379V160.991C243.43 158.493 246.086 155.198 248.335 151.719C248.715 152.885 249.205 154.013 249.806 155.087C256.405 159.732 262.503 165.072 267.982 170.995C269.897 173.068 271.776 175.252 272.878 177.852C273.988 180.453 274.247 183.552 272.942 186.061C272.045 187.791 270.499 189.087 269 190.336C267.825 191.317 266.649 192.289 265.474 193.26C263.234 195.12 260.985 196.962 258.709 198.776C250.408 205.392 241.792 211.611 232.899 217.395L232.122 218.015C231.464 217.182 230.798 216.349 230.132 215.507C228.059 212.916 225.893 210.241 222.913 208.779C220.674 207.678 218.018 207.299 216.093 205.762L217.388 205.689C222.071 202.125 226.245 197.97 230.224 193.621C230.743 193.066 231.252 192.511 231.751 191.946C233.269 190.271 234.759 188.568 236.24 186.865C237.692 185.209 239.155 183.543 240.599 181.887C241.617 180.73 242.634 179.573 243.643 178.416C244.402 177.546 245.179 176.658 245.827 175.705C245.744 175.316 245.707 174.928 245.707 174.53Z" fill="white"/>
    <path fill-rule="evenodd" clip-rule="evenodd" d="M245.688 174.531H245.707C245.707 174.929 245.744 175.318 245.827 175.706C245.179 176.66 244.402 177.548 243.643 178.418C242.634 179.575 241.616 180.732 240.598 181.888L240.339 181.657C239.265 176.141 238.701 172.098 239.367 167.267L240.19 167.387C240.802 168.053 241.421 168.719 242.032 169.386L242.227 169.238C243.532 170.904 244.8 172.616 245.688 174.531Z" fill="white"/>
    <path fill-rule="evenodd" clip-rule="evenodd" d="M257.118 96.1298C257.108 94.7973 257.007 93.4555 256.803 92.1412L257.238 92.0672C256.933 90.3092 255.998 88.6709 254.628 87.5145L254.573 86.8759C253.425 85.7095 251.889 85.6544 250.371 85.8393C249.483 85.9502 248.604 86.1445 247.808 86.2554C245.504 86.5795 244.244 86.9868 242.32 86.9035V86.9223C241.82 86.8389 241.329 86.6998 240.867 86.4873C238.794 85.5434 237.517 83.2759 235.388 82.4705L235.49 81.5636C234.056 81.4157 232.686 81.2402 231.27 81.0365C230.65 80.9437 230.021 80.851 229.373 80.7495C229.308 80.7401 229.243 80.7313 229.179 80.7219C226.56 80.3239 223.441 80.0275 221.59 81.7955C220.044 81.2954 218.61 80.3885 216.991 80.1942C214.631 79.9071 212.41 81.1844 210.096 81.7767L209.819 80.6755C209.402 80.5739 209.004 80.5276 208.634 80.5182C206.589 80.4536 205.228 81.6288 204.127 82.9982C204.118 83.0076 204.118 83.0076 204.108 83.0258C203.442 83.6738 202.887 84.4416 202.452 85.2746C201.832 86.4961 201.462 87.8568 201.351 89.2168C201.221 90.8551 201.434 92.5392 200.934 94.0941C200.907 94.1775 200.879 94.2514 200.851 94.3348C200.62 94.964 200.305 95.5745 200.148 96.2408C200 96.8888 200.009 97.5644 199.981 98.2213C199.888 100.831 199.241 103.422 198.103 105.772L198.565 105.985C198.621 105.921 198.686 105.847 198.741 105.772C197.936 108.03 197.075 110.307 195.586 112.186C195.178 112.685 194.724 113.176 194.151 113.463C193.568 113.759 192.846 113.824 192.281 113.518C191.875 113.296 191.587 112.907 191.319 112.519C190.607 111.473 189.959 110.372 189.394 109.234L189.154 109.363C188.941 108.993 188.691 108.613 188.422 108.253C187.654 107.253 186.682 106.43 185.498 106.383L185.507 106.189C185.119 106.189 185.008 105.661 185.017 105.263C185.063 104.301 185.1 103.348 185.137 102.385L184.989 102.377C184.989 101.738 184.924 101.035 184.813 100.285C184.23 96.3705 182.343 91.1791 181.824 87.9031C180.723 80.9807 183.305 74.1053 187.849 68.7842C188.311 68.2471 188.793 67.72 189.283 67.2105L189.191 67.1277C190.773 65.5264 192.383 63.9069 194.308 62.7317C194.54 62.5932 194.78 62.4541 195.021 62.3338C197.584 57.5216 203.239 56.0688 208.097 54.5514C213.122 52.9777 218.573 53.1444 223.663 54.4587C226.319 55.1343 229.012 56.1334 231.696 56.2167C232.417 56.2449 233.158 56.1891 233.88 56.0594C235.305 56.4298 236.656 57.0684 237.822 57.9566C238.572 58.5306 239.284 59.2708 239.534 60.159C244.236 61.603 248.594 64.1752 252.111 67.6179C252.342 67.8403 252.574 68.0716 252.796 68.3123C254.045 69.6078 255.267 71.0788 256.84 71.8653H256.849C257.21 72.0508 257.59 72.1987 257.997 72.2915L258.256 72.1987C258.941 73.911 259.283 75.7524 259.292 77.5938C259.875 78.0105 260.347 78.5283 260.699 79.093C262.06 81.2214 261.957 84.1182 261.569 86.5795C261.088 89.6518 260.671 93.2054 258.885 95.8616C258.478 96.472 257.988 97.0367 257.413 97.5274L257.09 97.518C257.108 97.0555 257.118 96.5924 257.118 96.1298Z" fill="#EAEAEA"/>
    <mask id="mask6_0_1" style="mask-type:alpha" maskUnits="userSpaceOnUse" x="81" y="193" width="191" height="113">
        <path fill-rule="evenodd" clip-rule="evenodd" d="M81.7451 193.261H271.235V305.893H81.7451V193.261Z" fill="white"/>
    </mask>
    <g mask="url(#mask6_0_1)">
        <path fill-rule="evenodd" clip-rule="evenodd" d="M221.701 238.856C222.617 239.115 223.645 238.986 224.468 238.504L224.755 238.532C225.523 237.829 226.328 237.088 226.708 236.108C226.735 236.034 226.763 235.95 226.791 235.867C227.939 235.959 229.114 235.765 230.178 235.302L230.076 235.052C230.419 234.904 230.733 234.71 231.002 234.451C232.011 233.461 232.048 231.869 231.927 230.472C231.881 229.981 231.825 229.491 231.751 229C232.112 228.824 232.464 228.649 232.825 228.464C233.898 228.417 235.064 228.288 235.768 227.482C236.239 226.946 236.406 226.187 236.388 225.465C236.332 223.374 234.963 221.578 233.658 219.941C233.149 219.302 232.64 218.654 232.122 218.016L232.899 217.395C241.792 211.612 250.408 205.393 258.709 198.777C260.986 196.963 263.235 195.121 265.474 193.261C266.141 194.945 266.807 196.629 267.473 198.323L267.89 198.166C270.398 204.884 272.267 211.917 270.601 218.766C270.064 220.968 269.176 223.059 268.297 225.141C266.566 229.241 264.826 233.341 263.096 237.431C262.606 237.93 262.105 238.43 261.606 238.92C261.023 252.08 257.145 265.202 252.24 277.649C251.722 278.973 251.195 280.286 250.649 281.601L250.667 281.638C226.828 296.99 198.436 305.893 167.97 305.893C145.982 305.893 125.076 301.256 106.179 292.9C106.188 292.798 106.216 292.705 106.243 292.622C106.651 291.586 107.067 290.549 107.474 289.513C108.104 285.589 109.927 276.224 110.214 273.92C110.945 267.997 111.667 261.973 110.964 256.078C110.63 255.337 110.334 254.588 110.102 253.82C110.806 253.431 111.473 253.033 112.092 252.644V252.58L109.983 252.533C109.89 252.506 109.797 252.487 109.705 252.459C106.42 251.562 103.597 249.434 101.08 247.138C90.4835 237.523 83.5245 223.994 81.8585 209.789C81.7564 208.864 81.6736 207.892 81.8398 206.985C81.8398 206.957 81.8491 206.939 81.8585 206.92C81.9507 206.411 82.1174 205.93 82.4045 205.485C82.978 204.607 83.9219 204.042 84.8288 203.514C88.281 201.497 91.742 199.48 95.1942 197.462L95.8417 197.416C97.1742 203.588 99.6173 209.631 102.616 215.156C104.013 217.747 105.596 220.339 107.946 222.106C110.593 224.095 113.962 224.845 117.247 225.299C128.796 226.89 140.531 225.511 152.118 224.142C159.965 223.207 167.841 222.439 175.716 221.644C179.547 221.254 183.369 220.857 187.201 220.431L187.21 220.533C185.859 223.041 184.508 225.539 183.157 228.038C181.528 231.045 179.881 234.108 179.122 237.44C178.918 238.375 178.78 239.365 179.075 240.281C179.14 240.475 179.233 240.66 179.344 240.836C179.686 241.975 180.251 243.039 180.991 243.973L181.149 244.047C180.843 244.677 180.556 245.315 180.279 245.954C179.742 247.203 179.316 248.785 180.223 249.795C180.945 250.599 182.25 250.618 183.212 250.137C183.369 250.063 183.517 249.97 183.666 249.868C183.749 250.044 183.832 250.211 183.925 250.377L183.443 250.646C183.767 251.608 184.776 252.228 185.785 252.339C186.803 252.441 187.821 252.117 188.737 251.663C191.032 250.535 192.883 248.684 194.66 246.833C195.122 247.231 195.511 247.721 195.807 248.267C197.381 248.925 199.352 248.527 200.934 247.749C203.415 246.537 205.45 244.575 207.366 242.585C209.189 240.707 210.966 238.782 212.678 236.801C212.41 237.403 212.123 238.005 211.818 238.597L212.632 239.004C213.872 240.254 215.445 241.16 217.148 241.604C218.212 241.872 219.425 241.947 220.322 241.318C221.118 240.771 221.479 239.8 221.701 238.856Z" fill="#733BE6"/>
    </g>
    <path fill-rule="evenodd" clip-rule="evenodd" d="M217.936 116.563C217.955 116.378 217.946 116.109 217.9 115.859C217.789 115.23 217.159 114.675 216.53 115.471C216.076 116.044 215.873 117.886 216.965 118.117C217.715 118.265 217.881 117.053 217.936 116.563ZM245.422 116.045C245.44 115.851 245.44 115.582 245.395 115.332C245.283 114.712 244.645 114.157 244.016 114.953C243.571 115.518 243.358 117.368 244.451 117.59C245.2 117.748 245.366 116.536 245.422 116.045ZM231.753 191.948C231.253 192.513 230.744 193.068 230.226 193.623L229.763 193.197C222.989 196.215 214.651 195.372 208.617 191.069C203.527 187.433 200.297 181.815 197.225 176.374C194.81 172.08 192.385 167.786 189.969 163.501C189.007 161.799 188.026 160.031 187.434 158.18L187.702 158.162C188.341 156.699 188.701 155.117 188.739 153.526L188.229 153.433C188.229 153.396 188.239 153.349 188.248 153.312C188.35 152.794 188.433 152.276 188.526 151.758C188.535 151.684 188.553 151.61 188.563 151.536C189.46 146.15 189.969 140.699 190.081 135.239C190.09 135.119 190.09 134.998 190.09 134.878H189.979C190.006 133.499 189.998 132.12 189.951 130.741L188.924 130.399C185.213 130.399 182.011 123.829 181.27 121.182C181.261 121.136 181.243 121.09 181.233 121.043C180.179 117.258 179.54 114.149 180.919 110.494C181.455 109.087 183.029 107.097 184.565 106.542C184.824 106.45 185.074 106.394 185.324 106.385H185.5C186.684 106.431 187.656 107.255 188.424 108.254C188.693 108.615 188.942 108.995 189.155 109.365L189.396 109.235C189.961 110.373 190.608 111.475 191.321 112.521C191.589 112.909 191.876 113.298 192.283 113.52C192.847 113.825 193.569 113.76 194.152 113.465C194.726 113.177 195.18 112.687 195.587 112.187C197.077 110.309 197.937 108.032 198.743 105.774C198.687 105.848 198.622 105.922 198.567 105.987L198.104 105.774C199.242 103.423 199.89 100.832 199.983 98.2227C200.011 97.5659 200.001 96.8902 200.149 96.2422C200.307 95.576 200.621 94.9655 200.852 94.3362C200.881 94.2529 200.908 94.1789 200.936 94.0956C201.436 92.5406 201.223 90.8565 201.353 89.2188C201.464 87.8582 201.833 86.4981 202.454 85.2766C202.981 84.5822 203.509 83.7774 204.11 83.0278C204.119 83.009 204.119 83.009 204.129 82.9997C205.23 81.6302 206.591 80.455 208.636 80.5196C209.005 80.529 209.403 80.5754 209.82 80.6769L210.098 81.7781C212.411 81.1858 214.633 79.9091 216.992 80.1956C218.612 80.3905 220.046 81.2968 221.592 81.7969C223.442 80.0295 226.561 80.3253 229.18 80.7233C229.245 80.7327 229.31 80.7421 229.375 80.7509C230.022 80.853 230.651 80.9452 231.272 81.0379C232.688 81.2416 234.057 81.4171 235.492 81.5656L235.39 82.4725C237.518 83.2773 238.796 85.5448 240.868 86.4887C241.331 86.7012 241.822 86.8403 242.322 86.9237V86.9049C244.247 86.9883 245.505 86.5809 247.809 86.2575C248.605 86.1465 249.484 85.9516 250.373 85.8407C251.891 85.6558 253.427 85.7116 254.574 86.8773L254.63 87.516C256 88.6723 256.934 90.3106 257.239 92.0687L256.804 92.1426C257.008 93.4569 257.11 94.7988 257.119 96.1312C257.119 96.5944 257.11 97.0569 257.091 97.5195C257.054 98.2785 256.989 99.0374 256.888 99.787L257.064 99.8052C256.157 107.2 255.842 114.667 256.129 122.117L256.037 122.126C256.87 131.139 255.546 139.209 250.9 147.455C250.095 148.879 249.253 150.314 248.337 151.721C246.088 155.2 243.432 158.494 240.036 160.993V163.381L240.119 163.399C239.776 164.769 239.536 166.046 239.369 167.268C238.703 172.098 239.268 176.142 240.341 181.658L240.6 181.889C239.157 183.545 237.694 185.211 236.241 186.868C234.76 188.571 233.271 190.273 231.753 191.948Z" fill="white"/>
    <path fill-rule="evenodd" clip-rule="evenodd" d="M187.432 158.179C188.024 160.03 189.005 161.797 189.968 163.5C192.383 167.785 194.807 172.078 197.223 176.373C200.295 181.814 203.525 187.431 208.615 191.068C214.649 195.371 222.987 196.213 229.761 193.197L230.224 193.622C226.245 197.972 222.071 202.127 217.388 205.69L216.092 205.764C215.963 205.662 215.834 205.551 215.713 205.44C215.204 204.977 214.778 204.422 214.223 203.996C213.085 203.126 211.577 202.923 210.142 202.83C207.606 202.682 205.052 202.784 202.507 202.886L198.713 202.423C190.698 201.608 182.693 200.794 174.679 199.98C158.614 198.342 142.474 196.704 126.353 197.333L126.325 196.602C125.863 190.606 125.603 184.6 125.529 178.575H125.807C130.36 175.197 135.589 172.727 141.086 171.348L140.919 170.691C143.039 170.163 145.13 169.524 147.185 168.775L147.286 169.025C154.357 166.24 161.408 163.343 168.072 159.678C173.818 156.523 183.249 150.887 187.83 151.423L188.561 151.535C188.552 151.609 188.533 151.683 188.524 151.757C188.431 152.275 188.348 152.793 188.246 153.311C188.237 153.349 188.228 153.395 188.228 153.432L188.737 153.524C188.7 155.116 188.339 156.699 187.7 158.16L187.432 158.179Z" fill="#733BE6"/>
    <path fill-rule="evenodd" clip-rule="evenodd" d="M183.666 249.866C183.518 249.967 183.37 250.06 183.212 250.134C182.25 250.615 180.945 250.596 180.223 249.792C179.316 248.783 179.742 247.201 180.279 245.951C180.557 245.313 180.844 244.674 181.149 244.045L180.992 243.971C180.251 243.036 179.687 241.972 179.344 240.834C179.233 240.658 179.141 240.473 179.076 240.278C178.78 239.362 178.918 238.372 179.122 237.437C179.881 234.106 181.528 231.042 183.157 228.035C184.508 225.537 185.859 223.038 187.21 220.53L187.201 220.429C187.349 220.419 187.507 220.4 187.655 220.382C190.671 220.058 193.957 219.29 196.844 220.595C199.87 221.965 201.934 225.379 204.414 227.517C207.348 230.043 211.105 231.848 213.558 234.716C213.289 235.42 212.993 236.114 212.678 236.799C210.967 238.779 209.19 240.704 207.366 242.583C205.45 244.572 203.415 246.534 200.935 247.747C199.352 248.524 197.381 248.922 195.808 248.265C195.512 247.718 195.123 247.228 194.66 246.83C192.883 248.681 191.032 250.532 188.737 251.661C187.821 252.114 186.803 252.438 185.785 252.336C184.777 252.225 183.768 251.605 183.444 250.643L183.925 250.374C183.833 250.208 183.749 250.042 183.666 249.866Z" fill="#FFF6F0"/>
    <path fill-rule="evenodd" clip-rule="evenodd" d="M127.982 131.525C127.751 128.814 127.223 126.13 126.399 123.529L126.76 123.215C128.695 125.38 131.138 127.148 133.794 128.462C137.968 130.525 142.631 131.544 147.305 132.024C150.859 132.385 154.607 132.422 157.837 130.97C160.169 129.924 162.353 127.564 164.037 125.121C164.148 125.936 164.269 126.713 164.389 127.462C165.629 135.337 167.137 139.483 169.969 140.798L171.283 140.631C172.357 148.404 167.11 157.853 160.215 159.121C152.386 160.564 144.205 156.825 138.217 152.032C133.803 148.497 130.471 143.805 127.769 138.826L127.908 138.753C127.612 138.058 127.427 137.318 127.353 136.568L128.084 136.448C128.167 134.81 128.13 133.163 127.982 131.525Z" fill="white"/>
    <path fill-rule="evenodd" clip-rule="evenodd" d="M159.577 109.632L159.253 112.991C159.817 118.876 159.142 122.236 152.969 122.819C150.776 123.032 148.092 121.208 146.334 120.033C145.093 119.2 144.252 117.729 143.187 116.674L142.262 116.147C143.409 116.027 145.788 115.425 146.602 115.073C148.87 114.102 150.489 113.463 152.858 112.751C155.301 112.019 156.523 111.557 159.577 109.632Z" fill="white"/>
    <path fill-rule="evenodd" clip-rule="evenodd" d="M135.275 100.793C135.609 100.395 135.405 99.6822 135.219 99.2842C134.859 98.5165 134.118 98.4607 134.081 99.2754C134.035 100.238 134.831 101.321 135.275 100.793ZM158.327 93.9093C158.661 93.5113 158.466 92.7987 158.272 92.4007C157.911 91.6323 157.18 91.5771 157.143 92.3913C157.097 93.354 157.884 94.4364 158.327 93.9093ZM159.253 112.991L159.577 109.632C156.523 111.556 155.301 112.019 152.858 112.75C150.489 113.463 148.869 114.101 146.602 115.073C145.788 115.425 143.41 116.026 142.262 116.147L143.187 116.674C144.251 117.728 145.094 119.2 146.334 120.033C148.092 121.208 150.776 123.031 152.969 122.818C159.142 122.235 159.818 118.876 159.253 112.991ZM124.818 120.645V120.635C124.105 120.413 123.429 120.08 122.828 119.645C118.265 122.014 111.399 118.812 109.983 114.287C109.983 114.287 107.966 107.762 113.407 106.532L113.194 105.727C117.118 103.811 120.357 100.535 122.264 96.6113C124.068 95.6304 125.429 94.5199 126.548 93.1874C131.12 93.2062 135.683 91.8549 139.532 89.3749C140.948 85.2196 139.505 80.5741 138.431 76.4839L138.588 75.7432C141.411 76.3542 144.289 77.1502 146.316 79.1765C147.26 80.1204 148 81.3237 149.194 81.9254L149.601 81.879C149.648 82.2858 149.684 82.7025 149.693 83.1469C150.277 83.9423 151.156 84.5345 152.118 84.7476C154.247 85.2196 156.356 83.9886 158.531 83.7574C160.281 83.5725 162.02 84.0538 163.575 84.8955L162.955 85.8212C166.157 89.8186 165.833 95.6304 168.138 100.156C169.914 106.097 170.164 110.566 168.498 115.832C167.934 117.627 167.147 119.525 166.12 121.597C165.574 122.69 164.87 123.92 164.038 125.123C162.353 127.566 160.17 129.926 157.837 130.972C154.608 132.425 150.86 132.388 147.306 132.027C142.632 131.546 137.968 130.528 133.795 128.464C131.139 127.15 128.695 125.382 126.761 123.217C126.03 122.412 125.382 121.551 124.818 120.645Z" fill="white"/>
    <path fill-rule="evenodd" clip-rule="evenodd" d="M141.086 171.347C135.589 172.726 130.36 175.196 125.807 178.574H125.53C125.52 177.852 125.511 177.122 125.511 176.4L126.029 176.224C123.003 170.847 117.043 167.228 110.87 167.071C105.586 166.942 100.321 169.357 96.8503 173.327C96.9061 174.012 96.9149 174.697 96.8779 175.391C95.9528 177.889 95.3511 180.462 95.0271 183.063C94.8792 182.766 94.7218 182.47 94.5739 182.174C93.2872 180.49 90.9926 176.427 91.5197 174.79C92.0844 173.022 92.8246 171.8 93.7779 170.209C95.4621 167.386 97.0816 164.018 98.4699 161.029C101.801 153.894 105.846 147.082 110.538 140.753C111.851 138.967 113.249 137.199 115.016 135.867C116.543 134.71 118.274 133.933 120.097 133.368C122.439 132.655 124.938 132.304 127.381 132.017C127.593 131.869 127.797 131.711 127.982 131.526C128.13 133.164 128.167 134.812 128.084 136.45L127.352 136.57C127.426 137.319 127.612 138.06 127.908 138.754L127.769 138.828C130.471 143.807 133.803 148.499 138.217 152.034C144.205 156.827 152.385 160.566 160.215 159.122C167.109 157.854 172.357 148.406 171.283 140.632L169.969 140.799C167.137 139.485 165.629 135.339 164.389 127.464C164.851 127.594 165.323 127.658 165.804 127.658L165.841 126.89C168.026 126.085 170.108 125.04 172.06 123.781C173.217 123.04 174.337 122.207 175.623 121.717C176.669 121.329 177.789 121.171 178.899 121.032V121.042H181.232C181.241 121.088 181.259 121.134 181.269 121.18C182.009 123.827 185.211 130.398 188.922 130.398L189.949 130.74C189.996 132.119 190.005 133.498 189.977 134.876H190.088C190.088 134.997 190.088 135.117 190.078 135.237C189.968 140.697 189.459 146.148 188.561 151.534L187.83 151.423C183.249 150.886 173.819 156.522 168.072 159.677C161.409 163.342 154.357 166.239 147.287 169.024L147.185 168.774C145.13 169.524 143.039 170.162 140.919 170.69L141.086 171.347Z" fill="#FF6400"/>
    <path fill-rule="evenodd" clip-rule="evenodd" d="M112.09 252.643C111.471 253.031 110.804 253.429 110.101 253.818C109.943 253.365 109.814 252.911 109.703 252.458C109.795 252.486 109.888 252.504 109.981 252.532L112.09 252.578V252.643Z" fill="white"/>
    <path fill-rule="evenodd" clip-rule="evenodd" d="M122.263 96.6111C120.356 100.535 117.117 103.811 113.193 105.727L113.406 106.531C107.965 107.762 109.982 114.287 109.982 114.287C111.398 118.812 118.264 122.014 122.827 119.645C123.428 120.08 124.104 120.412 124.817 120.635V120.644C125.381 121.551 126.029 122.412 126.76 123.217L126.399 123.531C127.223 126.132 127.751 128.815 127.982 131.527C127.797 131.712 127.593 131.869 127.38 132.017C124.937 132.304 122.439 132.656 120.097 133.369L120.07 133.276C111.999 135.006 110.195 133.276 105.105 133.008V132.924C104.226 132.868 103.337 132.637 102.523 132.304C101.292 131.795 100.182 131.064 99.0986 130.305C102.56 124.993 102.172 118.913 100.422 112.991C98.3866 106.088 100.478 97.6384 101.2 90.6332C101.977 83.0816 102.847 75.4284 105.604 68.2935C107.067 64.4992 110.528 59.3818 114.757 58.2436C116.256 56.8184 118.015 55.6896 119.93 54.9212L119.801 54.5884C122.948 49.8132 129.851 50.0633 135.579 50.2576C148.822 50.7107 158.447 60.7794 165.601 71.9399C173.051 83.5905 182.805 91.3546 176.715 107.864L176.688 107.855C175.012 110.492 172.699 112.648 170.413 114.777C169.867 115.286 169.192 115.813 168.497 115.832C170.163 110.566 169.913 106.096 168.137 100.155C165.832 95.6303 166.156 89.8185 162.954 85.821L163.574 84.8954C162.02 84.0536 160.28 83.5723 158.53 83.7572C156.355 83.9885 154.246 85.2194 152.117 84.7474C151.155 84.5344 150.276 83.9421 149.692 83.1461C149.684 82.7024 149.646 82.2856 149.6 81.8788L149.193 81.9246C147.999 81.3235 147.259 80.1202 146.315 79.1763C144.288 77.15 141.41 76.354 138.587 75.743L138.43 76.4838C139.504 80.5739 140.947 85.2194 139.531 89.3747C135.682 91.8547 131.119 93.2054 126.547 93.1872C125.428 94.5197 124.067 95.6303 122.263 96.6111Z" fill="#EAEAEA"/>
    <path fill-rule="evenodd" clip-rule="evenodd" d="M126.354 197.331C142.475 196.702 158.615 198.339 174.68 199.978C182.695 200.792 190.7 201.607 198.714 202.421L202.508 202.883C205.053 202.782 207.607 202.68 210.143 202.828C211.577 202.92 213.086 203.124 214.224 203.994C214.779 204.42 215.205 204.975 215.715 205.437C215.834 205.549 215.964 205.66 216.094 205.761C218.019 207.298 220.675 207.677 222.914 208.779C225.894 210.241 228.059 212.915 230.133 215.506C230.799 216.348 231.465 217.181 232.122 218.014C232.64 218.652 233.149 219.3 233.658 219.939C234.963 221.577 236.333 223.372 236.388 225.463C236.407 226.185 236.241 226.944 235.769 227.481C235.065 228.286 233.899 228.416 232.826 228.462C232.465 228.647 232.113 228.823 231.752 228.999C231.826 229.489 231.882 229.979 231.928 230.47C232.048 231.867 232.011 233.459 231.003 234.449C230.734 234.708 230.42 234.903 230.077 235.051L230.179 235.301C229.115 235.763 227.939 235.957 226.792 235.865C226.764 235.949 226.736 236.031 226.709 236.106C226.329 237.087 225.524 237.827 224.756 238.53L224.469 238.503C223.645 238.984 222.618 239.113 221.702 238.854C221.48 239.798 221.119 240.77 220.323 241.315C219.425 241.945 218.213 241.871 217.149 241.603C215.446 241.158 213.873 240.251 212.633 239.002L211.818 238.595C212.124 238.002 212.41 237.401 212.679 236.8C212.994 236.115 213.29 235.421 213.558 234.718C211.105 231.849 207.349 230.044 204.415 227.518C201.935 225.38 199.871 221.965 196.845 220.596C193.957 219.291 190.672 220.059 187.655 220.383C187.507 220.402 187.35 220.42 187.202 220.429C183.37 220.855 179.548 221.253 175.717 221.641C167.842 222.437 159.966 223.206 152.119 224.14C140.532 225.51 128.797 226.888 117.248 225.297C113.963 224.843 110.594 224.094 107.947 222.104C105.596 220.337 104.014 217.745 102.617 215.154C99.6184 209.63 97.1752 203.587 95.8427 197.414C94.8155 192.639 94.4544 187.799 95.0285 183.061C95.352 180.461 95.9537 177.888 96.8794 175.39C96.9164 174.695 96.907 174.01 96.8512 173.326C100.322 169.356 105.588 166.941 110.872 167.07C117.044 167.228 123.004 170.846 126.03 176.222L125.512 176.398C125.512 177.12 125.521 177.851 125.531 178.573C125.605 184.597 125.864 190.603 126.327 196.6L126.354 197.331Z" fill="white"/>
    <path fill-rule="evenodd" clip-rule="evenodd" d="M86.6256 277.011C87.8748 272.449 89.4574 267.979 91.3364 263.639L91.0769 263.121C98.8783 259.299 105.356 256.495 110.104 253.82C110.336 254.589 110.631 255.338 110.965 256.078C111.668 261.973 110.946 267.998 110.215 273.92C109.928 276.225 108.105 285.589 107.476 289.514C107.069 290.55 106.652 291.586 106.245 292.623C106.217 292.706 106.189 292.799 106.18 292.9C99.6279 290.013 93.3258 286.672 87.2919 282.915L87.4956 282.591C87.2361 281.879 87.0048 281.157 86.8105 280.426C86.5241 279.325 86.3016 278.205 86.1719 277.067L86.6256 277.011Z" fill="#F5F5F5"/>
    <path fill-rule="evenodd" clip-rule="evenodd" d="M86.5433 280.498C85.4884 276.602 84.396 272.882 83.3411 269.014L83.4709 268.977C83.2766 268.274 83.1375 267.561 83.0547 266.839C84.0074 266.561 84.9331 266.219 85.8125 265.766C87.6263 264.831 89.3844 263.952 91.0779 263.119L91.3368 263.637C89.4584 267.978 87.8758 272.447 86.6266 277.009L86.1729 277.065C86.3026 278.203 86.5245 279.323 86.8115 280.424L86.5433 280.498Z" fill="#F7F0E8"/>
    <path fill-rule="evenodd" clip-rule="evenodd" d="M86.541 280.499L86.8093 280.425C87.0036 281.156 87.2349 281.878 87.4944 282.591L87.2907 282.915C69.3928 271.791 53.9562 257.059 42 239.744L43.5268 238.698C44.2576 237.857 44.9984 237.042 45.7481 236.246C56.0847 225.234 67.7732 215.489 80.4514 207.3C80.9052 207.151 81.3677 207.031 81.8303 206.92C81.8397 206.948 81.8397 206.966 81.8397 206.985C81.673 207.892 81.7563 208.863 81.8585 209.789C83.5244 223.994 90.4834 237.523 101.079 247.138C103.597 249.433 106.42 251.562 109.705 252.459C109.816 252.913 109.945 253.366 110.102 253.82C105.355 256.494 98.877 259.298 91.0757 263.12C89.3822 263.953 87.6241 264.832 85.8102 265.767C84.9309 266.22 84.0052 266.562 83.0525 266.84C83.1352 267.562 83.2743 268.275 83.4686 268.978L83.3389 269.015C84.3938 272.883 85.4862 276.603 86.541 280.499Z" fill="white"/>
    <path fill-rule="evenodd" clip-rule="evenodd" d="M94.8235 183.671C94.5036 183.671 94.1849 183.541 93.9536 183.286C93.8379 183.159 93.7217 183.006 93.6072 182.84C92.7543 181.726 89.608 176.891 90.4016 174.429C90.9962 172.566 91.7564 171.296 92.7197 169.689L92.7702 169.604C94.4443 166.799 96.0527 163.444 97.404 160.534C100.783 153.295 104.885 146.405 109.594 140.052C110.847 138.35 112.349 136.406 114.309 134.928C115.809 133.792 117.588 132.914 119.75 132.246C122.032 131.551 124.385 131.186 127.215 130.854C127.394 130.825 127.572 130.805 127.751 130.784C128.392 130.72 128.975 131.178 129.047 131.823C129.117 132.468 128.652 133.048 128.008 133.119C127.863 133.134 127.719 133.15 127.575 133.175C127.555 133.177 127.536 133.18 127.516 133.182C124.799 133.501 122.556 133.845 120.439 134.491C118.548 135.076 117.004 135.832 115.725 136.802C114.016 138.09 112.639 139.876 111.483 141.447C106.865 147.677 102.845 154.431 99.5325 161.524C98.1572 164.487 96.5159 167.91 94.786 170.809L94.7337 170.895C93.8145 172.43 93.15 173.539 92.6369 175.146C92.3657 175.989 93.8949 179.351 95.5062 181.46C95.5907 181.581 95.6406 181.651 95.6923 181.708C96.1284 182.189 96.0921 182.931 95.6119 183.366C95.3871 183.571 95.1047 183.671 94.8235 183.671Z" fill="#733BE6"/>
    <path fill-rule="evenodd" clip-rule="evenodd" d="M126.309 177.917C125.89 177.918 125.488 177.694 125.278 177.297C125.187 177.125 125.105 176.968 125.014 176.81C122.164 171.748 116.604 168.39 110.841 168.243C105.955 168.123 101.044 170.312 97.7342 174.098C97.0604 174.868 96.4663 175.691 95.9673 176.545C95.6404 177.105 94.9195 177.293 94.3619 176.968C93.8019 176.641 93.6128 175.922 93.9392 175.362C94.5133 174.379 95.1954 173.433 95.9673 172.552C99.7301 168.247 105.317 165.741 110.9 165.896C117.473 166.063 123.813 169.89 127.053 175.646C127.152 175.818 127.25 176.002 127.348 176.187C127.65 176.76 127.434 177.478 126.86 177.78C126.684 177.873 126.495 177.917 126.309 177.917Z" fill="#733BE6"/>
    <path fill-rule="evenodd" clip-rule="evenodd" d="M156.757 160.605C150.53 160.605 143.692 157.922 137.483 152.95C133.453 149.722 129.938 145.286 126.736 139.388C126.454 138.859 126.174 138.336 125.902 137.814C125.604 137.238 125.829 136.53 126.404 136.231C126.981 135.933 127.688 136.158 127.987 136.733C128.253 137.246 128.529 137.76 128.804 138.274C131.849 143.886 135.17 148.089 138.95 151.117C142.226 153.74 150.834 159.659 160.002 157.968C166.036 156.858 171.141 148.191 170.12 140.793C170.005 139.966 169.822 139.191 169.574 138.487C169.358 137.876 169.679 137.206 170.291 136.99C170.902 136.773 171.573 137.095 171.788 137.707C172.088 138.558 172.309 139.489 172.446 140.471C173.641 149.132 167.688 158.942 160.427 160.276C159.236 160.497 158.008 160.605 156.757 160.605Z" fill="#733BE6"/>
    <path fill-rule="evenodd" clip-rule="evenodd" d="M126.325 197.776C125.717 197.776 125.203 197.308 125.155 196.692C124.7 190.795 124.431 184.704 124.356 178.589C124.346 177.863 124.337 177.127 124.337 176.401C124.337 175.752 124.863 175.227 125.511 175.227C126.16 175.227 126.685 175.752 126.685 176.401C126.685 177.117 126.694 177.843 126.704 178.56C126.778 184.625 127.045 190.664 127.496 196.511C127.546 197.158 127.062 197.722 126.416 197.772C126.386 197.775 126.355 197.776 126.325 197.776Z" fill="#733BE6"/>
    <path fill-rule="evenodd" clip-rule="evenodd" d="M125.808 179.749C125.449 179.749 125.094 179.585 124.864 179.274C124.477 178.754 124.587 178.019 125.108 177.632C129.754 174.185 135.18 171.618 140.8 170.209C141.429 170.052 142.067 170.433 142.225 171.062C142.382 171.691 142 172.328 141.372 172.486C136.047 173.822 130.908 176.253 126.506 179.518C126.297 179.674 126.051 179.749 125.808 179.749Z" fill="#733BE6"/>
    <path fill-rule="evenodd" clip-rule="evenodd" d="M143.965 171.503C143.495 171.503 143.052 171.22 142.871 170.757C142.635 170.153 142.932 169.472 143.537 169.236L146.858 167.931C153.582 165.282 160.716 162.383 167.506 158.649C168.136 158.304 168.808 157.928 169.514 157.535C175.749 154.06 183.502 149.735 187.966 150.257C188.61 150.333 189.071 150.916 188.995 151.56C188.92 152.204 188.341 152.666 187.692 152.589C183.985 152.159 175.967 156.626 170.657 159.586C169.947 159.982 169.269 160.359 168.637 160.706C161.727 164.507 154.513 167.439 147.717 170.116L144.392 171.422C144.251 171.477 144.107 171.503 143.965 171.503Z" fill="#733BE6"/>
    <path fill-rule="evenodd" clip-rule="evenodd" d="M221.141 196.168C216.456 196.168 211.767 194.758 207.933 192.023C202.533 188.165 199.169 182.207 196.201 176.95C194.575 174.059 192.946 171.17 191.318 168.284L188.945 164.076C187.863 162.161 186.917 160.422 186.313 158.537C185.847 157.115 185.638 155.79 185.675 154.498C185.693 153.851 186.235 153.325 186.883 153.359C187.531 153.378 188.041 153.919 188.022 154.567C187.992 155.583 188.164 156.645 188.547 157.813C189.129 159.63 190.161 161.455 190.99 162.922L193.363 167.131C194.991 170.018 196.621 172.907 198.246 175.797C201.094 180.84 204.322 186.557 209.298 190.113C215.019 194.194 222.864 194.983 229.283 192.123C229.875 191.861 230.569 192.125 230.834 192.718C231.097 193.311 230.831 194.005 230.239 194.269C227.376 195.544 224.259 196.168 221.141 196.168Z" fill="#733BE6"/>
    <path fill-rule="evenodd" clip-rule="evenodd" d="M215.058 238.132C214.625 238.133 214.209 237.893 214.004 237.478C213.668 236.797 213.23 236.144 212.664 235.48C211.285 233.867 209.444 232.602 207.494 231.262C206.199 230.372 204.86 229.452 203.648 228.409C202.702 227.593 201.822 226.613 200.971 225.666C199.548 224.081 198.077 222.443 196.36 221.667C194.263 220.718 191.766 221.044 189.35 221.358C188.822 221.428 188.297 221.496 187.78 221.551C187.63 221.57 187.447 221.591 187.274 221.602C184.001 221.967 180.348 222.353 175.835 222.811L172.536 223.143C165.88 223.812 158.998 224.504 152.257 225.307C140.733 226.67 128.819 228.078 117.088 226.461C113.878 226.018 110.198 225.265 107.241 223.044C104.72 221.148 103.032 218.4 101.583 215.713C98.2868 209.639 95.9687 203.566 94.6949 197.663C93.5837 192.497 93.3037 187.537 93.8625 182.921C94.2071 180.153 94.8516 177.484 95.7785 174.983L96.9038 175.325L95.8002 174.924C95.8161 174.879 95.8331 174.835 95.8495 174.795C96.0967 174.196 96.7846 173.91 97.3822 174.158C97.981 174.404 98.2663 175.089 98.0209 175.688L97.971 175.822C97.1163 178.129 96.5152 180.622 96.1929 183.207C95.6658 187.56 95.9341 192.259 96.9901 197.168C98.2169 202.852 100.457 208.716 103.649 214.595C105.178 217.432 106.614 219.634 108.652 221.167C111.18 223.067 114.496 223.733 117.408 224.135C128.841 225.712 140.604 224.32 151.98 222.976C158.742 222.17 165.635 221.477 172.301 220.807L175.598 220.474C180.103 220.018 183.749 219.633 187.072 219.263C187.252 219.251 187.383 219.235 187.506 219.219C188.029 219.163 188.536 219.097 189.047 219.03C191.661 218.691 194.623 218.304 197.328 219.528C199.494 220.508 201.133 222.332 202.719 224.097C203.557 225.031 204.349 225.913 205.181 226.63C206.295 227.589 207.581 228.472 208.824 229.327C210.813 230.693 212.87 232.107 214.451 233.956C215.144 234.77 215.686 235.582 216.109 236.438C216.396 237.019 216.158 237.724 215.577 238.011C215.41 238.094 215.232 238.132 215.058 238.132Z" fill="#733BE6"/>
    <path fill-rule="evenodd" clip-rule="evenodd" d="M218.604 242.977C218.065 242.977 217.484 242.899 216.86 242.742C214.94 242.241 213.192 241.235 211.798 239.83C211.341 239.369 211.344 238.626 211.804 238.17C212.265 237.712 213.008 237.716 213.464 238.175C214.563 239.282 215.939 240.075 217.444 240.467C218.124 240.639 219.069 240.76 219.647 240.355C220.049 240.079 220.333 239.528 220.551 238.612C220.558 238.576 220.567 238.538 220.575 238.5C221.05 236.176 220.909 233.826 220.18 231.648C219.974 231.033 220.306 230.368 220.921 230.162C221.538 229.955 222.201 230.288 222.407 230.903C223.266 233.472 223.433 236.242 222.888 238.913C222.888 238.921 222.875 238.978 222.862 239.033C222.858 239.059 222.849 239.098 222.844 239.123C222.617 240.089 222.177 241.468 220.986 242.284C220.328 242.745 219.53 242.977 218.604 242.977Z" fill="#733BE6"/>
    <path fill-rule="evenodd" clip-rule="evenodd" d="M222.897 240.708C222.449 240.708 222.015 240.597 221.639 240.375C221.081 240.044 220.896 239.324 221.226 238.766C221.556 238.209 222.272 238.024 222.831 238.351C222.867 238.364 222.989 238.364 223.119 238.305C223.384 238.186 223.645 237.956 223.959 237.667C224.634 237.049 225.33 236.412 225.612 235.682C225.629 235.635 225.652 235.566 225.675 235.497C225.784 235.16 225.848 234.738 225.876 234.179C226.008 232.356 225.963 230.494 225.744 228.617C225.669 227.973 226.13 227.39 226.774 227.315C227.41 227.237 228.001 227.7 228.076 228.345C228.312 230.368 228.361 232.379 228.22 234.322C228.183 235.065 228.084 235.679 227.907 236.226C227.872 236.332 227.839 236.429 227.806 236.515C227.321 237.772 226.379 238.635 225.547 239.397C225.196 239.72 224.712 240.165 224.085 240.445C223.7 240.621 223.294 240.708 222.897 240.708Z" fill="#733BE6"/>
    <path fill-rule="evenodd" clip-rule="evenodd" d="M228.234 236.559C227.586 236.559 227.06 236.033 227.06 235.385C227.06 234.737 227.586 234.211 228.234 234.211C228.764 234.211 229.244 234.127 229.621 233.969C229.846 233.872 230.034 233.752 230.186 233.605C230.872 232.93 230.84 231.55 230.757 230.572C230.707 230.054 230.652 229.594 230.589 229.174C230.239 226.606 229.538 224.132 228.502 221.805C228.239 221.212 228.505 220.519 229.098 220.256C229.689 219.991 230.384 220.258 230.647 220.851C231.773 223.381 232.535 226.069 232.913 228.842C232.981 229.287 233.041 229.79 233.095 230.36C233.221 231.822 233.225 233.911 231.823 235.288C231.462 235.637 231.033 235.917 230.54 236.13C229.858 236.416 229.085 236.559 228.234 236.559Z" fill="#733BE6"/>
    <path fill-rule="evenodd" clip-rule="evenodd" d="M232.658 229.647C232.01 229.647 231.484 229.121 231.484 228.473C231.484 227.833 231.996 227.312 232.634 227.299C232.708 227.294 232.767 227.29 232.824 227.29C233.639 227.254 234.493 227.158 234.883 226.711C235.107 226.456 235.227 226.015 235.213 225.496C235.17 223.854 234.067 222.34 232.739 220.672L232.248 220.055C231.905 219.622 231.559 219.187 231.209 218.756C230.837 218.284 230.471 217.824 230.104 217.363L229.211 216.237C227.325 213.88 225.184 211.203 222.396 209.835C221.609 209.448 220.758 209.154 219.856 208.844C218.31 208.31 216.711 207.759 215.36 206.681C215.214 206.567 215.06 206.434 214.916 206.302C214.696 206.103 214.484 205.881 214.272 205.657C214.012 205.384 213.767 205.126 213.509 204.928C212.624 204.252 211.332 204.083 210.067 204.002C207.593 203.856 205.031 203.959 202.554 204.059C202.49 204.06 202.427 204.059 202.365 204.052L198.571 203.588L174.56 201.148C158.796 199.54 142.494 197.881 126.398 198.506C125.21 198.544 124.024 198.599 122.864 198.671C122.21 198.718 121.659 198.22 121.618 197.573C121.579 196.926 122.07 196.369 122.717 196.328C123.901 196.254 125.112 196.198 126.316 196.16C142.566 195.524 158.953 197.196 174.799 198.813L198.831 201.255L202.555 201.709C205.058 201.608 207.645 201.508 210.211 201.658C211.851 201.764 213.553 202.007 214.936 203.064C215.341 203.374 215.677 203.728 215.974 204.039C216.146 204.221 216.318 204.403 216.503 204.571C216.606 204.667 216.712 204.758 216.817 204.839C217.859 205.671 219.201 206.134 220.622 206.623C221.551 206.944 222.513 207.276 223.431 207.727C226.69 209.326 229.005 212.221 231.048 214.775L231.942 215.902C232.311 216.365 232.678 216.828 233.043 217.289C233.387 217.713 233.738 218.155 234.088 218.595L234.575 219.209C235.806 220.756 237.492 222.872 237.561 225.435C237.589 226.555 237.266 227.557 236.649 228.258C235.68 229.368 234.262 229.577 232.875 229.637C232.777 229.644 232.718 229.647 232.658 229.647Z" fill="#733BE6"/>
    <path fill-rule="evenodd" clip-rule="evenodd" d="M181.064 243.061C180.019 243.061 178.997 242.467 178.356 241.47C178.184 241.198 178.053 240.925 177.962 240.652C177.571 239.444 177.749 238.224 177.974 237.189C178.779 233.655 180.479 230.515 182.124 227.478L182.349 227.062C183.624 224.703 184.9 222.343 186.176 219.975C186.483 219.404 187.195 219.192 187.766 219.498C188.337 219.806 188.551 220.518 188.243 221.088C186.967 223.458 185.691 225.818 184.414 228.179L184.189 228.595C182.619 231.493 180.997 234.49 180.266 237.7C180.102 238.454 179.977 239.254 180.193 239.919C180.221 240.002 180.27 240.103 180.336 240.209C180.541 240.528 180.845 240.723 181.103 240.712C181.719 240.66 182.28 239.425 182.55 238.832C185.054 233.317 188.98 228.721 192.776 224.276C193.198 223.783 193.938 223.725 194.431 224.146C194.924 224.567 194.983 225.308 194.562 225.801C190.871 230.122 187.054 234.59 184.688 239.803C184.198 240.881 183.286 242.886 181.3 243.051C181.222 243.058 181.143 243.061 181.064 243.061Z" fill="#733BE6"/>
    <path fill-rule="evenodd" clip-rule="evenodd" d="M181.869 251.64C180.897 251.64 179.975 251.275 179.349 250.577C178.301 249.411 178.251 247.699 179.199 245.489C179.537 244.713 179.82 244.093 180.093 243.533C180.488 242.703 180.92 241.869 181.372 241.059C181.689 240.492 182.402 240.288 182.969 240.606C183.536 240.921 183.739 241.637 183.423 242.203C182.994 242.969 182.586 243.759 182.208 244.552C181.947 245.09 181.677 245.681 181.355 246.421C181.044 247.144 180.594 248.45 181.096 249.008C181.394 249.34 182.107 249.375 182.687 249.085C182.789 249.036 182.881 248.981 183.001 248.899C183.623 248.491 184.144 247.843 184.647 247.216L185.37 246.313C189.663 240.951 193.958 235.588 198.26 230.226C198.666 229.72 199.406 229.64 199.911 230.046C200.417 230.451 200.497 231.19 200.091 231.696C195.789 237.057 191.496 242.419 187.202 247.782L186.479 248.685C185.889 249.42 185.221 250.252 184.308 250.849C184.188 250.932 183.969 251.076 183.712 251.197C183.118 251.495 182.483 251.64 181.869 251.64Z" fill="#733BE6"/>
    <path fill-rule="evenodd" clip-rule="evenodd" d="M186.175 253.53C186.005 253.53 185.836 253.522 185.669 253.505C184.111 253.334 182.774 252.335 182.331 251.018C182.124 250.404 182.455 249.738 183.07 249.531C183.684 249.325 184.35 249.655 184.556 250.269C184.709 250.722 185.28 251.1 185.914 251.17C186.565 251.236 187.322 251.053 188.217 250.609C190.299 249.585 192.052 247.853 193.813 246.018L193.892 245.935C193.933 245.892 193.972 245.849 194.015 245.807L194.454 245.351C196.875 242.843 199.297 240.335 201.718 237.818C202.98 236.502 204.286 235.142 205.177 233.616C205.505 233.056 206.223 232.868 206.783 233.195C207.344 233.522 207.532 234.241 207.204 234.801C206.172 236.568 204.769 238.03 203.411 239.444C200.987 241.963 198.565 244.472 196.144 246.982L195.613 247.533C195.573 247.575 195.533 247.619 195.49 247.661C193.595 249.636 191.678 251.523 189.256 252.715C188.152 253.262 187.138 253.53 186.175 253.53Z" fill="#733BE6"/>
    <path fill-rule="evenodd" clip-rule="evenodd" d="M197.588 249.772C196.787 249.772 196.031 249.633 195.354 249.35C194.949 249.183 194.574 248.966 194.213 248.688C193.698 248.293 193.602 247.556 193.997 247.042C194.393 246.527 195.129 246.432 195.643 246.826C195.84 246.978 196.035 247.091 196.254 247.181C197.328 247.629 198.884 247.447 200.416 246.695C202.792 245.533 204.813 243.544 206.52 241.77C208.405 239.828 210.177 237.898 211.789 236.033C212.172 235.6 212.53 235.18 212.893 234.752L213.033 234.587C213.452 234.094 214.193 234.033 214.688 234.454C215.182 234.873 215.242 235.615 214.821 236.109L214.683 236.272C214.309 236.712 213.94 237.145 213.556 237.579C211.924 239.468 210.122 241.43 208.209 243.402C206.365 245.317 204.166 247.475 201.45 248.803C200.143 249.445 198.813 249.772 197.588 249.772Z" fill="#733BE6"/>
    <path fill-rule="evenodd" clip-rule="evenodd" d="M217.389 206.861C217.035 206.861 216.685 206.702 216.454 206.398C216.061 205.882 216.161 205.145 216.677 204.753C220.704 201.689 224.615 198.011 229.358 192.828C229.877 192.271 230.379 191.724 230.872 191.167C232.313 189.577 233.705 187.991 235.354 186.094L236.002 185.354C237.241 183.942 238.484 182.525 239.713 181.115L239.896 180.906C240.853 179.819 241.81 178.731 242.759 177.644C243.513 176.779 244.257 175.925 244.856 175.045C245.723 173.817 246.217 172.755 246.423 171.687C246.547 171.051 247.158 170.633 247.799 170.757C248.436 170.88 248.852 171.496 248.729 172.133C248.457 173.539 247.84 174.889 246.786 176.381C246.12 177.361 245.329 178.27 244.562 179.148C243.577 180.278 242.618 181.367 241.66 182.458L241.48 182.661C240.252 184.07 239.008 185.488 237.768 186.902L237.122 187.638C235.467 189.542 234.066 191.139 232.621 192.734C232.123 193.296 231.608 193.859 231.082 194.422C226.249 199.704 222.243 203.47 218.099 206.622C217.887 206.783 217.637 206.861 217.389 206.861Z" fill="#733BE6"/>
    <path fill-rule="evenodd" clip-rule="evenodd" d="M240.339 182.83C239.788 182.83 239.297 182.44 239.188 181.88C238.015 175.857 237.541 171.918 238.205 167.105C238.387 165.776 238.639 164.47 238.979 163.112C239.013 162.959 239.044 162.829 239.08 162.698C239.257 162.074 239.905 161.715 240.53 161.888C241.154 162.065 241.517 162.714 241.34 163.338C241.314 163.428 241.295 163.517 241.275 163.603C241.274 163.611 241.259 163.674 241.257 163.682C240.938 164.956 240.701 166.18 240.531 167.424C239.912 171.912 240.37 175.662 241.493 181.431C241.616 182.068 241.201 182.684 240.565 182.808C240.489 182.822 240.414 182.83 240.339 182.83Z" fill="#733BE6"/>
    <path fill-rule="evenodd" clip-rule="evenodd" d="M245.689 175.705C245.246 175.705 244.822 175.453 244.624 175.025C243.759 173.16 242.456 171.434 241.303 169.961L239.666 167.863C239.266 167.353 239.354 166.615 239.863 166.214C240.372 165.814 241.111 165.901 241.512 166.411L243.148 168.509C244.386 170.089 245.783 171.945 246.754 174.037C247.026 174.625 246.771 175.324 246.183 175.596C246.023 175.67 245.855 175.705 245.689 175.705Z" fill="#733BE6"/>
    <path fill-rule="evenodd" clip-rule="evenodd" d="M232.899 218.567C232.515 218.567 232.139 218.379 231.914 218.034C231.56 217.49 231.714 216.763 232.258 216.409C241.064 210.682 249.716 204.44 257.977 197.856C260.02 196.228 262.227 194.429 264.723 192.356C265.9 191.383 267.073 190.413 268.247 189.433C269.652 188.262 271.104 187.052 271.899 185.518C272.923 183.551 272.884 180.858 271.798 178.311C270.744 175.826 268.909 173.727 267.119 171.791C261.7 165.931 255.647 160.634 249.129 156.046C248.794 155.8 248.468 155.577 248.142 155.352L247.785 155.106C247.253 154.737 247.12 154.006 247.489 153.472C247.859 152.941 248.59 152.807 249.124 153.177L249.473 153.418C249.817 153.655 250.16 153.891 250.497 154.137C257.133 158.809 263.312 164.215 268.843 170.196C270.69 172.194 272.759 174.562 273.958 177.392C275.338 180.622 275.348 183.979 273.983 186.6C272.971 188.553 271.26 189.978 269.75 191.236C268.575 192.217 267.398 193.19 266.222 194.163C263.714 196.246 261.495 198.055 259.44 199.693C251.122 206.323 242.407 212.61 233.538 218.378C233.341 218.506 233.119 218.567 232.899 218.567Z" fill="#733BE6"/>
    <path fill-rule="evenodd" clip-rule="evenodd" d="M114.266 253.8H114.241L109.955 253.707C109.851 253.704 109.746 253.688 109.646 253.659L109.562 253.637C109.495 253.62 109.428 253.603 109.362 253.582C105.623 252.561 102.546 250.066 100.288 248.006C89.5277 238.242 82.3838 224.362 80.6908 209.926C80.5811 208.927 80.4913 207.874 80.6744 206.825C80.685 206.74 80.7026 206.666 80.7225 206.603C80.8546 205.943 81.0824 205.367 81.4164 204.849C82.1613 203.709 83.3124 203.038 84.2375 202.499L94.5994 196.449C95.1606 196.122 95.8785 196.31 96.2061 196.869C96.533 197.429 96.3446 198.148 95.7852 198.475L85.4204 204.527C84.6708 204.964 83.8231 205.457 83.3864 206.127C83.2079 206.404 83.0841 206.734 83.0119 207.131C83.0042 207.169 82.9954 207.209 82.9843 207.247C82.8581 207.99 82.9344 208.846 83.0242 209.661C84.6508 223.532 91.5194 236.879 101.867 246.269C103.934 248.153 106.725 250.428 110.013 251.326L110.13 251.358C110.136 251.36 110.142 251.361 110.148 251.363L114.077 251.447C123.822 248.002 133.585 244.069 143.099 239.758C143.688 239.489 144.386 239.752 144.653 240.343C144.921 240.933 144.66 241.629 144.068 241.896C134.428 246.265 124.532 250.248 114.657 253.733C114.531 253.778 114.399 253.8 114.266 253.8Z" fill="#733BE6"/>
    <path fill-rule="evenodd" clip-rule="evenodd" d="M43.527 239.872C43.2541 239.872 42.98 239.778 42.7575 239.585C42.2679 239.159 42.2163 238.418 42.6412 237.928C43.3627 237.098 44.1 236.285 44.8948 235.441C55.2895 224.366 67.0397 214.566 79.8159 206.313L80.1957 206.063C80.7399 205.712 81.4666 205.867 81.8182 206.412C82.1704 206.957 82.0137 207.683 81.4695 208.035L81.0868 208.287C68.4737 216.434 56.8709 226.113 46.6047 237.049C45.8305 237.872 45.1143 238.662 44.414 239.468C44.1816 239.736 43.8558 239.872 43.527 239.872Z" fill="#733BE6"/>
    <path fill-rule="evenodd" clip-rule="evenodd" d="M86.5605 281.727C86.1296 281.728 85.7152 281.49 85.5092 281.079C85.481 281.022 85.4522 280.949 85.4311 280.881C85.4229 280.856 85.4146 280.831 85.4076 280.805C84.8552 278.763 84.2917 276.769 83.7293 274.776C83.2186 272.969 82.7085 271.163 82.2061 269.323C82.0898 268.929 81.976 268.512 81.8621 268.086C81.6954 267.459 82.0675 266.816 82.6939 266.649C83.3225 266.48 83.9636 266.854 84.1309 267.481C84.2395 267.887 84.3481 268.285 84.4655 268.682C84.9715 270.538 85.4798 272.337 85.9882 274.138C86.5505 276.129 87.1135 278.122 87.6664 280.162C87.6664 280.163 87.667 280.163 87.667 280.164C87.8613 280.714 87.62 281.336 87.0847 281.604C86.9156 281.688 86.7366 281.727 86.5605 281.727Z" fill="#733BE6"/>
    <path fill-rule="evenodd" clip-rule="evenodd" d="M79.7659 268.838C79.2346 268.838 78.7527 268.475 78.6247 267.935C78.4751 267.304 78.8654 266.671 79.4959 266.522L80.0212 266.398C80.917 266.187 81.8433 265.969 82.7244 265.713C83.6965 265.43 84.5295 265.107 85.272 264.724C86.9039 263.883 88.6327 263.014 90.558 262.067C93.4138 260.668 96.0337 259.433 98.5666 258.238C102.849 256.219 106.548 254.475 109.527 252.797C110.167 252.443 110.8 252.069 111.47 251.65C112.019 251.306 112.744 251.472 113.087 252.022C113.432 252.571 113.265 253.295 112.716 253.639C112.02 254.076 111.331 254.483 110.67 254.848C107.626 256.562 103.893 258.323 99.568 260.362C97.0427 261.553 94.4311 262.784 91.5923 264.175C89.6828 265.114 87.9664 265.976 86.348 266.811C85.4704 267.263 84.4989 267.642 83.3801 267.967C82.4403 268.24 81.4841 268.466 80.5589 268.683L80.0383 268.806C79.9473 268.827 79.8557 268.838 79.7659 268.838Z" fill="#733BE6"/>
    <path fill-rule="evenodd" clip-rule="evenodd" d="M107.29 291.917C107.241 291.917 107.191 291.914 107.141 291.908C106.498 291.827 106.043 291.24 106.124 290.596C106.162 290.29 106.229 289.85 106.315 289.323C106.598 287.556 107.127 284.668 107.638 281.875C108.256 278.501 108.893 275.013 109.048 273.774C109.758 268.015 110.494 262.06 109.797 256.217C109.71 255.446 109.59 254.667 109.43 253.827C109.308 253.19 109.725 252.576 110.362 252.454C111.002 252.331 111.614 252.749 111.735 253.386C111.908 254.286 112.037 255.123 112.129 255.947C112.859 262.064 112.072 268.439 111.378 274.063C111.215 275.37 110.6 278.735 109.947 282.297C109.438 285.078 108.913 287.953 108.632 289.698C108.551 290.192 108.489 290.605 108.453 290.89C108.378 291.483 107.873 291.917 107.29 291.917Z" fill="#733BE6"/>
    <path fill-rule="evenodd" clip-rule="evenodd" d="M86.6242 278.184C86.5215 278.184 86.417 278.171 86.3137 278.142C85.6879 277.971 85.3199 277.325 85.4913 276.7C86.7381 272.147 88.3424 267.595 90.2572 263.172C90.5149 262.576 91.2052 262.301 91.801 262.561C92.3963 262.818 92.6698 263.51 92.4115 264.105C90.5407 268.427 88.974 272.873 87.756 277.32C87.6133 277.842 87.1402 278.184 86.6242 278.184Z" fill="#733BE6"/>
    <path fill-rule="evenodd" clip-rule="evenodd" d="M250.648 282.775C250.498 282.775 250.345 282.746 250.199 282.685C249.6 282.436 249.316 281.749 249.565 281.15C250.082 279.904 250.6 278.619 251.147 277.22C256.979 262.421 259.93 250.235 260.433 238.868C260.679 233.511 260.355 228.319 259.469 223.434C259.354 222.796 259.778 222.185 260.416 222.07C261.054 221.953 261.665 222.378 261.78 223.016C262.696 228.074 263.033 233.443 262.779 238.974C262.264 250.606 259.262 263.032 253.332 278.079C252.78 279.489 252.257 280.789 251.733 282.051C251.545 282.502 251.109 282.775 250.648 282.775Z" fill="#733BE6"/>
    <path fill-rule="evenodd" clip-rule="evenodd" d="M261.996 241.204C261.843 241.204 261.687 241.173 261.537 241.11C260.94 240.856 260.663 240.167 260.916 239.57L263.869 232.595C264.986 229.96 266.103 227.322 267.217 224.683L267.25 224.605C268.088 222.62 268.954 220.569 269.462 218.486C271.117 211.68 269.041 204.602 266.791 198.574C266.238 197.09 265.642 195.609 265.065 194.177L264.988 193.985C264.747 193.383 265.038 192.699 265.639 192.457C266.241 192.215 266.924 192.508 267.167 193.108L267.244 193.301C267.826 194.747 268.428 196.242 268.991 197.754C271.366 204.114 273.549 211.618 271.743 219.041C271.191 221.308 270.287 223.449 269.413 225.518L269.38 225.596C268.266 228.235 267.148 230.874 266.032 233.511L263.077 240.488C262.887 240.936 262.453 241.204 261.996 241.204Z" fill="#733BE6"/>
    <path fill-rule="evenodd" clip-rule="evenodd" d="M134.895 99.7644C134.794 99.7779 134.696 99.809 134.609 99.8542C134.655 99.8495 134.703 99.8395 134.752 99.8242C134.804 99.8078 134.851 99.7878 134.895 99.7644ZM135.002 102.103C134.813 102.103 134.621 102.068 134.435 101.994C133.429 101.6 132.86 100.246 132.909 99.2185C132.95 98.3492 133.46 97.6912 134.21 97.5415C135.023 97.3812 135.857 97.8784 136.283 98.7847C136.777 99.846 136.736 100.877 136.176 101.546C135.871 101.909 135.444 102.103 135.002 102.103Z" fill="#733BE6"/>
    <path fill-rule="evenodd" clip-rule="evenodd" d="M157.957 92.8816C157.852 92.894 157.751 92.9257 157.661 92.9732C157.71 92.9673 157.759 92.958 157.811 92.9421C157.864 92.9257 157.913 92.9051 157.957 92.8816ZM158.056 95.2215C157.868 95.2215 157.676 95.1863 157.491 95.1135C156.489 94.7208 155.922 93.3666 155.972 92.337C156.021 91.2804 156.701 90.7732 157.27 90.66C158.077 90.4985 158.91 90.9975 159.336 91.9032C159.725 92.6992 159.908 93.8555 159.228 94.665C158.924 95.0272 158.498 95.2215 158.056 95.2215Z" fill="#733BE6"/>
    <path fill-rule="evenodd" clip-rule="evenodd" d="M152.007 104.993C151.91 104.993 151.81 104.981 151.711 104.956C151.083 104.792 150.707 104.151 150.87 103.523C151.023 102.937 151.181 102.332 151.166 101.786C151.154 101.333 151.004 100.923 150.767 100.694C150.599 100.534 150.318 100.402 149.992 100.247C149.592 100.057 149.138 99.8417 148.718 99.4842C147.76 98.66 147.418 97.4315 147.192 96.6191C147.03 96.0415 147.039 95.7591 147.07 95.4222C147.079 95.3295 147.09 95.2162 147.085 95.0313C147.067 94.3832 147.579 93.8438 148.227 93.8268C148.238 93.8262 148.249 93.8262 148.259 93.8262C148.893 93.8262 149.415 94.331 149.432 94.9685C149.441 95.2895 149.421 95.5003 149.408 95.64C149.396 95.7744 149.395 95.7797 149.453 95.9857C149.66 96.7312 149.862 97.371 150.245 97.7003C150.425 97.8529 150.704 97.9856 150.999 98.1259C151.443 98.336 151.946 98.5743 152.391 98.9987C153.087 99.6703 153.485 100.636 153.513 101.724C153.536 102.602 153.327 103.406 153.143 104.115C153.005 104.643 152.529 104.993 152.007 104.993Z" fill="#733BE6"/>
    <path fill-rule="evenodd" clip-rule="evenodd" d="M144.894 116.825C145.014 116.97 145.132 117.116 145.249 117.261C145.823 117.972 146.365 118.643 146.987 119.061L147.077 119.12C148.588 120.131 151.116 121.811 152.855 121.653C154.998 121.45 156.421 120.888 157.209 119.935C158.183 118.756 158.436 116.778 158.084 113.105C158.077 113.03 158.077 112.955 158.084 112.879L158.185 111.837C156.321 112.881 155.094 113.309 153.194 113.877C150.875 114.575 149.31 115.191 147.064 116.154C146.597 116.356 145.766 116.606 144.894 116.825ZM152.611 124.01C150.168 124.01 147.544 122.255 145.771 121.07L145.68 121.01C144.761 120.392 144.08 119.55 143.422 118.735C143.096 118.33 142.785 117.946 142.464 117.614L141.679 117.166C141.237 116.914 141.007 116.404 141.112 115.906C141.216 115.406 141.631 115.032 142.138 114.978C143.191 114.868 145.454 114.29 146.135 113.996C148.413 113.019 150.105 112.353 152.519 111.626C154.904 110.912 156.001 110.497 158.95 108.638C159.329 108.399 159.81 108.397 160.192 108.632C160.573 108.867 160.788 109.299 160.745 109.744L160.431 112.992C160.772 116.623 160.654 119.45 159.018 121.429C157.814 122.887 155.871 123.724 153.078 123.988C152.924 124.002 152.768 124.01 152.611 124.01Z" fill="#733BE6"/>
    <path fill-rule="evenodd" clip-rule="evenodd" d="M119.35 121.626C117.917 121.626 116.413 121.319 114.935 120.705C111.929 119.454 109.659 117.186 108.861 114.638C108.813 114.48 107.71 110.823 109.306 108.063C110.104 106.684 111.396 105.783 113.147 105.387C113.556 105.3 113.961 105.237 114.398 105.197C115.053 105.134 115.616 105.611 115.676 106.256C115.737 106.902 115.262 107.474 114.616 107.534C114.274 107.567 113.958 107.614 113.654 107.68C112.566 107.926 111.806 108.434 111.343 109.231C110.259 111.096 111.096 113.915 111.104 113.943C111.686 115.802 113.5 117.564 115.837 118.536C118.157 119.501 120.508 119.527 122.286 118.604C122.492 118.501 122.682 118.386 122.9 118.236C123.435 117.867 124.165 118.002 124.533 118.534C124.902 119.068 124.768 119.8 124.235 120.168C123.928 120.38 123.639 120.553 123.352 120.696C122.158 121.316 120.791 121.626 119.35 121.626Z" fill="#733BE6"/>
    <path fill-rule="evenodd" clip-rule="evenodd" d="M118.458 115.026C118.236 115.026 118.012 114.964 117.813 114.833C117.027 114.315 116.448 114.311 115.105 114.358L115.034 113.186L115.025 112.011C116.441 111.964 117.663 111.922 119.105 112.872C119.646 113.228 119.796 113.956 119.439 114.498C119.214 114.84 118.839 115.026 118.458 115.026Z" fill="#733BE6"/>
    <path fill-rule="evenodd" clip-rule="evenodd" d="M124.818 121.81C124.423 121.81 124.038 121.611 123.816 121.25C123.464 120.677 123.179 120.161 122.945 119.672L121.311 116.499C121.014 115.923 121.241 115.215 121.818 114.918C122.395 114.622 123.102 114.849 123.399 115.425L125.047 118.627C125.26 119.071 125.508 119.518 125.817 120.021C126.156 120.574 125.983 121.296 125.431 121.636C125.24 121.753 125.027 121.81 124.818 121.81Z" fill="#733BE6"/>
    <path fill-rule="evenodd" clip-rule="evenodd" d="M150.992 133.411C149.647 133.411 148.355 133.313 147.185 133.195C141.683 132.627 137.132 131.424 133.272 129.516C130.388 128.089 127.833 126.182 125.883 123.999C125.121 123.158 124.424 122.236 123.819 121.264C123.477 120.714 123.645 119.99 124.196 119.647C124.744 119.306 125.47 119.473 125.812 120.023C126.343 120.876 126.954 121.684 127.629 122.428C129.386 124.395 131.695 126.116 134.313 127.411C137.918 129.193 142.206 130.321 147.424 130.859C150.386 131.159 154.194 131.323 157.354 129.901C159.186 129.08 161.215 127.146 163.069 124.456C163.792 123.413 164.483 122.243 165.068 121.072C166.081 119.028 166.837 117.198 167.376 115.48C168.899 110.666 168.797 106.464 167.011 100.492C166.775 99.7018 166.509 98.8765 166.22 98.0389C166.009 97.4255 166.335 96.7581 166.948 96.5468C167.563 96.3354 168.229 96.6618 168.44 97.274C168.739 98.1422 169.015 98.9986 169.26 99.8187C171.195 106.29 171.295 110.878 169.616 116.186C169.04 118.019 168.24 119.96 167.17 122.118C166.534 123.39 165.785 124.66 165.001 125.792C163.521 127.939 161.157 130.768 158.316 132.043C155.966 133.1 153.394 133.411 150.992 133.411Z" fill="#733BE6"/>
    <path fill-rule="evenodd" clip-rule="evenodd" d="M113.852 135.21C111.942 135.21 110.473 134.951 108.96 134.684C107.773 134.474 106.545 134.256 105.043 134.177L104.383 134.15C103.736 134.125 103.231 133.579 103.257 132.931C103.283 132.283 103.841 131.782 104.476 131.804L105.154 131.832C106.812 131.92 108.111 132.149 109.368 132.371C112.108 132.856 114.472 133.273 119.824 132.126C120.458 131.986 121.081 132.393 121.218 133.027C121.354 133.661 120.95 134.285 120.316 134.421C117.589 135.006 115.547 135.21 113.852 135.21Z" fill="#733BE6"/>
    <path fill-rule="evenodd" clip-rule="evenodd" d="M98.7649 131.969C98.5413 131.969 98.3147 131.906 98.1145 131.772C97.575 131.413 97.4295 130.684 97.7893 130.144L98.1221 129.654C100.936 125.336 101.311 120.144 99.2967 113.322C97.656 107.761 98.5771 101.241 99.3895 95.4889C99.636 93.7461 99.8685 92.099 100.032 90.5118C100.724 83.7972 101.584 75.4396 104.51 67.8698C105.798 64.5268 109.335 58.5072 114.422 57.1172C114.526 57.0844 114.63 57.0556 114.733 57.0386C115.371 56.9359 115.977 57.3661 116.083 58.006C116.186 58.6323 115.773 59.224 115.155 59.3478C115.129 59.3566 115.081 59.3713 115.062 59.3766C111.411 60.3592 108.168 64.906 106.7 68.715C103.887 75.9931 103.045 84.1764 102.367 90.7525C102.199 92.3843 101.964 94.0514 101.715 95.817C100.898 101.603 100.052 107.585 101.548 112.658C103.742 120.084 103.262 126.066 100.083 130.946L99.7429 131.446C99.5163 131.786 99.1441 131.969 98.7649 131.969Z" fill="#733BE6"/>
    <path fill-rule="evenodd" clip-rule="evenodd" d="M134.368 65.8292C134.1 65.8292 133.831 65.7382 133.611 65.5522C131.788 64.0125 124.918 60.7312 123.258 60.6068C122.612 60.5586 122.127 59.9951 122.175 59.3482C122.224 58.7014 122.784 58.2153 123.434 58.2652C125.724 58.4366 133.06 62.0138 135.126 63.7583C135.622 64.1768 135.683 64.917 135.266 65.4125C135.034 65.6878 134.701 65.8292 134.368 65.8292Z" fill="#733BE6"/>
    <path fill-rule="evenodd" clip-rule="evenodd" d="M175.863 111.176C175.708 111.176 175.55 111.145 175.399 111.08C174.804 110.823 174.529 110.133 174.785 109.537C175.111 108.78 175.381 108.102 175.61 107.466C180.345 94.6279 175.068 87.3163 168.959 78.8496C167.516 76.8497 166.024 74.7823 164.611 72.5711C155.726 58.711 146.216 51.7957 135.539 51.43C129.892 51.238 123.555 51.0226 120.78 55.2337C120.423 55.7743 119.695 55.9246 119.154 55.5683C118.613 55.2114 118.463 54.4835 118.819 53.9417C122.319 48.6312 129.664 48.8807 135.566 49.0814C147.126 49.4771 157.256 56.7458 166.588 71.3055C167.967 73.4621 169.44 75.5025 170.863 77.476C177.095 86.1112 182.98 94.2675 177.816 108.27C177.574 108.943 177.287 109.664 176.942 110.465C176.751 110.91 176.317 111.175 175.863 111.176Z" fill="#733BE6"/>
    <path fill-rule="evenodd" clip-rule="evenodd" d="M128.085 137.621C128.065 137.621 128.045 137.621 128.024 137.62C127.377 137.587 126.878 137.036 126.912 136.388C126.991 134.827 126.957 133.227 126.812 131.631C126.587 128.986 126.072 126.382 125.281 123.884C125.085 123.265 125.427 122.606 126.045 122.41C126.664 122.211 127.324 122.556 127.519 123.174C128.363 125.839 128.912 128.614 129.152 131.425C129.305 133.124 129.341 134.837 129.256 136.507C129.224 137.134 128.706 137.621 128.085 137.621Z" fill="#733BE6"/>
    <path fill-rule="evenodd" clip-rule="evenodd" d="M169.968 141.973C169.802 141.973 169.634 141.938 169.474 141.864C165.886 140.2 164.382 134.977 163.229 127.647C163.107 126.892 162.985 126.106 162.873 125.282C162.786 124.64 163.235 124.048 163.878 123.96C164.513 123.872 165.112 124.321 165.2 124.964C165.309 125.769 165.429 126.537 165.548 127.278C166.776 135.077 168.199 138.684 170.463 139.735C171.051 140.007 171.306 140.705 171.033 141.294C170.835 141.722 170.41 141.973 169.968 141.973Z" fill="#733BE6"/>
    <path fill-rule="evenodd" clip-rule="evenodd" d="M165.841 128.065C165.363 128.065 164.914 127.771 164.739 127.296C164.515 126.688 164.826 126.013 165.435 125.789C167.514 125.023 169.529 124.016 171.424 122.795C171.659 122.644 171.89 122.491 172.121 122.339C173.075 121.708 174.061 121.057 175.205 120.62C176.352 120.194 177.521 120.022 178.718 119.873C178.823 119.854 178.93 119.841 179.036 119.83C179.678 119.768 180.267 120.228 180.334 120.873C180.403 121.519 179.944 122.095 179.299 122.163C179.23 122.17 179.179 122.174 179.127 122.184C179.1 122.189 179.072 122.194 179.044 122.198C177.978 122.331 176.945 122.478 176.032 122.819C175.139 123.159 174.302 123.712 173.416 124.297C173.175 124.456 172.935 124.615 172.693 124.77C170.656 126.082 168.487 127.167 166.246 127.992C166.113 128.042 165.975 128.065 165.841 128.065Z" fill="#733BE6"/>
    <path fill-rule="evenodd" clip-rule="evenodd" d="M217.083 119.304C216.969 119.304 216.852 119.292 216.735 119.269C215.997 119.113 215.43 118.604 215.164 117.869C214.814 116.897 215.012 115.495 215.606 114.743C216.373 113.774 217.249 113.869 217.589 113.955C218.328 114.141 218.902 114.806 219.052 115.65C219.116 115.991 219.134 116.366 219.103 116.679C219.012 117.477 218.817 118.442 218.088 118.976C217.792 119.192 217.445 119.304 217.083 119.304Z" fill="#733BE6"/>
    <path fill-rule="evenodd" clip-rule="evenodd" d="M244.575 118.778C244.453 118.778 244.33 118.766 244.207 118.739C243.492 118.594 242.924 118.091 242.657 117.361C242.301 116.389 242.495 114.983 243.091 114.227C243.858 113.257 244.735 113.351 245.078 113.436C245.818 113.621 246.394 114.282 246.546 115.121C246.627 115.559 246.607 115.959 246.587 116.158C246.496 116.96 246.3 117.928 245.567 118.457C245.274 118.668 244.932 118.778 244.575 118.778Z" fill="#733BE6"/>
    <path fill-rule="evenodd" clip-rule="evenodd" d="M237.201 134.283C236.993 134.283 236.781 134.228 236.59 134.111C236.038 133.774 235.863 133.051 236.2 132.497C237.635 130.145 238.444 128.576 237.581 126.625C237.334 126.077 236.979 125.545 236.603 124.981C236.173 124.336 235.728 123.669 235.394 122.897C234.999 121.974 234.819 120.95 234.843 119.76C234.854 118.942 234.956 118.122 235.047 117.398C235.126 116.754 235.711 116.297 236.357 116.379C237 116.459 237.457 117.046 237.376 117.688C237.29 118.384 237.2 119.103 237.191 119.798C237.174 120.657 237.291 121.363 237.55 121.968C237.799 122.541 238.167 123.094 238.558 123.679C238.969 124.297 239.395 124.935 239.725 125.668C241.151 128.891 239.585 131.457 238.204 133.721C237.983 134.083 237.597 134.283 237.201 134.283Z" fill="#733BE6"/>
    <path fill-rule="evenodd" clip-rule="evenodd" d="M233.41 148.075C227.593 148.075 222.693 145.905 219.787 141.886C219.408 141.361 219.525 140.627 220.05 140.247C220.576 139.868 221.31 139.985 221.69 140.51C223.216 142.62 227.867 147.305 238.108 145.239C238.894 145.082 241.264 143.454 241.583 142.853C241.845 142.259 242.535 141.997 243.129 142.256C243.722 142.518 243.989 143.216 243.727 143.809C243.113 145.201 239.909 147.273 238.571 147.541C236.793 147.9 235.064 148.075 233.41 148.075Z" fill="#733BE6"/>
    <path fill-rule="evenodd" clip-rule="evenodd" d="M188.921 131.573C184.017 131.573 180.697 123.497 180.138 121.498C180.131 121.474 180.125 121.45 180.12 121.426C180.112 121.404 180.103 121.37 180.093 121.332C179.042 117.558 178.3 114.103 179.818 110.079C180.486 108.326 182.294 106.114 184.164 105.438C184.556 105.298 184.918 105.224 185.278 105.212L185.497 105.211C186.926 105.266 188.207 106.049 189.353 107.539C189.663 107.955 189.934 108.367 190.171 108.78C190.494 109.342 190.3 110.06 189.738 110.382C189.174 110.706 188.458 110.51 188.135 109.949C187.947 109.622 187.72 109.278 187.48 108.955C186.79 108.058 186.105 107.584 185.452 107.558L185.321 107.559C185.248 107.562 185.114 107.592 184.956 107.648C183.831 108.055 182.473 109.707 182.013 110.912C180.742 114.283 181.387 117.228 182.362 120.727C182.37 120.757 182.377 120.786 182.382 120.816C182.388 120.826 182.397 120.853 182.404 120.885C183.207 123.729 186.22 129.225 188.921 129.225C189.113 129.225 189.302 129.196 189.496 129.137C189.565 129.116 189.636 129.097 189.706 129.065C190.295 128.793 190.992 129.05 191.264 129.638C191.536 130.227 191.28 130.925 190.691 131.196C190.521 131.275 190.351 131.331 190.181 131.383C189.765 131.509 189.343 131.573 188.921 131.573Z" fill="#733BE6"/>
    <path fill-rule="evenodd" clip-rule="evenodd" d="M189.894 122.67C189.438 122.67 189.003 122.401 188.813 121.955C187.751 119.459 187.069 118.702 185.427 117.552C184.895 117.18 184.767 116.448 185.138 115.918C185.509 115.387 186.242 115.258 186.773 115.629C188.681 116.964 189.686 118.01 190.974 121.035C191.227 121.632 190.95 122.321 190.353 122.575C190.203 122.639 190.047 122.67 189.894 122.67Z" fill="#733BE6"/>
    <path fill-rule="evenodd" clip-rule="evenodd" d="M254.183 106.714C253.868 106.714 253.554 106.587 253.322 106.338C251.352 104.214 247.048 103.459 244.022 105.769C243.506 106.163 242.77 106.064 242.377 105.549C241.983 105.034 242.082 104.297 242.597 103.904C246.682 100.783 252.332 101.816 255.044 104.741C255.485 105.216 255.457 105.959 254.981 106.4C254.756 106.61 254.469 106.714 254.183 106.714Z" fill="#733BE6"/>
    <path fill-rule="evenodd" clip-rule="evenodd" d="M211.419 105.3C211.139 105.3 210.857 105.2 210.633 104.998C210.152 104.564 210.113 103.822 210.547 103.34C214.747 98.6807 222.811 98.3085 228.157 102.529C228.666 102.931 228.752 103.669 228.35 104.178C227.948 104.687 227.21 104.774 226.701 104.372C222.367 100.95 215.635 101.204 212.291 104.912C212.06 105.169 211.74 105.3 211.419 105.3Z" fill="#733BE6"/>
    <path fill-rule="evenodd" clip-rule="evenodd" d="M256.675 102.376C256.608 102.376 256.54 102.37 256.47 102.358C255.832 102.245 255.406 101.637 255.518 100.998C255.607 100.491 255.674 100.05 255.721 99.6486C255.815 98.9542 255.88 98.2251 255.918 97.4615C255.936 97.0253 255.944 96.578 255.944 96.1308C255.936 94.9245 255.848 93.7259 255.681 92.5707C255.588 92.4409 255.46 92.2625 255.332 92.0864C254.713 91.2317 254.677 91.1807 254.627 90.8801C254.522 90.2403 254.955 89.6363 255.595 89.5306C256.096 89.4502 256.582 89.6997 256.815 90.1241C256.89 90.2356 257.062 90.4716 257.235 90.7111C257.846 91.5563 257.96 91.7142 257.975 92.0388C258.176 93.3602 258.282 94.7331 258.292 96.1231C258.292 96.6092 258.282 97.087 258.264 97.5654C258.223 98.4071 258.151 99.2042 258.05 99.9439C258 100.369 257.927 100.854 257.831 101.405C257.73 101.975 257.235 102.376 256.675 102.376Z" fill="#733BE6"/>
    <path fill-rule="evenodd" clip-rule="evenodd" d="M196.345 91.1498C195.897 91.1498 195.471 90.8933 195.275 90.4589C195.007 89.8684 195.269 89.1728 195.86 88.9057C197.539 88.1462 199.19 86.9857 200.764 85.4589C200.981 85.2476 201.224 84.96 201.507 84.5772C201.728 84.2867 201.938 83.9908 202.154 83.6885C202.481 83.2307 202.818 82.757 203.192 82.2909C203.599 81.7849 204.337 81.7045 204.843 82.1095C205.349 82.5151 205.43 83.2542 205.024 83.7596C204.692 84.1746 204.373 84.6207 204.066 85.0515C203.836 85.3744 203.611 85.689 203.386 85.9849C203.032 86.4662 202.715 86.8383 202.398 87.1447C200.629 88.8611 198.754 90.173 196.828 91.0447C196.671 91.1157 196.507 91.1498 196.345 91.1498Z" fill="#733BE6"/>
    <path fill-rule="evenodd" clip-rule="evenodd" d="M204.126 84.1716C203.867 84.1716 203.607 84.0865 203.391 83.9127C202.885 83.5065 202.805 82.7675 203.211 82.2621C204.252 80.9684 205.952 79.2631 208.67 79.3436C209.146 79.3559 209.629 79.4199 210.097 79.5349C210.727 79.6887 211.112 80.3238 210.958 80.9543C210.803 81.5841 210.166 81.9662 209.539 81.8148C209.234 81.7402 208.919 81.6986 208.604 81.6904C207.288 81.651 206.225 82.2603 205.041 83.7331C204.81 84.0213 204.469 84.1716 204.126 84.1716Z" fill="#733BE6"/>
    <path fill-rule="evenodd" clip-rule="evenodd" d="M184.988 103.549C184.34 103.549 183.814 103.023 183.814 102.375C183.814 101.825 183.761 101.197 183.652 100.455C183.352 98.4476 182.689 96.0609 182.048 93.7534C181.466 91.6614 180.917 89.6862 180.664 88.0849C179.582 81.2828 181.875 73.9695 186.956 68.0203C187.435 67.4644 187.932 66.9197 188.438 66.3949C189.017 65.8144 189.556 65.3078 190.098 64.8294C190.584 64.4003 191.327 64.4479 191.755 64.9339C192.184 65.4199 192.138 66.1619 191.651 66.5904C191.146 67.0359 190.643 67.5096 190.112 68.0397C189.652 68.5175 189.184 69.0305 188.738 69.5488C184.108 74.9703 182.009 81.5945 182.983 87.7168C183.215 89.1866 183.748 91.0991 184.31 93.1242C184.971 95.5009 185.654 97.9586 185.975 100.111C186.101 100.969 186.162 101.71 186.162 102.375C186.162 103.023 185.636 103.549 184.988 103.549Z" fill="#733BE6"/>
    <path fill-rule="evenodd" clip-rule="evenodd" d="M228.861 166.176C222.292 166.176 216.23 162.73 212.799 160.321C206.582 155.956 200.154 151.442 195.223 143.645C194.877 143.097 195.039 142.372 195.587 142.025C196.135 141.678 196.861 141.842 197.208 142.39C201.887 149.791 207.844 153.972 214.149 158.4C223.763 165.149 230.842 163.955 233.441 163.128C233.578 163.088 233.693 163.051 233.798 163.012C233.937 162.966 234.051 162.919 234.166 162.873C236.014 162.167 237.745 161.219 239.338 160.045C242.222 157.922 244.768 155.074 247.349 151.079C248.137 149.871 248.915 148.575 249.876 146.873C254.135 139.315 255.721 131.484 254.866 122.23C254.747 120.933 254.582 119.607 254.375 118.288C254.342 118.082 254.368 117.906 254.385 117.813C254.44 117.215 254.942 116.747 255.554 116.747C256.202 116.747 256.728 117.272 256.728 117.921C256.728 117.974 256.724 118.026 256.719 118.078C256.923 119.401 257.085 120.722 257.204 122.015C258.105 131.766 256.426 140.032 251.922 148.027C250.947 149.751 250.121 151.127 249.319 152.358C246.618 156.537 243.807 159.671 240.73 161.935C238.968 163.234 237.051 164.284 235.03 165.056C234.88 165.116 234.723 165.179 234.567 165.231C234.437 165.277 234.274 165.331 234.121 165.375C232.359 165.936 230.592 166.176 228.861 166.176Z" fill="#733BE6"/>
    <path fill-rule="evenodd" clip-rule="evenodd" d="M188.016 155.743C187.944 155.743 187.87 155.738 187.796 155.723C187.159 155.601 186.741 154.987 186.862 154.35L186.95 153.877C186.987 153.676 187.024 153.475 187.063 153.273C187.071 153.196 187.086 153.116 187.106 153.03C187.162 152.745 187.22 152.404 187.279 152.064L187.364 151.577C187.371 151.527 187.38 151.477 187.389 151.426C187.391 151.41 187.401 151.357 187.403 151.341C188.29 146.016 188.796 140.591 188.904 135.215C188.905 135.192 188.906 135.171 188.908 135.149C188.915 135.058 188.914 134.968 188.914 134.877C188.914 134.228 189.439 133.703 190.088 133.703C190.736 133.703 191.262 134.228 191.262 134.877C191.262 135.015 191.261 135.153 191.252 135.292C191.139 140.772 190.624 146.301 189.719 151.728C189.719 151.741 189.708 151.803 189.696 151.865C189.693 151.885 189.683 151.942 189.68 151.962L189.592 152.463C189.531 152.821 189.469 153.178 189.399 153.537C189.398 153.541 189.397 153.543 189.396 153.546C189.393 153.584 189.388 153.62 189.381 153.658C189.338 153.874 189.298 154.086 189.259 154.302L189.169 154.789C189.061 155.352 188.569 155.743 188.016 155.743Z" fill="#733BE6"/>
    <path fill-rule="evenodd" clip-rule="evenodd" d="M195.725 103.271C195.345 103.271 194.971 103.087 194.745 102.746C194.387 102.206 194.535 101.477 195.075 101.119C196.277 100.322 197.057 98.697 197.81 97.1256C198.433 95.8266 199.078 94.483 200.005 93.5197C200.48 93.0184 200.992 92.6557 201.565 92.4174C202.167 92.1667 202.852 92.4508 203.1 93.049C203.35 93.6471 203.067 94.3345 202.468 94.5839C202.204 94.6949 201.954 94.8763 201.704 95.141C201.031 95.8389 200.495 96.9571 199.927 98.1417C199.077 99.9127 198.114 101.921 196.373 103.076C196.173 103.209 195.947 103.271 195.725 103.271Z" fill="#733BE6"/>
    <path fill-rule="evenodd" clip-rule="evenodd" d="M196.003 109.443C195.627 109.443 195.258 109.263 195.031 108.929C194.667 108.393 194.806 107.663 195.342 107.298C196.208 106.711 196.993 106.01 197.677 105.217C197.735 105.149 197.772 105.107 197.803 105.065C197.816 105.049 197.827 105.033 197.841 105.019C198.008 104.818 198.167 104.608 198.317 104.399C198.697 103.875 199.43 103.756 199.956 104.134C200.482 104.514 200.601 105.248 200.221 105.773C200.044 106.019 199.857 106.266 199.66 106.502C199.604 106.575 199.543 106.647 199.487 106.714C198.637 107.699 197.698 108.537 196.662 109.24C196.46 109.378 196.231 109.443 196.003 109.443Z" fill="#733BE6"/>
    <path fill-rule="evenodd" clip-rule="evenodd" d="M257.412 98.6993C257.081 98.6993 256.752 98.5596 256.519 98.2878C256.098 97.7953 256.156 97.054 256.649 96.6325C257.123 96.2269 257.546 95.7473 257.906 95.2085C259.398 92.9885 259.87 89.9032 260.286 87.1808L260.407 86.3959C260.882 83.3853 260.653 81.2028 259.708 79.723C259.414 79.2523 259.047 78.8607 258.608 78.5473C258.566 78.5185 258.528 78.4862 258.491 78.451C257.961 78.0912 257.803 77.3616 258.157 76.825C258.514 76.2844 259.229 76.1248 259.77 76.4828C259.828 76.521 259.927 76.5861 260.035 76.6824C260.699 77.1678 261.256 77.7689 261.693 78.4704C262.955 80.4433 263.295 83.1593 262.726 86.7605L262.607 87.5359C262.154 90.502 261.64 93.8625 259.857 96.5145C259.381 97.2295 258.814 97.8705 258.175 98.4175C257.954 98.6065 257.682 98.6993 257.412 98.6993Z" fill="#733BE6"/>
    <path fill-rule="evenodd" clip-rule="evenodd" d="M256.839 73.0386C256.663 73.0386 256.484 72.9993 256.315 72.9147C254.81 72.1622 253.66 70.9389 252.548 69.7561C252.349 69.5442 252.15 69.3329 251.951 69.1257C251.727 68.885 251.513 68.6702 251.299 68.4647C247.922 65.1582 243.738 62.6776 239.19 61.2805C238.608 61.1003 237.978 60.9319 237.26 60.7652L237.109 60.7288C236.481 60.565 236.106 59.9234 236.27 59.2965C236.434 58.6696 237.072 58.2928 237.702 58.4577C237.711 58.4595 237.798 58.4794 237.807 58.4812C238.565 58.6579 239.249 58.841 239.881 59.0365C244.784 60.5421 249.298 63.2194 252.932 66.7783C253.171 67.0078 253.42 67.2555 253.658 67.5144C253.847 67.7099 254.052 67.9288 254.258 68.1484C255.274 69.229 256.234 70.2492 257.365 70.8145C257.945 71.1044 258.18 71.8094 257.89 72.39C257.684 72.8008 257.27 73.0386 256.839 73.0386Z" fill="#733BE6"/>
    <path fill-rule="evenodd" clip-rule="evenodd" d="M257.998 73.4653C257.912 73.4653 257.825 73.4559 257.738 73.4359C257.255 73.3273 256.789 73.1553 256.313 72.9106C255.736 72.6141 255.508 71.9068 255.805 71.3292C256.101 70.7539 256.808 70.5244 257.386 70.8215C257.685 70.9752 257.969 71.0809 258.256 71.1466C258.888 71.2893 259.285 71.918 259.141 72.5501C259.018 73.0955 258.534 73.4653 257.998 73.4653Z" fill="#733BE6"/>
    <path fill-rule="evenodd" clip-rule="evenodd" d="M195.011 63.5161C194.363 63.5161 193.837 62.9901 193.837 62.3421C193.837 62.112 193.904 61.896 194.02 61.714C196.652 56.8496 202.022 55.1949 206.762 53.7344L207.746 53.4292C212.664 51.8907 218.27 51.8531 223.956 53.3212C224.642 53.4955 225.333 53.6922 226.027 53.8894C228.008 54.4529 229.879 54.9853 231.731 55.0423C232.372 55.0634 233.022 55.0199 233.671 54.9031C233.692 54.8996 233.712 54.8967 233.732 54.8943C233.79 54.8844 233.864 54.875 233.953 54.875C234.601 54.875 235.127 55.4009 235.127 56.0489C235.127 56.6553 234.668 57.1537 234.079 57.2165C234.073 57.2176 234.067 57.2182 234.061 57.2188C233.254 57.362 232.444 57.419 231.65 57.389C229.516 57.3227 227.416 56.7257 225.385 56.1476C224.712 55.9562 224.041 55.7654 223.373 55.5958C218.107 54.2351 212.948 54.2616 208.448 55.6703L207.453 55.9779C202.914 57.3767 198.22 58.8237 196.056 62.885C195.999 62.9913 195.928 63.0876 195.844 63.1692C195.631 63.3834 195.337 63.5161 195.011 63.5161Z" fill="#733BE6"/>
    <path fill-rule="evenodd" clip-rule="evenodd" d="M214.897 81.3667C214.644 81.3667 214.391 81.2857 214.176 81.1184C213.665 80.7198 213.573 79.9825 213.972 79.4713C214.596 78.6706 215.126 77.8723 215.639 77.0998C217.455 74.3668 219.171 71.7858 223.757 71.507C224.4 71.4688 224.961 71.9607 225 72.6076C225.039 73.255 224.546 73.8115 223.899 73.8502C220.48 74.058 219.332 75.7855 217.595 78.3994C217.058 79.2083 216.502 80.0442 215.824 80.9141C215.593 81.2111 215.247 81.3667 214.897 81.3667Z" fill="#733BE6"/>
    <path fill-rule="evenodd" clip-rule="evenodd" d="M221.34 83.2198C221.063 83.2198 220.785 83.1218 220.561 82.9228C220.077 82.492 220.033 81.75 220.464 81.2657C220.562 81.1554 220.66 81.0556 220.758 80.9681C220.767 80.9582 220.776 80.9499 220.78 80.947C222.914 78.9084 226.161 79.078 229.355 79.5617L229.538 79.5881C230.123 79.6797 230.676 79.7613 231.222 79.8429L231.443 79.8758C232.972 80.0959 234.298 80.2614 235.611 80.3964C236.218 80.461 236.831 80.525 237.462 80.5801C240.583 80.8601 243.809 79.9585 246.314 78.1036C246.834 77.718 247.57 77.8271 247.956 78.3484C248.342 78.8696 248.232 79.6046 247.711 79.9908C244.751 82.1832 240.939 83.2504 237.255 82.9187C236.612 82.863 235.985 82.7972 235.367 82.7321C234.025 82.5935 232.67 82.4245 231.104 82.1991L230.877 82.165C230.326 82.0828 229.766 82.0001 229.192 81.9103L229.014 81.885C226.403 81.4882 223.803 81.3063 222.401 82.6452C222.389 82.6563 222.349 82.6951 222.336 82.7068C222.297 82.7414 222.257 82.7819 222.218 82.826C221.986 83.0866 221.664 83.2198 221.34 83.2198Z" fill="#733BE6"/>
    <path fill-rule="evenodd" clip-rule="evenodd" d="M242.821 88.089C242.641 88.089 242.458 88.0849 242.267 88.0766C241.619 88.049 241.117 87.5008 241.146 86.8533C241.173 86.2047 241.746 85.7034 242.369 85.731C243.574 85.7844 244.482 85.6242 245.735 85.4041C246.304 85.3037 246.924 85.1945 247.643 85.0935C247.987 85.046 248.344 84.982 248.712 84.9169C249.199 84.83 249.703 84.7402 250.224 84.6756C251.817 84.4819 253.843 84.4619 255.408 86.0533C255.863 86.5152 255.857 87.259 255.394 87.7133C254.932 88.1682 254.189 88.1635 253.734 87.6998C253.055 87.0095 252.12 86.8081 250.512 87.0054C250.044 87.0641 249.576 87.1474 249.123 87.2278C248.726 87.2989 248.338 87.3675 247.968 87.4192C247.281 87.5155 246.688 87.62 246.142 87.7162C245.016 87.9146 244.025 88.089 242.821 88.089Z" fill="#733BE6"/>
    <path fill-rule="evenodd" clip-rule="evenodd" d="M139.105 91.5926C138.933 91.5926 138.758 91.5551 138.592 91.4741C138.009 91.1894 137.767 90.4867 138.051 89.9044C138.183 89.6333 138.305 89.3351 138.422 88.9923C139.615 85.4903 138.562 81.5398 137.545 77.7197L137.296 76.7805C137.131 76.153 137.506 75.5114 138.133 75.3465C138.761 75.1815 139.402 75.5572 139.567 76.1841L139.814 77.1151C140.87 81.0796 142.067 85.573 140.644 89.7518C140.494 90.1885 140.337 90.5748 140.162 90.9329C139.958 91.3502 139.54 91.5926 139.105 91.5926Z" fill="#733BE6"/>
    <path fill-rule="evenodd" clip-rule="evenodd" d="M117.349 99.8749C116.857 99.8749 116.399 99.5638 116.236 99.0713C116.03 98.4562 116.362 97.7917 116.978 97.5868C118.856 96.9605 120.398 96.3054 121.691 95.584C123.338 94.6894 124.592 93.6892 125.649 92.4301C127.709 89.9495 128.854 86.6371 130.55 81.4387C130.751 80.8224 131.414 80.4866 132.03 80.6868C132.647 80.8875 132.984 81.5502 132.782 82.1666C130.994 87.6491 129.742 91.1775 127.452 93.9352C126.194 95.432 124.725 96.6077 122.824 97.6403C121.413 98.428 119.739 99.1412 117.72 99.8139C117.597 99.8556 117.472 99.8749 117.349 99.8749Z" fill="#733BE6"/>
    <path fill-rule="evenodd" clip-rule="evenodd" d="M149.701 84.5235C149.053 84.5235 148.527 83.9976 148.527 83.3495L148.526 83.2861C148.519 83.2368 148.518 83.2204 148.517 83.1699C148.511 82.8212 148.484 82.4638 148.433 82.0112C148.007 78.204 146.08 75.8666 142.426 71.7259C141.997 71.2399 142.043 70.4979 142.529 70.0694C143.014 69.6398 143.758 69.6867 144.186 70.1727C148.051 74.5517 150.263 77.2483 150.765 81.7476C150.823 82.2495 150.853 82.6592 150.863 83.0654C150.873 83.1552 150.875 83.2474 150.875 83.3495C150.875 83.9976 150.349 84.5235 149.701 84.5235Z" fill="#733BE6"/>
    <path fill-rule="evenodd" clip-rule="evenodd" d="M163.619 85.237C163.404 85.237 163.186 85.1778 162.99 85.0539C158.524 82.2111 155.962 79.8813 151.072 74.2157C150.648 73.725 150.702 72.9836 151.193 72.5598C151.684 72.136 152.425 72.1906 152.848 72.6813C157.618 78.2066 159.963 80.3433 164.251 83.0722C164.798 83.4209 164.959 84.1464 164.611 84.6935C164.387 85.0451 164.007 85.237 163.619 85.237Z" fill="#733BE6"/>
    <path fill-rule="evenodd" clip-rule="evenodd" d="M124.816 121.818C124.168 121.818 123.642 121.292 123.642 120.644C123.642 119.995 124.168 119.465 124.816 119.465C125.464 119.465 125.99 119.986 125.99 120.634V120.644C125.99 121.292 125.464 121.818 124.816 121.818Z" fill="#733BE6"/>
    <path fill-rule="evenodd" clip-rule="evenodd" d="M204.108 84.1973C203.932 84.1973 203.753 84.1574 203.584 84.0728C203.005 83.7829 202.77 83.0802 203.059 82.5003C203.116 82.3876 203.208 82.2567 203.298 82.168C203.756 81.7096 204.499 81.7096 204.957 82.168C205.368 82.5789 205.411 83.2188 205.086 83.6772C204.863 84.0089 204.492 84.1973 204.108 84.1973Z" fill="#733BE6"/>
</svg>
