<svg
    width="360"
    height="200"
    viewBox="0 0 360 200"
    fill="none"
    xmlns="http://www.w3.org/2000/svg"
>
    <circle cx="180" cy="100" r="75" fill="#F5F5F5" />
    <path
        fill-rule="evenodd"
        clip-rule="evenodd"
        d="M275.268 140.987C274.668 142.126 273.316 143.475 272 143.557C275.213 143.682 276.02 147.983 276.456 151C276.592 149.901 276.933 148.357 277.069 147.259C277.187 146.31 277.29 145.996 277.735 145.144C278.18 144.296 280.02 143.381 281 143.333C280.765 143.332 279.595 142.874 279.399 142.793C279.132 142.68 278.87 142.557 278.617 142.416C278.169 142.168 277.746 141.867 277.396 141.494C276.299 140.319 276.374 138.483 276.149 137C276.034 138.364 275.908 139.77 275.268 140.987Z"
        fill="#F0CA30"
    />
    <path
        fill-rule="evenodd"
        clip-rule="evenodd"
        d="M272 143.205C275.211 143.319 276.016 147.246 276.452 150C276.588 148.997 276.929 147.587 277.065 146.585C277.183 145.719 277.286 145.431 277.73 144.654C278.175 143.88 280.014 143.044 280.992 143H281"
        fill="#F0CA30"
    />
    <path
        fill-rule="evenodd"
        clip-rule="evenodd"
        d="M272.129 143.001C272.043 143.006 271.956 143.005 271.87 142.998C271.958 142.995 272.045 142.996 272.129 143.001Z"
        fill="#F0CA30"
    />
    <path
        fill-rule="evenodd"
        clip-rule="evenodd"
        d="M281 142.795C280.766 142.794 279.595 142.375 279.399 142.301C279.132 142.197 278.871 142.085 278.618 141.956C278.169 141.729 277.746 141.454 277.396 141.113C276.299 140.037 276.374 138.357 276.149 137C276.034 138.248 275.908 139.535 275.268 140.648C274.668 141.691 273.316 142.925 272 143"
        fill="#F0CA30"
    />
    <mask
        id="mask0_2311_16917"
        style="mask-type:alpha"
        maskUnits="userSpaceOnUse"
        x="271"
        y="136"
        width="10"
        height="15"
    >
        <path
            fill-rule="evenodd"
            clip-rule="evenodd"
            d="M281 136H271V151H281V136Z"
            fill="white"
        />
    </mask>
    <g mask="url(#mask0_2311_16917)">
        <path
            fill-rule="evenodd"
            clip-rule="evenodd"
            d="M278.246 142.831C277.512 143.229 276.854 143.761 276.573 144.304C276.12 145.187 275.993 145.576 275.876 146.501C275.432 145.091 274.742 143.739 273.615 142.99C274.379 142.432 275.032 141.643 275.429 140.875C275.509 140.721 275.581 140.565 275.646 140.407C275.816 140.804 276.042 141.18 276.352 141.517C276.707 141.902 277.158 142.249 277.691 142.549C277.861 142.645 278.044 142.738 278.246 142.831ZM275.958 151H275.964C276.309 150.997 276.598 150.74 276.639 150.401C276.702 149.885 276.817 149.239 276.928 148.615C277.042 147.973 277.16 147.31 277.227 146.757C277.33 145.919 277.399 145.696 277.796 144.924C278.078 144.377 279.557 143.569 280.349 143.529C280.72 143.511 281.009 143.203 281 142.834C280.992 142.48 280.712 142.195 280.361 142.171C280.148 142.128 279.338 141.82 279.049 141.698C278.791 141.587 278.567 141.478 278.37 141.366C277.96 141.136 277.622 140.878 277.365 140.599C276.692 139.866 276.573 138.701 276.459 137.574C276.425 137.245 276.39 136.904 276.342 136.58C276.291 136.239 275.978 135.995 275.641 136C275.292 136.011 275.008 136.28 274.979 136.625C274.876 137.876 274.768 139.171 274.208 140.254C273.7 141.235 272.575 142.33 271.643 142.389C271.278 142.412 270.996 142.714 271 143.076C271.004 143.438 271.294 143.734 271.659 143.748C274.026 143.841 274.817 147.171 275.278 150.415C275.326 150.751 275.616 151 275.958 151Z"
            fill="#004CA9"
        />
    </g>
    <path
        fill-rule="evenodd"
        clip-rule="evenodd"
        d="M275.956 151H275.963C276.307 150.997 276.595 150.735 276.637 150.39C276.7 149.863 276.815 149.205 276.925 148.569C277.039 147.916 277.157 147.239 277.224 146.676C277.327 145.821 277.396 145.595 277.793 144.808C278.074 144.252 279.55 143.429 280.342 143.387C280.706 143.37 281 143.067 281 142.694C281 142.3 280.666 141.971 280.276 142.002C279.098 142.062 277.117 143.098 276.571 144.177C276.118 145.076 275.991 145.473 275.874 146.416C275.222 144.302 274.036 142.318 271.713 142.224C271.326 142.212 271.016 142.507 271.001 142.889C270.985 143.272 271.28 143.594 271.658 143.61C274.024 143.705 274.815 147.097 275.277 150.403C275.324 150.746 275.614 151 275.956 151Z"
        fill="#733BE6"
    />
    <mask
        id="mask1_2311_16917"
        style="mask-type:alpha"
        maskUnits="userSpaceOnUse"
        x="271"
        y="143"
        width="2"
        height="1"
    >
        <path
            fill-rule="evenodd"
            clip-rule="evenodd"
            d="M273 143H271V144H273V143Z"
            fill="white"
        />
    </mask>
    <g mask="url(#mask1_2311_16917)">
        <path
            fill-rule="evenodd"
            clip-rule="evenodd"
            d="M272.022 144C272.083 144 272.144 143.999 272.206 143.997C272.65 143.983 272.999 143.765 273 143.502C273.001 143.238 272.654 143.019 272.209 143.004C272.078 142.999 271.947 142.999 271.811 143.001C271.366 143.01 271.009 143.224 271 143.489C270.991 143.753 271.333 143.975 271.779 143.995C271.859 143.998 271.94 144 272.022 144Z"
            fill="#004CA9"
        />
    </g>
    <mask
        id="mask2_2311_16917"
        style="mask-type:alpha"
        maskUnits="userSpaceOnUse"
        x="271"
        y="136"
        width="10"
        height="8"
    >
        <path
            fill-rule="evenodd"
            clip-rule="evenodd"
            d="M281 136H271V144H281V136Z"
            fill="white"
        />
    </mask>
    <g mask="url(#mask2_2311_16917)">
        <path
            fill-rule="evenodd"
            clip-rule="evenodd"
            d="M271.686 144C271.7 144 271.715 144 271.73 143.999C273.231 143.9 274.728 142.433 275.429 141.033C275.509 140.874 275.581 140.713 275.646 140.55C275.816 140.96 276.042 141.348 276.352 141.696C276.707 142.094 277.158 142.452 277.691 142.761C277.931 142.902 278.198 143.036 278.506 143.173C278.65 143.236 279.89 143.772 280.311 143.775H280.314C280.692 143.775 280.998 143.462 281 143.075C281.002 142.702 280.719 142.396 280.361 142.371C280.147 142.327 279.338 142.009 279.049 141.883C278.791 141.768 278.567 141.656 278.37 141.54C277.96 141.302 277.622 141.036 277.365 140.749C276.692 139.991 276.573 138.789 276.459 137.625C276.425 137.285 276.39 136.934 276.342 136.599C276.291 136.246 275.978 135.994 275.641 136C275.292 136.012 275.008 136.289 274.979 136.645C274.876 137.937 274.768 139.274 274.208 140.392C273.7 141.405 272.575 142.536 271.643 142.597C271.264 142.621 270.977 142.955 271.001 143.342C271.024 143.714 271.326 144 271.686 144Z"
            fill="#733BE6"
        />
    </g>
    <path
        fill-rule="evenodd"
        clip-rule="evenodd"
        d="M91.3564 57.411C90.5571 58.957 88.7552 60.7871 87 60.8985C91.2837 61.0687 92.3589 66.9056 92.9409 71C93.1221 69.5093 93.5774 67.4138 93.759 65.923C93.9156 64.6352 94.053 64.2089 94.6465 63.0529C95.2397 61.9019 97.6933 60.6596 99 60.5943C98.6868 60.5928 97.1258 59.9723 96.865 59.8609C96.5091 59.708 96.1601 59.542 95.8231 59.3506C95.2248 59.0138 94.661 58.6054 94.1948 58.0994C92.7322 56.5049 92.8309 54.0133 92.5311 52C92.3781 53.8513 92.2099 55.759 91.3564 57.411Z"
        fill="white"
    />
    <mask
        id="mask3_2311_16917"
        style="mask-type:alpha"
        maskUnits="userSpaceOnUse"
        x="86"
        y="51"
        width="14"
        height="21"
    >
        <path
            fill-rule="evenodd"
            clip-rule="evenodd"
            d="M100 51H86V72H100V51Z"
            fill="white"
        />
    </mask>
    <g mask="url(#mask3_2311_16917)">
        <path
            fill-rule="evenodd"
            clip-rule="evenodd"
            d="M96.8194 60.5319C95.6452 61.0799 94.4979 61.891 94.0441 62.7598C93.3821 64.0322 93.2138 64.5699 93.0428 65.9567C93.0052 66.2604 92.9551 66.5937 92.8986 66.9431C92.2607 64.4791 91.1638 61.942 89.1074 60.785C90.3071 60.0097 91.3464 58.8048 91.9591 57.6353C92.1704 57.2312 92.3443 56.8146 92.4885 56.3913C92.7382 57.1563 93.1091 57.8811 93.6875 58.5026C94.1902 59.0413 94.8048 59.5093 95.5677 59.9333C95.9103 60.1252 96.2895 60.3086 96.7256 60.4935C96.7282 60.4946 96.7617 60.5086 96.8194 60.5319ZM92.9385 72.0004H92.9464C93.3245 71.9967 93.6412 71.7185 93.6864 71.3505C93.7783 70.6036 93.9451 69.6762 94.1066 68.7787C94.2708 67.8646 94.4414 66.9188 94.5378 66.1338C94.6892 64.9109 94.7999 64.557 95.3854 63.431C95.8655 62.5121 98.1543 61.3622 99.2851 61.3065C99.6925 61.2866 100.01 60.9522 99.9998 60.5525C99.9911 60.164 99.6767 59.851 99.2843 59.8322C98.9925 59.7842 97.7498 59.3178 97.3217 59.1377C96.9387 58.9757 96.6081 58.8159 96.3125 58.6505C95.6878 58.3029 95.1937 57.9294 94.7999 57.5076C93.77 56.3994 93.5941 54.6911 93.4239 53.0393C93.3757 52.5714 93.3264 52.0876 93.2571 51.6296C93.201 51.2591 92.858 50.996 92.4874 51C92.1048 51.0126 91.7927 51.3038 91.7614 51.6776C91.6097 53.4925 91.4526 55.3694 90.6189 56.9615C89.8364 58.4553 88.1585 60.0543 86.7057 60.1455C86.3054 60.1706 85.9955 60.4983 86 60.8906C86.0049 61.2836 86.3228 61.6039 86.723 61.6194C90.3271 61.7608 91.5102 66.6254 92.1929 71.3653C92.2453 71.7295 92.5635 72.0004 92.9385 72.0004Z"
            fill="#733BE6"
        />
    </g>
    <path
        fill-rule="evenodd"
        clip-rule="evenodd"
        d="M87 60.3216C91.2802 60.5015 92.3546 66.6721 92.936 71C93.1171 69.4245 93.5721 67.2089 93.7531 65.6331C93.91 64.2717 94.0473 63.8211 94.6403 62.599C95.233 61.3823 97.6846 60.0691 98.9902 60H99"
        fill="white"
    />
    <mask
        id="mask4_2311_16917"
        style="mask-type:alpha"
        maskUnits="userSpaceOnUse"
        x="86"
        y="60"
        width="14"
        height="12"
    >
        <path
            fill-rule="evenodd"
            clip-rule="evenodd"
            d="M100 60H86V72H100V60Z"
            fill="white"
        />
    </mask>
    <g mask="url(#mask4_2311_16917)">
        <path
            fill-rule="evenodd"
            clip-rule="evenodd"
            d="M92.9357 72H92.9436C93.3211 71.9964 93.6377 71.722 93.6829 71.3592C93.7747 70.623 93.9419 69.7082 94.1033 68.8235C94.2675 67.9218 94.4376 66.9891 94.5344 66.2154C94.6853 65.0091 94.796 64.6601 95.3817 63.5499C95.8609 62.6449 98.1439 61.5131 99.2758 61.4553C99.6759 61.4385 100 61.1194 100 60.7282C100 60.3145 99.6398 59.9746 99.2039 60.0015C97.7306 60.0732 94.8313 61.3945 94.0409 62.888C93.3791 64.1427 93.2105 64.6729 93.0396 66.0404C93.0023 66.3399 92.9522 66.6689 92.8958 67.0131C92.0507 63.7941 90.4012 60.4491 86.7827 60.3094C86.3562 60.2908 86.017 60.6056 86.0005 61.0073C85.9835 61.4091 86.3073 61.7475 86.7225 61.7635C90.3248 61.9029 91.5079 66.7002 92.1904 71.3737C92.2427 71.7333 92.5608 72 92.9357 72Z"
            fill="#733BE6"
        />
    </g>
    <path
        fill-rule="evenodd"
        clip-rule="evenodd"
        d="M87.1855 61.0018C87.0623 61.0085 86.9376 61.0077 86.8147 60.9985C86.9412 60.9941 87.0641 60.9944 87.1855 61.0018Z"
        fill="white"
    />
    <path
        fill-rule="evenodd"
        clip-rule="evenodd"
        d="M87.0258 62C87.0978 62 87.1701 61.9975 87.2428 61.9926C87.6664 61.9652 87.9984 61.5312 88 61.0043C88.0012 60.4774 87.6711 60.0409 87.248 60.0096C87.091 59.9987 86.9327 59.9977 86.7693 60.0036C86.3458 60.024 86.0077 60.4516 86.0001 60.9785C85.9925 61.5059 86.3178 61.9484 86.7405 61.9876C86.8344 61.9955 86.9295 62 87.0258 62Z"
        fill="#733BE6"
    />
    <path
        fill-rule="evenodd"
        clip-rule="evenodd"
        d="M99 60.6924C98.6868 60.6909 97.1258 60.0633 96.8654 59.9507C96.5091 59.796 96.1601 59.6278 95.8231 59.4346C95.2248 59.0939 94.661 58.6809 94.1948 58.1691C92.7322 56.5561 92.8309 54.0365 92.5311 52C92.3781 53.8727 92.2103 55.8021 91.3564 57.4729C90.5571 59.0361 88.7552 60.8874 87 61"
        fill="white"
    />
    <mask
        id="mask5_2311_16917"
        style="mask-type:alpha"
        maskUnits="userSpaceOnUse"
        x="86"
        y="51"
        width="14"
        height="11"
    >
        <path
            fill-rule="evenodd"
            clip-rule="evenodd"
            d="M100 51H86V62H100V51Z"
            fill="white"
        />
    </mask>
    <g mask="url(#mask5_2311_16917)">
        <path
            fill-rule="evenodd"
            clip-rule="evenodd"
            d="M86.7528 62.0003C86.769 62.0003 86.7848 61.9999 86.801 61.9987C88.886 61.8634 90.974 59.8211 91.959 57.8728C92.1703 57.4542 92.3442 57.0227 92.4885 56.5839C92.7381 57.3766 93.109 58.127 93.6874 58.7711C94.1901 59.3292 94.8047 59.8138 95.5676 60.253C95.9102 60.4518 96.2894 60.6418 96.7255 60.8333C96.7466 60.8421 98.6696 61.6738 99.2435 61.6765H99.2469C99.6615 61.6765 99.9981 61.3363 100 60.9155C100.002 60.5049 99.6841 60.1682 99.2842 60.1483C98.9923 60.0986 97.7497 59.6155 97.3216 59.4289C96.9386 59.2611 96.608 59.0956 96.3124 58.9244C95.6877 58.5643 95.1936 58.1775 94.7998 57.7405C93.7699 56.5927 93.594 54.8233 93.4238 53.1123C93.3756 52.6276 93.3263 52.1265 93.257 51.6522C93.2009 51.2684 92.8579 50.9958 92.4873 51C92.1048 51.013 91.7926 51.3146 91.7613 51.7018C91.6096 53.5817 91.4526 55.5258 90.6189 57.1748C89.8364 58.7221 88.1585 60.3784 86.7057 60.4728C86.2904 60.4996 85.9752 60.8631 86.0015 61.2843C86.0271 61.6891 86.3589 62.0003 86.7528 62.0003Z"
            fill="#733BE6"
        />
    </g>
    <path
        fill-rule="evenodd"
        clip-rule="evenodd"
        d="M100.302 143.716C102.013 145.425 104.215 146.175 106.907 145.966C109.599 145.756 110.963 144.14 110.999 141.118C111.035 138.095 109.665 136.415 106.889 136.078C104.113 135.74 101.893 136.502 100.23 138.362C98.5665 140.222 98.5904 142.007 100.302 143.716Z"
        fill="#FA8C16"
    />
    <path
        fill-rule="evenodd"
        clip-rule="evenodd"
        d="M277.511 67.4012C278.709 68.5976 280.25 69.1225 282.135 68.976C284.019 68.8295 284.974 67.6983 285 65.5823C285.025 63.4663 284.066 62.2903 282.122 62.0543C280.179 61.8183 278.625 62.3514 277.461 63.6535C276.297 64.9557 276.313 66.2049 277.511 67.4012Z"
        fill="#733BE6"
    />
    <path
        fill-rule="evenodd"
        clip-rule="evenodd"
        d="M173.268 107.483C172.765 107.483 172.357 107.075 172.357 106.573V79.5108C172.357 79.0084 172.765 78.6016 173.268 78.6016C173.771 78.6016 174.179 79.0084 174.179 79.5108V106.573C174.179 107.075 173.771 107.483 173.268 107.483Z"
        fill="#004CA9"
    />
    <path
        fill-rule="evenodd"
        clip-rule="evenodd"
        d="M173.268 119.785C172.765 119.785 172.357 119.378 172.357 118.876V111.495C172.357 110.993 172.765 110.586 173.268 110.586C173.771 110.586 174.179 110.993 174.179 111.495V118.876C174.179 119.378 173.771 119.785 173.268 119.785Z"
        fill="#004CA9"
    />
    <path
        fill-rule="evenodd"
        clip-rule="evenodd"
        d="M211.781 114.009L176.636 56.7995C175.864 55.5407 174.567 54.9106 173.269 54.9102H173.265C171.968 54.9106 170.67 55.5407 169.898 56.7995L129.507 122.666C127.885 125.311 129.781 128.717 132.876 128.717H199.943"
        fill="white"
    />
    <path
        fill-rule="evenodd"
        clip-rule="evenodd"
        d="M211.781 114.009L176.636 56.7995C175.864 55.5407 174.567 54.9106 173.269 54.9102H173.265C171.968 54.9106 170.67 55.5407 169.898 56.7995L129.507 122.666C127.885 125.311 129.781 128.717 132.876 128.717H203.13"
        fill="white"
    />
    <mask
        id="mask6_2311_16917"
        style="mask-type:alpha"
        maskUnits="userSpaceOnUse"
        x="128"
        y="54"
        width="85"
        height="76"
    >
        <path
            fill-rule="evenodd"
            clip-rule="evenodd"
            d="M128 54H212.692V129.625H128V54Z"
            fill="white"
        />
    </mask>
    <g mask="url(#mask6_2311_16917)">
        <path
            fill-rule="evenodd"
            clip-rule="evenodd"
            d="M203.131 129.625H132.876C131.094 129.625 129.509 128.695 128.635 127.138C127.756 125.571 127.791 123.722 128.731 122.19L169.122 56.3244C170.014 54.8697 171.562 54.0005 173.265 54C174.972 54.0005 176.521 54.8697 177.413 56.3244L212.558 113.533C212.821 113.961 212.686 114.52 212.258 114.784C211.829 115.046 211.268 114.911 211.005 114.484L175.859 57.2745C175.301 56.363 174.333 55.8189 173.269 55.8184C172.201 55.8189 171.233 56.363 170.675 57.2736L130.284 123.14C129.694 124.103 129.671 125.265 130.224 126.25C130.771 127.225 131.763 127.807 132.876 127.807H203.131C203.633 127.807 204.041 128.214 204.041 128.716C204.041 129.218 203.633 129.625 203.131 129.625Z"
            fill="#733BE6"
        />
    </g>
    <path
        fill-rule="evenodd"
        clip-rule="evenodd"
        d="M211.856 131.846L223.827 143.799C225.505 145.474 228.226 145.474 229.904 143.799L232.833 140.874C234.511 139.199 234.511 136.482 232.833 134.807L220.861 122.854L232.833 110.901C234.511 109.225 234.511 106.509 232.833 104.834L229.904 101.908C228.226 100.234 225.505 100.234 223.827 101.908L211.856 113.862L199.884 101.908C198.206 100.234 195.485 100.234 193.807 101.908L190.878 104.834C189.2 106.509 189.2 109.225 190.878 110.901L202.85 122.854L190.878 134.807C189.2 136.482 189.2 139.199 190.878 140.874L193.807 143.799C195.485 145.474 198.206 145.474 199.884 143.799L211.856 131.846Z"
        fill="#FA8C16"
    />
    <mask
        id="mask7_2311_16917"
        style="mask-type:alpha"
        maskUnits="userSpaceOnUse"
        x="189"
        y="103"
        width="46"
        height="43"
    >
        <path
            fill-rule="evenodd"
            clip-rule="evenodd"
            d="M189.967 103.914H235V145.999H189.967V103.914Z"
            fill="white"
        />
    </mask>
    <g mask="url(#mask7_2311_16917)">
        <path
            fill-rule="evenodd"
            clip-rule="evenodd"
            d="M196.798 145.999C195.964 146 195.061 145.781 194.141 145.209C191.079 143.303 190.1 141.354 190.06 141.272C189.839 140.821 190.026 140.276 190.477 140.056C190.931 139.836 191.475 140.023 191.696 140.473C191.7 140.482 192.527 142.062 195.104 143.666C197.308 145.036 199.16 143.235 199.237 143.158L211.212 131.202C211.553 130.861 212.158 130.861 212.499 131.202L224.471 143.155C225.792 144.473 227.939 144.474 229.26 143.155L232.189 140.23C233.51 138.912 233.51 136.767 232.189 135.449L220.218 123.496C220.047 123.325 219.951 123.094 219.951 122.853C219.951 122.612 220.047 122.38 220.218 122.21L232.189 110.257C233.509 108.939 233.509 106.794 232.189 105.475C231.834 105.12 231.828 104.538 232.183 104.184C232.539 103.828 233.11 103.822 233.465 104.178L233.477 104.19C235.507 106.217 235.507 109.516 233.477 111.543L222.149 122.853L233.477 134.163C235.508 136.19 235.508 139.489 233.477 141.516L230.548 144.441C228.517 146.468 225.213 146.468 223.183 144.441L211.855 133.13L200.527 144.441C199.863 145.118 198.472 145.999 196.798 145.999Z"
            fill="#733BE6"
        />
    </g>
    <path
        fill-rule="evenodd"
        clip-rule="evenodd"
        d="M178.089 115.132C178.089 117.539 176.135 119.49 173.724 119.49C171.314 119.49 169.359 117.539 169.359 115.132C169.359 112.725 171.314 110.773 173.724 110.773C176.135 110.773 178.089 112.725 178.089 115.132Z"
        fill="#733BE6"
    />
    <path
        fill-rule="evenodd"
        clip-rule="evenodd"
        d="M169.359 78.8153C169.359 76.4082 171.314 74.457 173.724 74.457C176.135 74.457 178.089 76.4082 178.089 78.8153L176.94 101.608C176.94 103.293 175.5 104.964 173.724 104.964C171.948 104.964 170.508 103.293 170.508 101.608L169.359 78.8153Z"
        fill="#733BE6"
    />
    <path
        fill-rule="evenodd"
        clip-rule="evenodd"
        d="M173.723 111.684C171.818 111.684 170.269 113.231 170.269 115.133C170.269 117.034 171.818 118.581 173.723 118.581C175.628 118.581 177.177 117.034 177.177 115.133C177.177 113.231 175.628 111.684 173.723 111.684ZM173.723 120.4C170.814 120.4 168.447 118.037 168.447 115.133C168.447 112.228 170.814 109.865 173.723 109.865C176.632 109.865 178.998 112.228 178.998 115.133C178.998 118.037 176.632 120.4 173.723 120.4Z"
        fill="#FA8C16"
    />
    <path
        fill-rule="evenodd"
        clip-rule="evenodd"
        d="M170.269 78.7945L171.416 101.563C171.417 101.578 171.417 101.594 171.417 101.609C171.417 102.74 172.424 104.055 173.723 104.055C175.021 104.055 176.028 102.74 176.028 101.609C176.028 101.594 176.028 101.578 176.029 101.563L177.177 78.795C177.165 76.9029 175.62 75.3673 173.723 75.3673C171.825 75.3673 170.28 76.9029 170.269 78.7945ZM173.723 105.874C171.532 105.874 169.61 103.895 169.596 101.633L168.449 78.8618C168.448 78.8468 168.447 78.8314 168.447 78.8163C168.447 75.9119 170.814 73.5488 173.723 73.5488C176.632 73.5488 178.998 75.9119 178.998 78.8163C178.998 78.8314 178.998 78.8468 178.997 78.8618L177.849 101.633C177.835 103.895 175.913 105.874 173.723 105.874Z"
        fill="#FA8C16"
    />
    <path
        fill-rule="evenodd"
        clip-rule="evenodd"
        d="M190.878 141.782C190.645 141.782 190.412 141.693 190.234 141.515L190.229 141.51L190.192 141.473C190.182 141.463 190.172 141.453 190.163 141.443C189.224 140.47 188.709 139.194 188.709 137.839C188.709 136.45 189.251 135.144 190.234 134.163L201.563 122.852L190.234 111.542C189.251 110.56 188.709 109.255 188.709 107.866C188.709 106.477 189.251 105.172 190.234 104.19L193.164 101.264C195.194 99.2374 198.497 99.2374 200.528 101.264L211.856 112.575L223.184 101.264C223.539 100.909 224.116 100.909 224.471 101.264C224.827 101.62 224.827 102.195 224.471 102.55L212.5 114.503C212.158 114.844 211.554 114.844 211.212 114.503L199.24 102.55C197.92 101.233 195.772 101.232 194.452 102.55L191.522 105.475C190.883 106.114 190.53 106.963 190.53 107.866C190.53 108.769 190.883 109.618 191.522 110.257L203.494 122.21C203.665 122.38 203.761 122.611 203.761 122.852C203.761 123.094 203.665 123.325 203.494 123.495L191.522 135.449C190.883 136.087 190.53 136.936 190.53 137.839C190.53 138.742 190.883 139.591 191.522 140.23C191.878 140.585 191.878 141.16 191.522 141.515C191.344 141.693 191.111 141.782 190.878 141.782Z"
        fill="#733BE6"
    />
    <path
        fill-rule="evenodd"
        clip-rule="evenodd"
        d="M232.834 105.743C232.609 105.743 232.385 105.66 232.208 105.494L228.379 101.887C228.014 101.542 227.997 100.966 228.342 100.601C228.687 100.237 229.263 100.22 229.63 100.564L233.459 104.172C233.824 104.517 233.841 105.092 233.496 105.458C233.317 105.647 233.075 105.743 232.834 105.743Z"
        fill="#733BE6"
    />
</svg>