<?xml version="1.0" encoding="UTF-8"?>
<svg width="360px" height="200px" viewBox="0 0 360 200" version="1.1" xmlns="http://www.w3.org/2000/svg" xmlns:xlink="http://www.w3.org/1999/xlink">
    <title>E83193BE-07D3-4AD9-A7C5-11CB09EC3B76</title>
    <defs>
        <polygon id="path-1" points="-1.52384175e-16 0 10 0 10 15 -1.52384175e-16 15"></polygon>
        <polygon id="path-3" points="1.49254615e-15 0 2 0 2 1 1.49254615e-15 1"></polygon>
        <polygon id="path-5" points="2.5476303e-16 0 10 0 10 8 2.5476303e-16 8"></polygon>
        <polygon id="path-7" points="4.18065068e-16 0 14 0 14 21 4.18065068e-16 21"></polygon>
        <polygon id="path-9" points="0 0 14 0 14 12 0 12"></polygon>
        <polygon id="path-11" points="-2.80884478e-17 0 14 0 14 11 -2.80884478e-17 11"></polygon>
        <polygon id="path-13" points="-6.06601809e-16 0 84.6921969 0 84.6921969 75.624861 -6.06601809e-16 75.624861"></polygon>
        <polygon id="path-15" points="0 0 45.0330189 0 45.0330189 42.0854053 0 42.0854053"></polygon>
    </defs>
    <g id="MVP" stroke="none" stroke-width="1" fill="none" fill-rule="evenodd">
        <g id="OTP-pantalla-numero-de-intentos" transform="translate(-540.000000, -110.000000)">
            <g id="atoms/-illustrated-icons/-check" transform="translate(540.000000, 110.000000)">
                <circle id="Oval" fill="#F5F5F5" cx="180" cy="100" r="75"></circle>
                <g id="Group" transform="translate(185.500000, 101.000000) scale(-1, 1) translate(-185.500000, -101.000000) translate(86.000000, 51.000000)">
                    <g id="Group-20" transform="translate(4.000000, 85.000000)">
                        <path d="M5.73238148,4.98693071 C6.33192809,6.12630319 7.68350302,7.47483414 9,7.55654213 C5.7867881,7.68189754 4.98035317,11.9830897 4.54438435,15 C4.4083678,13.9014815 4.06689469,12.3570609 3.93087814,11.2592408 C3.81311645,10.3101711 3.71003023,9.99590961 3.26475501,9.14391181 C2.81983773,8.29610416 0.97967706,7.38055569 0,7.33271811 C0.234807509,7.33167057 1.40526567,6.87389634 1.60105791,6.79253754 C1.86772192,6.67975258 2.12973274,6.5571906 2.3827951,6.41647129 C2.83129176,6.16820472 3.25401686,5.86721205 3.6040805,5.49428842 C4.70080337,4.31929965 4.62635221,2.48331421 4.85149539,1 C4.96603563,2.36389485 5.09238785,3.77004041 5.73238148,4.98693071" id="Fill-1" fill="#F0CA30"></path>
                        <path d="M9,7.20466345 C5.7894695,7.31879042 4.98406517,11.2459696 4.54810252,14 C4.41219948,12.9974041 4.07101133,11.5873941 3.93510829,10.585117 C3.81744486,9.71864469 3.71444467,9.43141452 3.26989867,8.65388469 C2.82499503,7.87954276 0.986369958,7.04399308 0.00751043115,7 L0,7" id="Fill-3" fill="#F0CA30"></path>
                        <path d="M8.87055768,7.00062033 C8.95662577,7.00538299 9.04371442,7.00470261 9.12944232,6.99823899 C9.04133309,6.99517728 8.95526501,6.99551747 8.87055768,7.00062033" id="Fill-5" fill="#F0CA30"></path>
                        <path d="M0,6.79486633 C0.23444957,6.79390776 1.40526567,6.37533284 1.60105791,6.30056449 C1.86772192,6.19735861 2.1293748,6.08520609 2.38243716,5.95643839 C2.83093382,5.72925764 3.25401686,5.45382895 3.60372256,5.11257855 C4.70080337,4.03738417 4.62635221,2.35733305 4.85149539,1 C4.96603563,2.24837576 5.09238785,3.53477474 5.73238148,4.64831185 C6.33157016,5.6909149 7.68350302,6.92491213 9,7" id="Fill-7" fill="#F0CA30"></path>
                        <g id="Group-11">
                            <mask id="mask-2" fill="white">
                                <use xlink:href="#path-1"></use>
                            </mask>
                            <g id="Clip-10"></g>
                            <path d="M2.75423201,6.83135645 C3.4882056,7.22869843 4.14634554,7.76109587 4.42668982,8.30437938 C4.88031913,9.18683238 5.00659415,9.5760098 5.12394757,10.5013267 C5.56762586,9.09123897 6.25836397,7.73898351 7.38523132,6.98954483 C6.62140467,6.43231352 5.96841181,5.6430726 5.5707141,4.87492346 C5.49110594,4.72115755 5.41904682,4.56501032 5.35350733,4.40682194 C5.18433998,4.80382374 4.95786846,5.17973374 4.6483574,5.51686209 C4.29286575,5.90195723 3.84232469,6.24861089 3.30874408,6.54865852 C3.13889045,6.64459211 2.95599754,6.73814438 2.75423201,6.83135645 M5.04228057,15 L5.03576094,15 C4.69090659,14.9965981 4.40232698,14.7400948 4.36115034,14.4012655 C4.29801283,13.8845168 4.18306138,13.2388361 4.07222759,12.6149275 C3.95830556,11.9733291 3.84026586,11.3096183 3.77301068,10.7568095 C3.67041223,9.91858118 3.60144136,9.6957567 3.20442993,8.92352528 C2.92236995,8.37718005 1.44275607,7.5685483 0.651478327,7.52908625 C0.280202301,7.51071599 -0.00872044742,7.2025038 0.000201157647,6.83407797 C0.00809334674,6.48028032 0.287751352,6.19452067 0.639125336,6.17104756 C0.852214441,6.12818361 1.66236481,5.82031161 1.95128756,5.69750301 C2.20932783,5.58694124 2.43271109,5.47774023 2.63001582,5.36615789 C3.03972337,5.13550904 3.37771495,4.87764498 3.63506894,4.59936951 C4.30796385,3.86591976 4.42668982,2.70076883 4.54129813,1.57371918 C4.57492572,1.24441521 4.60958273,0.90422516 4.65796528,0.58036423 C4.70909294,0.238473227 5.02237853,-0.00544304085 5.35934069,-8.93062361e-05 C5.70796957,0.0112262717 5.99243151,0.279976413 6.02091202,0.624588937 C6.12419676,1.87614814 6.23159916,3.17091148 6.79194458,4.25373642 C7.29978979,5.23484453 8.42494145,6.3302565 9.35724918,6.38910938 C9.72200557,6.41190212 10.0044087,6.71399088 10,7.0759531 C9.99583021,7.43791532 9.70622119,7.73354047 9.34112166,7.74782845 C6.97449435,7.84138072 6.1832166,11.1704806 5.72203825,14.4145329 C5.67399884,14.7506407 5.38404667,15 5.04228057,15" id="Fill-9" fill="#004CA9" mask="url(#mask-2)"></path>
                        </g>
                        <path d="M5.04431364,15 L5.03745343,15 C4.6930708,14.9965333 4.4045989,14.7351416 4.36343763,14.3898549 C4.30032368,13.8632581 4.18541514,13.2052722 4.07462272,12.5694733 C3.96074321,11.9156474 3.84274757,11.2392877 3.77551749,10.6759435 C3.67295733,9.82139377 3.6040122,9.59466942 3.20714895,8.80772095 C2.92553727,8.25165693 1.44990574,7.42900111 0.65823731,7.38705364 C0.293617059,7.37041332 0,7.06672748 0,6.69440032 C0,6.29988607 0.334092308,5.97054641 0.724095342,6.00209368 C1.90199369,6.06206817 3.88253679,7.09792808 4.42895265,8.17677549 C4.88241264,9.07604611 5.00864054,9.4726404 5.12595016,10.4155919 C5.77835629,8.30227124 6.96380086,6.31791309 9.28666854,6.22431129 C9.67392748,6.21217772 9.98435206,6.50685005 9.99944453,6.88923074 C10.014537,7.27161142 9.72023391,7.59436429 9.34155023,7.60961792 C6.97580623,7.70495309 6.18482383,11.0974983 5.72347459,14.4033752 C5.67579612,14.7458884 5.38595218,15 5.04431364,15" id="Fill-12" fill="#004CA9"></path>
                        <g id="Group-16" transform="translate(8.000000, 7.000000)">
                            <mask id="mask-4" fill="white">
                                <use xlink:href="#path-3"></use>
                            </mask>
                            <g id="Clip-15"></g>
                            <path d="M0.978029728,1 C0.916693027,1 0.85577644,0.999005005 0.794439739,0.997015014 C0.349958711,0.982836333 0.00126376537,0.765429888 1.49254615e-15,0.501507418 C-0.00125692098,0.237833697 0.345757567,0.019183507 0.791078824,0.00376108176 C0.9217344,-0.000716396525 1.0532302,-0.000716396525 1.18850704,0.00127359382 C1.63424841,0.0102285504 1.99092553,0.224401262 2.00016805,0.48857248 C2.00857033,0.753241197 1.66701733,0.975373869 1.22127596,0.994776275 C1.14103411,0.998258758 1.05953192,1 0.978029728,1" id="Fill-14" fill="#004CA9" mask="url(#mask-4)"></path>
                        </g>
                        <g id="Group-19">
                            <mask id="mask-6" fill="white">
                                <use xlink:href="#path-5"></use>
                            </mask>
                            <g id="Clip-18"></g>
                            <path d="M9.31435078,8 C9.29959606,8 9.28484134,7.99964877 9.27008663,7.99859507 C7.76853699,7.90025025 6.27247748,6.43280502 5.57077066,5.03314747 C5.49116383,4.87439083 5.41910592,4.71317557 5.35356753,4.54985292 C5.184403,4.95974009 4.95793528,5.3478509 4.64842939,5.69592132 C4.29294369,6.09351539 3.84241017,6.45142029 3.30883848,6.76120648 C3.06864544,6.90169908 2.80203117,7.03622075 2.49389781,7.17320104 C2.35012512,7.23607148 1.11004276,7.77240198 0.689361804,7.77450937 L0.686273608,7.77450937 C0.308484267,7.77450937 0.00172344053,7.46191333 4.2721382e-13,7.07520745 C-0.00170788863,6.70219959 0.280690501,6.39592571 0.639264398,6.37133951 C0.852693072,6.32708434 1.66248675,6.00921983 1.95140467,5.88242525 C2.20944062,5.76827501 2.43282015,5.6555297 2.63012158,5.54032577 C3.03982228,5.30219081 3.3778082,5.03595733 3.63515789,4.74864995 C4.30804153,3.99139483 4.42676552,2.78842692 4.54137192,1.62479694 C4.57499894,1.28480485 4.60965537,0.933573342 4.65803711,0.599200948 C4.70916391,0.246213285 5.02244426,-0.00561970409 5.35940079,-2.25311171e-14 C5.70802383,0.0115906397 5.99248102,0.289063529 6.02096105,0.644861044 C6.12424406,1.93739298 6.23164466,3.27382886 6.79198071,4.39179874 C7.29981743,5.40475041 8.42495026,6.53571585 9.35724239,6.5964789 C9.735718,6.62106511 10.0229202,6.95473504 9.99855781,7.34214339 C9.9755679,7.71409755 9.67361094,8 9.31435078,8" id="Fill-17" fill="#004CA9" mask="url(#mask-6)"></path>
                        </g>
                    </g>
                    <g id="Group-20" transform="translate(185.000000, 0.000000)">
                        <path d="M8.64363001,6.41097418 C9.44293077,7.95701811 11.2447934,9.78713189 13,9.89846142 C8.71632659,10.0686879 7.64106815,15.9055873 7.05913379,20 C6.87793484,18.5092617 6.42258658,16.4137527 6.24102595,14.9230144 C6.08442087,13.6351832 5.94698454,13.2088988 5.3534766,12.0528673 C4.76033033,10.9018637 2.30673016,9.65964163 1,9.59428042 C1.31321016,9.59284391 2.87419753,8.97227158 3.13496489,8.86094205 C3.49085265,8.70795373 3.83986859,8.54203682 4.17694928,8.35062186 C4.77515899,8.01376025 5.33900961,7.60543228 5.80520811,7.09942162 C7.26782001,5.50489547 7.16908285,3.01326882 7.46891106,1 C7.62189939,2.85130231 7.79007806,4.75898764 8.64363001,6.41097418" id="Fill-1" fill="#FFFFFF"></path>
                        <g id="Group-5">
                            <mask id="mask-8" fill="white">
                                <use xlink:href="#path-7"></use>
                            </mask>
                            <g id="Clip-4"></g>
                            <path d="M3.1806426,9.53161234 C4.35475523,10.079631 5.50213214,10.8907723 5.95588639,11.7594833 C6.61787805,13.0319199 6.78620016,13.5696055 6.95715819,14.9564432 C6.99481415,15.2601599 7.04489657,15.5933995 7.1013805,15.9428767 C7.73927235,13.4788226 8.83619028,10.9416993 10.8925819,9.78477111 C9.69286323,9.00942624 8.65355891,7.80452333 8.04089654,6.63504789 C7.82964664,6.23095334 7.65567613,5.81431157 7.51145383,5.39102715 C7.26179486,6.15603901 6.89088372,6.88082594 6.31248827,7.50228275 C5.80978128,8.04107548 5.19523612,8.50901327 4.4323265,8.93303576 C4.08965732,9.12493454 3.71046187,9.30834549 3.27440592,9.49323258 C3.27177001,9.49433969 3.23825621,9.50836306 3.1806426,9.53161234 M7.06146519,21.0001476 L7.05355744,21.0001476 C6.67549166,20.9964573 6.35880509,20.718204 6.31361795,20.350275 C6.22173742,19.6033459 6.05492154,18.6759582 5.8933775,17.7784623 C5.72919754,16.8643599 5.55861607,15.9185203 5.46221683,15.1335805 C5.3108399,13.9105949 5.20013139,13.5566892 4.61458131,12.43076 C4.13446791,11.5118601 1.84573904,10.3619436 0.714930751,10.3062191 C0.307493332,10.2862912 -0.00956979804,9.95194447 0.000220749919,9.55227836 C0.00888161927,9.16368333 0.323308833,8.85074071 0.71568387,8.83191987 C1.00751751,8.78394517 2.25016398,8.31748353 2.67831218,8.1373939 C3.06127323,7.97538705 3.3918925,7.81559441 3.68749173,7.65026623 C4.31220401,7.30263421 4.80625012,6.92916967 5.20013139,6.50736139 C6.23002173,5.39914594 6.40587503,3.69087778 6.57607994,2.03907214 C6.62427956,1.57113435 6.67360886,1.087328 6.74289582,0.629354187 C6.79900319,0.25884193 7.14204893,-0.00428081891 7.51258351,-0.000267748905 C7.895168,0.0123258062 8.20733586,0.303495299 8.2385903,0.677328881 C8.39034379,2.49224848 8.54736912,4.36916615 9.38107193,5.96118794 C10.1635627,7.45504613 11.8415119,9.05407961 13.2942786,9.14523153 C13.6945614,9.17032598 14.0044699,9.49803005 14,9.89031544 C13.9950559,10.2833389 13.6772397,10.6036622 13.2769569,10.6191618 C9.67290557,10.7605026 8.48975551,15.6251366 7.80705307,20.3650365 C7.75471129,20.7292751 7.43651848,21.0001476 7.06146519,21.0001476" id="Fill-3" fill="#004CA9" mask="url(#mask-8)"></path>
                        </g>
                        <path d="M13,9.32155306 C8.71980967,9.50150129 7.64542553,15.6721311 7.06396434,20 C6.88291273,18.4245039 6.42793471,16.2089387 6.24688309,14.633063 C6.09004397,13.2716825 5.95271939,12.8210526 5.35969403,11.5989991 C4.76703005,10.3822606 2.31542492,9.06909405 1.00975727,9 L1,9" id="Fill-6" fill="#FFFFFF"></path>
                        <g id="Group-10" transform="translate(0.000000, 9.000000)">
                            <mask id="mask-10" fill="white">
                                <use xlink:href="#path-9"></use>
                            </mask>
                            <g id="Clip-9"></g>
                            <path d="M7.06416332,12 L7.05625845,12 C6.67870707,11.996361 6.36213607,11.7219806 6.31696541,11.3591725 C6.22511842,10.6230034 6.057987,9.70815938 5.89650191,8.82351909 C5.73238186,7.92177552 5.56223907,6.98910046 5.46549858,6.2154496 C5.31455331,5.00912193 5.20388521,4.66014207 4.61817239,3.54988394 C4.13898704,2.64486526 1.85598689,1.51313705 0.724085586,1.45527699 C0.323948875,1.4385376 -0.000150568847,1.11939752 -0.000150568847,0.728205289 C-0.000150568847,0.314451275 0.360085398,-0.0254310906 0.79598221,0.00149749082 C2.26929838,0.0731857413 5.16850153,1.39450573 5.95898798,2.8879503 C6.62073806,4.14267663 6.78937517,4.67287856 6.96027081,6.04041382 C6.9975366,6.33990331 7.04760074,6.66886868 7.10406406,7.01311785 C7.94913171,3.79406067 9.59861344,0.449094182 13.2171593,0.309356678 C13.6436455,0.290797791 13.9828018,0.605571073 13.9993644,1.0073164 C14.0163034,1.40906172 13.6925804,1.74748848 13.2773868,1.76350007 C9.67502713,1.90287368 8.49193241,6.70016406 7.80947911,11.3737285 C7.75715643,11.7332615 7.43907975,12 7.06416332,12" id="Fill-8" fill="#004CA9" mask="url(#mask-10)"></path>
                        </g>
                        <path d="M12.8145594,10.0009053 C12.9378174,10.007548 13.0625516,10.0068099 13.1854406,9.99758398 C13.0588613,9.99315554 12.9359722,9.99352458 12.8145594,10.0009053" id="Fill-11" fill="#FFFFFF"></path>
                        <path d="M12.974164,11 C12.9022407,11 12.8299179,10.9975169 12.7571955,10.9925508 C12.3336473,10.9652372 12.0016015,10.5311992 12,10.004295 C11.9988045,9.47739073 12.3288524,9.04086968 12.752001,9.00958319 C12.9090335,8.99865775 13.0672647,8.99766452 13.2306903,9.00362386 C13.6542385,9.02398491 13.9922779,9.45156696 13.9998698,9.97847121 C14.0074617,10.5058721 13.6822087,10.9483525 13.2594597,10.9875847 C13.1655598,10.9955305 13.0704613,11 12.974164,11" id="Fill-13" fill="#004CA9"></path>
                        <path d="M1,9.69236047 C1.31321016,9.69090762 2.87419753,9.06327939 3.13460321,8.95068405 C3.49085265,8.79595625 3.83986859,8.62778966 4.17694928,8.43456152 C4.77515899,8.09386981 5.33900961,7.68089915 5.80520811,7.16913515 C7.26782001,5.55611607 7.16908285,3.03652286 7.46891106,1 C7.62189939,2.8727148 7.78971639,4.80209048 8.64363001,6.47286008 C9.44293077,8.03611929 11.2447934,9.88740466 13,10" id="Fill-15" fill="#FFFFFF"></path>
                        <g id="Group-19">
                            <mask id="mask-12" fill="white">
                                <use xlink:href="#path-11"></use>
                            </mask>
                            <g id="Clip-18"></g>
                            <path d="M13.2472318,11 C13.2310399,11 13.2152246,10.9996178 13.1990327,10.998471 C11.1140448,10.8631565 9.02604435,8.82082467 8.04097508,6.87252497 C7.82972743,6.45396735 7.65575878,6.02241342 7.51153801,5.58359685 C7.26188169,6.37637174 6.8909745,7.12671749 6.31258521,7.77079931 C5.80988358,8.32887613 5.19534495,8.81356203 4.43244345,9.25276085 C4.08977792,9.45152794 3.7105865,9.6415034 3.2745352,9.83300785 C3.25344809,9.84179947 1.33037901,10.6735633 0.756508379,10.676239 L0.75311938,10.676239 C0.338531743,10.676239 0.00189109988,10.3360415 4.11226608e-13,9.91519039 C-0.00187445541,9.50465991 0.315938411,9.16790259 0.715840382,9.14802588 C1.00767092,9.09833411 2.25030416,8.61517719 2.6784478,8.42864192 C3.06140477,8.26083663 3.39202053,8.0953248 3.68761662,7.92407931 C4.31232224,7.56400509 4.80636309,7.17717375 5.20024017,6.74026841 C6.23011955,5.59238847 6.40597098,3.82297914 6.57617408,2.11205321 C6.62437318,1.62736731 6.67370196,1.1262449 6.74298818,0.6518796 C6.79909495,0.268106222 7.14213704,-0.00443403504 7.51266768,-0.00027733199 C7.89524809,0.012766963 8.20741263,0.314357795 8.23866674,0.701571372 C8.39041861,2.58144933 8.54744227,4.52554435 9.38113621,6.17454669 C10.1636186,7.72187202 11.84155,9.37813701 13.2943013,9.47255138 C13.709642,9.49930849 14.024819,9.86282291 13.9984601,10.2840562 C13.9728543,10.6888531 13.6411089,11 13.2472318,11" id="Fill-17" fill="#004CA9" mask="url(#mask-12)"></path>
                        </g>
                    </g>
                    <path d="M184.698427,92.7160701 C182.987255,94.4251333 180.785495,95.1750284 178.093111,94.9657553 C175.400727,94.7564823 174.036586,93.1404061 174.000687,90.1175964 C173.964789,87.0947519 175.334925,85.4147777 178.11106,85.0776039 C180.887195,84.7404302 183.10694,85.5019748 184.770223,87.362168 C186.433507,89.2223612 186.409598,91.0070069 184.698427,92.7160701" id="Fill-1" fill="#FFDB29"></path>
                    <path d="M7.48889861,16.4012491 C6.2910785,17.5975933 4.7498466,18.1225199 2.86517779,17.9760287 C0.980508971,17.8295376 0.0256101055,16.6982842 0.000481187995,14.5823175 C-0.0246477295,12.4663264 0.934447666,11.2903444 2.87774224,11.0543228 C4.82103682,10.8183011 6.37485831,11.3513824 7.53915644,12.6535176 C8.70345458,13.9556529 8.68671872,15.2049048 7.48889861,16.4012491" id="Fill-1-Copy" fill="#004DA6"></path>
                </g>
                <g id="Group-33" transform="translate(128.000000, 54.000000)">
                    <path d="M45,53 L45,26 L45,53 Z" id="Fill-1" fill="#FFFFFF"></path>
                    <g id="Group-32">
                        <path d="M45.2673526,53.4832255 C44.7646846,53.4832255 44.3567221,53.0758985 44.3567221,52.5740133 L44.3567221,25.5113123 C44.3567221,25.0089725 44.7646846,24.6021001 45.2673526,24.6021001 C45.7700207,24.6021001 46.1779832,25.0089725 46.1779832,25.5113123 L46.1779832,52.5740133 C46.1779832,53.0758985 45.7700207,53.4832255 45.2673526,53.4832255" id="Fill-2" fill="#004CA9"></path>
                        <line x1="45.2673526" y1="57.4943515" x2="45.2673526" y2="64.8748815" id="Fill-4" fill="#FFFFFF"></line>
                        <path d="M45.2673526,65.7842301 C44.7646846,65.7842301 44.3567221,65.376903 44.3567221,64.8750179 L44.3567221,57.4944879 C44.3567221,56.9921482 44.7646846,56.5852757 45.2673526,56.5852757 C45.7700207,56.5852757 46.1779832,56.9921482 46.1779832,57.4944879 L46.1779832,64.8750179 C46.1779832,65.376903 45.7700207,65.7842301 45.2673526,65.7842301" id="Fill-6" fill="#004CA9"></path>
                        <path d="M83.781516,60.008005 L48.6361848,2.79855514 C47.8639701,1.53975086 46.5667769,0.909212197 45.2691284,0.909212197 L45.2650305,0.909212197 C43.9678373,0.909212197 42.6701887,1.53975086 41.8984293,2.79855514 L1.50741083,68.6655236 C-0.114877511,71.3099672 1.78151063,74.7158761 4.87583327,74.7158761 L71.9433187,74.7158761" id="Fill-8" fill="#FFFFFF"></path>
                        <path d="M83.781516,60.008005 L48.6361848,2.79855514 C47.8639701,1.53975086 46.5667769,0.909212197 45.2691284,0.909212197 L45.2650305,0.909212197 C43.9678373,0.909212197 42.6701887,1.53975086 41.8984293,2.79855514 L1.50741083,68.6655236 C-0.114877511,71.3099672 1.78151063,74.7158761 4.87583327,74.7158761 L75.1305257,74.7158761" id="Fill-10" fill="#FFFFFF"></path>
                        <g id="Group-14">
                            <mask id="mask-14" fill="white">
                                <use xlink:href="#path-13"></use>
                            </mask>
                            <g id="Clip-13"></g>
                            <path d="M75.1305257,75.624861 L4.87583327,75.624861 C3.09418458,75.624861 1.50877678,74.6951916 0.635026755,73.1381657 C-0.244187051,71.5711384 -0.208672459,69.7218008 0.730642964,68.1902329 L41.1216615,2.32417368 C42.0136241,0.869434164 43.5621514,-0.000227303049 45.2645752,-0.000227303049 C46.9720075,-0.000227303049 48.5209901,0.869434164 49.4129527,2.32417368 L84.5578286,59.5327143 C84.8205455,59.9604987 84.6862275,60.5201188 84.2577758,60.7833357 C83.8288688,61.0456434 83.2683757,60.91108 83.0052035,60.4832957 L47.859417,3.27430043 C47.3012004,2.3628152 46.3327448,1.8186517 45.268673,1.81819709 C44.201414,1.8186517 43.2329584,2.3628152 42.6751972,3.27339121 L2.2841787,69.139905 C1.69363478,70.1027607 1.67132433,71.2647339 2.22407708,72.2494107 C2.77091073,73.2245408 3.76258741,73.8064366 4.87583327,73.8064366 L75.1305257,73.8064366 C75.6331938,73.8064366 76.0411562,74.2137637 76.0411562,74.7156488 C76.0411562,75.217534 75.6331938,75.624861 75.1305257,75.624861" id="Fill-12" fill="#004CA9" mask="url(#mask-14)"></path>
                        </g>
                        <path d="M83.8557779,77.8450663 L95.8273826,89.798479 C97.5056747,91.4737025 100.225728,91.4737025 101.90402,89.798479 L104.833519,86.8730888 C106.511356,85.1983199 106.511356,82.4815939 104.833519,80.806825 L92.8614589,68.8534123 L104.833519,56.9004541 C106.511356,55.224776 106.511356,52.5089592 104.833519,50.8332811 L101.90402,47.9078909 C100.225728,46.233122 97.5056747,46.233122 95.8273826,47.9078909 L83.8557779,59.8613036 L71.883718,47.9078909 C70.2058811,46.233122 67.4853723,46.233122 65.8075355,47.9078909 L62.878037,50.8332811 C61.1997449,52.5089592 61.1997449,55.224776 62.878037,56.9004541 L74.850097,68.8534123 L62.878037,80.806825 C61.1997449,82.4815939 61.1997449,85.1983199 62.878037,86.8730888 L65.8075355,89.798479 C67.4853723,91.4737025 70.2058811,91.4737025 71.883718,89.798479 L83.8557779,77.8450663 Z" id="Fill-15" fill="#FFCC00"></path>
                        <g id="Group-19" transform="translate(61.966981, 49.914595)">
                            <mask id="mask-16" fill="white">
                                <use xlink:href="#path-15"></use>
                            </mask>
                            <g id="Clip-18"></g>
                            <path d="M6.83138391,42.085406 C5.99770163,42.0858599 5.09435611,41.8671944 4.17461925,41.2948453 C1.11262399,39.3891365 0.133240819,37.4402402 0.0927177588,37.3584111 C-0.128110152,36.9069872 0.059024428,36.3623691 0.510697186,36.1418852 C0.96373589,35.9223104 1.50783765,36.1091535 1.72912088,36.5592136 C1.73367403,36.5683057 2.56007126,38.1476073 5.13761106,39.7514576 C7.34133702,41.122095 9.19310426,39.3209456 9.27005255,39.2436626 L21.2448444,27.2875222 C21.5863309,26.9465676 22.1909896,26.9465676 22.532476,27.2875222 L34.5040807,39.2409349 C35.8249503,40.558838 37.9726725,40.5597472 39.2930868,39.2409349 L42.2225853,36.3159993 C43.5429996,34.9976416 43.5429996,32.85281 42.2225853,31.534907 L30.2509807,19.5814942 C30.0802374,19.4110169 29.9841659,19.1796224 29.9841659,18.9386812 C29.9841659,18.69774 30.0802374,18.4663455 30.2509807,18.2958682 L42.2225853,6.34291001 C43.5425443,5.02500693 43.5425443,2.87972075 42.2225853,1.56136307 C41.8669841,1.2063157 41.861065,0.624419897 42.2166662,0.26982714 C42.5718121,-0.0861294353 43.1427775,-0.0915847085 43.4979234,0.263462655 L43.5106722,0.275737019 C45.5404678,2.30282561 45.5404678,5.60144746 43.5106722,7.62853606 L32.1824281,18.9386812 L43.5106722,30.2492809 C45.5409231,32.2763695 45.5409231,35.5745368 43.5106722,37.6016254 L40.5807184,40.526561 C38.5504676,42.5536496 35.2466999,42.5536496 33.2164491,40.526561 L21.8886602,29.2159613 L10.560416,40.526561 C9.89611106,41.2034695 8.50512287,42.085406 6.83138391,42.085406" id="Fill-17" fill="#004CA9" mask="url(#mask-16)"></path>
                        </g>
                        <path d="M50.0881853,61.1325187 C50.0881853,63.539658 48.1339721,65.4903727 45.7230777,65.4903727 C43.3126386,65.4903727 41.3584254,63.539658 41.3584254,61.1325187 C41.3584254,58.7253794 43.3126386,56.77421 45.7230777,56.77421 C48.1339721,56.77421 50.0881853,58.725834 50.0881853,61.1325187" id="Fill-20" fill="#F0CA30"></path>
                        <path d="M41.3584709,24.8155376 C41.3584709,22.4083984 43.3126841,20.457229 45.7231232,20.457229 C48.1340176,20.457229 50.0882308,22.4083984 50.0882308,24.8155376 L48.939015,47.6085782 C48.939015,49.2933484 47.4993081,50.9640258 45.7231232,50.9640258 C43.9473936,50.9640258 42.5072314,49.2933484 42.5072314,47.6085782 L41.3584709,24.8155376 Z" id="Fill-22" fill="#F0CA30"></path>
                        <path d="M45.7231232,57.6834677 C43.8185394,57.6834677 42.2691015,59.2304922 42.2691015,61.1325641 C42.2691015,63.0341814 43.8185394,64.581206 45.7231232,64.581206 C47.6281624,64.581206 49.1776002,63.0341814 49.1776002,61.1325641 C49.1776002,59.2304922 47.6281624,57.6834677 45.7231232,57.6834677 M45.7231232,66.3996304 C42.8141139,66.3996304 40.4478404,64.0370425 40.4478404,61.1325641 C40.4478404,58.2280858 42.8141139,55.8650433 45.7231232,55.8650433 C48.6321325,55.8650433 50.9988614,58.2280858 50.9988614,61.1325641 C50.9988614,64.0370425 48.6321325,66.3996304 45.7231232,66.3996304" id="Fill-24" fill="#004CA9"></path>
                        <path d="M42.2691015,24.793762 L43.4169513,47.5627085 C43.4174066,47.5777105 43.417862,47.5931671 43.417862,47.6086237 C43.417862,48.7396837 44.424564,50.0544045 45.7231232,50.0544045 C47.0216824,50.0544045 48.0283845,48.7396837 48.0283845,47.6086237 C48.0283845,47.5931671 48.0288398,47.5777105 48.0297504,47.5627085 L49.1776002,24.7942166 C49.1657621,22.902146 47.6208773,21.3664866 45.7231232,21.3664866 C43.8258244,21.3664866 42.2804844,22.902146 42.2691015,24.793762 M45.7231232,51.8728289 C43.5326014,51.8728289 41.6107156,49.8943831 41.5966008,47.6327178 L40.4492063,24.8610437 C40.4482957,24.8460417 40.4478404,24.8305851 40.4478404,24.8155831 C40.4478404,21.9111047 42.8141139,19.5480622 45.7231232,19.5480622 C48.6321325,19.5480622 50.9988614,21.9111047 50.9988614,24.8155831 C50.9988614,24.8305851 50.9984061,24.8460417 50.9974954,24.8610437 L49.8496456,47.6327178 C49.8359861,49.8943831 47.913645,51.8728289 45.7231232,51.8728289" id="Fill-26" fill="#004CA9"></path>
                        <path d="M62.8779004,87.7824828 C62.644779,87.7824828 62.4121129,87.6938347 62.2340846,87.5160837 L62.2286208,87.5106284 L62.1917403,87.4738053 C62.1817234,87.4642586 62.1721618,87.4538026 62.1626001,87.4438013 C61.2241953,86.4704896 60.7087784,85.1948649 60.7087784,83.8401388 C60.7087784,82.4508625 61.2506036,81.1452338 62.2340846,80.1637392 L73.5623288,68.8531395 L62.2340846,57.5429944 C61.2506036,56.5610452 60.7087784,55.2554165 60.7087784,53.8670495 C60.7087784,52.4782278 61.2506036,51.1725991 62.2340846,50.1906499 L65.1640385,47.2652597 C67.193834,45.2381711 70.496691,45.2381711 72.5273972,47.2652597 L83.8556413,58.5758594 L95.1834302,47.2652597 C95.5390314,46.9102123 96.1154606,46.9102123 96.4710618,47.2652597 C96.8271184,47.6203071 96.8271184,48.1958384 96.4710618,48.5508857 L84.4994571,60.5042985 C84.1579707,60.8452531 83.553312,60.8452531 83.2118255,60.5042985 L71.2397656,48.5508857 C69.9193512,47.2334373 67.7720844,47.2329827 66.4516701,48.5508857 L63.5217162,51.476276 C62.8824536,52.1149976 62.5300396,52.9637471 62.5300396,53.8670495 C62.5300396,54.7698972 62.8824536,55.6186468 63.5217162,56.2573683 L75.4937762,68.2103265 C75.6645194,68.3808038 75.760591,68.6121983 75.760591,68.8531395 C75.760591,69.0945353 75.6645194,69.3254752 75.4937762,69.4959525 L63.5217162,81.4493653 C62.8824536,82.0880868 62.5300396,82.9368364 62.5300396,83.8401388 C62.5300396,84.7429865 62.8824536,85.5921907 63.5217162,86.2304576 C63.8773175,86.585505 63.8773175,87.1610363 63.5217162,87.5160837 C63.343688,87.6938347 63.1110219,87.7824828 62.8779004,87.7824828" id="Fill-28" fill="#004CA9"></path>
                        <path d="M104.83361,51.7424933 C104.609139,51.7424933 104.384669,51.6602096 104.208462,51.4942784 L100.379261,47.8865244 C100.013642,47.541933 99.9967957,46.9664016 100.34238,46.6008983 C100.687054,46.2367589 101.263483,46.2194838 101.629556,46.5640752 L105.458758,50.1722839 C105.824376,50.5168753 105.841223,51.091952 105.495638,51.4574553 C105.317155,51.647026 105.075382,51.7424933 104.83361,51.7424933" id="Fill-30" fill="#004CA9"></path>
                    </g>
                </g>
            </g>
        </g>
    </g>
</svg>