<svg width="360" height="200" viewBox="0 0 360 200" fill="none" xmlns="http://www.w3.org/2000/svg">
<circle cx="180" cy="100" r="75" fill="#EDFAFF"/>
<path fill-rule="evenodd" clip-rule="evenodd" d="M275.268 140.987C274.668 142.126 273.316 143.475 272 143.557C275.213 143.682 276.02 147.983 276.456 151C276.592 149.901 276.933 148.357 277.069 147.259C277.187 146.31 277.29 145.996 277.735 145.144C278.18 144.296 280.02 143.381 281 143.333C280.765 143.332 279.595 142.874 279.399 142.793C279.132 142.68 278.87 142.557 278.617 142.416C278.169 142.168 277.746 141.867 277.396 141.494C276.299 140.319 276.374 138.483 276.149 137C276.034 138.364 275.908 139.77 275.268 140.987Z" fill="#F0CA30"/>
<path fill-rule="evenodd" clip-rule="evenodd" d="M272 143.205C275.211 143.319 276.016 147.246 276.452 150C276.588 148.997 276.929 147.587 277.065 146.585C277.183 145.719 277.286 145.431 277.73 144.654C278.175 143.88 280.014 143.044 280.992 143H281" fill="#F0CA30"/>
<path fill-rule="evenodd" clip-rule="evenodd" d="M272.13 143.001C272.043 143.006 271.956 143.005 271.871 142.998C271.959 142.995 272.045 142.996 272.13 143.001Z" fill="#F0CA30"/>
<path fill-rule="evenodd" clip-rule="evenodd" d="M281 142.795C280.766 142.794 279.595 142.375 279.399 142.301C279.132 142.197 278.871 142.085 278.618 141.956C278.169 141.729 277.746 141.454 277.396 141.113C276.299 140.037 276.374 138.357 276.149 137C276.034 138.248 275.908 139.535 275.268 140.648C274.668 141.691 273.316 142.925 272 143" fill="#F0CA30"/>
<mask id="mask0_95_9447" style="mask-type:alpha" maskUnits="userSpaceOnUse" x="271" y="136" width="10" height="15">
<path fill-rule="evenodd" clip-rule="evenodd" d="M281 136H271V151H281V136Z" fill="white"/>
</mask>
<g mask="url(#mask0_95_9447)">
<path fill-rule="evenodd" clip-rule="evenodd" d="M278.246 142.831C277.512 143.229 276.854 143.761 276.573 144.304C276.12 145.187 275.993 145.576 275.876 146.501C275.432 145.091 274.742 143.739 273.615 142.99C274.379 142.432 275.032 141.643 275.429 140.875C275.509 140.721 275.581 140.565 275.646 140.407C275.816 140.804 276.042 141.18 276.352 141.517C276.707 141.902 277.158 142.249 277.691 142.549C277.861 142.645 278.044 142.738 278.246 142.831ZM275.958 151H275.964C276.309 150.997 276.598 150.74 276.639 150.401C276.702 149.885 276.817 149.239 276.928 148.615C277.042 147.973 277.16 147.31 277.227 146.757C277.33 145.919 277.399 145.696 277.796 144.924C278.078 144.377 279.557 143.569 280.349 143.529C280.72 143.511 281.009 143.203 281 142.834C280.992 142.48 280.712 142.195 280.361 142.171C280.148 142.128 279.338 141.82 279.049 141.698C278.791 141.587 278.567 141.478 278.37 141.366C277.96 141.136 277.622 140.878 277.365 140.599C276.692 139.866 276.573 138.701 276.459 137.574C276.425 137.245 276.39 136.904 276.342 136.58C276.291 136.239 275.978 135.995 275.641 136C275.292 136.011 275.008 136.28 274.979 136.625C274.876 137.876 274.768 139.171 274.208 140.254C273.7 141.235 272.575 142.33 271.643 142.389C271.278 142.412 270.996 142.714 271 143.076C271.004 143.438 271.294 143.734 271.659 143.748C274.026 143.841 274.817 147.171 275.278 150.415C275.326 150.751 275.616 151 275.958 151Z" fill="#004CA9"/>
</g>
<path fill-rule="evenodd" clip-rule="evenodd" d="M275.956 151H275.963C276.307 150.997 276.595 150.735 276.637 150.39C276.7 149.863 276.815 149.205 276.925 148.569C277.039 147.916 277.157 147.239 277.224 146.676C277.327 145.821 277.396 145.595 277.793 144.808C278.074 144.252 279.55 143.429 280.342 143.387C280.706 143.37 281 143.067 281 142.694C281 142.3 280.666 141.971 280.276 142.002C279.098 142.062 277.117 143.098 276.571 144.177C276.118 145.076 275.991 145.473 275.874 146.416C275.222 144.302 274.036 142.318 271.713 142.224C271.326 142.212 271.016 142.507 271.001 142.889C270.985 143.272 271.28 143.594 271.658 143.61C274.024 143.705 274.815 147.097 275.277 150.403C275.324 150.746 275.614 151 275.956 151Z" fill="#009ADE"/>
<mask id="mask1_95_9447" style="mask-type:alpha" maskUnits="userSpaceOnUse" x="271" y="143" width="2" height="1">
<path fill-rule="evenodd" clip-rule="evenodd" d="M273 143H271V144H273V143Z" fill="white"/>
</mask>
<g mask="url(#mask1_95_9447)">
<path fill-rule="evenodd" clip-rule="evenodd" d="M272.022 144C272.083 144 272.144 143.999 272.206 143.997C272.65 143.983 272.999 143.765 273 143.502C273.001 143.238 272.654 143.019 272.209 143.004C272.078 142.999 271.947 142.999 271.811 143.001C271.366 143.01 271.009 143.224 271 143.489C270.991 143.753 271.333 143.975 271.779 143.995C271.859 143.998 271.94 144 272.022 144Z" fill="#004CA9"/>
</g>
<mask id="mask2_95_9447" style="mask-type:alpha" maskUnits="userSpaceOnUse" x="271" y="136" width="10" height="8">
<path fill-rule="evenodd" clip-rule="evenodd" d="M281 136H271V144H281V136Z" fill="white"/>
</mask>
<g mask="url(#mask2_95_9447)">
<path fill-rule="evenodd" clip-rule="evenodd" d="M271.686 144C271.7 144 271.715 144 271.73 143.999C273.231 143.9 274.728 142.433 275.429 141.033C275.509 140.874 275.581 140.713 275.646 140.55C275.816 140.96 276.042 141.348 276.352 141.696C276.707 142.094 277.158 142.452 277.691 142.761C277.931 142.902 278.198 143.036 278.506 143.173C278.65 143.236 279.89 143.772 280.311 143.775H280.314C280.692 143.775 280.998 143.462 281 143.075C281.002 142.702 280.719 142.396 280.361 142.371C280.147 142.327 279.338 142.009 279.049 141.883C278.791 141.768 278.567 141.656 278.37 141.54C277.96 141.302 277.622 141.036 277.365 140.749C276.692 139.991 276.573 138.789 276.459 137.625C276.425 137.285 276.39 136.934 276.342 136.599C276.291 136.246 275.978 135.994 275.641 136C275.292 136.012 275.008 136.289 274.979 136.645C274.876 137.937 274.768 139.274 274.208 140.392C273.7 141.405 272.575 142.536 271.643 142.597C271.264 142.621 270.977 142.955 271.001 143.342C271.024 143.714 271.326 144 271.686 144Z" fill="#009ADE"/>
</g>
<path fill-rule="evenodd" clip-rule="evenodd" d="M91.3564 57.411C90.5571 58.957 88.7552 60.7871 87 60.8985C91.2837 61.0687 92.3589 66.9056 92.9409 71C93.1221 69.5093 93.5774 67.4138 93.759 65.923C93.9156 64.6352 94.053 64.2089 94.6465 63.0529C95.2397 61.9019 97.6933 60.6596 99 60.5943C98.6868 60.5928 97.1258 59.9723 96.865 59.8609C96.5091 59.708 96.1601 59.542 95.8231 59.3506C95.2248 59.0138 94.661 58.6054 94.1948 58.0994C92.7322 56.5049 92.8309 54.0133 92.5311 52C92.3781 53.8513 92.2099 55.759 91.3564 57.411Z" fill="white"/>
<mask id="mask3_95_9447" style="mask-type:alpha" maskUnits="userSpaceOnUse" x="86" y="51" width="14" height="21">
<path fill-rule="evenodd" clip-rule="evenodd" d="M100 51H86V72H100V51Z" fill="white"/>
</mask>
<g mask="url(#mask3_95_9447)">
<path fill-rule="evenodd" clip-rule="evenodd" d="M96.8194 60.5314C95.6452 61.0794 94.4979 61.8906 94.0441 62.7593C93.3821 64.0317 93.2138 64.5694 93.0428 65.9562C93.0052 66.2599 92.9551 66.5932 92.8986 66.9427C92.2607 64.4786 91.1638 61.9415 89.1074 60.7846C90.3071 60.0092 91.3464 58.8043 91.9591 57.6348C92.1704 57.2307 92.3443 56.8141 92.4885 56.3908C92.7382 57.1558 93.1091 57.8806 93.6875 58.5021C94.1902 59.0409 94.8048 59.5088 95.5677 59.9328C95.9103 60.1247 96.2895 60.3081 96.7256 60.493C96.7282 60.4941 96.7617 60.5081 96.8194 60.5314ZM92.9385 71.9999H92.9464C93.3245 71.9962 93.6412 71.718 93.6864 71.3501C93.7783 70.6031 93.9451 69.6757 94.1066 68.7782C94.2708 67.8641 94.4414 66.9183 94.5378 66.1334C94.6892 64.9104 94.7999 64.5565 95.3854 63.4305C95.8655 62.5116 98.1543 61.3617 99.2851 61.306C99.6925 61.2861 100.01 60.9517 99.9998 60.5521C99.9911 60.1635 99.6767 59.8505 99.2843 59.8317C98.9925 59.7837 97.7498 59.3173 97.3217 59.1372C96.9387 58.9752 96.6081 58.8154 96.3125 58.65C95.6878 58.3024 95.1937 57.9289 94.7999 57.5071C93.77 56.3989 93.5941 54.6907 93.4239 53.0389C93.3757 52.5709 93.3264 52.0871 93.2571 51.6291C93.201 51.2586 92.858 50.9955 92.4874 50.9996C92.1048 51.0121 91.7927 51.3033 91.7614 51.6771C91.6097 53.492 91.4526 55.3689 90.6189 56.961C89.8364 58.4548 88.1585 60.0539 86.7057 60.145C86.3054 60.1701 85.9955 60.4978 86 60.8901C86.0049 61.2831 86.3228 61.6034 86.723 61.6189C90.3271 61.7603 91.5102 66.6249 92.1929 71.3648C92.2453 71.7291 92.5635 71.9999 92.9385 71.9999Z" fill="#009ADE"/>
</g>
<path fill-rule="evenodd" clip-rule="evenodd" d="M87 60.3216C91.2802 60.5015 92.3546 66.6721 92.936 71C93.1171 69.4245 93.5721 67.2089 93.7531 65.6331C93.91 64.2717 94.0473 63.8211 94.6403 62.599C95.233 61.3823 97.6846 60.0691 98.9902 60H99" fill="white"/>
<mask id="mask4_95_9447" style="mask-type:alpha" maskUnits="userSpaceOnUse" x="86" y="60" width="14" height="12">
<path fill-rule="evenodd" clip-rule="evenodd" d="M100 60H86V72H100V60Z" fill="white"/>
</mask>
<g mask="url(#mask4_95_9447)">
<path fill-rule="evenodd" clip-rule="evenodd" d="M92.9359 72H92.9438C93.3214 71.9964 93.638 71.722 93.6831 71.3592C93.775 70.623 93.9421 69.7082 94.1036 68.8235C94.2677 67.9218 94.4379 66.9891 94.5346 66.2154C94.6855 65.0091 94.7962 64.6601 95.3819 63.5499C95.8611 62.6449 98.1441 61.5131 99.276 61.4553C99.6761 61.4385 100 61.1194 100 60.7282C100 60.3145 99.64 59.9746 99.2041 60.0015C97.7308 60.0732 94.8316 61.3945 94.0411 62.888C93.3794 64.1427 93.2107 64.6729 93.0398 66.0404C93.0026 66.3399 92.9525 66.6689 92.896 67.0131C92.051 63.7941 90.4015 60.4491 86.7829 60.3094C86.3564 60.2908 86.0173 60.6056 86.0007 61.0073C85.9838 61.4091 86.3075 61.7475 86.7227 61.7635C90.3251 61.9029 91.5082 66.7002 92.1906 71.3737C92.2429 71.7333 92.561 72 92.9359 72Z" fill="#009ADE"/>
</g>
<path fill-rule="evenodd" clip-rule="evenodd" d="M87.1855 61.0009C87.0623 61.0075 86.9376 61.0068 86.8147 60.9975C86.9412 60.9931 87.0641 60.9935 87.1855 61.0009Z" fill="white"/>
<path fill-rule="evenodd" clip-rule="evenodd" d="M87.0258 62C87.0978 62 87.1701 61.9975 87.2428 61.9926C87.6664 61.9652 87.9984 61.5312 88 61.0043C88.0012 60.4774 87.6711 60.0409 87.248 60.0096C87.091 59.9987 86.9327 59.9977 86.7693 60.0036C86.3458 60.024 86.0077 60.4516 86.0001 60.9785C85.9925 61.5059 86.3178 61.9484 86.7405 61.9876C86.8344 61.9955 86.9295 62 87.0258 62Z" fill="#009ADE"/>
<path fill-rule="evenodd" clip-rule="evenodd" d="M99 60.6924C98.6868 60.6909 97.1258 60.0633 96.8654 59.9507C96.5091 59.796 96.1601 59.6278 95.8231 59.4346C95.2248 59.0939 94.661 58.6809 94.1948 58.1691C92.7322 56.5561 92.8309 54.0365 92.5311 52C92.3781 53.8727 92.2103 55.8021 91.3564 57.4729C90.5571 59.0361 88.7552 60.8874 87 61" fill="white"/>
<mask id="mask5_95_9447" style="mask-type:alpha" maskUnits="userSpaceOnUse" x="86" y="51" width="14" height="11">
<path fill-rule="evenodd" clip-rule="evenodd" d="M100 51H86V62H100V51Z" fill="white"/>
</mask>
<g mask="url(#mask5_95_9447)">
<path fill-rule="evenodd" clip-rule="evenodd" d="M86.7528 61.9998C86.769 61.9998 86.7848 61.9994 86.801 61.9983C88.886 61.8629 90.974 59.8206 91.959 57.8723C92.1703 57.4538 92.3442 57.0222 92.4885 56.5834C92.7381 57.3762 93.109 58.1265 93.6874 58.7706C94.1901 59.3287 94.8047 59.8134 95.5676 60.2526C95.9102 60.4513 96.2894 60.6413 96.7255 60.8328C96.7466 60.8416 98.6696 61.6734 99.2435 61.676H99.2469C99.6615 61.676 99.9981 61.3358 100 60.915C100.002 60.5044 99.6841 60.1677 99.2842 60.1478C98.9923 60.0981 97.7497 59.615 97.3216 59.4284C96.9386 59.2606 96.608 59.0951 96.3124 58.9239C95.6877 58.5638 95.1936 58.177 94.7998 57.7401C93.7699 56.5922 93.594 54.8228 93.4238 53.1118C93.3756 52.6272 93.3263 52.126 93.257 51.6517C93.2009 51.2679 92.8579 50.9954 92.4873 50.9996C92.1048 51.0126 91.7926 51.3141 91.7613 51.7014C91.6096 53.5812 91.4526 55.5253 90.6189 57.1743C89.8364 58.7217 88.1585 60.3779 86.7057 60.4723C86.2904 60.4991 85.9752 60.8626 86.0015 61.2838C86.0271 61.6886 86.3589 61.9998 86.7528 61.9998Z" fill="#009ADE"/>
</g>
<path fill-rule="evenodd" clip-rule="evenodd" d="M100.302 143.716C102.013 145.425 104.215 146.175 106.907 145.966C109.599 145.756 110.963 144.14 110.999 141.118C111.035 138.095 109.665 136.415 106.889 136.078C104.113 135.74 101.893 136.502 100.23 138.362C98.5665 140.222 98.5904 142.007 100.302 143.716Z" fill="#FAB62A"/>
<path fill-rule="evenodd" clip-rule="evenodd" d="M277.511 67.4012C278.709 68.5976 280.25 69.1225 282.135 68.976C284.019 68.8295 284.974 67.6983 285 65.5823C285.025 63.4663 284.066 62.2903 282.122 62.0543C280.179 61.8183 278.625 62.3514 277.461 63.6535C276.297 64.9557 276.313 66.2049 277.511 67.4012Z" fill="#009ADE"/>
<path fill-rule="evenodd" clip-rule="evenodd" d="M173.267 107.483C172.765 107.483 172.357 107.076 172.357 106.574V79.5113C172.357 79.0089 172.765 78.6021 173.267 78.6021C173.77 78.6021 174.178 79.0089 174.178 79.5113V106.574C174.178 107.076 173.77 107.483 173.267 107.483Z" fill="#004CA9"/>
<path fill-rule="evenodd" clip-rule="evenodd" d="M173.267 119.784C172.765 119.784 172.357 119.377 172.357 118.875V111.495C172.357 110.992 172.765 110.585 173.267 110.585C173.77 110.585 174.178 110.992 174.178 111.495V118.875C174.178 119.377 173.77 119.784 173.267 119.784Z" fill="#004CA9"/>
<path fill-rule="evenodd" clip-rule="evenodd" d="M211.781 114.008L176.636 56.7985C175.864 55.5397 174.567 54.9096 173.269 54.9092H173.265C171.968 54.9096 170.67 55.5397 169.898 56.7985L129.507 122.665C127.885 125.31 129.781 128.716 132.876 128.716H199.943" fill="white"/>
<path fill-rule="evenodd" clip-rule="evenodd" d="M211.781 114.008L176.636 56.7985C175.864 55.5397 174.567 54.9096 173.269 54.9092H173.265C171.968 54.9096 170.67 55.5397 169.898 56.7985L129.507 122.665C127.885 125.31 129.781 128.716 132.876 128.716H203.13" fill="white"/>
<mask id="mask6_95_9447" style="mask-type:alpha" maskUnits="userSpaceOnUse" x="128" y="54" width="85" height="76">
<path fill-rule="evenodd" clip-rule="evenodd" d="M128 54H212.692V129.625H128V54Z" fill="white"/>
</mask>
<g mask="url(#mask6_95_9447)">
<path fill-rule="evenodd" clip-rule="evenodd" d="M203.131 129.625H132.876C131.094 129.625 129.509 128.695 128.635 127.138C127.756 125.571 127.791 123.722 128.731 122.19L169.122 56.3244C170.014 54.8697 171.562 54.0005 173.265 54C174.972 54.0005 176.521 54.8697 177.413 56.3244L212.558 113.533C212.821 113.961 212.686 114.52 212.258 114.784C211.829 115.046 211.268 114.911 211.005 114.484L175.859 57.2745C175.301 56.363 174.333 55.8189 173.269 55.8184C172.201 55.8189 171.233 56.363 170.675 57.2736L130.284 123.14C129.694 124.103 129.671 125.265 130.224 126.25C130.771 127.225 131.763 127.807 132.876 127.807H203.131C203.633 127.807 204.041 128.214 204.041 128.716C204.041 129.218 203.633 129.625 203.131 129.625Z" fill="#009ADE"/>
</g>
<path fill-rule="evenodd" clip-rule="evenodd" d="M211.856 131.845L223.827 143.799C225.506 145.474 228.226 145.474 229.904 143.799L232.834 140.873C234.511 139.198 234.511 136.482 232.834 134.807L220.862 122.853L232.834 110.9C234.511 109.225 234.511 106.509 232.834 104.833L229.904 101.908C228.226 100.233 225.506 100.233 223.827 101.908L211.856 113.861L199.884 101.908C198.206 100.233 195.485 100.233 193.808 101.908L190.878 104.833C189.2 106.509 189.2 109.225 190.878 110.9L202.85 122.853L190.878 134.807C189.2 136.482 189.2 139.198 190.878 140.873L193.808 143.799C195.485 145.474 198.206 145.474 199.884 143.799L211.856 131.845Z" fill="#FAB62A"/>
<mask id="mask7_95_9447" style="mask-type:alpha" maskUnits="userSpaceOnUse" x="189" y="103" width="46" height="43">
<path fill-rule="evenodd" clip-rule="evenodd" d="M189.967 103.915H235V146H189.967V103.915Z" fill="white"/>
</mask>
<g mask="url(#mask7_95_9447)">
<path fill-rule="evenodd" clip-rule="evenodd" d="M196.798 146C195.965 146 195.061 145.782 194.142 145.209C191.08 143.304 190.1 141.355 190.06 141.273C189.839 140.822 190.026 140.277 190.478 140.056C190.931 139.837 191.475 140.024 191.696 140.474C191.701 140.483 192.527 142.062 195.105 143.666C197.308 145.037 199.16 143.235 199.237 143.158L211.212 131.202C211.553 130.861 212.158 130.861 212.5 131.202L224.471 143.155C225.792 144.473 227.94 144.474 229.26 143.155L232.19 140.231C233.51 138.912 233.51 136.767 232.19 135.449L220.218 123.496C220.047 123.326 219.951 123.094 219.951 122.853C219.951 122.612 220.047 122.381 220.218 122.21L232.19 110.257C233.51 108.94 233.51 106.794 232.19 105.476C231.834 105.121 231.828 104.539 232.184 104.184C232.539 103.828 233.11 103.823 233.465 104.178L233.478 104.19C235.508 106.217 235.508 109.516 233.478 111.543L222.149 122.853L233.478 134.164C235.508 136.191 235.508 139.489 233.478 141.516L230.548 144.441C228.518 146.468 225.214 146.468 223.183 144.441L211.856 133.131L200.527 144.441C199.863 145.118 198.472 146 196.798 146Z" fill="#009ADE"/>
</g>
<path fill-rule="evenodd" clip-rule="evenodd" d="M178.088 115.133C178.088 117.54 176.134 119.491 173.723 119.491C171.313 119.491 169.358 117.54 169.358 115.133C169.358 112.726 171.313 110.774 173.723 110.774C176.134 110.774 178.088 112.726 178.088 115.133Z" fill="#009ADE"/>
<path fill-rule="evenodd" clip-rule="evenodd" d="M169.358 78.8153C169.358 76.4082 171.313 74.457 173.723 74.457C176.134 74.457 178.088 76.4082 178.088 78.8153L176.939 101.608C176.939 103.293 175.499 104.964 173.723 104.964C171.947 104.964 170.507 103.293 170.507 101.608L169.358 78.8153Z" fill="#009ADE"/>
<path fill-rule="evenodd" clip-rule="evenodd" d="M173.723 111.684C171.818 111.684 170.269 113.231 170.269 115.133C170.269 117.034 171.818 118.581 173.723 118.581C175.628 118.581 177.178 117.034 177.178 115.133C177.178 113.231 175.628 111.684 173.723 111.684ZM173.723 120.4C170.814 120.4 168.448 118.037 168.448 115.133C168.448 112.228 170.814 109.865 173.723 109.865C176.632 109.865 178.999 112.228 178.999 115.133C178.999 118.037 176.632 120.4 173.723 120.4Z" fill="#009ADE"/>
<path fill-rule="evenodd" clip-rule="evenodd" d="M170.269 78.7936L171.417 101.562C171.417 101.577 171.418 101.593 171.418 101.608C171.418 102.739 172.424 104.054 173.723 104.054C175.022 104.054 176.028 102.739 176.028 101.608C176.028 101.593 176.029 101.577 176.03 101.562L177.178 78.794C177.166 76.9019 175.621 75.3663 173.723 75.3663C171.826 75.3663 170.28 76.9019 170.269 78.7936ZM173.723 105.873C171.533 105.873 169.611 103.894 169.597 101.633L168.449 78.8608C168.448 78.8458 168.448 78.8304 168.448 78.8154C168.448 75.9109 170.814 73.5479 173.723 73.5479C176.632 73.5479 178.999 75.9109 178.999 78.8154C178.999 78.8304 178.998 78.8458 178.997 78.8608L177.85 101.633C177.836 103.894 175.914 105.873 173.723 105.873Z" fill="#009ADE"/>
<path fill-rule="evenodd" clip-rule="evenodd" d="M190.878 141.783C190.645 141.783 190.412 141.694 190.234 141.516L190.229 141.511L190.192 141.474C190.182 141.464 190.172 141.454 190.163 141.444C189.224 140.471 188.709 139.195 188.709 137.84C188.709 136.451 189.251 135.145 190.234 134.164L201.562 122.853L190.234 111.543C189.251 110.561 188.709 109.256 188.709 107.867C188.709 106.478 189.251 105.173 190.234 104.191L193.164 101.265C195.194 99.2383 198.497 99.2383 200.527 101.265L211.856 112.576L223.183 101.265C223.539 100.91 224.115 100.91 224.471 101.265C224.827 101.62 224.827 102.196 224.471 102.551L212.499 114.504C212.158 114.845 211.553 114.845 211.212 114.504L199.24 102.551C197.919 101.234 195.772 101.233 194.452 102.551L191.522 105.476C190.882 106.115 190.53 106.964 190.53 107.867C190.53 108.77 190.882 109.619 191.522 110.258L203.494 122.211C203.664 122.381 203.761 122.612 203.761 122.853C203.761 123.095 203.664 123.326 203.494 123.496L191.522 135.45C190.882 136.088 190.53 136.937 190.53 137.84C190.53 138.743 190.882 139.592 191.522 140.231C191.877 140.586 191.877 141.161 191.522 141.516C191.344 141.694 191.111 141.783 190.878 141.783Z" fill="#009ADE"/>
<path fill-rule="evenodd" clip-rule="evenodd" d="M232.834 105.743C232.609 105.743 232.385 105.66 232.208 105.494L228.379 101.887C228.014 101.542 227.997 100.966 228.342 100.601C228.687 100.237 229.263 100.22 229.63 100.564L233.459 104.172C233.824 104.517 233.841 105.092 233.496 105.458C233.317 105.647 233.075 105.743 232.834 105.743Z" fill="#009ADE"/>
</svg>
