<svg width="206" height="56" viewBox="0 0 206 56" fill="none" xmlns="http://www.w3.org/2000/svg">
<g clip-path="url(#clip0_95_7126)">
<path d="M0.799272 51.2715H1.65244L2.70726 54.4885L3.775 51.2715H4.62041L5.39602 55.8826H4.53768L4.04905 52.9715L3.07955 55.8721H2.30394L1.34219 52.9611L0.856149 55.8721H0.0107422L0.799272 51.2715Z" fill="white"/>
<path d="M12.8936 51.2715H15.3806V52.132H13.7545V52.9637H15.3806V53.8085H13.7545V55.0221H15.3806V55.8721H12.8936V51.2715Z" fill="white"/>
<path d="M23.0146 51.2711H24.0488C24.554 51.2448 25.0587 51.3342 25.525 51.5327C25.8654 51.714 26.1431 51.9959 26.3213 52.3408C26.5365 52.7417 26.6444 53.1925 26.6341 53.6486C26.6382 53.9837 26.5794 54.3165 26.4609 54.6294C26.3546 54.9086 26.1896 55.1611 25.9775 55.3696C25.7891 55.5557 25.5609 55.6954 25.3104 55.7776C24.9018 55.8706 24.4828 55.9084 24.0643 55.89H23.0302L23.0146 51.2711ZM23.8756 52.1185V55.0269H24.2789C24.5733 55.0459 24.8682 54.9985 25.1424 54.8883C25.3323 54.784 25.4851 54.6221 25.5793 54.4254C25.7001 54.1758 25.7587 53.9001 25.7499 53.6224C25.7631 53.4144 25.7338 53.2058 25.664 53.0096C25.5942 52.8135 25.4853 52.6339 25.344 52.4821C25.101 52.2388 24.708 52.1185 24.1703 52.1185H23.8756Z" fill="white"/>
<path d="M34.2275 51.2715H35.0885V55.8721H34.2275V51.2715Z" fill="white"/>
<path d="M47.064 52.0824L46.4565 52.6683C46.2836 52.4646 46.0701 52.3003 45.8299 52.1863C45.5896 52.0722 45.3283 52.0109 45.063 52.0066C44.8582 52.0027 44.6547 52.0406 44.4648 52.1181C44.2749 52.1955 44.1023 52.311 43.9575 52.4575C43.8127 52.604 43.6985 52.7786 43.622 52.9707C43.5454 53.1629 43.5079 53.3687 43.5118 53.5759C43.5062 53.8622 43.5738 54.1451 43.7082 54.3971C43.8395 54.6333 44.034 54.8273 44.2693 54.9568C44.5153 55.0942 44.7923 55.1645 45.0733 55.1608C45.3107 55.1642 45.5461 55.116 45.7636 55.0196C46.0212 54.8872 46.254 54.7101 46.4513 54.4965L47.0408 55.119C46.7664 55.4054 46.4433 55.6393 46.0868 55.8095C45.7585 55.944 45.4067 56.0098 45.0526 56.003C44.7319 56.015 44.4122 55.9606 44.113 55.8433C43.8139 55.7259 43.5415 55.548 43.3127 55.3204C43.0874 55.0917 42.911 54.8186 42.7944 54.5181C42.6779 54.2175 42.6238 53.8959 42.6353 53.5732C42.628 53.1439 42.7342 52.7204 42.943 52.3466C43.1563 51.9849 43.4616 51.6877 43.8272 51.4861C44.2114 51.2683 44.6458 51.1573 45.0862 51.1644C45.4635 51.1652 45.8362 51.2484 46.1789 51.4082C46.5215 51.5679 46.8261 51.8006 47.0718 52.0903L47.064 52.0824Z" fill="white"/>
<path d="M54.582 51.2715H55.4429V55.8721H54.582V51.2715Z" fill="white"/>
<path d="M63.2451 51.2715H64.0776L66.027 54.3028V51.2715H66.8956V55.8721H66.0606L64.1112 52.8486V55.8721H63.2451V51.2715Z" fill="white"/>
<path d="M76.1487 51.2715H77.0277L78.7805 55.8721H77.8808L77.5241 54.9227H75.6626L75.2929 55.8721H74.3906L76.1487 51.2715ZM76.5933 52.4955L75.9832 54.0648H77.2009L76.5933 52.4955Z" fill="white"/>
<path d="M94.869 51.2709H95.7894C96.1534 51.2512 96.5179 51.2991 96.8649 51.4121C97.0806 51.5019 97.262 51.6596 97.382 51.862C97.5129 52.0886 97.5782 52.3477 97.5707 52.61C97.5781 52.8998 97.4869 53.1833 97.3122 53.413C97.1391 53.6306 96.9017 53.7864 96.6348 53.8576C96.3345 53.918 96.0282 53.9426 95.7222 53.9308V55.8715H94.8535L94.869 51.2709ZM95.7377 53.073H96.0169C96.1692 53.0807 96.3218 53.0648 96.4694 53.0259C96.5514 52.998 96.6222 52.9438 96.671 52.8716C96.7199 52.7934 96.745 52.7025 96.7434 52.61C96.7492 52.5302 96.7326 52.4503 96.6955 52.3795C96.6585 52.3087 96.6025 52.2499 96.534 52.2099C96.3595 52.135 96.1697 52.1036 95.9807 52.1183H95.7377V53.073Z" fill="white"/>
<path d="M105.306 51.2717H106.226C106.59 51.2528 106.954 51.2989 107.302 51.4077C107.518 51.4996 107.699 51.6591 107.819 51.8628C107.955 52.0877 108.023 52.3475 108.016 52.6108C108.025 52.8814 107.949 53.1481 107.798 53.3719C107.635 53.5903 107.408 53.7513 107.149 53.8322L108.23 55.8828H107.281L106.247 53.9316H106.167V55.8723H105.298L105.306 51.2717ZM106.175 53.0738H106.433C106.63 53.0911 106.828 53.053 107.005 52.9639C107.059 52.9215 107.101 52.8659 107.128 52.8023C107.156 52.7387 107.166 52.6693 107.16 52.6004C107.161 52.5072 107.134 52.4158 107.082 52.3388C107.03 52.2662 106.958 52.2107 106.875 52.1793C106.72 52.1386 106.56 52.1219 106.4 52.1296H106.162L106.175 53.0738Z" fill="white"/>
<path d="M115.754 51.2715H118.251V52.132H116.625V52.9637H118.251V53.8085H116.625V55.0221H118.251V55.8721H115.762L115.754 51.2715Z" fill="white"/>
<path d="M125.87 51.271H126.783C127.148 51.2511 127.513 51.299 127.861 51.4122C128.076 51.5022 128.258 51.6599 128.378 51.8621C128.51 52.0883 128.576 52.3475 128.569 52.6101C128.576 52.8998 128.485 53.1832 128.311 53.413C128.138 53.6306 127.9 53.7864 127.633 53.8577C127.333 53.9182 127.027 53.9428 126.721 53.9309V55.8716H125.852L125.87 51.271ZM126.739 53.073H127.013C127.165 53.0809 127.318 53.0651 127.465 53.0259C127.547 52.998 127.618 52.9439 127.667 52.8716C127.716 52.7935 127.741 52.7026 127.739 52.6101C127.744 52.532 127.728 52.4541 127.692 52.385C127.656 52.3158 127.601 52.2579 127.535 52.2178C127.361 52.1429 127.171 52.1115 126.982 52.1262H126.739V53.073Z" fill="white"/>
<path d="M137.641 51.2715H138.52L140.273 55.8721H139.371L139.014 54.9227H137.155L136.783 55.8721H135.883L137.641 51.2715ZM138.086 52.4955L137.473 54.0648H138.694L138.086 52.4955Z" fill="white"/>
<path d="M151.974 52.0249L151.364 52.6369C151.195 52.4423 150.987 52.2862 150.754 52.1788C150.521 52.0715 150.268 52.0155 150.012 52.0144C149.803 52.009 149.596 52.0463 149.402 52.1241C149.207 52.2018 149.031 52.3184 148.882 52.4669C148.736 52.6081 148.621 52.7783 148.543 52.9669C148.465 53.1555 148.426 53.3584 148.43 53.5628C148.426 53.7743 148.466 53.9842 148.547 54.1792C148.628 54.3742 148.748 54.55 148.9 54.6953C149.054 54.8471 149.236 54.9663 149.436 55.0458C149.636 55.1253 149.849 55.1636 150.064 55.1582C150.329 55.1678 150.591 55.1016 150.821 54.9673C151.043 54.8231 151.216 54.6155 151.32 54.371H149.999V53.5445H152.292V53.7406C152.292 54.1437 152.185 54.5394 151.982 54.8862C151.793 55.2313 151.515 55.5179 151.178 55.7153C150.824 55.911 150.426 56.0093 150.022 56.0004C149.581 56.0085 149.146 55.9003 148.758 55.6866C148.388 55.4809 148.082 55.1735 147.877 54.7999C147.663 54.4207 147.552 53.9914 147.553 53.5549C147.546 52.9666 147.759 52.3972 148.151 51.9621C148.381 51.6986 148.666 51.4898 148.986 51.3505C149.306 51.2113 149.651 51.1451 149.999 51.1566C150.381 51.1532 150.759 51.2288 151.111 51.3789C151.441 51.5295 151.735 51.7497 151.974 52.0249Z" fill="white"/>
<path d="M161.307 51.2715H162.202L163.942 55.8721H163.04L162.683 54.9227H160.824L160.452 55.8721H159.549L161.307 51.2715ZM161.755 52.4955L161.142 54.0648H162.362L161.755 52.4955Z" fill="white"/>
<path d="M171.437 51.2711H172.471C172.976 51.2448 173.481 51.3342 173.947 51.5327C174.287 51.7156 174.564 51.9971 174.744 52.3408C174.923 52.692 175.028 53.0772 175.051 53.4718C175.075 53.8663 175.017 54.2615 174.881 54.632C174.776 54.9122 174.611 55.1652 174.397 55.3722C174.21 55.5594 173.981 55.6992 173.73 55.7802C173.322 55.8733 172.904 55.9111 172.487 55.8927H171.453L171.437 51.2711ZM172.298 52.1185V55.0269H172.701C172.996 55.0464 173.291 54.999 173.565 54.8883C173.756 54.7844 173.909 54.6225 174.004 54.4254C174.124 54.1754 174.182 53.9 174.175 53.6224C174.188 53.4142 174.158 53.2055 174.088 53.0094C174.017 52.8132 173.908 52.6338 173.766 52.4821C173.523 52.2388 173.133 52.1185 172.593 52.1185H172.298Z" fill="white"/>
<path d="M184.09 51.2715H184.971L186.724 55.8721H185.822L185.47 54.9332H183.611L183.234 55.8721H182.332L184.09 51.2715ZM184.534 52.4955L183.924 54.0648H185.144L184.534 52.4955Z" fill="white"/>
<path d="M24.5375 29.7356L23.1802 30.4314C20.7965 28.7871 17.8665 27.9641 14.39 27.9623C10.6361 27.9623 7.59489 28.7853 5.26635 30.4314C3.00503 32.0251 1.87351 34.0677 1.87179 36.5594C1.87007 39.0511 2.99642 41.1034 5.25084 42.7163C7.56731 44.3727 10.6154 45.2001 14.3952 45.1983C17.632 45.2025 20.7967 44.231 23.4853 42.4076L24.4444 43.4852C21.418 45.352 17.9399 46.3351 14.3952 46.3256C10.0949 46.3256 6.60814 45.4076 3.9349 43.5715C1.31163 41.7581 0 39.4295 0 36.5856C0 33.7696 1.33145 31.4488 3.99436 29.6232C6.65727 27.7976 10.1242 26.8848 14.3952 26.8848C18.3491 26.8848 21.7298 27.8351 24.5375 29.7356Z" fill="white"/>
<path d="M53.9326 36.5852C53.9326 39.7377 52.6899 42.1143 50.2045 43.715C47.4985 45.4587 44.3099 46.3305 40.6388 46.3305C36.5591 46.3305 33.1723 45.3854 30.4783 43.4953C28.3463 41.9993 27.2803 39.6976 27.2803 36.5905C27.2803 33.4833 28.3592 31.1825 30.5171 29.6882C33.1852 27.8242 36.5591 26.8914 40.6388 26.8896C44.6788 26.8896 48.0458 27.8356 50.7397 29.7274C52.8666 31.22 53.9309 33.5059 53.9326 36.5852ZM52.0867 36.5591C52.0867 33.7692 51.2171 31.744 49.4781 30.4833C47.1512 28.8007 44.2031 27.9602 40.6336 27.962C37.0244 27.962 34.0625 28.7981 31.7478 30.4702C29.9949 31.7309 29.1185 33.7605 29.1185 36.5591C29.1185 39.3576 29.9949 41.3925 31.7478 42.6636C34.0746 44.3532 37.0365 45.198 40.6336 45.198C44.2048 45.198 47.153 44.3488 49.4781 42.6505C51.2171 41.3829 52.0867 39.3524 52.0867 36.5591Z" fill="white"/>
<path d="M77.1441 44.3638C77.1441 45.492 76.3547 46.0561 74.7759 46.0561C74.2732 46.0709 73.7745 45.9606 73.3237 45.7349C72.8729 45.5092 72.4838 45.1749 72.1906 44.7614L60.1041 28.4094C60.0388 28.3205 59.9532 28.2489 59.8546 28.2006C59.756 28.1523 59.6474 28.1289 59.5379 28.1322C59.1631 28.1322 58.9743 28.2944 58.9743 28.6187V46.0116H57.1465V28.7494C57.1465 27.6196 57.9342 27.0555 59.5095 27.0572C60.0091 27.0411 60.5049 27.1501 60.9528 27.3746C61.4007 27.5991 61.7868 27.9321 62.0767 28.344L74.1942 44.6986C74.2565 44.7856 74.3386 44.856 74.4336 44.9038C74.5286 44.9517 74.6337 44.9755 74.7398 44.9733C75.1146 44.9733 75.3034 44.8216 75.3034 44.5155V27.2011H77.1441V44.3638Z" fill="white"/>
<path d="M94.8743 28.276H82.7077C81.627 28.3832 81.0867 28.7624 81.0867 29.4189V36.0622H92.6561V37.1084H81.0867V46.0011H79.3105V29.432C79.3105 28.7502 79.6406 28.208 80.3007 27.8052C81.0869 27.3705 81.9755 27.1615 82.8706 27.201H94.8743V28.276Z" fill="white"/>
<path d="M98.0208 45.9986H96.2446V27.2012H98.0208V45.9986Z" fill="white"/>
<path d="M120.164 45.9987H118.388V36.6536H102.005V45.9987H100.229V33.8419C100.201 32.8867 100.401 31.9388 100.811 31.0778C101.221 30.2168 101.829 29.4677 102.584 28.8935C104.262 27.5543 107.188 26.8848 110.262 26.8848C113.284 26.8848 116.1 27.5648 117.788 28.9196C118.545 29.4874 119.156 30.2309 119.57 31.0876C119.983 31.9442 120.187 32.8889 120.164 33.8419V45.9987ZM118.388 35.6152V34.25C118.388 30.0652 115.373 27.9728 110.262 27.9728C105.151 27.9728 102.005 30.0652 102.005 34.25V35.6152H118.388Z" fill="white"/>
<path d="M147.003 45.9852H145.224V28.4615C145.224 28.1817 145.072 28.0404 144.769 28.0404C144.531 28.0404 144.345 28.1948 144.206 28.5008L137.06 44.3323C136.543 45.4595 135.767 46.0245 134.733 46.0245C133.699 46.0245 132.9 45.4595 132.406 44.3323L125.232 28.5008C125.095 28.1948 124.911 28.0404 124.681 28.0404C124.381 28.0404 124.231 28.1817 124.231 28.4589V46.0245H122.465V28.5243C122.465 27.5374 123.201 27.044 124.673 27.044C125.828 27.044 126.592 27.4633 126.964 28.302L134.234 44.4081C134.363 44.6984 134.526 44.8423 134.72 44.8423C134.914 44.8423 135.059 44.701 135.188 44.4212L142.484 28.302C142.871 27.4616 143.655 27.0422 144.834 27.044C146.278 27.044 147.001 27.5339 147.003 28.5138V45.9852Z" fill="white"/>
<path d="M165.325 45.9982H153.314C152.427 46.0271 151.55 45.809 150.777 45.3679C150.087 44.9494 149.743 44.4133 149.743 43.7672V29.4318H149.764C149.765 29.095 149.857 28.7649 150.031 28.4778C150.206 28.1908 150.455 27.958 150.751 27.805C151.536 27.3712 152.423 27.1623 153.316 27.2008H165.328V28.2758H153.138C152.057 28.383 151.517 28.7622 151.517 29.4187V36.062H163.151V37.1082H151.517V43.7882C151.517 44.4473 152.057 44.8343 153.138 44.9337H165.325V45.9982Z" fill="white"/>
<path d="M186.815 36.4419C186.815 39.1986 185.867 41.4218 183.971 43.1114C181.842 45.0102 178.748 45.9596 174.689 45.9596H170.287C169.498 45.9652 168.72 45.7862 168.011 45.4365C167.15 45.0181 166.719 44.4453 166.719 43.7182V28.959H166.739C166.74 28.6225 166.832 28.2926 167.006 28.0056C167.18 27.7186 167.428 27.4856 167.724 27.3322C168.508 26.8989 169.394 26.69 170.287 26.728H174.046C178.046 26.728 181.228 27.708 183.591 29.6678C185.742 31.4533 186.816 33.7114 186.815 36.4419ZM184.938 36.4158C184.964 35.2796 184.738 34.152 184.276 33.1162C183.813 32.0804 183.127 31.1629 182.267 30.4315C180.271 28.6879 177.499 27.8161 173.95 27.8161H170.106C169.03 27.9207 168.49 28.3026 168.49 28.959V43.7626C168.49 44.4217 169.03 44.8088 170.108 44.9056H174.583C178.156 44.9056 180.835 44.0442 182.619 42.3215C184.165 40.8342 184.938 38.8656 184.938 36.4158Z" fill="white"/>
<path d="M187.43 18.3633C187.43 18.3633 184.459 28.6395 194.547 34.2811C194.547 34.2811 197.156 22.7128 187.43 18.3633Z" fill="white"/>
<path d="M189.697 15.9178C189.697 15.9178 192.668 5.65466 182.58 0C182.58 0 179.971 11.5683 189.697 15.9178Z" fill="white"/>
<path d="M205.333 10.9644C205.333 10.9644 195.139 8.08741 189.692 18.3636C189.692 18.3636 201.158 20.8562 205.333 10.9644Z" fill="white"/>
<path d="M171.768 23.2594C171.768 23.2594 181.987 26.194 187.435 15.9178C187.443 15.9178 175.951 13.3651 171.768 23.2594Z" fill="white"/>
</g>
<defs>
<clipPath id="clip0_95_7126">
<rect width="205.333" height="56" fill="white"/>
</clipPath>
</defs>
</svg>
