<svg width="167" height="45" viewBox="0 0 167 45" fill="none" xmlns="http://www.w3.org/2000/svg">
<g clip-path="url(#clip0_95_7877)">
<path d="M0.647188 41.2021H1.34034L2.1948 43.7949L3.06669 41.2109H3.7533L4.37453 44.9147H3.68791L3.3021 42.5682L2.51522 44.9082H1.88092L1.10057 42.5682L0.686423 44.9082H0.00634766L0.647188 41.2021Z" fill="#002E6D"/>
<path d="M10.4956 41.2021H12.5184V41.8928H11.1953V42.5617H12.5184V43.2415H11.1953V44.2154H12.5184V44.9082H10.4956V41.2021Z" fill="#002E6D"/>
<path d="M18.7173 41.2027H19.5521C19.9624 41.1794 20.3727 41.2479 20.7532 41.4031C21.0319 41.5503 21.2598 41.7781 21.4071 42.0567C21.5533 42.3388 21.6388 42.6484 21.6579 42.9655C21.6771 43.2826 21.6295 43.6002 21.5182 43.8978C21.4335 44.1228 21.2994 44.3261 21.1259 44.4926C20.9729 44.6423 20.7871 44.7543 20.5831 44.8194C20.2516 44.8948 19.9114 44.9255 19.5717 44.9109H18.7238L18.7173 41.2027ZM19.417 41.8824V44.2311H19.7439C19.9832 44.2461 20.2229 44.2081 20.4458 44.12C20.6008 44.036 20.7258 43.9058 20.8033 43.7475C20.902 43.5441 20.9492 43.3197 20.9406 43.0938C20.9513 42.9269 20.9276 42.7596 20.871 42.6022C20.8144 42.4448 20.7261 42.3007 20.6115 42.1788C20.3447 41.9583 20.0014 41.8525 19.6567 41.8846L19.417 41.8824Z" fill="#002E6D"/>
<path d="M27.8267 41.2021H28.5264V44.906H27.8267V41.2021Z" fill="#002E6D"/>
<path d="M38.2759 41.854L37.7811 42.3246C37.6408 42.1612 37.4675 42.0293 37.2725 41.9377C37.0775 41.8461 36.8653 41.7968 36.6499 41.793C36.4839 41.7904 36.319 41.8211 36.1651 41.8833C36.0112 41.9455 35.8714 42.038 35.7539 42.1552C35.6364 42.2724 35.5436 42.4121 35.4811 42.5658C35.4186 42.7195 35.3876 42.8842 35.39 43.0502C35.3866 43.2783 35.4422 43.5034 35.5513 43.7038C35.6578 43.8944 35.8156 44.0514 36.0068 44.157C36.2071 44.2669 36.4323 44.3232 36.6608 44.3204C36.8543 44.3224 37.0461 44.283 37.2231 44.2049C37.4319 44.0997 37.6208 43.9589 37.7811 43.7888L38.2607 44.2877C38.0374 44.5179 37.7746 44.706 37.4847 44.8433C37.2196 44.9502 36.9357 45.0028 36.6499 44.998C36.3891 45.0076 36.1291 44.9638 35.8858 44.8694C35.6426 44.775 35.4212 44.6319 35.2352 44.4489C35.0522 44.2652 34.9088 44.0459 34.8139 43.8045C34.7191 43.5632 34.6748 43.3049 34.6838 43.0458C34.6778 42.701 34.7644 42.361 34.9344 42.061C35.1067 41.769 35.3554 41.5295 35.6537 41.3682C35.9604 41.1934 36.3077 41.1025 36.6608 41.1045C36.9656 41.1048 37.2667 41.171 37.5436 41.2984C37.8251 41.4284 38.075 41.6179 38.2759 41.854Z" fill="#002E6D"/>
<path d="M44.3901 41.2021H45.092V44.906H44.3901V41.2021Z" fill="#002E6D"/>
<path d="M51.4375 41.2021H52.1132L53.7001 43.6402V41.2021H54.4063V44.906H53.7262L52.1416 42.4876V44.9191H51.4375V41.2021Z" fill="#002E6D"/>
<path d="M61.9372 41.2021H62.6522L64.0777 44.906H63.3453L63.0532 44.1435H61.5427L61.2397 44.906H60.5073L61.9372 41.2021ZM62.2991 42.1848L61.8021 43.4572H62.7938L62.2991 42.1848Z" fill="#002E6D"/>
<path d="M77.1582 41.2027H77.9058C78.2009 41.1869 78.4964 41.2253 78.7777 41.3159C78.9544 41.3871 79.1029 41.5141 79.2006 41.6776C79.3072 41.8597 79.3608 42.068 79.3553 42.279C79.366 42.5138 79.2943 42.745 79.1526 42.9326C79.0113 43.1071 78.8182 43.2322 78.6011 43.2899C78.3566 43.3392 78.1071 43.359 77.8579 43.3487V44.9174H77.1538L77.1582 41.2027ZM77.8622 42.6515H78.0802C78.2041 42.6572 78.3282 42.6447 78.4486 42.6145C78.5149 42.5905 78.5721 42.5463 78.612 42.4881C78.6541 42.4235 78.6747 42.3472 78.6709 42.2702C78.6744 42.2076 78.6606 42.1452 78.631 42.0898C78.6014 42.0345 78.5571 41.9884 78.5031 41.9565C78.3653 41.8989 78.216 41.8742 78.0671 41.8846H77.8666L77.8622 42.6515Z" fill="#002E6D"/>
<path d="M85.6457 41.2025H86.3934C86.6881 41.1874 86.9833 41.2243 87.2653 41.3115C87.4394 41.3872 87.5856 41.5151 87.6838 41.6775C87.7928 41.8588 87.848 42.0674 87.8429 42.2788C87.8508 42.4958 87.7889 42.7096 87.6663 42.8889C87.5334 43.0647 87.349 43.1949 87.1388 43.2614L88.0107 44.9086H87.2391L86.4065 43.3399H86.3498V44.9086H85.6436L85.6457 41.2025ZM86.352 42.6514H86.5699C86.73 42.6649 86.8906 42.634 87.0342 42.5621C87.0784 42.5282 87.1132 42.4836 87.1354 42.4325C87.1575 42.3814 87.1662 42.3255 87.1606 42.2701C87.1646 42.1925 87.1424 42.1157 87.0974 42.0522C87.0559 41.9933 86.9974 41.9484 86.9296 41.9237C86.8038 41.8909 86.6736 41.8776 86.5438 41.8845H86.3498L86.352 42.6514Z" fill="#002E6D"/>
<path d="M94.1425 41.2021H96.1588V41.8928H94.8509V42.5617H96.1588V43.2415H94.8509V44.2154H96.1588V44.9082H94.1338L94.1425 41.2021Z" fill="#002E6D"/>
<path d="M102.371 41.2027H103.119C103.414 41.1869 103.709 41.2253 103.991 41.3159C104.167 41.3871 104.316 41.5141 104.414 41.6776C104.521 41.8593 104.575 42.0679 104.568 42.279C104.579 42.5138 104.507 42.745 104.366 42.9326C104.225 43.1066 104.032 43.2317 103.816 43.2899C103.572 43.3391 103.322 43.3589 103.073 43.3487V44.9174H102.371V41.2027ZM103.077 42.6515H103.295C103.419 42.6574 103.542 42.6449 103.661 42.6145C103.728 42.5911 103.786 42.5468 103.825 42.4881C103.867 42.4235 103.888 42.3472 103.884 42.2702C103.888 42.2078 103.874 42.1454 103.845 42.0901C103.816 42.0347 103.772 41.9885 103.718 41.9565C103.576 41.8972 103.422 41.8726 103.269 41.8846H103.071L103.077 42.6515Z" fill="#002E6D"/>
<path d="M111.945 41.2021H112.66L114.085 44.906H113.353L113.063 44.1435H111.55L111.247 44.906H110.515L111.945 41.2021ZM112.306 42.1848L111.809 43.4572H112.801L112.306 42.1848Z" fill="#002E6D"/>
<path d="M123.602 41.808L123.105 42.2983C122.968 42.1433 122.801 42.0188 122.613 41.9328C122.425 41.8469 122.221 41.8014 122.015 41.7993C121.846 41.7951 121.677 41.8252 121.52 41.8878C121.363 41.9503 121.22 42.044 121.099 42.1632C120.981 42.2754 120.887 42.4106 120.824 42.5605C120.76 42.7104 120.728 42.8718 120.729 43.0347C120.726 43.2048 120.759 43.3736 120.825 43.5304C120.891 43.6872 120.989 43.8285 121.112 43.9454C121.237 44.0675 121.385 44.1634 121.548 44.2274C121.71 44.2913 121.884 44.3222 122.058 44.318C122.274 44.3248 122.488 44.2712 122.675 44.1633C122.855 44.0473 122.996 43.8805 123.081 43.684H122.006V43.0303H123.872V43.1872C123.872 43.5113 123.786 43.8296 123.621 44.1088C123.468 44.3856 123.242 44.6153 122.967 44.7733C122.681 44.9329 122.356 45.0127 122.028 45.0043C121.669 45.0101 121.315 44.9239 120.999 44.7537C120.698 44.5874 120.449 44.3397 120.282 44.0391C120.108 43.7345 120.017 43.3897 120.018 43.039C120.012 42.5661 120.186 42.1086 120.506 41.7601C120.693 41.5466 120.924 41.3772 121.184 41.2642C121.443 41.1511 121.725 41.0972 122.008 41.1065C122.319 41.1049 122.626 41.1656 122.913 41.2851C123.177 41.4093 123.411 41.5875 123.602 41.808Z" fill="#002E6D"/>
<path d="M131.194 41.2021H131.907L133.332 44.906H132.6L132.31 44.1435H130.797L130.494 44.906H129.762L131.194 41.2021ZM131.556 42.1848L131.059 43.4572H132.05L131.556 42.1848Z" fill="#002E6D"/>
<path d="M139.431 41.2027H140.268C140.678 41.1794 141.088 41.2479 141.469 41.4031C141.747 41.5503 141.975 41.7781 142.123 42.0567C142.267 42.3393 142.352 42.6487 142.371 42.9656C142.39 43.2825 142.344 43.5999 142.234 43.8978C142.148 44.1224 142.014 44.3255 141.841 44.4926C141.688 44.6419 141.502 44.7537 141.299 44.8194C140.967 44.8948 140.627 44.9255 140.287 44.9109H139.437L139.431 41.2027ZM140.133 41.8824V44.2311H140.459C140.699 44.2458 140.938 44.2078 141.161 44.12C141.316 44.036 141.441 43.9058 141.519 43.7475C141.618 43.5441 141.665 43.3197 141.656 43.0938C141.667 42.9269 141.643 42.7596 141.587 42.6022C141.53 42.4448 141.442 42.3007 141.327 42.1788C141.059 41.959 140.715 41.8534 140.37 41.8846L140.133 41.8824Z" fill="#002E6D"/>
<path d="M149.721 41.2021H150.434L151.86 44.906H151.125L150.835 44.1435H149.322L149.022 44.906H148.287L149.721 41.2021ZM150.083 42.1848L149.586 43.4572H150.578L150.083 42.1848Z" fill="#002E6D"/>
<path d="M19.9553 23.8945L18.8502 24.4544C16.9117 23.1326 14.5307 22.4717 11.7072 22.4717C8.65562 22.4717 6.18526 23.1326 4.29616 24.4544C2.45647 25.7355 1.53662 27.3776 1.53662 29.3806C1.53662 31.3836 2.45138 33.0329 4.2809 34.3285C6.17 35.6576 8.64908 36.3221 11.7181 36.3221C14.3506 36.3245 16.9243 35.5441 19.1118 34.0801L19.8899 34.9516C17.4288 36.4514 14.6006 37.2417 11.7181 37.235C8.2204 37.235 5.38675 36.4964 3.2172 35.0192C1.08542 33.5667 0.0195312 31.6966 0.0195312 29.4089C0.0195312 27.1212 1.1014 25.2555 3.26515 23.8117C5.4318 22.3461 8.25237 21.6133 11.7269 21.6133C14.9296 21.6089 17.6724 22.3693 19.9553 23.8945Z" fill="#002E6D"/>
<path d="M43.8627 29.402C43.8627 31.9337 42.852 33.8431 40.8307 35.13C38.6292 36.5287 36.0346 37.2281 33.0469 37.2281C29.7264 37.2281 26.972 36.4685 24.7835 34.9491C23.0485 33.7465 22.1817 31.8974 22.1831 29.402C22.1846 26.9066 23.0615 25.0569 24.814 23.8527C26.9851 22.3552 29.7293 21.6064 33.0469 21.6064C36.331 21.6064 39.0695 22.3661 41.2623 23.8854C42.9959 25.0881 43.8627 26.927 43.8627 29.402ZM42.363 29.3802C42.363 27.1361 41.6554 25.5079 40.24 24.4955C38.3509 23.1476 35.9532 22.4729 33.0469 22.4714C30.1101 22.4714 27.7007 23.1432 25.8189 24.4868C24.3934 25.5035 23.6813 27.1347 23.6828 29.3802C23.6842 31.6258 24.3963 33.2606 25.8189 34.2846C27.708 35.6427 30.1173 36.3218 33.0469 36.3218C35.9764 36.3218 38.3741 35.6391 40.24 34.2737C41.6554 33.257 42.363 31.6258 42.363 29.3802Z" fill="#002E6D"/>
<path d="M62.7303 35.6577C62.7303 36.564 62.0888 37.0172 60.8056 37.0172C60.3981 37.028 59.9942 36.9389 59.6291 36.7577C59.2639 36.5766 58.9487 36.3089 58.7109 35.978L48.8803 22.8204C48.8273 22.7499 48.7579 22.6933 48.6782 22.6553C48.5985 22.6174 48.5108 22.5993 48.4226 22.6026C48.1174 22.6026 47.9627 22.7333 47.9627 22.9926V36.9693H46.4761V23.0972C46.4761 22.1908 47.1169 21.7376 48.3986 21.7376C48.8048 21.7245 49.208 21.8119 49.5723 21.9921C49.9366 22.1723 50.2507 22.4396 50.4868 22.7703L60.3435 35.9148C60.3934 35.9833 60.4591 36.0389 60.5349 36.0768C60.6108 36.1147 60.6947 36.1339 60.7795 36.1326C61.0846 36.1326 61.2372 36.0085 61.2372 35.7623V21.8596H62.7238L62.7303 35.6577Z" fill="#002E6D"/>
<path d="M77.1601 22.7242H67.2663C66.3945 22.8099 65.9549 23.1157 65.9476 23.6415V28.9794H75.3619V29.8139H65.9476V36.9646H64.5024V23.6524C64.5031 23.3813 64.5787 23.1157 64.7211 22.8849C64.8634 22.6542 65.0669 22.4674 65.3089 22.3451C65.9476 21.9956 66.6697 21.8276 67.3971 21.8592H77.1601V22.7242Z" fill="#002E6D"/>
<path d="M79.7216 36.9647H78.2852V21.8594H79.7303L79.7216 36.9647Z" fill="#002E6D"/>
<path d="M97.7305 36.9645H96.2854V29.4543H82.9607V36.9645H81.5177V27.1971C81.495 26.4294 81.6572 25.6675 81.9906 24.9755C82.3241 24.2835 82.819 23.6818 83.4337 23.2209C84.796 22.1446 87.1763 21.6064 89.6765 21.6064C92.1352 21.6064 94.4239 22.1511 95.7993 23.2405C96.4141 23.6978 96.9102 24.2957 97.2463 24.9841C97.5823 25.6725 97.7483 26.4314 97.7305 27.1971V36.9645ZM96.2854 28.622V27.5327C96.2854 24.1643 93.8332 22.4801 89.6765 22.4801C85.5197 22.4801 82.9607 24.1643 82.9607 27.5327V28.622H96.2854Z" fill="#002E6D"/>
<path d="M119.558 36.9542H118.111V22.8794C118.111 22.6615 117.989 22.5417 117.74 22.5417C117.548 22.5417 117.396 22.6637 117.285 22.9099L111.471 35.6251C111.059 36.5329 110.425 36.9869 109.571 36.9869C108.716 36.9869 108.083 36.5329 107.672 35.6251L101.859 22.9034C101.747 22.6572 101.599 22.5352 101.423 22.5352C101.179 22.5352 101.056 22.6463 101.056 22.8729V36.9869H99.6113V22.923C99.6113 22.1299 100.211 21.7334 101.41 21.7334C102.347 21.7334 102.967 22.0704 103.271 22.7443L109.183 35.6883C109.289 35.9214 109.42 36.0369 109.579 36.0369C109.738 36.0369 109.854 35.9236 109.959 35.697L115.894 22.7443C116.211 22.0718 116.848 21.7349 117.806 21.7334C118.981 21.7334 119.569 22.127 119.569 22.9143L119.558 36.9542Z" fill="#009ADE"/>
<path d="M134.459 36.9646H124.691C123.971 36.9882 123.257 36.8133 122.629 36.4592C122.067 36.1215 121.784 35.6922 121.784 35.1715V23.6524H121.801C121.802 23.3817 121.877 23.1163 122.019 22.8856C122.161 22.655 122.364 22.468 122.605 22.3452C123.243 21.9953 123.965 21.8273 124.691 21.8593H134.459V22.7308H124.548C123.676 22.8165 123.24 23.1223 123.24 23.6481V28.9795H132.693V29.814H123.229V35.1802C123.229 35.7097 123.665 36.0147 124.537 36.0997H134.448L134.459 36.9646Z" fill="#009ADE"/>
<path d="M151.938 29.2869C151.938 31.5005 151.169 33.2863 149.632 34.6444C147.898 36.1696 145.381 36.9328 142.081 36.9343H138.496C137.855 36.9413 137.222 36.8004 136.645 36.5225C135.94 36.1841 135.588 35.7236 135.588 35.1412V23.2735H135.612C135.613 23.0031 135.688 22.7382 135.83 22.5077C135.971 22.2772 136.173 22.0899 136.414 21.9663C137.051 21.6187 137.771 21.4514 138.496 21.4826L141.547 21.4717C144.799 21.4717 147.387 22.2589 149.309 23.8335C151.062 25.2743 151.938 27.0921 151.938 29.2869ZM150.412 29.2651C150.433 28.3512 150.247 27.4444 149.87 26.6118C149.493 25.7791 148.933 25.0418 148.232 24.4544C146.609 23.0498 144.357 22.3468 141.475 22.3454H138.347C137.476 22.4303 137.04 22.7354 137.04 23.2626V35.1608C137.04 35.6881 137.476 35.9953 138.347 36.0781H141.985C144.892 36.0781 147.071 35.3859 148.525 34.0017C149.782 32.8121 150.411 31.2332 150.412 29.2651Z" fill="#009ADE"/>
<path d="M152.437 14.7568C152.437 14.7568 150.022 23.0165 158.226 27.5483C158.226 27.5483 160.347 18.2516 152.437 14.7568Z" fill="#8DC6E8"/>
<path d="M154.284 12.7912C154.284 12.7912 156.699 4.53376 148.494 0.00195312C148.494 0.00195312 146.373 9.29652 154.284 12.7912Z" fill="#005DA6"/>
<path d="M167 8.81085C167 8.81085 158.717 6.50137 154.277 14.7588C154.277 14.7588 163.604 16.7611 167 8.81085Z" fill="#009ADE"/>
<path d="M139.706 18.6915C139.706 18.6915 148.017 21.0511 152.448 12.7936C152.448 12.7936 143.102 10.7412 139.706 18.6915Z" fill="#002E6D"/>
</g>
<defs>
<clipPath id="clip0_95_7877">
<rect width="167" height="45" fill="white"/>
</clipPath>
</defs>
</svg>
